<?xml version="1.0" encoding="UTF-8" standalone="no"?><svg xmlns="http://www.w3.org/2000/svg" xmlns:xlink="http://www.w3.org/1999/xlink" contentStyleType="text/css" height="570px" preserveAspectRatio="none" style="width:611px;height:570px;background:#FFFFFF;" version="1.1" viewBox="0 0 611 570" width="611px" zoomAndPan="magnify"><defs/><g><text fill="#000000" font-family="sans-serif" font-size="14" font-weight="bold" lengthAdjust="spacing" textLength="117" x="240" y="25.1074">Low-level Nodes</text><!--cluster meta--><g id="cluster_meta"><path d="M8.5,93.4311 L43.5,93.4311 A3.75,3.75 0 0 1 46,95.9311 L53,118.0522 L171.5,118.0522 A2.5,2.5 0 0 1 174,120.5522 L174,560.9311 A2.5,2.5 0 0 1 171.5,563.4311 L8.5,563.4311 A2.5,2.5 0 0 1 6,560.9311 L6,95.9311 A2.5,2.5 0 0 1 8.5,93.4311 " fill="none" style="stroke:#000000;stroke-width:1.5;"/><line style="stroke:#000000;stroke-width:1.5;" x1="6" x2="53" y1="118.0522" y2="118.0522"/><text fill="#000000" font-family="sans-serif" font-size="14" font-weight="bold" lengthAdjust="spacing" textLength="34" x="10" y="110.5385">meta</text></g><!--class Concept--><g id="elem_Concept"><rect codeLine="6" fill="#F1F1F1" height="32" id="Concept" rx="2.5" ry="2.5" style="stroke:#181818;stroke-width:0.5;" width="85" x="60.5" y="138.4311"/><ellipse cx="75.5" cy="154.4311" fill="#ADD1B2" rx="11" ry="11" style="stroke:#181818;stroke-width:1.0;"/><path d="M78.2656,150.3061 Q78.4219,150.0873 78.6094,149.978 Q78.7969,149.8686 79.0156,149.8686 Q79.3906,149.8686 79.625,150.1342 Q79.8594,150.3842 79.8594,150.9936 L79.8594,152.4467 Q79.8594,153.0561 79.625,153.3217 Q79.3906,153.5873 79.0156,153.5873 Q78.6719,153.5873 78.4688,153.3842 Q78.2656,153.1967 78.1563,152.6811 Q78.1094,152.3217 77.9219,152.1342 Q77.5938,151.7592 76.9844,151.5405 Q76.375,151.3217 75.75,151.3217 Q74.9844,151.3217 74.3438,151.6498 Q73.7188,151.978 73.2188,152.728 Q72.7344,153.478 72.7344,154.5092 L72.7344,155.603 Q72.7344,156.8373 73.625,157.6655 Q74.5156,158.478 76.1094,158.478 Q77.0469,158.478 77.7031,158.228 Q78.0938,158.0717 78.5156,157.6342 Q78.7813,157.3686 78.9219,157.2905 Q79.0781,157.2123 79.2813,157.2123 Q79.6094,157.2123 79.8594,157.478 Q80.125,157.728 80.125,158.0717 Q80.125,158.4155 79.7813,158.8217 Q79.2813,159.3998 78.4844,159.728 Q77.4063,160.1811 76.1094,160.1811 Q74.5938,160.1811 73.3906,159.5561 Q72.4063,159.0561 71.7188,157.9936 Q71.0313,156.9155 71.0313,155.6342 L71.0313,154.478 Q71.0313,153.1498 71.6406,152.0092 Q72.2656,150.853 73.3594,150.2436 Q74.4531,149.6186 75.6875,149.6186 Q76.4219,149.6186 77.0625,149.7905 Q77.7188,149.9467 78.2656,150.3061 Z " fill="#000000"/><text fill="#000000" font-family="sans-serif" font-size="14" lengthAdjust="spacing" textLength="53" x="89.5" y="160.228">Concept</text></g><!--class Containment--><g id="elem_Containment"><rect codeLine="8" fill="#F1F1F1" height="32" id="Containment" rx="2.5" ry="2.5" style="stroke:#181818;stroke-width:0.5;" width="112" x="38" y="262.9311"/><ellipse cx="53" cy="278.9311" fill="#ADD1B2" rx="11" ry="11" style="stroke:#181818;stroke-width:1.0;"/><path d="M55.7656,274.8061 Q55.9219,274.5873 56.1094,274.478 Q56.2969,274.3686 56.5156,274.3686 Q56.8906,274.3686 57.125,274.6342 Q57.3594,274.8842 57.3594,275.4936 L57.3594,276.9467 Q57.3594,277.5561 57.125,277.8217 Q56.8906,278.0873 56.5156,278.0873 Q56.1719,278.0873 55.9688,277.8842 Q55.7656,277.6967 55.6563,277.1811 Q55.6094,276.8217 55.4219,276.6342 Q55.0938,276.2592 54.4844,276.0405 Q53.875,275.8217 53.25,275.8217 Q52.4844,275.8217 51.8438,276.1498 Q51.2188,276.478 50.7188,277.228 Q50.2344,277.978 50.2344,279.0092 L50.2344,280.103 Q50.2344,281.3373 51.125,282.1655 Q52.0156,282.978 53.6094,282.978 Q54.5469,282.978 55.2031,282.728 Q55.5938,282.5717 56.0156,282.1342 Q56.2813,281.8686 56.4219,281.7905 Q56.5781,281.7123 56.7813,281.7123 Q57.1094,281.7123 57.3594,281.978 Q57.625,282.228 57.625,282.5717 Q57.625,282.9155 57.2813,283.3217 Q56.7813,283.8998 55.9844,284.228 Q54.9063,284.6811 53.6094,284.6811 Q52.0938,284.6811 50.8906,284.0561 Q49.9063,283.5561 49.2188,282.4936 Q48.5313,281.4155 48.5313,280.1342 L48.5313,278.978 Q48.5313,277.6498 49.1406,276.5092 Q49.7656,275.353 50.8594,274.7436 Q51.9531,274.1186 53.1875,274.1186 Q53.9219,274.1186 54.5625,274.2905 Q55.2188,274.4467 55.7656,274.8061 Z " fill="#000000"/><text fill="#000000" font-family="sans-serif" font-size="14" lengthAdjust="spacing" textLength="80" x="67" y="284.728">Containment</text></g><!--class Reference--><g id="elem_Reference"><rect codeLine="10" fill="#F1F1F1" height="32" id="Reference" rx="2.5" ry="2.5" style="stroke:#181818;stroke-width:0.5;" width="98" x="52" y="387.4311"/><ellipse cx="67" cy="403.4311" fill="#ADD1B2" rx="11" ry="11" style="stroke:#181818;stroke-width:1.0;"/><path d="M69.7656,399.3061 Q69.9219,399.0873 70.1094,398.978 Q70.2969,398.8686 70.5156,398.8686 Q70.8906,398.8686 71.125,399.1342 Q71.3594,399.3842 71.3594,399.9936 L71.3594,401.4467 Q71.3594,402.0561 71.125,402.3217 Q70.8906,402.5873 70.5156,402.5873 Q70.1719,402.5873 69.9688,402.3842 Q69.7656,402.1967 69.6563,401.6811 Q69.6094,401.3217 69.4219,401.1342 Q69.0938,400.7592 68.4844,400.5405 Q67.875,400.3217 67.25,400.3217 Q66.4844,400.3217 65.8438,400.6498 Q65.2188,400.978 64.7188,401.728 Q64.2344,402.478 64.2344,403.5092 L64.2344,404.603 Q64.2344,405.8373 65.125,406.6655 Q66.0156,407.478 67.6094,407.478 Q68.5469,407.478 69.2031,407.228 Q69.5938,407.0717 70.0156,406.6342 Q70.2813,406.3686 70.4219,406.2905 Q70.5781,406.2123 70.7813,406.2123 Q71.1094,406.2123 71.3594,406.478 Q71.625,406.728 71.625,407.0717 Q71.625,407.4155 71.2813,407.8217 Q70.7813,408.3998 69.9844,408.728 Q68.9063,409.1811 67.6094,409.1811 Q66.0938,409.1811 64.8906,408.5561 Q63.9063,408.0561 63.2188,406.9936 Q62.5313,405.9155 62.5313,404.6342 L62.5313,403.478 Q62.5313,402.1498 63.1406,401.0092 Q63.7656,399.853 64.8594,399.2436 Q65.9531,398.6186 67.1875,398.6186 Q67.9219,398.6186 68.5625,398.7905 Q69.2188,398.9467 69.7656,399.3061 Z " fill="#000000"/><text fill="#000000" font-family="sans-serif" font-size="14" lengthAdjust="spacing" textLength="66" x="81" y="409.228">Reference</text></g><!--class Property--><g id="elem_Property"><rect codeLine="12" fill="#F1F1F1" height="32" id="Property" rx="2.5" ry="2.5" style="stroke:#181818;stroke-width:0.5;" width="86" x="61" y="507.4311"/><ellipse cx="76" cy="523.4311" fill="#ADD1B2" rx="11" ry="11" style="stroke:#181818;stroke-width:1.0;"/><path d="M78.7656,519.3061 Q78.9219,519.0873 79.1094,518.978 Q79.2969,518.8686 79.5156,518.8686 Q79.8906,518.8686 80.125,519.1342 Q80.3594,519.3842 80.3594,519.9936 L80.3594,521.4467 Q80.3594,522.0561 80.125,522.3217 Q79.8906,522.5873 79.5156,522.5873 Q79.1719,522.5873 78.9688,522.3842 Q78.7656,522.1967 78.6563,521.6811 Q78.6094,521.3217 78.4219,521.1342 Q78.0938,520.7592 77.4844,520.5405 Q76.875,520.3217 76.25,520.3217 Q75.4844,520.3217 74.8438,520.6498 Q74.2188,520.978 73.7188,521.728 Q73.2344,522.478 73.2344,523.5092 L73.2344,524.603 Q73.2344,525.8373 74.125,526.6655 Q75.0156,527.478 76.6094,527.478 Q77.5469,527.478 78.2031,527.228 Q78.5938,527.0717 79.0156,526.6342 Q79.2813,526.3686 79.4219,526.2905 Q79.5781,526.2123 79.7813,526.2123 Q80.1094,526.2123 80.3594,526.478 Q80.625,526.728 80.625,527.0717 Q80.625,527.4155 80.2813,527.8217 Q79.7813,528.3998 78.9844,528.728 Q77.9063,529.1811 76.6094,529.1811 Q75.0938,529.1811 73.8906,528.5561 Q72.9063,528.0561 72.2188,526.9936 Q71.5313,525.9155 71.5313,524.6342 L71.5313,523.478 Q71.5313,522.1498 72.1406,521.0092 Q72.7656,519.853 73.8594,519.2436 Q74.9531,518.6186 76.1875,518.6186 Q76.9219,518.6186 77.5625,518.7905 Q78.2188,518.9467 78.7656,519.3061 Z " fill="#000000"/><text fill="#000000" font-family="sans-serif" font-size="14" lengthAdjust="spacing" textLength="54" x="90" y="529.228">Property</text></g><!--class Node--><g id="elem_Node"><rect codeLine="19" fill="#90EE90" height="58.6211" id="Node" rx="2.5" ry="2.5" style="stroke:#181818;stroke-width:0.5;" width="65" x="331.5" y="124.9311"/><ellipse cx="346.5" cy="140.9311" fill="#ADD1B2" rx="11" ry="11" style="stroke:#181818;stroke-width:1.0;"/><path d="M349.2656,136.8061 Q349.4219,136.5873 349.6094,136.478 Q349.7969,136.3686 350.0156,136.3686 Q350.3906,136.3686 350.625,136.6342 Q350.8594,136.8842 350.8594,137.4936 L350.8594,138.9467 Q350.8594,139.5561 350.625,139.8217 Q350.3906,140.0873 350.0156,140.0873 Q349.6719,140.0873 349.4688,139.8842 Q349.2656,139.6967 349.1563,139.1811 Q349.1094,138.8217 348.9219,138.6342 Q348.5938,138.2592 347.9844,138.0405 Q347.375,137.8217 346.75,137.8217 Q345.9844,137.8217 345.3438,138.1498 Q344.7188,138.478 344.2188,139.228 Q343.7344,139.978 343.7344,141.0092 L343.7344,142.103 Q343.7344,143.3373 344.625,144.1655 Q345.5156,144.978 347.1094,144.978 Q348.0469,144.978 348.7031,144.728 Q349.0938,144.5717 349.5156,144.1342 Q349.7813,143.8686 349.9219,143.7905 Q350.0781,143.7123 350.2813,143.7123 Q350.6094,143.7123 350.8594,143.978 Q351.125,144.228 351.125,144.5717 Q351.125,144.9155 350.7813,145.3217 Q350.2813,145.8998 349.4844,146.228 Q348.4063,146.6811 347.1094,146.6811 Q345.5938,146.6811 344.3906,146.0561 Q343.4063,145.5561 342.7188,144.4936 Q342.0313,143.4155 342.0313,142.1342 L342.0313,140.978 Q342.0313,139.6498 342.6406,138.5092 Q343.2656,137.353 344.3594,136.7436 Q345.4531,136.1186 346.6875,136.1186 Q347.4219,136.1186 348.0625,136.2905 Q348.7188,136.4467 349.2656,136.8061 Z " fill="#000000"/><text fill="#000000" font-family="sans-serif" font-size="14" lengthAdjust="spacing" textLength="33" x="360.5" y="146.728">Node</text><line style="stroke:#181818;stroke-width:0.5;" x1="332.5" x2="395.5" y1="156.9311" y2="156.9311"/><text fill="#000000" font-family="sans-serif" font-size="14" lengthAdjust="spacing" textLength="30" x="337.5" y="176.0385">id: Id</text></g><!--class ChildTarget--><g id="elem_ChildTarget"><rect codeLine="30" fill="#ADD8E6" height="32" id="ChildTarget" rx="2.5" ry="2.5" style="stroke:#181818;stroke-width:0.5;" width="106" x="258" y="262.9311"/><ellipse cx="273" cy="278.9311" fill="#ADD1B2" rx="11" ry="11" style="stroke:#181818;stroke-width:1.0;"/><path d="M275.7656,274.8061 Q275.9219,274.5873 276.1094,274.478 Q276.2969,274.3686 276.5156,274.3686 Q276.8906,274.3686 277.125,274.6342 Q277.3594,274.8842 277.3594,275.4936 L277.3594,276.9467 Q277.3594,277.5561 277.125,277.8217 Q276.8906,278.0873 276.5156,278.0873 Q276.1719,278.0873 275.9688,277.8842 Q275.7656,277.6967 275.6563,277.1811 Q275.6094,276.8217 275.4219,276.6342 Q275.0938,276.2592 274.4844,276.0405 Q273.875,275.8217 273.25,275.8217 Q272.4844,275.8217 271.8438,276.1498 Q271.2188,276.478 270.7188,277.228 Q270.2344,277.978 270.2344,279.0092 L270.2344,280.103 Q270.2344,281.3373 271.125,282.1655 Q272.0156,282.978 273.6094,282.978 Q274.5469,282.978 275.2031,282.728 Q275.5938,282.5717 276.0156,282.1342 Q276.2813,281.8686 276.4219,281.7905 Q276.5781,281.7123 276.7813,281.7123 Q277.1094,281.7123 277.3594,281.978 Q277.625,282.228 277.625,282.5717 Q277.625,282.9155 277.2813,283.3217 Q276.7813,283.8998 275.9844,284.228 Q274.9063,284.6811 273.6094,284.6811 Q272.0938,284.6811 270.8906,284.0561 Q269.9063,283.5561 269.2188,282.4936 Q268.5313,281.4155 268.5313,280.1342 L268.5313,278.978 Q268.5313,277.6498 269.1406,276.5092 Q269.7656,275.353 270.8594,274.7436 Q271.9531,274.1186 273.1875,274.1186 Q273.9219,274.1186 274.5625,274.2905 Q275.2188,274.4467 275.7656,274.8061 Z " fill="#000000"/><text fill="#000000" font-family="sans-serif" font-size="14" lengthAdjust="spacing" textLength="74" x="287" y="284.728">ChildTarget</text></g><!--class ReferenceTarget--><g id="elem_ReferenceTarget"><rect codeLine="42" fill="#87CEFA" height="58.6211" id="ReferenceTarget" rx="2.5" ry="2.5" style="stroke:#181818;stroke-width:0.5;" width="140" x="364" y="373.9311"/><ellipse cx="379" cy="389.9311" fill="#ADD1B2" rx="11" ry="11" style="stroke:#181818;stroke-width:1.0;"/><path d="M381.7656,385.8061 Q381.9219,385.5873 382.1094,385.478 Q382.2969,385.3686 382.5156,385.3686 Q382.8906,385.3686 383.125,385.6342 Q383.3594,385.8842 383.3594,386.4936 L383.3594,387.9467 Q383.3594,388.5561 383.125,388.8217 Q382.8906,389.0873 382.5156,389.0873 Q382.1719,389.0873 381.9688,388.8842 Q381.7656,388.6967 381.6563,388.1811 Q381.6094,387.8217 381.4219,387.6342 Q381.0938,387.2592 380.4844,387.0405 Q379.875,386.8217 379.25,386.8217 Q378.4844,386.8217 377.8438,387.1498 Q377.2188,387.478 376.7188,388.228 Q376.2344,388.978 376.2344,390.0092 L376.2344,391.103 Q376.2344,392.3373 377.125,393.1655 Q378.0156,393.978 379.6094,393.978 Q380.5469,393.978 381.2031,393.728 Q381.5938,393.5717 382.0156,393.1342 Q382.2813,392.8686 382.4219,392.7905 Q382.5781,392.7123 382.7813,392.7123 Q383.1094,392.7123 383.3594,392.978 Q383.625,393.228 383.625,393.5717 Q383.625,393.9155 383.2813,394.3217 Q382.7813,394.8998 381.9844,395.228 Q380.9063,395.6811 379.6094,395.6811 Q378.0938,395.6811 376.8906,395.0561 Q375.9063,394.5561 375.2188,393.4936 Q374.5313,392.4155 374.5313,391.1342 L374.5313,389.978 Q374.5313,388.6498 375.1406,387.5092 Q375.7656,386.353 376.8594,385.7436 Q377.9531,385.1186 379.1875,385.1186 Q379.9219,385.1186 380.5625,385.2905 Q381.2188,385.4467 381.7656,385.8061 Z " fill="#000000"/><text fill="#000000" font-family="sans-serif" font-size="14" lengthAdjust="spacing" textLength="108" x="393" y="395.728">ReferenceTarget</text><line style="stroke:#181818;stroke-width:0.5;" x1="365" x2="503" y1="405.9311" y2="405.9311"/><text fill="#000000" font-family="sans-serif" font-size="14" lengthAdjust="spacing" textLength="114" x="370" y="425.0385">resolveInfo: String</text></g><!--class PropertyValue--><g id="elem_PropertyValue"><rect codeLine="52" fill="#FFB6C1" height="58.6211" id="PropertyValue" rx="2.5" ry="2.5" style="stroke:#181818;stroke-width:0.5;" width="122" x="412" y="493.9311"/><ellipse cx="427" cy="509.9311" fill="#ADD1B2" rx="11" ry="11" style="stroke:#181818;stroke-width:1.0;"/><path d="M429.7656,505.8061 Q429.9219,505.5873 430.1094,505.478 Q430.2969,505.3686 430.5156,505.3686 Q430.8906,505.3686 431.125,505.6342 Q431.3594,505.8842 431.3594,506.4936 L431.3594,507.9467 Q431.3594,508.5561 431.125,508.8217 Q430.8906,509.0873 430.5156,509.0873 Q430.1719,509.0873 429.9688,508.8842 Q429.7656,508.6967 429.6563,508.1811 Q429.6094,507.8217 429.4219,507.6342 Q429.0938,507.2592 428.4844,507.0405 Q427.875,506.8217 427.25,506.8217 Q426.4844,506.8217 425.8438,507.1498 Q425.2188,507.478 424.7188,508.228 Q424.2344,508.978 424.2344,510.0092 L424.2344,511.103 Q424.2344,512.3373 425.125,513.1655 Q426.0156,513.978 427.6094,513.978 Q428.5469,513.978 429.2031,513.728 Q429.5938,513.5717 430.0156,513.1342 Q430.2813,512.8686 430.4219,512.7905 Q430.5781,512.7123 430.7813,512.7123 Q431.1094,512.7123 431.3594,512.978 Q431.625,513.228 431.625,513.5717 Q431.625,513.9155 431.2813,514.3217 Q430.7813,514.8998 429.9844,515.228 Q428.9063,515.6811 427.6094,515.6811 Q426.0938,515.6811 424.8906,515.0561 Q423.9063,514.5561 423.2188,513.4936 Q422.5313,512.4155 422.5313,511.1342 L422.5313,509.978 Q422.5313,508.6498 423.1406,507.5092 Q423.7656,506.353 424.8594,505.7436 Q425.9531,505.1186 427.1875,505.1186 Q427.9219,505.1186 428.5625,505.2905 Q429.2188,505.4467 429.7656,505.8061 Z " fill="#000000"/><text fill="#000000" font-family="sans-serif" font-size="14" lengthAdjust="spacing" textLength="90" x="441" y="515.728">PropertyValue</text><line style="stroke:#181818;stroke-width:0.5;" x1="413" x2="533" y1="525.9311" y2="525.9311"/><text fill="#000000" font-family="sans-serif" font-size="14" lengthAdjust="spacing" textLength="79" x="418" y="545.0385">value: String</text></g><!--link Concept to Containment--><!--link Containment to Reference--><!--link Reference to Property--><!--link meta to Node--><!--link Node to Node--><g id="link_Node_Node"><path codeLine="23" d="M396.64,142.2911 C414.79,140.0211 431.5,144.0711 431.5,154.4311 C431.5,163.8211 417.78,168.0211 401.7,167.0411 " fill="none" id="Node-to-Node" style="stroke:#181818;stroke-width:1.0;"/><polygon fill="#181818" points="396.64,166.5711,405.2372,171.3762,401.6191,167.0276,405.9676,163.4096,396.64,166.5711" style="stroke:#181818;stroke-width:1.0;"/><text fill="#000000" font-family="sans-serif" font-size="13" lengthAdjust="spacing" textLength="36" x="437.5" y="159.9594">parent</text><text fill="#000000" font-family="sans-serif" font-size="13" lengthAdjust="spacing" textLength="22" x="404.4134" y="164.3075">0..1</text></g><!--reverse link Concept to Node--><g id="link_Concept_Node"><path codeLine="24" d="M150.81,154.4311 C203.24,154.4311 285.97,154.4311 331.41,154.4311 " fill="none" id="Concept-backto-Node" style="stroke:#181818;stroke-width:1.0;"/><polygon fill="#181818" points="145.52,154.4311,154.52,158.4311,150.52,154.4311,154.52,150.4311,145.52,154.4311" style="stroke:#181818;stroke-width:1.0;"/><text fill="#000000" font-family="sans-serif" font-size="13" lengthAdjust="spacing" textLength="46" x="215.5" y="147.4594">concept</text><text fill="#000000" font-family="sans-serif" font-size="13" lengthAdjust="spacing" textLength="7" x="153.4297" y="150.0235">1</text></g><!--link Node to ChildTarget--><g id="link_Node_ChildTarget"><path codeLine="28" d="M346.808,195.1658 C346.808,195.1658 329.73,234.6311 322.82,250.6011 " fill="none" id="Node-ChildTarget" style="stroke:#181818;stroke-width:1.0;"/><polygon fill="#181818" points="351.57,184.1511,345.5174,188.0711,346.808,195.1658,352.8605,191.2458,351.57,184.1511" style="stroke:#181818;stroke-width:1.0;"/><polygon fill="#181818" points="317.54,262.8011,324.7831,256.1274,319.5242,258.2116,317.44,252.9527,317.54,262.8011" style="stroke:#181818;stroke-width:1.0;"/><line style="stroke:#181818;stroke-width:1.0;" x1="319.5242" x2="322.705" y1="258.2116" y2="250.8761"/><text fill="#000000" font-family="sans-serif" font-size="13" lengthAdjust="spacing" textLength="45" x="338" y="228.9594">children</text><text fill="#000000" font-family="sans-serif" font-size="13" lengthAdjust="spacing" textLength="20" x="296.3939" y="251.7189">0..*</text></g><!--link ChildTarget to Node--><g id="link_ChildTarget_Node"><path codeLine="34" d="M298.77,262.8011 C289.67,249.5811 280.07,230.0311 288,213.9311 C296.26,197.1411 311.92,183.8211 326.88,174.1611 " fill="none" id="ChildTarget-to-Node" style="stroke:#181818;stroke-width:1.0;"/><polygon fill="#181818" points="331.49,171.2811,321.7393,172.6679,327.2524,173.9349,325.9854,179.4481,331.49,171.2811" style="stroke:#181818;stroke-width:1.0;"/><text fill="#000000" font-family="sans-serif" font-size="13" lengthAdjust="spacing" textLength="33" x="289" y="228.9594">target</text><text fill="#000000" font-family="sans-serif" font-size="13" lengthAdjust="spacing" textLength="7" x="316.6128" y="170.2092">1</text></g><!--reverse link Containment to ChildTarget--><g id="link_Containment_ChildTarget"><path codeLine="35" d="M155.28,278.9311 C187.53,278.9311 226.7,278.9311 257.69,278.9311 " fill="none" id="Containment-backto-ChildTarget" style="stroke:#181818;stroke-width:1.0;"/><polygon fill="#181818" points="150.17,278.9311,159.17,282.9311,155.17,278.9311,159.17,274.9311,150.17,278.9311" style="stroke:#181818;stroke-width:1.0;"/><text fill="#000000" font-family="sans-serif" font-size="13" lengthAdjust="spacing" textLength="71" x="168.5" y="271.9594">containment</text><text fill="#000000" font-family="sans-serif" font-size="13" lengthAdjust="spacing" textLength="7" x="157.8152" y="274.889">1</text></g><!--link Node to ReferenceTarget--><g id="link_Node_ReferenceTarget"><path codeLine="40" d="M384.3646,194.9153 C384.3646,194.9153 389.95,207.9911 392,213.9311 C409.01,263.1411 420.84,322.0211 427.51,360.7311 " fill="none" id="Node-ReferenceTarget" style="stroke:#181818;stroke-width:1.0;"/><polygon fill="#181818" points="379.29,184.0411,378.2026,191.1697,384.3646,194.9153,385.452,187.7867,379.29,184.0411" style="stroke:#181818;stroke-width:1.0;"/><polygon fill="#181818" points="429.7,373.7711,432.1625,364.2351,428.8762,368.8394,424.2719,365.5531,429.7,373.7711" style="stroke:#181818;stroke-width:1.0;"/><line style="stroke:#181818;stroke-width:1.0;" x1="428.8762" x2="427.55" y1="368.8394" y2="360.9511"/><text fill="#000000" font-family="sans-serif" font-size="13" lengthAdjust="spacing" textLength="60" x="415" y="284.4594">references</text><text fill="#000000" font-family="sans-serif" font-size="13" lengthAdjust="spacing" textLength="20" x="406.5719" y="362.5252">0..*</text></g><!--link ReferenceTarget to Node--><g id="link_ReferenceTarget_Node"><path codeLine="46" d="M457.09,373.8811 C477.21,345.3311 500.74,300.4011 484,262.9311 C467.16,225.2411 429.85,195.2711 401.27,176.6511 " fill="none" id="ReferenceTarget-to-Node" style="stroke:#181818;stroke-width:1.0;"/><polygon fill="#181818" points="396.76,173.7611,402.1803,181.9843,400.9701,176.4584,406.4959,175.2482,396.76,173.7611" style="stroke:#181818;stroke-width:1.0;"/><text fill="#000000" font-family="sans-serif" font-size="13" lengthAdjust="spacing" textLength="33" x="490" y="284.4594">target</text><text fill="#000000" font-family="sans-serif" font-size="13" lengthAdjust="spacing" textLength="7" x="404.6919" y="193.9505">1</text></g><!--reverse link Reference to ReferenceTarget--><g id="link_Reference_ReferenceTarget"><path codeLine="47" d="M155.19,403.4311 C212.01,403.4311 301.52,403.4311 363.74,403.4311 " fill="none" id="Reference-backto-ReferenceTarget" style="stroke:#181818;stroke-width:1.0;"/><polygon fill="#181818" points="150.14,403.4311,159.14,407.4311,155.14,403.4311,159.14,399.4311,150.14,403.4311" style="stroke:#181818;stroke-width:1.0;"/><text fill="#000000" font-family="sans-serif" font-size="13" lengthAdjust="spacing" textLength="53" x="230.5" y="396.4594">reference</text><text fill="#000000" font-family="sans-serif" font-size="13" lengthAdjust="spacing" textLength="7" x="157.8715" y="399.2323">1</text></g><!--link Node to PropertyValue--><g id="link_Node_PropertyValue"><path codeLine="51" d="M408.1389,167.9416 C408.1389,167.9416 510.73,212.3011 532,262.9311 C544.06,291.6211 559.76,304.8111 522,432.9311 C516.98,449.9611 508.38,467.3711 499.78,482.2511 " fill="none" id="Node-PropertyValue" style="stroke:#181818;stroke-width:1.0;"/><polygon fill="#181818" points="396.76,164.1311,401.1793,169.8293,408.1389,167.9416,403.7196,162.2434,396.76,164.1311" style="stroke:#181818;stroke-width:1.0;"/><polygon fill="#181818" points="492.94,493.5911,501.0143,487.9514,495.523,489.3099,494.1644,483.8186,492.94,493.5911" style="stroke:#181818;stroke-width:1.0;"/><line style="stroke:#181818;stroke-width:1.0;" x1="495.523" x2="499.655" y1="489.3099" y2="482.4611"/><text fill="#000000" font-family="sans-serif" font-size="13" lengthAdjust="spacing" textLength="57" x="546" y="339.9594">properties</text><text fill="#000000" font-family="sans-serif" font-size="13" lengthAdjust="spacing" textLength="20" x="474.9901" y="482.7809">0..*</text></g><!--reverse link Property to PropertyValue--><g id="link_Property_PropertyValue"><path codeLine="56" d="M152.15,523.4311 C218.75,523.4311 339.01,523.4311 411.87,523.4311 " fill="none" id="Property-backto-PropertyValue" style="stroke:#181818;stroke-width:1.0;"/><polygon fill="#181818" points="147.05,523.4311,156.05,527.4311,152.05,523.4311,156.05,519.4311,147.05,523.4311" style="stroke:#181818;stroke-width:1.0;"/><text fill="#000000" font-family="sans-serif" font-size="13" lengthAdjust="spacing" textLength="47" x="256" y="516.4594">property</text><text fill="#000000" font-family="sans-serif" font-size="13" lengthAdjust="spacing" textLength="7" x="155.0508" y="519.0235">1</text></g><!--SRC=[TLAnQiCm4Dtr5S8T0W67TWqbGpEKG2cXALrA1zM-E2AoR6GrnPJ-Uq_oMPQ2wyNok_VExzt9Igk0FpNVkO8BAFxSbD0nTf8bSAXRs_CQwaymYBMYE8iA4B22_p2EJw54r_5jemjehKVepFDtR562_iWt3hD2wXgqJLK96dqdwXSuWW7i6cbJB7mbkhrfMZ2sZsG1-cNCfmZyZG_Es69u3NHtvZTALYVxQ03qa5cMQxuhNGjVnpzbjwlLNURfQzuAunADSyYmS9zJhQ11iSNs95M9H6gopAdDCkE-z2fC1HOLWKT3cuhax45z0Mx3-OcBlc4mPJt8uX6JiVHlqKhGP9XhDsCp54UnYTXNMqeC7yuzUNRJDD0rwW8xVMpM_62Dr9MBSYsTZJFjdSByxmdJqFBbR9hnPhm9j8PBdBZfpV5r2hAN-amfBeDiyZ_oHsVp_Nls1m00]--></g></svg>