<?xml version="1.0" encoding="us-ascii" standalone="no"?><svg xmlns="http://www.w3.org/2000/svg" xmlns:xlink="http://www.w3.org/1999/xlink" contentStyleType="text/css" height="868px" preserveAspectRatio="none" style="width:1107px;height:868px;background:#FFFFFF;" version="1.1" viewBox="0 0 1107 868" width="1107px" zoomAndPan="magnify"><defs/><g><!--class Concept--><g id="elem_Concept"><rect codeLine="3" fill="#90EE90" height="58.6211" id="Concept" rx="2.5" ry="2.5" style="stroke:#181818;stroke-width:0.5;" width="123" x="213.5" y="591"/><ellipse cx="245.6" cy="607" fill="#ADD1B2" rx="11" ry="11" style="stroke:#181818;stroke-width:1.0;"/><path d="M248.3656,602.875 Q248.5219,602.6563 248.7094,602.5469 Q248.8969,602.4375 249.1156,602.4375 Q249.4906,602.4375 249.725,602.7031 Q249.9594,602.9531 249.9594,603.5625 L249.9594,605.0156 Q249.9594,605.625 249.725,605.8906 Q249.4906,606.1563 249.1156,606.1563 Q248.7719,606.1563 248.5688,605.9531 Q248.3656,605.7656 248.2563,605.25 Q248.2094,604.8906 248.0219,604.7031 Q247.6938,604.3281 247.0844,604.1094 Q246.475,603.8906 245.85,603.8906 Q245.0844,603.8906 244.4438,604.2188 Q243.8188,604.5469 243.3188,605.2969 Q242.8344,606.0469 242.8344,607.0781 L242.8344,608.1719 Q242.8344,609.4063 243.725,610.2344 Q244.6156,611.0469 246.2094,611.0469 Q247.1469,611.0469 247.8031,610.7969 Q248.1938,610.6406 248.6156,610.2031 Q248.8813,609.9375 249.0219,609.8594 Q249.1781,609.7813 249.3813,609.7813 Q249.7094,609.7813 249.9594,610.0469 Q250.225,610.2969 250.225,610.6406 Q250.225,610.9844 249.8813,611.3906 Q249.3813,611.9688 248.5844,612.2969 Q247.5063,612.75 246.2094,612.75 Q244.6938,612.75 243.4906,612.125 Q242.5063,611.625 241.8188,610.5625 Q241.1313,609.4844 241.1313,608.2031 L241.1313,607.0469 Q241.1313,605.7188 241.7406,604.5781 Q242.3656,603.4219 243.4594,602.8125 Q244.5531,602.1875 245.7875,602.1875 Q246.5219,602.1875 247.1625,602.3594 Q247.8188,602.5156 248.3656,602.875 Z " fill="#000000"/><text fill="#000000" font-family="sans-serif" font-size="14" lengthAdjust="spacing" textLength="53" x="263.4" y="612.7969">Concept</text><line style="stroke:#181818;stroke-width:0.5;" x1="214.5" x2="335.5" y1="623" y2="623"/><text fill="#000000" font-family="sans-serif" font-size="14" lengthAdjust="spacing" textLength="111" x="219.5" y="642.1074">abstract: Boolean</text></g><!--class FeaturesContainer--><g id="elem_FeaturesContainer"><rect codeLine="21" fill="#90EE90" height="58.6211" id="FeaturesContainer" rx="2.5" ry="2.5" style="stroke:#181818;stroke-width:0.5;" width="189" x="313.5" y="452.5"/><ellipse cx="345.6" cy="468.5" fill="#A9DCDF" rx="11" ry="11" style="stroke:#181818;stroke-width:1.0;"/><path d="M347.7875,470.2656 L343.6469,470.2656 L343.225,471.2969 L343.6469,471.2969 Q344.2563,471.2969 344.5219,471.5313 Q344.7875,471.7656 344.7875,472.1563 Q344.7875,472.5313 344.5219,472.7656 Q344.2563,473 343.6469,473 L341.35,473 Q340.7406,473 340.4906,472.7656 Q340.225,472.5313 340.225,472.1406 Q340.225,471.7656 340.5063,471.5313 Q340.7719,471.2813 341.3969,471.2969 L344.0688,464.6406 L342.9594,464.6406 Q342.35,464.6406 342.0844,464.4063 Q341.8188,464.1719 341.8188,463.7813 Q341.8188,463.4063 342.0844,463.1719 Q342.35,462.9375 342.9594,462.9375 L346.6313,462.9375 L350.0219,471.2969 Q350.6156,471.2969 350.8031,471.4375 Q351.1938,471.7031 351.1938,472.1563 Q351.1938,472.5313 350.9281,472.7656 Q350.6781,473 350.0688,473 L347.7719,473 Q347.1625,473 346.8969,472.7656 Q346.6313,472.5313 346.6313,472.1406 Q346.6313,471.7656 346.8969,471.5313 Q347.1625,471.2969 347.7719,471.2969 L348.1938,471.2969 L347.7875,470.2656 Z M347.0688,468.5625 L345.7094,465.1875 L344.3344,468.5625 L347.0688,468.5625 Z " fill="#000000"/><text fill="#000000" font-family="sans-serif" font-size="14" font-style="italic" lengthAdjust="spacing" textLength="119" x="363.4" y="474.2969">FeaturesContainer</text><line style="stroke:#181818;stroke-width:0.5;" x1="314.5" x2="501.5" y1="484.5" y2="484.5"/><text fill="#000000" font-family="sans-serif" font-size="14" lengthAdjust="spacing" textLength="177" x="319.5" y="503.6074">allFeatures(): List&lt;Feature&gt;</text></g><!--class ConceptInterface--><g id="elem_ConceptInterface"><rect codeLine="7" fill="#90EE90" height="32" id="ConceptInterface" rx="2.5" ry="2.5" style="stroke:#181818;stroke-width:0.5;" width="140" x="301" y="729"/><ellipse cx="316" cy="745" fill="#ADD1B2" rx="11" ry="11" style="stroke:#181818;stroke-width:1.0;"/><path d="M318.7656,740.875 Q318.9219,740.6563 319.1094,740.5469 Q319.2969,740.4375 319.5156,740.4375 Q319.8906,740.4375 320.125,740.7031 Q320.3594,740.9531 320.3594,741.5625 L320.3594,743.0156 Q320.3594,743.625 320.125,743.8906 Q319.8906,744.1563 319.5156,744.1563 Q319.1719,744.1563 318.9688,743.9531 Q318.7656,743.7656 318.6563,743.25 Q318.6094,742.8906 318.4219,742.7031 Q318.0938,742.3281 317.4844,742.1094 Q316.875,741.8906 316.25,741.8906 Q315.4844,741.8906 314.8438,742.2188 Q314.2188,742.5469 313.7188,743.2969 Q313.2344,744.0469 313.2344,745.0781 L313.2344,746.1719 Q313.2344,747.4063 314.125,748.2344 Q315.0156,749.0469 316.6094,749.0469 Q317.5469,749.0469 318.2031,748.7969 Q318.5938,748.6406 319.0156,748.2031 Q319.2813,747.9375 319.4219,747.8594 Q319.5781,747.7813 319.7813,747.7813 Q320.1094,747.7813 320.3594,748.0469 Q320.625,748.2969 320.625,748.6406 Q320.625,748.9844 320.2813,749.3906 Q319.7813,749.9688 318.9844,750.2969 Q317.9063,750.75 316.6094,750.75 Q315.0938,750.75 313.8906,750.125 Q312.9063,749.625 312.2188,748.5625 Q311.5313,747.4844 311.5313,746.2031 L311.5313,745.0469 Q311.5313,743.7188 312.1406,742.5781 Q312.7656,741.4219 313.8594,740.8125 Q314.9531,740.1875 316.1875,740.1875 Q316.9219,740.1875 317.5625,740.3594 Q318.2188,740.5156 318.7656,740.875 Z " fill="#000000"/><text fill="#000000" font-family="sans-serif" font-size="14" lengthAdjust="spacing" textLength="108" x="330" y="750.7969">ConceptInterface</text></g><!--class Containment--><g id="elem_Containment"><rect codeLine="9" fill="#ADD8E6" height="32" id="Containment" rx="2.5" ry="2.5" style="stroke:#181818;stroke-width:0.5;" width="112" x="140" y="466"/><ellipse cx="155" cy="482" fill="#ADD1B2" rx="11" ry="11" style="stroke:#181818;stroke-width:1.0;"/><path d="M157.7656,477.875 Q157.9219,477.6563 158.1094,477.5469 Q158.2969,477.4375 158.5156,477.4375 Q158.8906,477.4375 159.125,477.7031 Q159.3594,477.9531 159.3594,478.5625 L159.3594,480.0156 Q159.3594,480.625 159.125,480.8906 Q158.8906,481.1563 158.5156,481.1563 Q158.1719,481.1563 157.9688,480.9531 Q157.7656,480.7656 157.6563,480.25 Q157.6094,479.8906 157.4219,479.7031 Q157.0938,479.3281 156.4844,479.1094 Q155.875,478.8906 155.25,478.8906 Q154.4844,478.8906 153.8438,479.2188 Q153.2188,479.5469 152.7188,480.2969 Q152.2344,481.0469 152.2344,482.0781 L152.2344,483.1719 Q152.2344,484.4063 153.125,485.2344 Q154.0156,486.0469 155.6094,486.0469 Q156.5469,486.0469 157.2031,485.7969 Q157.5938,485.6406 158.0156,485.2031 Q158.2813,484.9375 158.4219,484.8594 Q158.5781,484.7813 158.7813,484.7813 Q159.1094,484.7813 159.3594,485.0469 Q159.625,485.2969 159.625,485.6406 Q159.625,485.9844 159.2813,486.3906 Q158.7813,486.9688 157.9844,487.2969 Q156.9063,487.75 155.6094,487.75 Q154.0938,487.75 152.8906,487.125 Q151.9063,486.625 151.2188,485.5625 Q150.5313,484.4844 150.5313,483.2031 L150.5313,482.0469 Q150.5313,480.7188 151.1406,479.5781 Q151.7656,478.4219 152.8594,477.8125 Q153.9531,477.1875 155.1875,477.1875 Q155.9219,477.1875 156.5625,477.3594 Q157.2188,477.5156 157.7656,477.875 Z " fill="#000000"/><text fill="#000000" font-family="sans-serif" font-size="14" lengthAdjust="spacing" textLength="80" x="169" y="487.7969">Containment</text></g><!--class Link--><g id="elem_Link"><rect codeLine="25" fill="#ADD8E6" height="58.6211" id="Link" rx="2.5" ry="2.5" style="stroke:#181818;stroke-width:0.5;" width="120" x="66" y="296"/><ellipse cx="108.45" cy="312" fill="#A9DCDF" rx="11" ry="11" style="stroke:#181818;stroke-width:1.0;"/><path d="M110.6375,313.7656 L106.4969,313.7656 L106.075,314.7969 L106.4969,314.7969 Q107.1063,314.7969 107.3719,315.0313 Q107.6375,315.2656 107.6375,315.6563 Q107.6375,316.0313 107.3719,316.2656 Q107.1063,316.5 106.4969,316.5 L104.2,316.5 Q103.5906,316.5 103.3406,316.2656 Q103.075,316.0313 103.075,315.6406 Q103.075,315.2656 103.3563,315.0313 Q103.6219,314.7813 104.2469,314.7969 L106.9188,308.1406 L105.8094,308.1406 Q105.2,308.1406 104.9344,307.9063 Q104.6688,307.6719 104.6688,307.2813 Q104.6688,306.9063 104.9344,306.6719 Q105.2,306.4375 105.8094,306.4375 L109.4813,306.4375 L112.8719,314.7969 Q113.4656,314.7969 113.6531,314.9375 Q114.0438,315.2031 114.0438,315.6563 Q114.0438,316.0313 113.7781,316.2656 Q113.5281,316.5 112.9188,316.5 L110.6219,316.5 Q110.0125,316.5 109.7469,316.2656 Q109.4813,316.0313 109.4813,315.6406 Q109.4813,315.2656 109.7469,315.0313 Q110.0125,314.7969 110.6219,314.7969 L111.0438,314.7969 L110.6375,313.7656 Z M109.9188,312.0625 L108.5594,308.6875 L107.1844,312.0625 L109.9188,312.0625 Z " fill="#000000"/><text fill="#000000" font-family="sans-serif" font-size="14" font-style="italic" lengthAdjust="spacing" textLength="27" x="128.55" y="317.7969">Link</text><line style="stroke:#181818;stroke-width:0.5;" x1="67" x2="185" y1="328" y2="328"/><text fill="#000000" font-family="sans-serif" font-size="14" lengthAdjust="spacing" textLength="108" x="72" y="347.1074">multiple: Boolean</text></g><!--class DataType--><g id="elem_DataType"><rect codeLine="11" fill="#FFB6C1" height="32" id="DataType" rx="2.5" ry="2.5" style="stroke:#181818;stroke-width:0.5;" width="94" x="885" y="309.5"/><ellipse cx="900" cy="325.5" fill="#A9DCDF" rx="11" ry="11" style="stroke:#181818;stroke-width:1.0;"/><path d="M902.1875,327.2656 L898.0469,327.2656 L897.625,328.2969 L898.0469,328.2969 Q898.6563,328.2969 898.9219,328.5313 Q899.1875,328.7656 899.1875,329.1563 Q899.1875,329.5313 898.9219,329.7656 Q898.6563,330 898.0469,330 L895.75,330 Q895.1406,330 894.8906,329.7656 Q894.625,329.5313 894.625,329.1406 Q894.625,328.7656 894.9063,328.5313 Q895.1719,328.2813 895.7969,328.2969 L898.4688,321.6406 L897.3594,321.6406 Q896.75,321.6406 896.4844,321.4063 Q896.2188,321.1719 896.2188,320.7813 Q896.2188,320.4063 896.4844,320.1719 Q896.75,319.9375 897.3594,319.9375 L901.0313,319.9375 L904.4219,328.2969 Q905.0156,328.2969 905.2031,328.4375 Q905.5938,328.7031 905.5938,329.1563 Q905.5938,329.5313 905.3281,329.7656 Q905.0781,330 904.4688,330 L902.1719,330 Q901.5625,330 901.2969,329.7656 Q901.0313,329.5313 901.0313,329.1406 Q901.0313,328.7656 901.2969,328.5313 Q901.5625,328.2969 902.1719,328.2969 L902.5938,328.2969 L902.1875,327.2656 Z M901.4688,325.5625 L900.1094,322.1875 L898.7344,325.5625 L901.4688,325.5625 Z " fill="#000000"/><text fill="#000000" font-family="sans-serif" font-size="14" font-style="italic" lengthAdjust="spacing" textLength="62" x="914" y="331.2969">DataType</text></g><!--class LanguageElement--><g id="elem_LanguageElement"><rect codeLine="35" fill="#F1F1F1" height="32" id="LanguageElement" rx="2.5" ry="2.5" style="stroke:#181818;stroke-width:0.5;" width="147" x="721.5" y="158.5"/><ellipse cx="736.5" cy="174.5" fill="#A9DCDF" rx="11" ry="11" style="stroke:#181818;stroke-width:1.0;"/><path d="M738.6875,176.2656 L734.5469,176.2656 L734.125,177.2969 L734.5469,177.2969 Q735.1563,177.2969 735.4219,177.5313 Q735.6875,177.7656 735.6875,178.1563 Q735.6875,178.5313 735.4219,178.7656 Q735.1563,179 734.5469,179 L732.25,179 Q731.6406,179 731.3906,178.7656 Q731.125,178.5313 731.125,178.1406 Q731.125,177.7656 731.4063,177.5313 Q731.6719,177.2813 732.2969,177.2969 L734.9688,170.6406 L733.8594,170.6406 Q733.25,170.6406 732.9844,170.4063 Q732.7188,170.1719 732.7188,169.7813 Q732.7188,169.4063 732.9844,169.1719 Q733.25,168.9375 733.8594,168.9375 L737.5313,168.9375 L740.9219,177.2969 Q741.5156,177.2969 741.7031,177.4375 Q742.0938,177.7031 742.0938,178.1563 Q742.0938,178.5313 741.8281,178.7656 Q741.5781,179 740.9688,179 L738.6719,179 Q738.0625,179 737.7969,178.7656 Q737.5313,178.5313 737.5313,178.1406 Q737.5313,177.7656 737.7969,177.5313 Q738.0625,177.2969 738.6719,177.2969 L739.0938,177.2969 L738.6875,176.2656 Z M737.9688,174.5625 L736.6094,171.1875 L735.2344,174.5625 L737.9688,174.5625 Z " fill="#000000"/><text fill="#000000" font-family="sans-serif" font-size="14" font-style="italic" lengthAdjust="spacing" textLength="115" x="750.5" y="180.2969">LanguageElement</text></g><!--class Enumeration--><g id="elem_Enumeration"><rect codeLine="13" fill="#FFB6C1" height="32" id="Enumeration" rx="2.5" ry="2.5" style="stroke:#181818;stroke-width:0.5;" width="112" x="988" y="466"/><ellipse cx="1003" cy="482" fill="#ADD1B2" rx="11" ry="11" style="stroke:#181818;stroke-width:1.0;"/><path d="M1005.7656,477.875 Q1005.9219,477.6563 1006.1094,477.5469 Q1006.2969,477.4375 1006.5156,477.4375 Q1006.8906,477.4375 1007.125,477.7031 Q1007.3594,477.9531 1007.3594,478.5625 L1007.3594,480.0156 Q1007.3594,480.625 1007.125,480.8906 Q1006.8906,481.1563 1006.5156,481.1563 Q1006.1719,481.1563 1005.9688,480.9531 Q1005.7656,480.7656 1005.6563,480.25 Q1005.6094,479.8906 1005.4219,479.7031 Q1005.0938,479.3281 1004.4844,479.1094 Q1003.875,478.8906 1003.25,478.8906 Q1002.4844,478.8906 1001.8438,479.2188 Q1001.2188,479.5469 1000.7188,480.2969 Q1000.2344,481.0469 1000.2344,482.0781 L1000.2344,483.1719 Q1000.2344,484.4063 1001.125,485.2344 Q1002.0156,486.0469 1003.6094,486.0469 Q1004.5469,486.0469 1005.2031,485.7969 Q1005.5938,485.6406 1006.0156,485.2031 Q1006.2813,484.9375 1006.4219,484.8594 Q1006.5781,484.7813 1006.7813,484.7813 Q1007.1094,484.7813 1007.3594,485.0469 Q1007.625,485.2969 1007.625,485.6406 Q1007.625,485.9844 1007.2813,486.3906 Q1006.7813,486.9688 1005.9844,487.2969 Q1004.9063,487.75 1003.6094,487.75 Q1002.0938,487.75 1000.8906,487.125 Q999.9063,486.625 999.2188,485.5625 Q998.5313,484.4844 998.5313,483.2031 L998.5313,482.0469 Q998.5313,480.7188 999.1406,479.5781 Q999.7656,478.4219 1000.8594,477.8125 Q1001.9531,477.1875 1003.1875,477.1875 Q1003.9219,477.1875 1004.5625,477.3594 Q1005.2188,477.5156 1005.7656,477.875 Z " fill="#000000"/><text fill="#000000" font-family="sans-serif" font-size="14" lengthAdjust="spacing" textLength="80" x="1017" y="487.7969">Enumeration</text></g><!--class NamespaceProvider--><g id="elem_NamespaceProvider"><rect codeLine="42" fill="#F1F1F1" height="58.6211" id="NamespaceProvider" rx="2.5" ry="2.5" style="stroke:#181818;stroke-width:0.5;" width="193" x="531.5" y="296"/><ellipse cx="561.8" cy="312" fill="#B4A7E5" rx="11" ry="11" style="stroke:#181818;stroke-width:1.0;"/><path d="M562.7531,308.6406 L562.7531,315.2969 L564.4719,315.2969 Q565.0813,315.2969 565.3469,315.5313 Q565.6125,315.7656 565.6125,316.1563 Q565.6125,316.5313 565.3469,316.7656 Q565.0813,317 564.4719,317 L559.3313,317 Q558.7219,317 558.4563,316.7656 Q558.1906,316.5313 558.1906,316.1406 Q558.1906,315.7656 558.4563,315.5313 Q558.7219,315.2969 559.3313,315.2969 L561.05,315.2969 L561.05,308.6406 L559.3313,308.6406 Q558.7219,308.6406 558.4563,308.4063 Q558.1906,308.1719 558.1906,307.7813 Q558.1906,307.4063 558.4563,307.1719 Q558.7219,306.9375 559.3313,306.9375 L564.4719,306.9375 Q565.0813,306.9375 565.3469,307.1719 Q565.6125,307.4063 565.6125,307.7813 Q565.6125,308.1719 565.3469,308.4063 Q565.0813,308.6406 564.4719,308.6406 L562.7531,308.6406 Z " fill="#000000"/><text fill="#000000" font-family="sans-serif" font-size="14" font-style="italic" lengthAdjust="spacing" textLength="127" x="579.2" y="317.7969">NamespaceProvider</text><line style="stroke:#181818;stroke-width:0.5;" x1="532.5" x2="723.5" y1="328" y2="328"/><text fill="#000000" font-family="sans-serif" font-size="14" lengthAdjust="spacing" textLength="181" x="537.5" y="347.1074">namespaceQualifier(): String</text></g><!--class EnumerationLiteral--><g id="elem_EnumerationLiteral"><rect codeLine="15" fill="#FFB6C1" height="32" id="EnumerationLiteral" rx="2.5" ry="2.5" style="stroke:#181818;stroke-width:0.5;" width="151" x="940.5" y="234"/><ellipse cx="955.5" cy="250" fill="#ADD1B2" rx="11" ry="11" style="stroke:#181818;stroke-width:1.0;"/><path d="M958.2656,245.875 Q958.4219,245.6563 958.6094,245.5469 Q958.7969,245.4375 959.0156,245.4375 Q959.3906,245.4375 959.625,245.7031 Q959.8594,245.9531 959.8594,246.5625 L959.8594,248.0156 Q959.8594,248.625 959.625,248.8906 Q959.3906,249.1563 959.0156,249.1563 Q958.6719,249.1563 958.4688,248.9531 Q958.2656,248.7656 958.1563,248.25 Q958.1094,247.8906 957.9219,247.7031 Q957.5938,247.3281 956.9844,247.1094 Q956.375,246.8906 955.75,246.8906 Q954.9844,246.8906 954.3438,247.2188 Q953.7188,247.5469 953.2188,248.2969 Q952.7344,249.0469 952.7344,250.0781 L952.7344,251.1719 Q952.7344,252.4063 953.625,253.2344 Q954.5156,254.0469 956.1094,254.0469 Q957.0469,254.0469 957.7031,253.7969 Q958.0938,253.6406 958.5156,253.2031 Q958.7813,252.9375 958.9219,252.8594 Q959.0781,252.7813 959.2813,252.7813 Q959.6094,252.7813 959.8594,253.0469 Q960.125,253.2969 960.125,253.6406 Q960.125,253.9844 959.7813,254.3906 Q959.2813,254.9688 958.4844,255.2969 Q957.4063,255.75 956.1094,255.75 Q954.5938,255.75 953.3906,255.125 Q952.4063,254.625 951.7188,253.5625 Q951.0313,252.4844 951.0313,251.2031 L951.0313,250.0469 Q951.0313,248.7188 951.6406,247.5781 Q952.2656,246.4219 953.3594,245.8125 Q954.4531,245.1875 955.6875,245.1875 Q956.4219,245.1875 957.0625,245.3594 Q957.7188,245.5156 958.2656,245.875 Z " fill="#000000"/><text fill="#000000" font-family="sans-serif" font-size="14" lengthAdjust="spacing" textLength="119" x="969.5" y="255.7969">EnumerationLiteral</text></g><!--class NamespacedEntity--><g id="elem_NamespacedEntity"><rect codeLine="37" fill="#F1F1F1" height="77.2422" id="NamespacedEntity" rx="2.5" ry="2.5" style="stroke:#181818;stroke-width:0.5;" width="150" x="720" y="7"/><ellipse cx="735" cy="23" fill="#A9DCDF" rx="11" ry="11" style="stroke:#181818;stroke-width:1.0;"/><path d="M737.1875,24.7656 L733.0469,24.7656 L732.625,25.7969 L733.0469,25.7969 Q733.6563,25.7969 733.9219,26.0313 Q734.1875,26.2656 734.1875,26.6563 Q734.1875,27.0313 733.9219,27.2656 Q733.6563,27.5 733.0469,27.5 L730.75,27.5 Q730.1406,27.5 729.8906,27.2656 Q729.625,27.0313 729.625,26.6406 Q729.625,26.2656 729.9063,26.0313 Q730.1719,25.7813 730.7969,25.7969 L733.4688,19.1406 L732.3594,19.1406 Q731.75,19.1406 731.4844,18.9063 Q731.2188,18.6719 731.2188,18.2813 Q731.2188,17.9063 731.4844,17.6719 Q731.75,17.4375 732.3594,17.4375 L736.0313,17.4375 L739.4219,25.7969 Q740.0156,25.7969 740.2031,25.9375 Q740.5938,26.2031 740.5938,26.6563 Q740.5938,27.0313 740.3281,27.2656 Q740.0781,27.5 739.4688,27.5 L737.1719,27.5 Q736.5625,27.5 736.2969,27.2656 Q736.0313,27.0313 736.0313,26.6406 Q736.0313,26.2656 736.2969,26.0313 Q736.5625,25.7969 737.1719,25.7969 L737.5938,25.7969 L737.1875,24.7656 Z M736.4688,23.0625 L735.1094,19.6875 L733.7344,23.0625 L736.4688,23.0625 Z " fill="#000000"/><text fill="#000000" font-family="sans-serif" font-size="14" font-style="italic" lengthAdjust="spacing" textLength="118" x="749" y="28.7969">NamespacedEntity</text><line style="stroke:#181818;stroke-width:0.5;" x1="721" x2="869" y1="39" y2="39"/><text fill="#000000" font-family="sans-serif" font-size="14" lengthAdjust="spacing" textLength="80" x="726" y="58.1074">name: String</text><text fill="#000000" font-family="sans-serif" font-size="14" lengthAdjust="spacing" textLength="41" x="726" y="76.7285">key: Id</text></g><!--class Feature--><g id="elem_Feature"><rect codeLine="17" fill="#ADD8E6" height="58.6211" id="Feature" rx="2.5" ry="2.5" style="stroke:#181818;stroke-width:0.5;" width="122" x="296" y="145"/><ellipse cx="329" cy="161" fill="#A9DCDF" rx="11" ry="11" style="stroke:#181818;stroke-width:1.0;"/><path d="M331.1875,162.7656 L327.0469,162.7656 L326.625,163.7969 L327.0469,163.7969 Q327.6563,163.7969 327.9219,164.0313 Q328.1875,164.2656 328.1875,164.6563 Q328.1875,165.0313 327.9219,165.2656 Q327.6563,165.5 327.0469,165.5 L324.75,165.5 Q324.1406,165.5 323.8906,165.2656 Q323.625,165.0313 323.625,164.6406 Q323.625,164.2656 323.9063,164.0313 Q324.1719,163.7813 324.7969,163.7969 L327.4688,157.1406 L326.3594,157.1406 Q325.75,157.1406 325.4844,156.9063 Q325.2188,156.6719 325.2188,156.2813 Q325.2188,155.9063 325.4844,155.6719 Q325.75,155.4375 326.3594,155.4375 L330.0313,155.4375 L333.4219,163.7969 Q334.0156,163.7969 334.2031,163.9375 Q334.5938,164.2031 334.5938,164.6563 Q334.5938,165.0313 334.3281,165.2656 Q334.0781,165.5 333.4688,165.5 L331.1719,165.5 Q330.5625,165.5 330.2969,165.2656 Q330.0313,165.0313 330.0313,164.6406 Q330.0313,164.2656 330.2969,164.0313 Q330.5625,163.7969 331.1719,163.7969 L331.5938,163.7969 L331.1875,162.7656 Z M330.4688,161.0625 L329.1094,157.6875 L327.7344,161.0625 L330.4688,161.0625 Z " fill="#000000"/><text fill="#000000" font-family="sans-serif" font-size="14" font-style="italic" lengthAdjust="spacing" textLength="50" x="347" y="166.7969">Feature</text><line style="stroke:#181818;stroke-width:0.5;" x1="297" x2="417" y1="177" y2="177"/><text fill="#000000" font-family="sans-serif" font-size="14" lengthAdjust="spacing" textLength="110" x="302" y="196.1074">optional: Boolean</text></g><!--class Language--><g id="elem_Language"><rect codeLine="29" fill="#F1F1F1" height="95.8633" id="Language" rx="2.5" ry="2.5" style="stroke:#181818;stroke-width:0.5;" width="110" x="581" y="434"/><ellipse cx="602.3" cy="450" fill="#ADD1B2" rx="11" ry="11" style="stroke:#181818;stroke-width:1.0;"/><path d="M605.0656,445.875 Q605.2219,445.6563 605.4094,445.5469 Q605.5969,445.4375 605.8156,445.4375 Q606.1906,445.4375 606.425,445.7031 Q606.6594,445.9531 606.6594,446.5625 L606.6594,448.0156 Q606.6594,448.625 606.425,448.8906 Q606.1906,449.1563 605.8156,449.1563 Q605.4719,449.1563 605.2688,448.9531 Q605.0656,448.7656 604.9563,448.25 Q604.9094,447.8906 604.7219,447.7031 Q604.3938,447.3281 603.7844,447.1094 Q603.175,446.8906 602.55,446.8906 Q601.7844,446.8906 601.1438,447.2188 Q600.5188,447.5469 600.0188,448.2969 Q599.5344,449.0469 599.5344,450.0781 L599.5344,451.1719 Q599.5344,452.4063 600.425,453.2344 Q601.3156,454.0469 602.9094,454.0469 Q603.8469,454.0469 604.5031,453.7969 Q604.8938,453.6406 605.3156,453.2031 Q605.5813,452.9375 605.7219,452.8594 Q605.8781,452.7813 606.0813,452.7813 Q606.4094,452.7813 606.6594,453.0469 Q606.925,453.2969 606.925,453.6406 Q606.925,453.9844 606.5813,454.3906 Q606.0813,454.9688 605.2844,455.2969 Q604.2063,455.75 602.9094,455.75 Q601.3938,455.75 600.1906,455.125 Q599.2063,454.625 598.5188,453.5625 Q597.8313,452.4844 597.8313,451.2031 L597.8313,450.0469 Q597.8313,448.7188 598.4406,447.5781 Q599.0656,446.4219 600.1594,445.8125 Q601.2531,445.1875 602.4875,445.1875 Q603.2219,445.1875 603.8625,445.3594 Q604.5188,445.5156 605.0656,445.875 Z " fill="#000000"/><text fill="#000000" font-family="sans-serif" font-size="14" lengthAdjust="spacing" textLength="64" x="617.7" y="455.7969">Language</text><line style="stroke:#181818;stroke-width:0.5;" x1="582" x2="690" y1="466" y2="466"/><text fill="#000000" font-family="sans-serif" font-size="14" lengthAdjust="spacing" textLength="80" x="587" y="485.1074">name: String</text><text fill="#000000" font-family="sans-serif" font-size="14" lengthAdjust="spacing" textLength="41" x="587" y="503.7285">key: Id</text><text fill="#000000" font-family="sans-serif" font-size="14" lengthAdjust="spacing" textLength="98" x="587" y="522.3496">version: Integer</text></g><!--class PrimitiveType--><g id="elem_PrimitiveType"><rect codeLine="46" fill="#FFB6C1" height="32" id="PrimitiveType" rx="2.5" ry="2.5" style="stroke:#181818;stroke-width:0.5;" width="117" x="835.5" y="466"/><ellipse cx="850.5" cy="482" fill="#ADD1B2" rx="11" ry="11" style="stroke:#181818;stroke-width:1.0;"/><path d="M853.2656,477.875 Q853.4219,477.6563 853.6094,477.5469 Q853.7969,477.4375 854.0156,477.4375 Q854.3906,477.4375 854.625,477.7031 Q854.8594,477.9531 854.8594,478.5625 L854.8594,480.0156 Q854.8594,480.625 854.625,480.8906 Q854.3906,481.1563 854.0156,481.1563 Q853.6719,481.1563 853.4688,480.9531 Q853.2656,480.7656 853.1563,480.25 Q853.1094,479.8906 852.9219,479.7031 Q852.5938,479.3281 851.9844,479.1094 Q851.375,478.8906 850.75,478.8906 Q849.9844,478.8906 849.3438,479.2188 Q848.7188,479.5469 848.2188,480.2969 Q847.7344,481.0469 847.7344,482.0781 L847.7344,483.1719 Q847.7344,484.4063 848.625,485.2344 Q849.5156,486.0469 851.1094,486.0469 Q852.0469,486.0469 852.7031,485.7969 Q853.0938,485.6406 853.5156,485.2031 Q853.7813,484.9375 853.9219,484.8594 Q854.0781,484.7813 854.2813,484.7813 Q854.6094,484.7813 854.8594,485.0469 Q855.125,485.2969 855.125,485.6406 Q855.125,485.9844 854.7813,486.3906 Q854.2813,486.9688 853.4844,487.2969 Q852.4063,487.75 851.1094,487.75 Q849.5938,487.75 848.3906,487.125 Q847.4063,486.625 846.7188,485.5625 Q846.0313,484.4844 846.0313,483.2031 L846.0313,482.0469 Q846.0313,480.7188 846.6406,479.5781 Q847.2656,478.4219 848.3594,477.8125 Q849.4531,477.1875 850.6875,477.1875 Q851.4219,477.1875 852.0625,477.3594 Q852.7188,477.5156 853.2656,477.875 Z " fill="#000000"/><text fill="#000000" font-family="sans-serif" font-size="14" lengthAdjust="spacing" textLength="85" x="864.5" y="487.7969">PrimitiveType</text></g><!--class Property--><g id="elem_Property"><rect codeLine="48" fill="#ADD8E6" height="32" id="Property" rx="2.5" ry="2.5" style="stroke:#181818;stroke-width:0.5;" width="86" x="221" y="309.5"/><ellipse cx="236" cy="325.5" fill="#ADD1B2" rx="11" ry="11" style="stroke:#181818;stroke-width:1.0;"/><path d="M238.7656,321.375 Q238.9219,321.1563 239.1094,321.0469 Q239.2969,320.9375 239.5156,320.9375 Q239.8906,320.9375 240.125,321.2031 Q240.3594,321.4531 240.3594,322.0625 L240.3594,323.5156 Q240.3594,324.125 240.125,324.3906 Q239.8906,324.6563 239.5156,324.6563 Q239.1719,324.6563 238.9688,324.4531 Q238.7656,324.2656 238.6563,323.75 Q238.6094,323.3906 238.4219,323.2031 Q238.0938,322.8281 237.4844,322.6094 Q236.875,322.3906 236.25,322.3906 Q235.4844,322.3906 234.8438,322.7188 Q234.2188,323.0469 233.7188,323.7969 Q233.2344,324.5469 233.2344,325.5781 L233.2344,326.6719 Q233.2344,327.9063 234.125,328.7344 Q235.0156,329.5469 236.6094,329.5469 Q237.5469,329.5469 238.2031,329.2969 Q238.5938,329.1406 239.0156,328.7031 Q239.2813,328.4375 239.4219,328.3594 Q239.5781,328.2813 239.7813,328.2813 Q240.1094,328.2813 240.3594,328.5469 Q240.625,328.7969 240.625,329.1406 Q240.625,329.4844 240.2813,329.8906 Q239.7813,330.4688 238.9844,330.7969 Q237.9063,331.25 236.6094,331.25 Q235.0938,331.25 233.8906,330.625 Q232.9063,330.125 232.2188,329.0625 Q231.5313,327.9844 231.5313,326.7031 L231.5313,325.5469 Q231.5313,324.2188 232.1406,323.0781 Q232.7656,321.9219 233.8594,321.3125 Q234.9531,320.6875 236.1875,320.6875 Q236.9219,320.6875 237.5625,320.8594 Q238.2188,321.0156 238.7656,321.375 Z " fill="#000000"/><text fill="#000000" font-family="sans-serif" font-size="14" lengthAdjust="spacing" textLength="54" x="250" y="331.2969">Property</text></g><!--class Reference--><g id="elem_Reference"><rect codeLine="50" fill="#ADD8E6" height="32" id="Reference" rx="2.5" ry="2.5" style="stroke:#181818;stroke-width:0.5;" width="98" x="7" y="466"/><ellipse cx="22" cy="482" fill="#ADD1B2" rx="11" ry="11" style="stroke:#181818;stroke-width:1.0;"/><path d="M24.7656,477.875 Q24.9219,477.6563 25.1094,477.5469 Q25.2969,477.4375 25.5156,477.4375 Q25.8906,477.4375 26.125,477.7031 Q26.3594,477.9531 26.3594,478.5625 L26.3594,480.0156 Q26.3594,480.625 26.125,480.8906 Q25.8906,481.1563 25.5156,481.1563 Q25.1719,481.1563 24.9688,480.9531 Q24.7656,480.7656 24.6563,480.25 Q24.6094,479.8906 24.4219,479.7031 Q24.0938,479.3281 23.4844,479.1094 Q22.875,478.8906 22.25,478.8906 Q21.4844,478.8906 20.8438,479.2188 Q20.2188,479.5469 19.7188,480.2969 Q19.2344,481.0469 19.2344,482.0781 L19.2344,483.1719 Q19.2344,484.4063 20.125,485.2344 Q21.0156,486.0469 22.6094,486.0469 Q23.5469,486.0469 24.2031,485.7969 Q24.5938,485.6406 25.0156,485.2031 Q25.2813,484.9375 25.4219,484.8594 Q25.5781,484.7813 25.7813,484.7813 Q26.1094,484.7813 26.3594,485.0469 Q26.625,485.2969 26.625,485.6406 Q26.625,485.9844 26.2813,486.3906 Q25.7813,486.9688 24.9844,487.2969 Q23.9063,487.75 22.6094,487.75 Q21.0938,487.75 19.8906,487.125 Q18.9063,486.625 18.2188,485.5625 Q17.5313,484.4844 17.5313,483.2031 L17.5313,482.0469 Q17.5313,480.7188 18.1406,479.5781 Q18.7656,478.4219 19.8594,477.8125 Q20.9531,477.1875 22.1875,477.1875 Q22.9219,477.1875 23.5625,477.3594 Q24.2188,477.5156 24.7656,477.875 Z " fill="#000000"/><text fill="#000000" font-family="sans-serif" font-size="14" lengthAdjust="spacing" textLength="66" x="36" y="487.7969">Reference</text></g><!--reverse link FeaturesContainer to Concept--><g id="link_FeaturesContainer_Concept"><path d="M365.9,526.2 C345.32,547.33 321.1,572.18 302.84,590.92 " fill="none" id="FeaturesContainer-backto-Concept" style="stroke:#181818;stroke-width:1.0;"/><polygon fill="none" points="361.15,521.05,380.12,511.61,371.18,530.82,361.15,521.05" style="stroke:#181818;stroke-width:1.0;"/></g><!--reverse link FeaturesContainer to ConceptInterface--><g id="link_FeaturesContainer_ConceptInterface"><path d="M422.36,531.11 C430.4,564.59 437.45,610.2 430,650 C425.7,672.96 423.17,679.07 411,699 C404.35,709.88 394.96,720.61 386.94,728.86 " fill="none" id="FeaturesContainer-backto-ConceptInterface" style="stroke:#181818;stroke-width:1.0;"/><polygon fill="none" points="415.53,532.64,417.21,511.51,429.07,529.08,415.53,532.64" style="stroke:#181818;stroke-width:1.0;"/></g><!--reverse link Link to Containment--><g id="link_Link_Containment"><path d="M147.3,373.52 C161.55,404.96 179.39,444.34 189.03,465.62 " fill="none" id="Link-backto-Containment" style="stroke:#181818;stroke-width:1.0;"/><polygon fill="none" points="140.88,376.3,139,355.2,153.63,370.53,140.88,376.3" style="stroke:#181818;stroke-width:1.0;"/></g><!--reverse link LanguageElement to DataType--><g id="link_LanguageElement_DataType"><path d="M822.79,205.73 C851.7,237.17 895.79,285.12 918.07,309.35 " fill="none" id="LanguageElement-backto-DataType" style="stroke:#181818;stroke-width:1.0;"/><polygon fill="none" points="817.27,210.07,808.89,190.61,827.58,200.59,817.27,210.07" style="stroke:#181818;stroke-width:1.0;"/></g><!--reverse link DataType to Enumeration--><g id="link_DataType_Enumeration"><path d="M954.97,358.18 C978.71,390.93 1014.77,440.68 1032.85,465.61 " fill="none" id="DataType-backto-Enumeration" style="stroke:#181818;stroke-width:1.0;"/><polygon fill="none" points="949.01,361.9,942.94,341.6,960.35,353.68,949.01,361.9" style="stroke:#181818;stroke-width:1.0;"/></g><!--reverse link NamespaceProvider to Enumeration--><g id="link_NamespaceProvider_Enumeration"><path d="M744.3,354.92 C811.82,373.4 897.57,400.33 970,434 C989.05,442.85 1009.06,455.82 1023.47,465.89 " fill="none" id="NamespaceProvider-backto-Enumeration" style="stroke:#181818;stroke-width:1.0;stroke-dasharray:7.0,7.0;"/><polygon fill="none" points="742.36,361.64,724.86,349.69,746,348.12,742.36,361.64" style="stroke:#181818;stroke-width:1.0;"/></g><!--reverse link NamespacedEntity to EnumerationLiteral--><g id="link_NamespacedEntity_EnumerationLiteral"><path d="M850.95,97.77 C900.14,142.83 968.56,205.53 999.57,233.94 " fill="none" id="NamespacedEntity-backto-EnumerationLiteral" style="stroke:#181818;stroke-width:1.0;stroke-dasharray:7.0,7.0;"/><polygon fill="none" points="846.07,102.79,836.05,84.11,855.53,92.46,846.07,102.79" style="stroke:#181818;stroke-width:1.0;"/></g><!--reverse link NamespacedEntity to Feature--><g id="link_NamespacedEntity_Feature"><path d="M700.45,73.91 C614.93,98.71 491.52,134.5 418.26,155.74 " fill="none" id="NamespacedEntity-backto-Feature" style="stroke:#181818;stroke-width:1.0;stroke-dasharray:7.0,7.0;"/><polygon fill="none" points="698.55,67.18,719.71,68.33,702.45,80.62,698.55,67.18" style="stroke:#181818;stroke-width:1.0;"/></g><!--reverse link LanguageElement to FeaturesContainer--><g id="link_LanguageElement_FeaturesContainer"><path d="M710.99,196.06 C650.62,214.25 570.29,245.85 514,296 C464.67,339.95 432.59,412.56 417.7,452.49 " fill="none" id="LanguageElement-backto-FeaturesContainer" style="stroke:#181818;stroke-width:1.0;"/><polygon fill="none" points="709.07,189.33,730.23,190.51,712.95,202.78,709.07,189.33" style="stroke:#181818;stroke-width:1.0;"/></g><!--reverse link NamespaceProvider to FeaturesContainer--><g id="link_NamespaceProvider_FeaturesContainer"><path d="M570.95,366.57 C532.65,393.46 483.1,428.26 448.74,452.39 " fill="none" id="NamespaceProvider-backto-FeaturesContainer" style="stroke:#181818;stroke-width:1.0;stroke-dasharray:7.0,7.0;"/><polygon fill="none" points="567,360.78,587.39,355.02,575.05,372.24,567,360.78" style="stroke:#181818;stroke-width:1.0;"/></g><!--reverse link Feature to Link--><g id="link_Feature_Link"><path d="M295.77,214.99 C256.39,240.4 206.1,272.83 170.51,295.79 " fill="none" id="Feature-backto-Link" style="stroke:#181818;stroke-width:1.0;"/><polygon fill="none" points="292.13,209.01,312.73,204.05,299.72,220.78,292.13,209.01" style="stroke:#181818;stroke-width:1.0;"/></g><!--reverse link NamespaceProvider to Language--><g id="link_NamespaceProvider_Language"><path d="M630.53,375.32 C631.5,394.05 632.6,415.38 633.56,433.94 " fill="none" id="NamespaceProvider-backto-Language" style="stroke:#181818;stroke-width:1.0;stroke-dasharray:7.0,7.0;"/><polygon fill="none" points="623.53,375.53,629.49,355.2,637.51,374.81,623.53,375.53" style="stroke:#181818;stroke-width:1.0;"/></g><!--reverse link NamespacedEntity to LanguageElement--><g id="link_NamespacedEntity_LanguageElement"><path d="M795,104.42 C795,124.34 795,145 795,158.47 " fill="none" id="NamespacedEntity-backto-LanguageElement" style="stroke:#181818;stroke-width:1.0;stroke-dasharray:7.0,7.0;"/><polygon fill="none" points="788,104.26,795,84.26,802,104.26,788,104.26" style="stroke:#181818;stroke-width:1.0;"/></g><!--reverse link DataType to PrimitiveType--><g id="link_DataType_PrimitiveType"><path d="M923.41,361.44 C915.36,394.14 903.72,441.49 897.78,465.61 " fill="none" id="DataType-backto-PrimitiveType" style="stroke:#181818;stroke-width:1.0;"/><polygon fill="none" points="916.71,359.34,928.29,341.6,930.31,362.69,916.71,359.34" style="stroke:#181818;stroke-width:1.0;"/></g><!--reverse link Feature to Property--><g id="link_Feature_Property"><path d="M328.36,221.38 C309.54,251.53 286.13,289.05 273.36,309.5 " fill="none" id="Feature-backto-Property" style="stroke:#181818;stroke-width:1.0;"/><polygon fill="none" points="322.54,217.49,339.07,204.23,334.42,224.9,322.54,217.49" style="stroke:#181818;stroke-width:1.0;"/></g><!--reverse link Link to Reference--><g id="link_Link_Reference"><path d="M104.7,373.52 C90.45,404.96 72.61,444.34 62.97,465.62 " fill="none" id="Link-backto-Reference" style="stroke:#181818;stroke-width:1.0;"/><polygon fill="none" points="98.37,370.53,113,355.2,111.12,376.3,98.37,370.53" style="stroke:#181818;stroke-width:1.0;"/></g><!--link Concept to Concept--><g id="link_Concept_Concept"><path codeLine="54" d="M336.72,609.26 C356.16,609.43 371.5,613.18 371.5,620.5 C371.5,627.14 358.9,630.84 342.07,631.6 " fill="none" id="Concept-to-Concept" style="stroke:#181818;stroke-width:1.0;"/><polygon fill="#181818" points="336.72,631.74,345.8198,635.5073,341.7183,631.6115,345.6142,627.51,336.72,631.74" style="stroke:#181818;stroke-width:1.0;"/><text fill="#000000" font-family="sans-serif" font-size="13" lengthAdjust="spacing" textLength="46" x="377.5" y="626.0283">extends</text><text fill="#000000" font-family="sans-serif" font-size="13" lengthAdjust="spacing" textLength="5" x="344.5468" y="603.9233">*</text><text fill="#000000" font-family="sans-serif" font-size="13" lengthAdjust="spacing" textLength="22" x="344.6738" y="629.1046">0..1</text></g><!--link Concept to ConceptInterface--><g id="link_Concept_ConceptInterface"><path codeLine="55" d="M297.51,650.22 C315.51,673.2 340.26,704.77 355.94,724.79 " fill="none" id="Concept-to-ConceptInterface" style="stroke:#181818;stroke-width:1.0;"/><polygon fill="#181818" points="359.15,728.87,356.7532,719.3172,356.0685,724.9325,350.4532,724.2477,359.15,728.87" style="stroke:#181818;stroke-width:1.0;"/><text fill="#000000" font-family="sans-serif" font-size="13" lengthAdjust="spacing" textLength="67" x="335" y="695.0283">implements</text><text fill="#000000" font-family="sans-serif" font-size="13" lengthAdjust="spacing" textLength="5" x="296.3244" y="671.5979">*</text><text fill="#000000" font-family="sans-serif" font-size="13" lengthAdjust="spacing" textLength="5" x="349.3966" y="717.7878">*</text></g><!--link ConceptInterface to ConceptInterface--><g id="link_ConceptInterface_ConceptInterface"><path codeLine="57" d="M441.17,734.93 C460.87,735.37 476,738.72 476,745 C476,750.69 463.58,753.98 446.58,754.87 " fill="none" id="ConceptInterface-to-ConceptInterface" style="stroke:#181818;stroke-width:1.0;"/><polygon fill="#181818" points="441.17,755.07,450.3123,758.7332,446.1666,754.8844,450.0153,750.7387,441.17,755.07" style="stroke:#181818;stroke-width:1.0;"/><text fill="#000000" font-family="sans-serif" font-size="13" lengthAdjust="spacing" textLength="46" x="482" y="750.5283">extends</text><text fill="#000000" font-family="sans-serif" font-size="13" lengthAdjust="spacing" textLength="5" x="449.1183" y="729.9431">*</text><text fill="#000000" font-family="sans-serif" font-size="13" lengthAdjust="spacing" textLength="5" x="449.1183" y="752.286">*</text></g><!--link EnumerationLiteral to Enumeration--><g id="link_EnumerationLiteral_Enumeration"><path codeLine="59" d="M1017.84,266.09 C1022.45,304.02 1034.6,403.81 1040.58,452.9 " fill="none" id="EnumerationLiteral-to-Enumeration" style="stroke:#181818;stroke-width:1.0;"/><polygon fill="#181818" points="1042.16,465.85,1045.4051,459.4103,1040.7089,453.9381,1037.4638,460.3777,1042.16,465.85" style="stroke:#181818;stroke-width:1.0;"/><text fill="#000000" font-family="sans-serif" font-size="13" lengthAdjust="spacing" textLength="38" x="1029" y="331.0283">literals</text><text fill="#000000" font-family="sans-serif" font-size="13" lengthAdjust="spacing" textLength="5" x="1012.6296" y="288.0028">*</text><text fill="#000000" font-family="sans-serif" font-size="13" lengthAdjust="spacing" textLength="7" x="1033.3911" y="454.7612">1</text></g><!--link Feature to FeaturesContainer--><g id="link_Feature_FeaturesContainer"><path codeLine="61" d="M361.8,204.24 C370.85,258.49 390.5,376.16 401.02,439.17 " fill="none" id="Feature-to-FeaturesContainer" style="stroke:#181818;stroke-width:1.0;"/><polygon fill="#181818" points="403.18,452.11,406.1356,445.5324,401.2008,440.2743,398.2452,446.8519,403.18,452.11" style="stroke:#181818;stroke-width:1.0;"/><text fill="#000000" font-family="sans-serif" font-size="13" lengthAdjust="spacing" textLength="46" x="387" y="331.0283">features</text><text fill="#000000" font-family="sans-serif" font-size="13" lengthAdjust="spacing" textLength="5" x="357.2384" y="225.6217">*</text><text fill="#000000" font-family="sans-serif" font-size="13" lengthAdjust="spacing" textLength="7" x="394.464" y="441.2895">1</text></g><!--link Link to FeaturesContainer--><g id="link_Link_FeaturesContainer"><path codeLine="63" d="M178.05,355.02 C227.18,381.93 300.65,422.19 351.26,449.91 " fill="none" id="Link-to-FeaturesContainer" style="stroke:#181818;stroke-width:1.0;"/><polygon fill="#181818" points="355.77,452.39,349.7951,444.5606,351.3838,449.9897,345.9546,451.5785,355.77,452.39" style="stroke:#181818;stroke-width:1.0;"/><text fill="#000000" font-family="sans-serif" font-size="13" lengthAdjust="spacing" textLength="25" x="268" y="400.0283">type</text><text fill="#000000" font-family="sans-serif" font-size="13" lengthAdjust="spacing" textLength="5" x="182.8052" y="376.5995">*</text><text fill="#000000" font-family="sans-serif" font-size="13" lengthAdjust="spacing" textLength="7" x="336.5791" y="441.155">1</text></g><!--link Language to Language--><g id="link_Language_Language"><path codeLine="65" d="M691.37,467.38 C710.53,467.22 726,472.1 726,482 C726,490.97 713.29,495.82 696.65,496.53 " fill="none" id="Language-to-Language" style="stroke:#181818;stroke-width:1.0;"/><polygon fill="#181818" points="691.37,496.62,700.4372,500.4651,696.3693,496.5343,700.3001,492.4663,691.37,496.62" style="stroke:#181818;stroke-width:1.0;"/><text fill="#000000" font-family="sans-serif" font-size="13" lengthAdjust="spacing" textLength="66" x="732" y="487.5283">dependsOn</text><text fill="#000000" font-family="sans-serif" font-size="13" lengthAdjust="spacing" textLength="5" x="699.1463" y="461.3303">*</text><text fill="#000000" font-family="sans-serif" font-size="13" lengthAdjust="spacing" textLength="5" x="699.1463" y="494.4994">*</text></g><!--link LanguageElement to Language--><g id="link_LanguageElement_Language"><path codeLine="66" d="M792.68,190.72 C787.36,222.72 772.31,298.62 742,355 C728.8,379.56 710.27,403.7 692.39,424.16 " fill="none" id="LanguageElement-to-Language" style="stroke:#181818;stroke-width:1.0;"/><polygon fill="#181818" points="683.69,433.91,690.6695,432.097,691.6804,424.9571,684.7009,426.7701,683.69,433.91" style="stroke:#181818;stroke-width:1.0;"/><text fill="#000000" font-family="sans-serif" font-size="13" lengthAdjust="spacing" textLength="53" x="767" y="331.0283">elements</text><text fill="#000000" font-family="sans-serif" font-size="13" lengthAdjust="spacing" textLength="5" x="786.1436" y="212.6742">*</text><text fill="#000000" font-family="sans-serif" font-size="13" lengthAdjust="spacing" textLength="7" x="683.1804" y="422.6581">1</text></g><!--link Property to DataType--><g id="link_Property_DataType"><path codeLine="68" d="M288.09,309.43 C316.61,291.45 366.22,263.43 413.5,252.5 C510.2,230.15 761.63,272.26 858,296 C869.52,298.84 881.62,303.08 892.62,307.48 " fill="none" id="Property-to-DataType" style="stroke:#181818;stroke-width:1.0;"/><polygon fill="#181818" points="897.27,309.36,890.4444,302.26,892.6395,307.4735,887.426,309.6687,897.27,309.36" style="stroke:#181818;stroke-width:1.0;"/><text fill="#000000" font-family="sans-serif" font-size="13" lengthAdjust="spacing" textLength="25" x="414.5" y="255.5283">type</text><text fill="#000000" font-family="sans-serif" font-size="13" lengthAdjust="spacing" textLength="5" x="290.2417" y="298.3677">*</text><text fill="#000000" font-family="sans-serif" font-size="13" lengthAdjust="spacing" textLength="7" x="877.6063" y="298.2745">1</text></g><rect fill="#DDDDDD" height="69.8633" id="_legend" rx="7.5" ry="7.5" style="stroke:#000000;stroke-width:1.0;" width="130" x="481.5" y="779"/><rect fill="#D3D3D3" height="18.6211" style="stroke:none;stroke-width:1.0;" width="120" x="486.5" y="786"/><rect fill="#ADD8E6" height="18.6211" style="stroke:none;stroke-width:1.0;" width="120" x="486.5" y="786"/><text fill="#000000" font-family="sans-serif" font-size="14" lengthAdjust="spacing" textLength="50" x="486.5" y="801.1074">Feature</text><rect fill="#90EE90" height="18.6211" style="stroke:none;stroke-width:1.0;" width="120" x="486.5" y="804.6211"/><text fill="#000000" font-family="sans-serif" font-size="14" lengthAdjust="spacing" textLength="116" x="486.5" y="819.7285">Feature Container</text><rect fill="#FFB6C1" height="18.6211" style="stroke:none;stroke-width:1.0;" width="120" x="486.5" y="823.2422"/><text fill="#000000" font-family="sans-serif" font-size="14" lengthAdjust="spacing" textLength="62" x="486.5" y="838.3496">DataType</text><line style="stroke:#D3D3D3;stroke-width:1.0;" x1="486.5" x2="606.5" y1="786" y2="786"/><line style="stroke:#D3D3D3;stroke-width:1.0;" x1="486.5" x2="606.5" y1="804.6211" y2="804.6211"/><line style="stroke:#D3D3D3;stroke-width:1.0;" x1="486.5" x2="606.5" y1="823.2422" y2="823.2422"/><line style="stroke:#D3D3D3;stroke-width:1.0;" x1="486.5" x2="606.5" y1="841.8633" y2="841.8633"/><line style="stroke:#D3D3D3;stroke-width:1.0;" x1="486.5" x2="486.5" y1="786" y2="841.8633"/><line style="stroke:#D3D3D3;stroke-width:1.0;" x1="606.5" x2="606.5" y1="786" y2="841.8633"/><!--SRC=[ZLHDRzim3BthLn3UOLkm5TlLA7pebWq5WYtx-0EgpRX2PTcGvM36ily-oWvb9v7JtcoAZtpa8_ce2WIi6jT3XTK3sbQ8NCksXK-roR5ny6gZoaVtrI8Qm3yEJT725vIkizYIZvFAe8M_0a0-jCxAtALmLzSQfH7_peBT6uTs9tDyMTGPsXigD4pdJdSOS1jbdeJWx31YFaidV_SDPzgIpmIGfknaYMkDFYQdMPkkGYkTgaqC5IAggXc1BNoJ5ROD5RIrzPvQQIEnDegAbdeUCXQXM1kdN7zHoB4hyyAlm0SXwiRdbVf4Y7ZOcOGnISuwTRNqSGQqviXltgOaJUjkZuOimi9B5vEKY_OXgquxHMaZOyNqdkTbo9h2BsULAUdt2ViKxWlwsjF8KxFeZsQp904Z95_GX2NreleiaA7CAYp8SXc3zKSdjTefjBxBnqYXBLkhAkNK7fSMW4Tv0jGDMcAtB0Mx_iGTMZGvBc_YQx2eXz5lKo7uZYIh1Dvda7oukVcOy4586NhgvlrMoSNLI6Uj3u6dct8Toeb4P3K7v0eI8ZO_0YdeqO5GF94pruiLIc5tD0anJ7PW5FTsWmHXYEVysPX2WOtd_Ts8ypcSKPdSCVGdYCgT9pyMddDh6ddZr-2Mjr_sxwRFxC0FNkQCUt0Wm662qC48JzCvEN7oqvU50teGb1J6tFy1]--></g></svg>