<?xml version="1.0" encoding="us-ascii" standalone="no"?><svg xmlns="http://www.w3.org/2000/svg" xmlns:xlink="http://www.w3.org/1999/xlink" contentStyleType="text/css" height="717px" preserveAspectRatio="none" style="width:1008px;height:717px;background:#FFFFFF;" version="1.1" viewBox="0 0 1008 717" width="1008px" zoomAndPan="magnify"><defs/><g><!--class Concept--><g id="elem_Concept"><rect codeLine="3" fill="#90EE90" height="58.6211" id="Concept" rx="2.5" ry="2.5" style="stroke:#181818;stroke-width:0.5;" width="123" x="187.5" y="440"/><ellipse cx="219.6" cy="456" fill="#ADD1B2" rx="11" ry="11" style="stroke:#181818;stroke-width:1.0;"/><path d="M222.3656,451.875 Q222.5219,451.6563 222.7094,451.5469 Q222.8969,451.4375 223.1156,451.4375 Q223.4906,451.4375 223.725,451.7031 Q223.9594,451.9531 223.9594,452.5625 L223.9594,454.0156 Q223.9594,454.625 223.725,454.8906 Q223.4906,455.1563 223.1156,455.1563 Q222.7719,455.1563 222.5688,454.9531 Q222.3656,454.7656 222.2563,454.25 Q222.2094,453.8906 222.0219,453.7031 Q221.6938,453.3281 221.0844,453.1094 Q220.475,452.8906 219.85,452.8906 Q219.0844,452.8906 218.4438,453.2188 Q217.8188,453.5469 217.3188,454.2969 Q216.8344,455.0469 216.8344,456.0781 L216.8344,457.1719 Q216.8344,458.4063 217.725,459.2344 Q218.6156,460.0469 220.2094,460.0469 Q221.1469,460.0469 221.8031,459.7969 Q222.1938,459.6406 222.6156,459.2031 Q222.8813,458.9375 223.0219,458.8594 Q223.1781,458.7813 223.3813,458.7813 Q223.7094,458.7813 223.9594,459.0469 Q224.225,459.2969 224.225,459.6406 Q224.225,459.9844 223.8813,460.3906 Q223.3813,460.9688 222.5844,461.2969 Q221.5063,461.75 220.2094,461.75 Q218.6938,461.75 217.4906,461.125 Q216.5063,460.625 215.8188,459.5625 Q215.1313,458.4844 215.1313,457.2031 L215.1313,456.0469 Q215.1313,454.7188 215.7406,453.5781 Q216.3656,452.4219 217.4594,451.8125 Q218.5531,451.1875 219.7875,451.1875 Q220.5219,451.1875 221.1625,451.3594 Q221.8188,451.5156 222.3656,451.875 Z " fill="#000000"/><text fill="#000000" font-family="sans-serif" font-size="14" lengthAdjust="spacing" textLength="53" x="237.4" y="461.7969">Concept</text><line style="stroke:#181818;stroke-width:0.5;" x1="188.5" x2="309.5" y1="472" y2="472"/><text fill="#000000" font-family="sans-serif" font-size="14" lengthAdjust="spacing" textLength="111" x="193.5" y="491.1074">abstract: Boolean</text></g><!--class FeaturesContainer--><g id="elem_FeaturesContainer"><rect codeLine="21" fill="#90EE90" height="58.6211" id="FeaturesContainer" rx="2.5" ry="2.5" style="stroke:#181818;stroke-width:0.5;" width="189" x="287.5" y="320"/><ellipse cx="319.6" cy="336" fill="#A9DCDF" rx="11" ry="11" style="stroke:#181818;stroke-width:1.0;"/><path d="M321.7875,337.7656 L317.6469,337.7656 L317.225,338.7969 L317.6469,338.7969 Q318.2563,338.7969 318.5219,339.0313 Q318.7875,339.2656 318.7875,339.6563 Q318.7875,340.0313 318.5219,340.2656 Q318.2563,340.5 317.6469,340.5 L315.35,340.5 Q314.7406,340.5 314.4906,340.2656 Q314.225,340.0313 314.225,339.6406 Q314.225,339.2656 314.5063,339.0313 Q314.7719,338.7813 315.3969,338.7969 L318.0688,332.1406 L316.9594,332.1406 Q316.35,332.1406 316.0844,331.9063 Q315.8188,331.6719 315.8188,331.2813 Q315.8188,330.9063 316.0844,330.6719 Q316.35,330.4375 316.9594,330.4375 L320.6313,330.4375 L324.0219,338.7969 Q324.6156,338.7969 324.8031,338.9375 Q325.1938,339.2031 325.1938,339.6563 Q325.1938,340.0313 324.9281,340.2656 Q324.6781,340.5 324.0688,340.5 L321.7719,340.5 Q321.1625,340.5 320.8969,340.2656 Q320.6313,340.0313 320.6313,339.6406 Q320.6313,339.2656 320.8969,339.0313 Q321.1625,338.7969 321.7719,338.7969 L322.1938,338.7969 L321.7875,337.7656 Z M321.0688,336.0625 L319.7094,332.6875 L318.3344,336.0625 L321.0688,336.0625 Z " fill="#000000"/><text fill="#000000" font-family="sans-serif" font-size="14" font-style="italic" lengthAdjust="spacing" textLength="119" x="337.4" y="341.7969">FeaturesContainer</text><line style="stroke:#181818;stroke-width:0.5;" x1="288.5" x2="475.5" y1="352" y2="352"/><text fill="#000000" font-family="sans-serif" font-size="14" lengthAdjust="spacing" textLength="177" x="293.5" y="371.1074">allFeatures(): List&lt;Feature&gt;</text></g><!--class ConceptInterface--><g id="elem_ConceptInterface"><rect codeLine="7" fill="#90EE90" height="32" id="ConceptInterface" rx="2.5" ry="2.5" style="stroke:#181818;stroke-width:0.5;" width="140" x="275" y="578"/><ellipse cx="290" cy="594" fill="#ADD1B2" rx="11" ry="11" style="stroke:#181818;stroke-width:1.0;"/><path d="M292.7656,589.875 Q292.9219,589.6563 293.1094,589.5469 Q293.2969,589.4375 293.5156,589.4375 Q293.8906,589.4375 294.125,589.7031 Q294.3594,589.9531 294.3594,590.5625 L294.3594,592.0156 Q294.3594,592.625 294.125,592.8906 Q293.8906,593.1563 293.5156,593.1563 Q293.1719,593.1563 292.9688,592.9531 Q292.7656,592.7656 292.6563,592.25 Q292.6094,591.8906 292.4219,591.7031 Q292.0938,591.3281 291.4844,591.1094 Q290.875,590.8906 290.25,590.8906 Q289.4844,590.8906 288.8438,591.2188 Q288.2188,591.5469 287.7188,592.2969 Q287.2344,593.0469 287.2344,594.0781 L287.2344,595.1719 Q287.2344,596.4063 288.125,597.2344 Q289.0156,598.0469 290.6094,598.0469 Q291.5469,598.0469 292.2031,597.7969 Q292.5938,597.6406 293.0156,597.2031 Q293.2813,596.9375 293.4219,596.8594 Q293.5781,596.7813 293.7813,596.7813 Q294.1094,596.7813 294.3594,597.0469 Q294.625,597.2969 294.625,597.6406 Q294.625,597.9844 294.2813,598.3906 Q293.7813,598.9688 292.9844,599.2969 Q291.9063,599.75 290.6094,599.75 Q289.0938,599.75 287.8906,599.125 Q286.9063,598.625 286.2188,597.5625 Q285.5313,596.4844 285.5313,595.2031 L285.5313,594.0469 Q285.5313,592.7188 286.1406,591.5781 Q286.7656,590.4219 287.8594,589.8125 Q288.9531,589.1875 290.1875,589.1875 Q290.9219,589.1875 291.5625,589.3594 Q292.2188,589.5156 292.7656,589.875 Z " fill="#000000"/><text fill="#000000" font-family="sans-serif" font-size="14" lengthAdjust="spacing" textLength="108" x="304" y="599.7969">ConceptInterface</text></g><!--class Containment--><g id="elem_Containment"><rect codeLine="9" fill="#ADD8E6" height="32" id="Containment" rx="2.5" ry="2.5" style="stroke:#181818;stroke-width:0.5;" width="112" x="7" y="333.5"/><ellipse cx="22" cy="349.5" fill="#ADD1B2" rx="11" ry="11" style="stroke:#181818;stroke-width:1.0;"/><path d="M24.7656,345.375 Q24.9219,345.1563 25.1094,345.0469 Q25.2969,344.9375 25.5156,344.9375 Q25.8906,344.9375 26.125,345.2031 Q26.3594,345.4531 26.3594,346.0625 L26.3594,347.5156 Q26.3594,348.125 26.125,348.3906 Q25.8906,348.6563 25.5156,348.6563 Q25.1719,348.6563 24.9688,348.4531 Q24.7656,348.2656 24.6563,347.75 Q24.6094,347.3906 24.4219,347.2031 Q24.0938,346.8281 23.4844,346.6094 Q22.875,346.3906 22.25,346.3906 Q21.4844,346.3906 20.8438,346.7188 Q20.2188,347.0469 19.7188,347.7969 Q19.2344,348.5469 19.2344,349.5781 L19.2344,350.6719 Q19.2344,351.9063 20.125,352.7344 Q21.0156,353.5469 22.6094,353.5469 Q23.5469,353.5469 24.2031,353.2969 Q24.5938,353.1406 25.0156,352.7031 Q25.2813,352.4375 25.4219,352.3594 Q25.5781,352.2813 25.7813,352.2813 Q26.1094,352.2813 26.3594,352.5469 Q26.625,352.7969 26.625,353.1406 Q26.625,353.4844 26.2813,353.8906 Q25.7813,354.4688 24.9844,354.7969 Q23.9063,355.25 22.6094,355.25 Q21.0938,355.25 19.8906,354.625 Q18.9063,354.125 18.2188,353.0625 Q17.5313,351.9844 17.5313,350.7031 L17.5313,349.5469 Q17.5313,348.2188 18.1406,347.0781 Q18.7656,345.9219 19.8594,345.3125 Q20.9531,344.6875 22.1875,344.6875 Q22.9219,344.6875 23.5625,344.8594 Q24.2188,345.0156 24.7656,345.375 Z " fill="#000000"/><text fill="#000000" font-family="sans-serif" font-size="14" lengthAdjust="spacing" textLength="80" x="36" y="355.2969">Containment</text></g><!--class Link--><g id="elem_Link"><rect codeLine="25" fill="#ADD8E6" height="58.6211" id="Link" rx="2.5" ry="2.5" style="stroke:#181818;stroke-width:0.5;" width="120" x="143" y="182"/><ellipse cx="185.45" cy="198" fill="#A9DCDF" rx="11" ry="11" style="stroke:#181818;stroke-width:1.0;"/><path d="M187.6375,199.7656 L183.4969,199.7656 L183.075,200.7969 L183.4969,200.7969 Q184.1063,200.7969 184.3719,201.0313 Q184.6375,201.2656 184.6375,201.6563 Q184.6375,202.0313 184.3719,202.2656 Q184.1063,202.5 183.4969,202.5 L181.2,202.5 Q180.5906,202.5 180.3406,202.2656 Q180.075,202.0313 180.075,201.6406 Q180.075,201.2656 180.3563,201.0313 Q180.6219,200.7813 181.2469,200.7969 L183.9188,194.1406 L182.8094,194.1406 Q182.2,194.1406 181.9344,193.9063 Q181.6688,193.6719 181.6688,193.2813 Q181.6688,192.9063 181.9344,192.6719 Q182.2,192.4375 182.8094,192.4375 L186.4813,192.4375 L189.8719,200.7969 Q190.4656,200.7969 190.6531,200.9375 Q191.0438,201.2031 191.0438,201.6563 Q191.0438,202.0313 190.7781,202.2656 Q190.5281,202.5 189.9188,202.5 L187.6219,202.5 Q187.0125,202.5 186.7469,202.2656 Q186.4813,202.0313 186.4813,201.6406 Q186.4813,201.2656 186.7469,201.0313 Q187.0125,200.7969 187.6219,200.7969 L188.0438,200.7969 L187.6375,199.7656 Z M186.9188,198.0625 L185.5594,194.6875 L184.1844,198.0625 L186.9188,198.0625 Z " fill="#000000"/><text fill="#000000" font-family="sans-serif" font-size="14" font-style="italic" lengthAdjust="spacing" textLength="27" x="205.55" y="203.7969">Link</text><line style="stroke:#181818;stroke-width:0.5;" x1="144" x2="262" y1="214" y2="214"/><text fill="#000000" font-family="sans-serif" font-size="14" lengthAdjust="spacing" textLength="108" x="149" y="233.1074">multiple: Boolean</text></g><!--class DataType--><g id="elem_DataType"><rect codeLine="11" fill="#FFB6C1" height="32" id="DataType" rx="2.5" ry="2.5" style="stroke:#181818;stroke-width:0.5;" width="94" x="608" y="195.5"/><ellipse cx="623" cy="211.5" fill="#A9DCDF" rx="11" ry="11" style="stroke:#181818;stroke-width:1.0;"/><path d="M625.1875,213.2656 L621.0469,213.2656 L620.625,214.2969 L621.0469,214.2969 Q621.6563,214.2969 621.9219,214.5313 Q622.1875,214.7656 622.1875,215.1563 Q622.1875,215.5313 621.9219,215.7656 Q621.6563,216 621.0469,216 L618.75,216 Q618.1406,216 617.8906,215.7656 Q617.625,215.5313 617.625,215.1406 Q617.625,214.7656 617.9063,214.5313 Q618.1719,214.2813 618.7969,214.2969 L621.4688,207.6406 L620.3594,207.6406 Q619.75,207.6406 619.4844,207.4063 Q619.2188,207.1719 619.2188,206.7813 Q619.2188,206.4063 619.4844,206.1719 Q619.75,205.9375 620.3594,205.9375 L624.0313,205.9375 L627.4219,214.2969 Q628.0156,214.2969 628.2031,214.4375 Q628.5938,214.7031 628.5938,215.1563 Q628.5938,215.5313 628.3281,215.7656 Q628.0781,216 627.4688,216 L625.1719,216 Q624.5625,216 624.2969,215.7656 Q624.0313,215.5313 624.0313,215.1406 Q624.0313,214.7656 624.2969,214.5313 Q624.5625,214.2969 625.1719,214.2969 L625.5938,214.2969 L625.1875,213.2656 Z M624.4688,211.5625 L623.1094,208.1875 L621.7344,211.5625 L624.4688,211.5625 Z " fill="#000000"/><text fill="#000000" font-family="sans-serif" font-size="14" font-style="italic" lengthAdjust="spacing" textLength="62" x="637" y="217.2969">DataType</text></g><!--class MetamodelElement--><g id="elem_MetamodelElement"><rect codeLine="35" fill="#F1F1F1" height="32" id="MetamodelElement" rx="2.5" ry="2.5" style="stroke:#181818;stroke-width:0.5;" width="153" x="513.5" y="39"/><ellipse cx="528.5" cy="55" fill="#A9DCDF" rx="11" ry="11" style="stroke:#181818;stroke-width:1.0;"/><path d="M530.6875,56.7656 L526.5469,56.7656 L526.125,57.7969 L526.5469,57.7969 Q527.1563,57.7969 527.4219,58.0313 Q527.6875,58.2656 527.6875,58.6563 Q527.6875,59.0313 527.4219,59.2656 Q527.1563,59.5 526.5469,59.5 L524.25,59.5 Q523.6406,59.5 523.3906,59.2656 Q523.125,59.0313 523.125,58.6406 Q523.125,58.2656 523.4063,58.0313 Q523.6719,57.7813 524.2969,57.7969 L526.9688,51.1406 L525.8594,51.1406 Q525.25,51.1406 524.9844,50.9063 Q524.7188,50.6719 524.7188,50.2813 Q524.7188,49.9063 524.9844,49.6719 Q525.25,49.4375 525.8594,49.4375 L529.5313,49.4375 L532.9219,57.7969 Q533.5156,57.7969 533.7031,57.9375 Q534.0938,58.2031 534.0938,58.6563 Q534.0938,59.0313 533.8281,59.2656 Q533.5781,59.5 532.9688,59.5 L530.6719,59.5 Q530.0625,59.5 529.7969,59.2656 Q529.5313,59.0313 529.5313,58.6406 Q529.5313,58.2656 529.7969,58.0313 Q530.0625,57.7969 530.6719,57.7969 L531.0938,57.7969 L530.6875,56.7656 Z M529.9688,55.0625 L528.6094,51.6875 L527.2344,55.0625 L529.9688,55.0625 Z " fill="#000000"/><text fill="#000000" font-family="sans-serif" font-size="14" font-style="italic" lengthAdjust="spacing" textLength="121" x="542.5" y="60.7969">MetamodelElement</text></g><!--class Enumeration--><g id="elem_Enumeration"><rect codeLine="13" fill="#FFB6C1" height="32" id="Enumeration" rx="2.5" ry="2.5" style="stroke:#181818;stroke-width:0.5;" width="112" x="737" y="333.5"/><ellipse cx="752" cy="349.5" fill="#ADD1B2" rx="11" ry="11" style="stroke:#181818;stroke-width:1.0;"/><path d="M754.7656,345.375 Q754.9219,345.1563 755.1094,345.0469 Q755.2969,344.9375 755.5156,344.9375 Q755.8906,344.9375 756.125,345.2031 Q756.3594,345.4531 756.3594,346.0625 L756.3594,347.5156 Q756.3594,348.125 756.125,348.3906 Q755.8906,348.6563 755.5156,348.6563 Q755.1719,348.6563 754.9688,348.4531 Q754.7656,348.2656 754.6563,347.75 Q754.6094,347.3906 754.4219,347.2031 Q754.0938,346.8281 753.4844,346.6094 Q752.875,346.3906 752.25,346.3906 Q751.4844,346.3906 750.8438,346.7188 Q750.2188,347.0469 749.7188,347.7969 Q749.2344,348.5469 749.2344,349.5781 L749.2344,350.6719 Q749.2344,351.9063 750.125,352.7344 Q751.0156,353.5469 752.6094,353.5469 Q753.5469,353.5469 754.2031,353.2969 Q754.5938,353.1406 755.0156,352.7031 Q755.2813,352.4375 755.4219,352.3594 Q755.5781,352.2813 755.7813,352.2813 Q756.1094,352.2813 756.3594,352.5469 Q756.625,352.7969 756.625,353.1406 Q756.625,353.4844 756.2813,353.8906 Q755.7813,354.4688 754.9844,354.7969 Q753.9063,355.25 752.6094,355.25 Q751.0938,355.25 749.8906,354.625 Q748.9063,354.125 748.2188,353.0625 Q747.5313,351.9844 747.5313,350.7031 L747.5313,349.5469 Q747.5313,348.2188 748.1406,347.0781 Q748.7656,345.9219 749.8594,345.3125 Q750.9531,344.6875 752.1875,344.6875 Q752.9219,344.6875 753.5625,344.8594 Q754.2188,345.0156 754.7656,345.375 Z " fill="#000000"/><text fill="#000000" font-family="sans-serif" font-size="14" lengthAdjust="spacing" textLength="80" x="766" y="355.2969">Enumeration</text></g><!--class EnumerationLiteral--><g id="elem_EnumerationLiteral"><rect codeLine="15" fill="#FFB6C1" height="32" id="EnumerationLiteral" rx="2.5" ry="2.5" style="stroke:#181818;stroke-width:0.5;" width="151" x="511.5" y="333.5"/><ellipse cx="526.5" cy="349.5" fill="#ADD1B2" rx="11" ry="11" style="stroke:#181818;stroke-width:1.0;"/><path d="M529.2656,345.375 Q529.4219,345.1563 529.6094,345.0469 Q529.7969,344.9375 530.0156,344.9375 Q530.3906,344.9375 530.625,345.2031 Q530.8594,345.4531 530.8594,346.0625 L530.8594,347.5156 Q530.8594,348.125 530.625,348.3906 Q530.3906,348.6563 530.0156,348.6563 Q529.6719,348.6563 529.4688,348.4531 Q529.2656,348.2656 529.1563,347.75 Q529.1094,347.3906 528.9219,347.2031 Q528.5938,346.8281 527.9844,346.6094 Q527.375,346.3906 526.75,346.3906 Q525.9844,346.3906 525.3438,346.7188 Q524.7188,347.0469 524.2188,347.7969 Q523.7344,348.5469 523.7344,349.5781 L523.7344,350.6719 Q523.7344,351.9063 524.625,352.7344 Q525.5156,353.5469 527.1094,353.5469 Q528.0469,353.5469 528.7031,353.2969 Q529.0938,353.1406 529.5156,352.7031 Q529.7813,352.4375 529.9219,352.3594 Q530.0781,352.2813 530.2813,352.2813 Q530.6094,352.2813 530.8594,352.5469 Q531.125,352.7969 531.125,353.1406 Q531.125,353.4844 530.7813,353.8906 Q530.2813,354.4688 529.4844,354.7969 Q528.4063,355.25 527.1094,355.25 Q525.5938,355.25 524.3906,354.625 Q523.4063,354.125 522.7188,353.0625 Q522.0313,351.9844 522.0313,350.7031 L522.0313,349.5469 Q522.0313,348.2188 522.6406,347.0781 Q523.2656,345.9219 524.3594,345.3125 Q525.4531,344.6875 526.6875,344.6875 Q527.4219,344.6875 528.0625,344.8594 Q528.7188,345.0156 529.2656,345.375 Z " fill="#000000"/><text fill="#000000" font-family="sans-serif" font-size="14" lengthAdjust="spacing" textLength="119" x="540.5" y="355.2969">EnumerationLiteral</text></g><!--class Feature--><g id="elem_Feature"><rect codeLine="17" fill="#ADD8E6" height="58.6211" id="Feature" rx="2.5" ry="2.5" style="stroke:#181818;stroke-width:0.5;" width="122" x="280" y="25.5"/><ellipse cx="313" cy="41.5" fill="#A9DCDF" rx="11" ry="11" style="stroke:#181818;stroke-width:1.0;"/><path d="M315.1875,43.2656 L311.0469,43.2656 L310.625,44.2969 L311.0469,44.2969 Q311.6563,44.2969 311.9219,44.5313 Q312.1875,44.7656 312.1875,45.1563 Q312.1875,45.5313 311.9219,45.7656 Q311.6563,46 311.0469,46 L308.75,46 Q308.1406,46 307.8906,45.7656 Q307.625,45.5313 307.625,45.1406 Q307.625,44.7656 307.9063,44.5313 Q308.1719,44.2813 308.7969,44.2969 L311.4688,37.6406 L310.3594,37.6406 Q309.75,37.6406 309.4844,37.4063 Q309.2188,37.1719 309.2188,36.7813 Q309.2188,36.4063 309.4844,36.1719 Q309.75,35.9375 310.3594,35.9375 L314.0313,35.9375 L317.4219,44.2969 Q318.0156,44.2969 318.2031,44.4375 Q318.5938,44.7031 318.5938,45.1563 Q318.5938,45.5313 318.3281,45.7656 Q318.0781,46 317.4688,46 L315.1719,46 Q314.5625,46 314.2969,45.7656 Q314.0313,45.5313 314.0313,45.1406 Q314.0313,44.7656 314.2969,44.5313 Q314.5625,44.2969 315.1719,44.2969 L315.5938,44.2969 L315.1875,43.2656 Z M314.4688,41.5625 L313.1094,38.1875 L311.7344,41.5625 L314.4688,41.5625 Z " fill="#000000"/><text fill="#000000" font-family="sans-serif" font-size="14" font-style="italic" lengthAdjust="spacing" textLength="50" x="331" y="47.2969">Feature</text><line style="stroke:#181818;stroke-width:0.5;" x1="281" x2="401" y1="57.5" y2="57.5"/><text fill="#000000" font-family="sans-serif" font-size="14" lengthAdjust="spacing" textLength="110" x="286" y="76.6074">optional: Boolean</text></g><!--class Metamodel--><g id="elem_Metamodel"><rect codeLine="29" fill="#F1F1F1" height="95.8633" id="Metamodel" rx="2.5" ry="2.5" style="stroke:#181818;stroke-width:0.5;" width="110" x="756" y="7"/><ellipse cx="775.05" cy="23" fill="#ADD1B2" rx="11" ry="11" style="stroke:#181818;stroke-width:1.0;"/><path d="M777.8156,18.875 Q777.9719,18.6563 778.1594,18.5469 Q778.3469,18.4375 778.5656,18.4375 Q778.9406,18.4375 779.175,18.7031 Q779.4094,18.9531 779.4094,19.5625 L779.4094,21.0156 Q779.4094,21.625 779.175,21.8906 Q778.9406,22.1563 778.5656,22.1563 Q778.2219,22.1563 778.0188,21.9531 Q777.8156,21.7656 777.7063,21.25 Q777.6594,20.8906 777.4719,20.7031 Q777.1438,20.3281 776.5344,20.1094 Q775.925,19.8906 775.3,19.8906 Q774.5344,19.8906 773.8938,20.2188 Q773.2688,20.5469 772.7688,21.2969 Q772.2844,22.0469 772.2844,23.0781 L772.2844,24.1719 Q772.2844,25.4063 773.175,26.2344 Q774.0656,27.0469 775.6594,27.0469 Q776.5969,27.0469 777.2531,26.7969 Q777.6438,26.6406 778.0656,26.2031 Q778.3313,25.9375 778.4719,25.8594 Q778.6281,25.7813 778.8313,25.7813 Q779.1594,25.7813 779.4094,26.0469 Q779.675,26.2969 779.675,26.6406 Q779.675,26.9844 779.3313,27.3906 Q778.8313,27.9688 778.0344,28.2969 Q776.9563,28.75 775.6594,28.75 Q774.1438,28.75 772.9406,28.125 Q771.9563,27.625 771.2688,26.5625 Q770.5813,25.4844 770.5813,24.2031 L770.5813,23.0469 Q770.5813,21.7188 771.1906,20.5781 Q771.8156,19.4219 772.9094,18.8125 Q774.0031,18.1875 775.2375,18.1875 Q775.9719,18.1875 776.6125,18.3594 Q777.2688,18.5156 777.8156,18.875 Z " fill="#000000"/><text fill="#000000" font-family="sans-serif" font-size="14" lengthAdjust="spacing" textLength="69" x="789.95" y="28.7969">Metamodel</text><line style="stroke:#181818;stroke-width:0.5;" x1="757" x2="865" y1="39" y2="39"/><text fill="#000000" font-family="sans-serif" font-size="14" lengthAdjust="spacing" textLength="80" x="762" y="58.1074">name: String</text><text fill="#000000" font-family="sans-serif" font-size="14" lengthAdjust="spacing" textLength="41" x="762" y="76.7285">key: Id</text><text fill="#000000" font-family="sans-serif" font-size="14" lengthAdjust="spacing" textLength="98" x="762" y="95.3496">version: Integer</text></g><!--class PrimitiveType--><g id="elem_PrimitiveType"><rect codeLine="46" fill="#FFB6C1" height="32" id="PrimitiveType" rx="2.5" ry="2.5" style="stroke:#181818;stroke-width:0.5;" width="117" x="884.5" y="333.5"/><ellipse cx="899.5" cy="349.5" fill="#ADD1B2" rx="11" ry="11" style="stroke:#181818;stroke-width:1.0;"/><path d="M902.2656,345.375 Q902.4219,345.1563 902.6094,345.0469 Q902.7969,344.9375 903.0156,344.9375 Q903.3906,344.9375 903.625,345.2031 Q903.8594,345.4531 903.8594,346.0625 L903.8594,347.5156 Q903.8594,348.125 903.625,348.3906 Q903.3906,348.6563 903.0156,348.6563 Q902.6719,348.6563 902.4688,348.4531 Q902.2656,348.2656 902.1563,347.75 Q902.1094,347.3906 901.9219,347.2031 Q901.5938,346.8281 900.9844,346.6094 Q900.375,346.3906 899.75,346.3906 Q898.9844,346.3906 898.3438,346.7188 Q897.7188,347.0469 897.2188,347.7969 Q896.7344,348.5469 896.7344,349.5781 L896.7344,350.6719 Q896.7344,351.9063 897.625,352.7344 Q898.5156,353.5469 900.1094,353.5469 Q901.0469,353.5469 901.7031,353.2969 Q902.0938,353.1406 902.5156,352.7031 Q902.7813,352.4375 902.9219,352.3594 Q903.0781,352.2813 903.2813,352.2813 Q903.6094,352.2813 903.8594,352.5469 Q904.125,352.7969 904.125,353.1406 Q904.125,353.4844 903.7813,353.8906 Q903.2813,354.4688 902.4844,354.7969 Q901.4063,355.25 900.1094,355.25 Q898.5938,355.25 897.3906,354.625 Q896.4063,354.125 895.7188,353.0625 Q895.0313,351.9844 895.0313,350.7031 L895.0313,349.5469 Q895.0313,348.2188 895.6406,347.0781 Q896.2656,345.9219 897.3594,345.3125 Q898.4531,344.6875 899.6875,344.6875 Q900.4219,344.6875 901.0625,344.8594 Q901.7188,345.0156 902.2656,345.375 Z " fill="#000000"/><text fill="#000000" font-family="sans-serif" font-size="14" lengthAdjust="spacing" textLength="85" x="913.5" y="355.2969">PrimitiveType</text></g><!--class Property--><g id="elem_Property"><rect codeLine="48" fill="#ADD8E6" height="32" id="Property" rx="2.5" ry="2.5" style="stroke:#181818;stroke-width:0.5;" width="86" x="298" y="195.5"/><ellipse cx="313" cy="211.5" fill="#ADD1B2" rx="11" ry="11" style="stroke:#181818;stroke-width:1.0;"/><path d="M315.7656,207.375 Q315.9219,207.1563 316.1094,207.0469 Q316.2969,206.9375 316.5156,206.9375 Q316.8906,206.9375 317.125,207.2031 Q317.3594,207.4531 317.3594,208.0625 L317.3594,209.5156 Q317.3594,210.125 317.125,210.3906 Q316.8906,210.6563 316.5156,210.6563 Q316.1719,210.6563 315.9688,210.4531 Q315.7656,210.2656 315.6563,209.75 Q315.6094,209.3906 315.4219,209.2031 Q315.0938,208.8281 314.4844,208.6094 Q313.875,208.3906 313.25,208.3906 Q312.4844,208.3906 311.8438,208.7188 Q311.2188,209.0469 310.7188,209.7969 Q310.2344,210.5469 310.2344,211.5781 L310.2344,212.6719 Q310.2344,213.9063 311.125,214.7344 Q312.0156,215.5469 313.6094,215.5469 Q314.5469,215.5469 315.2031,215.2969 Q315.5938,215.1406 316.0156,214.7031 Q316.2813,214.4375 316.4219,214.3594 Q316.5781,214.2813 316.7813,214.2813 Q317.1094,214.2813 317.3594,214.5469 Q317.625,214.7969 317.625,215.1406 Q317.625,215.4844 317.2813,215.8906 Q316.7813,216.4688 315.9844,216.7969 Q314.9063,217.25 313.6094,217.25 Q312.0938,217.25 310.8906,216.625 Q309.9063,216.125 309.2188,215.0625 Q308.5313,213.9844 308.5313,212.7031 L308.5313,211.5469 Q308.5313,210.2188 309.1406,209.0781 Q309.7656,207.9219 310.8594,207.3125 Q311.9531,206.6875 313.1875,206.6875 Q313.9219,206.6875 314.5625,206.8594 Q315.2188,207.0156 315.7656,207.375 Z " fill="#000000"/><text fill="#000000" font-family="sans-serif" font-size="14" lengthAdjust="spacing" textLength="54" x="327" y="217.2969">Property</text></g><!--class Reference--><g id="elem_Reference"><rect codeLine="50" fill="#ADD8E6" height="32" id="Reference" rx="2.5" ry="2.5" style="stroke:#181818;stroke-width:0.5;" width="98" x="154" y="333.5"/><ellipse cx="169" cy="349.5" fill="#ADD1B2" rx="11" ry="11" style="stroke:#181818;stroke-width:1.0;"/><path d="M171.7656,345.375 Q171.9219,345.1563 172.1094,345.0469 Q172.2969,344.9375 172.5156,344.9375 Q172.8906,344.9375 173.125,345.2031 Q173.3594,345.4531 173.3594,346.0625 L173.3594,347.5156 Q173.3594,348.125 173.125,348.3906 Q172.8906,348.6563 172.5156,348.6563 Q172.1719,348.6563 171.9688,348.4531 Q171.7656,348.2656 171.6563,347.75 Q171.6094,347.3906 171.4219,347.2031 Q171.0938,346.8281 170.4844,346.6094 Q169.875,346.3906 169.25,346.3906 Q168.4844,346.3906 167.8438,346.7188 Q167.2188,347.0469 166.7188,347.7969 Q166.2344,348.5469 166.2344,349.5781 L166.2344,350.6719 Q166.2344,351.9063 167.125,352.7344 Q168.0156,353.5469 169.6094,353.5469 Q170.5469,353.5469 171.2031,353.2969 Q171.5938,353.1406 172.0156,352.7031 Q172.2813,352.4375 172.4219,352.3594 Q172.5781,352.2813 172.7813,352.2813 Q173.1094,352.2813 173.3594,352.5469 Q173.625,352.7969 173.625,353.1406 Q173.625,353.4844 173.2813,353.8906 Q172.7813,354.4688 171.9844,354.7969 Q170.9063,355.25 169.6094,355.25 Q168.0938,355.25 166.8906,354.625 Q165.9063,354.125 165.2188,353.0625 Q164.5313,351.9844 164.5313,350.7031 L164.5313,349.5469 Q164.5313,348.2188 165.1406,347.0781 Q165.7656,345.9219 166.8594,345.3125 Q167.9531,344.6875 169.1875,344.6875 Q169.9219,344.6875 170.5625,344.8594 Q171.2188,345.0156 171.7656,345.375 Z " fill="#000000"/><text fill="#000000" font-family="sans-serif" font-size="14" lengthAdjust="spacing" textLength="66" x="183" y="355.2969">Reference</text></g><!--reverse link FeaturesContainer to Concept--><g id="link_FeaturesContainer_Concept"><path d="M334.62,392.53 C316.97,408.19 297.36,425.6 281.36,439.79 " fill="none" id="FeaturesContainer-backto-Concept" style="stroke:#181818;stroke-width:1.0;"/><polygon fill="none" points="330.2,387.1,349.8,379.06,339.49,397.57,330.2,387.1" style="stroke:#181818;stroke-width:1.0;"/></g><!--reverse link FeaturesContainer to ConceptInterface--><g id="link_FeaturesContainer_ConceptInterface"><path d="M397.21,398.57 C404.43,427.71 410.25,465.6 404,499 C399.7,521.96 397.17,528.07 385,548 C378.35,558.88 368.96,569.61 360.94,577.86 " fill="none" id="FeaturesContainer-backto-ConceptInterface" style="stroke:#181818;stroke-width:1.0;"/><polygon fill="none" points="390.4,400.21,391.86,379.08,403.91,396.51,390.4,400.21" style="stroke:#181818;stroke-width:1.0;"/></g><!--reverse link Link to Containment--><g id="link_Link_Containment"><path d="M159.13,255.11 C131.59,281.87 97.76,314.74 78.45,333.49 " fill="none" id="Link-backto-Containment" style="stroke:#181818;stroke-width:1.0;"/><polygon fill="none" points="154.43,249.92,173.65,241.01,164.18,259.97,154.43,249.92" style="stroke:#181818;stroke-width:1.0;"/></g><!--reverse link MetamodelElement to DataType--><g id="link_MetamodelElement_DataType"><path d="M604.3,90 C618.07,122.73 638.28,170.76 648.53,195.11 " fill="none" id="MetamodelElement-backto-DataType" style="stroke:#181818;stroke-width:1.0;"/><polygon fill="none" points="597.65,92.24,596.35,71.1,610.56,86.82,597.65,92.24" style="stroke:#181818;stroke-width:1.0;"/></g><!--reverse link DataType to Enumeration--><g id="link_DataType_Enumeration"><path d="M684.55,241.62 C713.1,269.75 755.21,311.26 777.64,333.36 " fill="none" id="DataType-backto-Enumeration" style="stroke:#181818;stroke-width:1.0;"/><polygon fill="none" points="679.63,246.6,670.3,227.57,689.45,236.63,679.63,246.6" style="stroke:#181818;stroke-width:1.0;"/></g><!--reverse link MetamodelElement to FeaturesContainer--><g id="link_MetamodelElement_FeaturesContainer"><path d="M569.04,88.05 C556.68,106.8 540.64,130.87 526,152 C482.88,214.27 471.19,229.21 426,290 C418.72,299.79 410.71,310.47 403.55,319.98 " fill="none" id="MetamodelElement-backto-FeaturesContainer" style="stroke:#181818;stroke-width:1.0;"/><polygon fill="none" points="563.36,83.95,580.19,71.08,575.06,91.64,563.36,83.95" style="stroke:#181818;stroke-width:1.0;"/></g><!--reverse link Feature to Link--><g id="link_Feature_Link"><path d="M301.93,99.74 C278.39,126.1 249.08,158.91 228.5,181.96 " fill="none" id="Feature-backto-Link" style="stroke:#181818;stroke-width:1.0;"/><polygon fill="none" points="296.82,94.95,315.37,84.7,307.26,104.28,296.82,94.95" style="stroke:#181818;stroke-width:1.0;"/></g><!--reverse link DataType to PrimitiveType--><g id="link_DataType_PrimitiveType"><path d="M705.07,236.14 C764.26,264.09 861,309.78 910.94,333.36 " fill="none" id="DataType-backto-PrimitiveType" style="stroke:#181818;stroke-width:1.0;"/><polygon fill="none" points="702.02,242.44,686.92,227.57,708,229.78,702.02,242.44" style="stroke:#181818;stroke-width:1.0;"/></g><!--reverse link Feature to Property--><g id="link_Feature_Property"><path d="M341,104.81 C341,135.94 341,174.24 341,195.12 " fill="none" id="Feature-backto-Property" style="stroke:#181818;stroke-width:1.0;"/><polygon fill="none" points="334,104.7,341,84.7,348,104.7,334,104.7" style="stroke:#181818;stroke-width:1.0;"/></g><!--reverse link Link to Reference--><g id="link_Link_Reference"><path d="M203,261.15 C203,286.66 203,316.13 203,333.49 " fill="none" id="Link-backto-Reference" style="stroke:#181818;stroke-width:1.0;"/><polygon fill="none" points="196,261.01,203,241.01,210,261.01,196,261.01" style="stroke:#181818;stroke-width:1.0;"/></g><!--link Concept to Concept--><g id="link_Concept_Concept"><path codeLine="54" d="M310.72,458.26 C330.16,458.43 345.5,462.18 345.5,469.5 C345.5,476.14 332.9,479.84 316.07,480.6 " fill="none" id="Concept-to-Concept" style="stroke:#181818;stroke-width:1.0;"/><polygon fill="#181818" points="310.72,480.74,319.8198,484.5073,315.7183,480.6115,319.6142,476.51,310.72,480.74" style="stroke:#181818;stroke-width:1.0;"/><text fill="#000000" font-family="sans-serif" font-size="13" lengthAdjust="spacing" textLength="46" x="351.5" y="475.0283">extends</text><text fill="#000000" font-family="sans-serif" font-size="13" lengthAdjust="spacing" textLength="5" x="318.5468" y="452.9233">*</text><text fill="#000000" font-family="sans-serif" font-size="13" lengthAdjust="spacing" textLength="22" x="318.6738" y="478.1046">0..1</text></g><!--link Concept to ConceptInterface--><g id="link_Concept_ConceptInterface"><path codeLine="55" d="M271.51,499.22 C289.51,522.2 314.26,553.77 329.94,573.79 " fill="none" id="Concept-to-ConceptInterface" style="stroke:#181818;stroke-width:1.0;"/><polygon fill="#181818" points="333.15,577.87,330.7532,568.3172,330.0685,573.9325,324.4532,573.2477,333.15,577.87" style="stroke:#181818;stroke-width:1.0;"/><text fill="#000000" font-family="sans-serif" font-size="13" lengthAdjust="spacing" textLength="67" x="309" y="544.0283">implements</text><text fill="#000000" font-family="sans-serif" font-size="13" lengthAdjust="spacing" textLength="5" x="270.3244" y="520.5979">*</text><text fill="#000000" font-family="sans-serif" font-size="13" lengthAdjust="spacing" textLength="5" x="323.3966" y="566.7878">*</text></g><!--link ConceptInterface to ConceptInterface--><g id="link_ConceptInterface_ConceptInterface"><path codeLine="57" d="M415.17,583.93 C434.87,584.37 450,587.72 450,594 C450,599.69 437.58,602.98 420.58,603.87 " fill="none" id="ConceptInterface-to-ConceptInterface" style="stroke:#181818;stroke-width:1.0;"/><polygon fill="#181818" points="415.17,604.07,424.3123,607.7332,420.1666,603.8844,424.0153,599.7387,415.17,604.07" style="stroke:#181818;stroke-width:1.0;"/><text fill="#000000" font-family="sans-serif" font-size="13" lengthAdjust="spacing" textLength="46" x="456" y="599.5283">extends</text><text fill="#000000" font-family="sans-serif" font-size="13" lengthAdjust="spacing" textLength="5" x="423.1183" y="578.9431">*</text><text fill="#000000" font-family="sans-serif" font-size="13" lengthAdjust="spacing" textLength="5" x="423.1183" y="601.286">*</text></g><!--link EnumerationLiteral to Enumeration--><g id="link_EnumerationLiteral_Enumeration"><path codeLine="59" d="M662.54,349.5 C682.5,349.5 703.95,349.5 723.58,349.5 " fill="none" id="EnumerationLiteral-to-Enumeration" style="stroke:#181818;stroke-width:1.0;"/><polygon fill="#181818" points="736.83,349.5,730.83,345.5,724.83,349.5,730.83,353.5,736.83,349.5" style="stroke:#181818;stroke-width:1.0;"/><text fill="#000000" font-family="sans-serif" font-size="13" lengthAdjust="spacing" textLength="38" x="680.75" y="342.5283">literals</text><text fill="#000000" font-family="sans-serif" font-size="13" lengthAdjust="spacing" textLength="5" x="670.5879" y="345.6668">*</text><text fill="#000000" font-family="sans-serif" font-size="13" lengthAdjust="spacing" textLength="7" x="722.1848" y="345.4579">1</text></g><!--link Feature to FeaturesContainer--><g id="link_Feature_FeaturesContainer"><path codeLine="61" d="M359.52,84.64 C374.31,109.32 393.85,146.47 402,182 C411.65,224.09 403.41,273.29 394.76,307.24 " fill="none" id="Feature-to-FeaturesContainer" style="stroke:#181818;stroke-width:1.0;"/><polygon fill="#181818" points="391.34,319.9,396.764,315.1482,394.4639,308.3138,389.0399,313.0656,391.34,319.9" style="stroke:#181818;stroke-width:1.0;"/><text fill="#000000" font-family="sans-serif" font-size="13" lengthAdjust="spacing" textLength="46" x="407" y="217.0283">features</text><text fill="#000000" font-family="sans-serif" font-size="13" lengthAdjust="spacing" textLength="5" x="357.6739" y="106.2431">*</text><text fill="#000000" font-family="sans-serif" font-size="13" lengthAdjust="spacing" textLength="7" x="385.6175" y="308.6672">1</text></g><!--link Link to FeaturesContainer--><g id="link_Link_FeaturesContainer"><path codeLine="63" d="M240.52,241.01 C269.66,263.15 310.05,293.84 340.22,316.75 " fill="none" id="Link-to-FeaturesContainer" style="stroke:#181818;stroke-width:1.0;"/><polygon fill="#181818" points="344.22,319.79,339.4694,311.1626,340.2373,316.7671,334.6328,317.535,344.22,319.79" style="stroke:#181818;stroke-width:1.0;"/><text fill="#000000" font-family="sans-serif" font-size="13" lengthAdjust="spacing" textLength="25" x="304" y="286.0283">type</text><text fill="#000000" font-family="sans-serif" font-size="13" lengthAdjust="spacing" textLength="5" x="242.4146" y="262.5875">*</text><text fill="#000000" font-family="sans-serif" font-size="13" lengthAdjust="spacing" textLength="7" x="328.19" y="308.5332">1</text></g><!--link Metamodel to Metamodel--><g id="link_Metamodel_Metamodel"><path codeLine="65" d="M866.37,38.88 C885.53,38.71 901,44.08 901,55 C901,64.89 888.29,70.24 871.65,71.02 " fill="none" id="Metamodel-to-Metamodel" style="stroke:#181818;stroke-width:1.0;"/><polygon fill="#181818" points="866.37,71.12,875.4482,74.9392,871.369,71.02,875.2882,66.9408,866.37,71.12" style="stroke:#181818;stroke-width:1.0;"/><text fill="#000000" font-family="sans-serif" font-size="13" lengthAdjust="spacing" textLength="66" x="907" y="60.5283">dependsOn</text><text fill="#000000" font-family="sans-serif" font-size="13" lengthAdjust="spacing" textLength="5" x="874.1463" y="32.6287">*</text><text fill="#000000" font-family="sans-serif" font-size="13" lengthAdjust="spacing" textLength="5" x="874.1463" y="69.201">*</text></g><!--link MetamodelElement to Metamodel--><g id="link_MetamodelElement_Metamodel"><path codeLine="66" d="M666.67,55 C691.39,55 718.61,55 742.69,55 " fill="none" id="MetamodelElement-to-Metamodel" style="stroke:#181818;stroke-width:1.0;"/><polygon fill="#181818" points="755.7,55,749.7,51,743.7,55,749.7,59,755.7,55" style="stroke:#181818;stroke-width:1.0;"/><text fill="#000000" font-family="sans-serif" font-size="13" lengthAdjust="spacing" textLength="53" x="684.75" y="48.0283">elements</text><text fill="#000000" font-family="sans-serif" font-size="13" lengthAdjust="spacing" textLength="5" x="674.4633" y="51.2059">*</text><text fill="#000000" font-family="sans-serif" font-size="13" lengthAdjust="spacing" textLength="7" x="741.1663" y="50.9667">1</text></g><!--link Property to DataType--><g id="link_Property_DataType"><path codeLine="68" d="M360.82,195.44 C392.89,171.41 458.54,130.31 517.5,144 C557.66,153.33 599.6,176.11 626.45,192.63 " fill="none" id="Property-to-DataType" style="stroke:#181818;stroke-width:1.0;"/><polygon fill="#181818" points="630.95,195.44,625.4257,187.2864,626.706,192.7964,621.1959,194.0768,630.95,195.44" style="stroke:#181818;stroke-width:1.0;"/><text fill="#000000" font-family="sans-serif" font-size="13" lengthAdjust="spacing" textLength="25" x="491.5" y="148.0283">type</text><text fill="#000000" font-family="sans-serif" font-size="13" lengthAdjust="spacing" textLength="5" x="361.5573" y="184.381">*</text><text fill="#000000" font-family="sans-serif" font-size="13" lengthAdjust="spacing" textLength="7" x="614.8241" y="184.381">1</text></g><rect fill="#DDDDDD" height="69.8633" id="_legend" rx="7.5" ry="7.5" style="stroke:#000000;stroke-width:1.0;" width="130" x="432.25" y="628"/><rect fill="#D3D3D3" height="18.6211" style="stroke:none;stroke-width:1.0;" width="120" x="437.25" y="635"/><rect fill="#ADD8E6" height="18.6211" style="stroke:none;stroke-width:1.0;" width="120" x="437.25" y="635"/><text fill="#000000" font-family="sans-serif" font-size="14" lengthAdjust="spacing" textLength="50" x="437.25" y="650.1074">Feature</text><rect fill="#90EE90" height="18.6211" style="stroke:none;stroke-width:1.0;" width="120" x="437.25" y="653.6211"/><text fill="#000000" font-family="sans-serif" font-size="14" lengthAdjust="spacing" textLength="116" x="437.25" y="668.7285">Feature Container</text><rect fill="#FFB6C1" height="18.6211" style="stroke:none;stroke-width:1.0;" width="120" x="437.25" y="672.2422"/><text fill="#000000" font-family="sans-serif" font-size="14" lengthAdjust="spacing" textLength="62" x="437.25" y="687.3496">DataType</text><line style="stroke:#D3D3D3;stroke-width:1.0;" x1="437.25" x2="557.25" y1="635" y2="635"/><line style="stroke:#D3D3D3;stroke-width:1.0;" x1="437.25" x2="557.25" y1="653.6211" y2="653.6211"/><line style="stroke:#D3D3D3;stroke-width:1.0;" x1="437.25" x2="557.25" y1="672.2422" y2="672.2422"/><line style="stroke:#D3D3D3;stroke-width:1.0;" x1="437.25" x2="557.25" y1="690.8633" y2="690.8633"/><line style="stroke:#D3D3D3;stroke-width:1.0;" x1="437.25" x2="437.25" y1="635" y2="690.8633"/><line style="stroke:#D3D3D3;stroke-width:1.0;" x1="557.25" x2="557.25" y1="635" y2="690.8633"/><!--SRC=[KypCIyufJKbLo4qjIGJZ_9JK7Bs2qjmSBgwYrDpyibG5Fw14SK5YScgAQrv9PaabXdX0KNvPPafg4KmYfB8WDIKr3SPrpClBBqaioSpFum80]--></g></svg>