<?xml version="1.0" encoding="UTF-8" standalone="no"?><svg xmlns="http://www.w3.org/2000/svg" xmlns:xlink="http://www.w3.org/1999/xlink" contentStyleType="text/css" height="698px" preserveAspectRatio="none" style="width:1022px;height:698px;background:#FFFFFF;" version="1.1" viewBox="0 0 1022 698" width="1022px" zoomAndPan="magnify"><defs/><g><!--class Concept--><g id="elem_Concept"><rect codeLine="3" fill="#90EE90" height="58.6211" id="Concept" rx="2.5" ry="2.5" style="stroke:#181818;stroke-width:0.5;" width="122" x="188" y="421"/><ellipse cx="219.65" cy="437" fill="#ADD1B2" rx="11" ry="11" style="stroke:#181818;stroke-width:1.0;"/><path d="M222.4156,432.875 Q222.5719,432.6563 222.7594,432.5469 Q222.9469,432.4375 223.1656,432.4375 Q223.5406,432.4375 223.775,432.7031 Q224.0094,432.9531 224.0094,433.5625 L224.0094,435.0156 Q224.0094,435.625 223.775,435.8906 Q223.5406,436.1563 223.1656,436.1563 Q222.8219,436.1563 222.6188,435.9531 Q222.4156,435.7656 222.3063,435.25 Q222.2594,434.8906 222.0719,434.7031 Q221.7438,434.3281 221.1344,434.1094 Q220.525,433.8906 219.9,433.8906 Q219.1344,433.8906 218.4938,434.2188 Q217.8688,434.5469 217.3688,435.2969 Q216.8844,436.0469 216.8844,437.0781 L216.8844,438.1719 Q216.8844,439.4063 217.775,440.2344 Q218.6656,441.0469 220.2594,441.0469 Q221.1969,441.0469 221.8531,440.7969 Q222.2438,440.6406 222.6656,440.2031 Q222.9313,439.9375 223.0719,439.8594 Q223.2281,439.7813 223.4313,439.7813 Q223.7594,439.7813 224.0094,440.0469 Q224.275,440.2969 224.275,440.6406 Q224.275,440.9844 223.9313,441.3906 Q223.4313,441.9688 222.6344,442.2969 Q221.5563,442.75 220.2594,442.75 Q218.7438,442.75 217.5406,442.125 Q216.5563,441.625 215.8688,440.5625 Q215.1813,439.4844 215.1813,438.2031 L215.1813,437.0469 Q215.1813,435.7188 215.7906,434.5781 Q216.4156,433.4219 217.5094,432.8125 Q218.6031,432.1875 219.8375,432.1875 Q220.5719,432.1875 221.2125,432.3594 Q221.8688,432.5156 222.4156,432.875 Z " fill="#000000"/><text fill="#000000" font-family="sans-serif" font-size="14" lengthAdjust="spacing" textLength="53" x="237.35" y="442.7969">Concept</text><line style="stroke:#181818;stroke-width:0.5;" x1="189" x2="309" y1="453" y2="453"/><text fill="#000000" font-family="sans-serif" font-size="14" lengthAdjust="spacing" textLength="110" x="194" y="472.1074">abstract: boolean</text></g><!--class FeaturesContainer--><g id="elem_FeaturesContainer"><rect codeLine="21" fill="#90EE90" height="58.6211" id="FeaturesContainer" rx="2.5" ry="2.5" style="stroke:#181818;stroke-width:0.5;" width="189" x="287.5" y="301"/><ellipse cx="319.6" cy="317" fill="#A9DCDF" rx="11" ry="11" style="stroke:#181818;stroke-width:1.0;"/><path d="M321.7875,318.7656 L317.6469,318.7656 L317.225,319.7969 L317.6469,319.7969 Q318.2563,319.7969 318.5219,320.0313 Q318.7875,320.2656 318.7875,320.6563 Q318.7875,321.0313 318.5219,321.2656 Q318.2563,321.5 317.6469,321.5 L315.35,321.5 Q314.7406,321.5 314.4906,321.2656 Q314.225,321.0313 314.225,320.6406 Q314.225,320.2656 314.5063,320.0313 Q314.7719,319.7813 315.3969,319.7969 L318.0688,313.1406 L316.9594,313.1406 Q316.35,313.1406 316.0844,312.9063 Q315.8188,312.6719 315.8188,312.2813 Q315.8188,311.9063 316.0844,311.6719 Q316.35,311.4375 316.9594,311.4375 L320.6313,311.4375 L324.0219,319.7969 Q324.6156,319.7969 324.8031,319.9375 Q325.1938,320.2031 325.1938,320.6563 Q325.1938,321.0313 324.9281,321.2656 Q324.6781,321.5 324.0688,321.5 L321.7719,321.5 Q321.1625,321.5 320.8969,321.2656 Q320.6313,321.0313 320.6313,320.6406 Q320.6313,320.2656 320.8969,320.0313 Q321.1625,319.7969 321.7719,319.7969 L322.1938,319.7969 L321.7875,318.7656 Z M321.0688,317.0625 L319.7094,313.6875 L318.3344,317.0625 L321.0688,317.0625 Z " fill="#000000"/><text fill="#000000" font-family="sans-serif" font-size="14" font-style="italic" lengthAdjust="spacing" textLength="119" x="337.4" y="322.7969">FeaturesContainer</text><line style="stroke:#181818;stroke-width:0.5;" x1="288.5" x2="475.5" y1="333" y2="333"/><text fill="#000000" font-family="sans-serif" font-size="14" lengthAdjust="spacing" textLength="177" x="293.5" y="352.1074">allFeatures(): List&lt;Feature&gt;</text></g><!--class ConceptInterface--><g id="elem_ConceptInterface"><rect codeLine="7" fill="#90EE90" height="32" id="ConceptInterface" rx="2.5" ry="2.5" style="stroke:#181818;stroke-width:0.5;" width="140" x="274" y="559"/><ellipse cx="289" cy="575" fill="#ADD1B2" rx="11" ry="11" style="stroke:#181818;stroke-width:1.0;"/><path d="M291.7656,570.875 Q291.9219,570.6563 292.1094,570.5469 Q292.2969,570.4375 292.5156,570.4375 Q292.8906,570.4375 293.125,570.7031 Q293.3594,570.9531 293.3594,571.5625 L293.3594,573.0156 Q293.3594,573.625 293.125,573.8906 Q292.8906,574.1563 292.5156,574.1563 Q292.1719,574.1563 291.9688,573.9531 Q291.7656,573.7656 291.6563,573.25 Q291.6094,572.8906 291.4219,572.7031 Q291.0938,572.3281 290.4844,572.1094 Q289.875,571.8906 289.25,571.8906 Q288.4844,571.8906 287.8438,572.2188 Q287.2188,572.5469 286.7188,573.2969 Q286.2344,574.0469 286.2344,575.0781 L286.2344,576.1719 Q286.2344,577.4063 287.125,578.2344 Q288.0156,579.0469 289.6094,579.0469 Q290.5469,579.0469 291.2031,578.7969 Q291.5938,578.6406 292.0156,578.2031 Q292.2813,577.9375 292.4219,577.8594 Q292.5781,577.7813 292.7813,577.7813 Q293.1094,577.7813 293.3594,578.0469 Q293.625,578.2969 293.625,578.6406 Q293.625,578.9844 293.2813,579.3906 Q292.7813,579.9688 291.9844,580.2969 Q290.9063,580.75 289.6094,580.75 Q288.0938,580.75 286.8906,580.125 Q285.9063,579.625 285.2188,578.5625 Q284.5313,577.4844 284.5313,576.2031 L284.5313,575.0469 Q284.5313,573.7188 285.1406,572.5781 Q285.7656,571.4219 286.8594,570.8125 Q287.9531,570.1875 289.1875,570.1875 Q289.9219,570.1875 290.5625,570.3594 Q291.2188,570.5156 291.7656,570.875 Z " fill="#000000"/><text fill="#000000" font-family="sans-serif" font-size="14" lengthAdjust="spacing" textLength="108" x="303" y="580.7969">ConceptInterface</text></g><!--class Containment--><g id="elem_Containment"><rect codeLine="9" fill="#ADD8E6" height="32" id="Containment" rx="2.5" ry="2.5" style="stroke:#181818;stroke-width:0.5;" width="112" x="7" y="314.5"/><ellipse cx="22" cy="330.5" fill="#ADD1B2" rx="11" ry="11" style="stroke:#181818;stroke-width:1.0;"/><path d="M24.7656,326.375 Q24.9219,326.1563 25.1094,326.0469 Q25.2969,325.9375 25.5156,325.9375 Q25.8906,325.9375 26.125,326.2031 Q26.3594,326.4531 26.3594,327.0625 L26.3594,328.5156 Q26.3594,329.125 26.125,329.3906 Q25.8906,329.6563 25.5156,329.6563 Q25.1719,329.6563 24.9688,329.4531 Q24.7656,329.2656 24.6563,328.75 Q24.6094,328.3906 24.4219,328.2031 Q24.0938,327.8281 23.4844,327.6094 Q22.875,327.3906 22.25,327.3906 Q21.4844,327.3906 20.8438,327.7188 Q20.2188,328.0469 19.7188,328.7969 Q19.2344,329.5469 19.2344,330.5781 L19.2344,331.6719 Q19.2344,332.9063 20.125,333.7344 Q21.0156,334.5469 22.6094,334.5469 Q23.5469,334.5469 24.2031,334.2969 Q24.5938,334.1406 25.0156,333.7031 Q25.2813,333.4375 25.4219,333.3594 Q25.5781,333.2813 25.7813,333.2813 Q26.1094,333.2813 26.3594,333.5469 Q26.625,333.7969 26.625,334.1406 Q26.625,334.4844 26.2813,334.8906 Q25.7813,335.4688 24.9844,335.7969 Q23.9063,336.25 22.6094,336.25 Q21.0938,336.25 19.8906,335.625 Q18.9063,335.125 18.2188,334.0625 Q17.5313,332.9844 17.5313,331.7031 L17.5313,330.5469 Q17.5313,329.2188 18.1406,328.0781 Q18.7656,326.9219 19.8594,326.3125 Q20.9531,325.6875 22.1875,325.6875 Q22.9219,325.6875 23.5625,325.8594 Q24.2188,326.0156 24.7656,326.375 Z " fill="#000000"/><text fill="#000000" font-family="sans-serif" font-size="14" lengthAdjust="spacing" textLength="80" x="36" y="336.2969">Containment</text></g><!--class Link--><g id="elem_Link"><rect codeLine="25" fill="#ADD8E6" height="58.6211" id="Link" rx="2.5" ry="2.5" style="stroke:#181818;stroke-width:0.5;" width="119" x="143.5" y="163"/><ellipse cx="185.5" cy="179" fill="#A9DCDF" rx="11" ry="11" style="stroke:#181818;stroke-width:1.0;"/><path d="M187.6875,180.7656 L183.5469,180.7656 L183.125,181.7969 L183.5469,181.7969 Q184.1563,181.7969 184.4219,182.0313 Q184.6875,182.2656 184.6875,182.6563 Q184.6875,183.0313 184.4219,183.2656 Q184.1563,183.5 183.5469,183.5 L181.25,183.5 Q180.6406,183.5 180.3906,183.2656 Q180.125,183.0313 180.125,182.6406 Q180.125,182.2656 180.4063,182.0313 Q180.6719,181.7813 181.2969,181.7969 L183.9688,175.1406 L182.8594,175.1406 Q182.25,175.1406 181.9844,174.9063 Q181.7188,174.6719 181.7188,174.2813 Q181.7188,173.9063 181.9844,173.6719 Q182.25,173.4375 182.8594,173.4375 L186.5313,173.4375 L189.9219,181.7969 Q190.5156,181.7969 190.7031,181.9375 Q191.0938,182.2031 191.0938,182.6563 Q191.0938,183.0313 190.8281,183.2656 Q190.5781,183.5 189.9688,183.5 L187.6719,183.5 Q187.0625,183.5 186.7969,183.2656 Q186.5313,183.0313 186.5313,182.6406 Q186.5313,182.2656 186.7969,182.0313 Q187.0625,181.7969 187.6719,181.7969 L188.0938,181.7969 L187.6875,180.7656 Z M186.9688,179.0625 L185.6094,175.6875 L184.2344,179.0625 L186.9688,179.0625 Z " fill="#000000"/><text fill="#000000" font-family="sans-serif" font-size="14" font-style="italic" lengthAdjust="spacing" textLength="27" x="205.5" y="184.7969">Link</text><line style="stroke:#181818;stroke-width:0.5;" x1="144.5" x2="261.5" y1="195" y2="195"/><text fill="#000000" font-family="sans-serif" font-size="14" lengthAdjust="spacing" textLength="107" x="149.5" y="214.1074">multiple: boolean</text></g><!--class DataType--><g id="elem_DataType"><rect codeLine="11" fill="#FFB6C1" height="32" id="DataType" rx="2.5" ry="2.5" style="stroke:#181818;stroke-width:0.5;" width="94" x="608" y="176.5"/><ellipse cx="623" cy="192.5" fill="#A9DCDF" rx="11" ry="11" style="stroke:#181818;stroke-width:1.0;"/><path d="M625.1875,194.2656 L621.0469,194.2656 L620.625,195.2969 L621.0469,195.2969 Q621.6563,195.2969 621.9219,195.5313 Q622.1875,195.7656 622.1875,196.1563 Q622.1875,196.5313 621.9219,196.7656 Q621.6563,197 621.0469,197 L618.75,197 Q618.1406,197 617.8906,196.7656 Q617.625,196.5313 617.625,196.1406 Q617.625,195.7656 617.9063,195.5313 Q618.1719,195.2813 618.7969,195.2969 L621.4688,188.6406 L620.3594,188.6406 Q619.75,188.6406 619.4844,188.4063 Q619.2188,188.1719 619.2188,187.7813 Q619.2188,187.4063 619.4844,187.1719 Q619.75,186.9375 620.3594,186.9375 L624.0313,186.9375 L627.4219,195.2969 Q628.0156,195.2969 628.2031,195.4375 Q628.5938,195.7031 628.5938,196.1563 Q628.5938,196.5313 628.3281,196.7656 Q628.0781,197 627.4688,197 L625.1719,197 Q624.5625,197 624.2969,196.7656 Q624.0313,196.5313 624.0313,196.1406 Q624.0313,195.7656 624.2969,195.5313 Q624.5625,195.2969 625.1719,195.2969 L625.5938,195.2969 L625.1875,194.2656 Z M624.4688,192.5625 L623.1094,189.1875 L621.7344,192.5625 L624.4688,192.5625 Z " fill="#000000"/><text fill="#000000" font-family="sans-serif" font-size="14" font-style="italic" lengthAdjust="spacing" textLength="62" x="637" y="198.2969">DataType</text></g><!--class MetamodelElement--><g id="elem_MetamodelElement"><rect codeLine="34" fill="#F1F1F1" height="32" id="MetamodelElement" rx="2.5" ry="2.5" style="stroke:#181818;stroke-width:0.5;" width="153" x="513.5" y="29.5"/><ellipse cx="528.5" cy="45.5" fill="#A9DCDF" rx="11" ry="11" style="stroke:#181818;stroke-width:1.0;"/><path d="M530.6875,47.2656 L526.5469,47.2656 L526.125,48.2969 L526.5469,48.2969 Q527.1563,48.2969 527.4219,48.5313 Q527.6875,48.7656 527.6875,49.1563 Q527.6875,49.5313 527.4219,49.7656 Q527.1563,50 526.5469,50 L524.25,50 Q523.6406,50 523.3906,49.7656 Q523.125,49.5313 523.125,49.1406 Q523.125,48.7656 523.4063,48.5313 Q523.6719,48.2813 524.2969,48.2969 L526.9688,41.6406 L525.8594,41.6406 Q525.25,41.6406 524.9844,41.4063 Q524.7188,41.1719 524.7188,40.7813 Q524.7188,40.4063 524.9844,40.1719 Q525.25,39.9375 525.8594,39.9375 L529.5313,39.9375 L532.9219,48.2969 Q533.5156,48.2969 533.7031,48.4375 Q534.0938,48.7031 534.0938,49.1563 Q534.0938,49.5313 533.8281,49.7656 Q533.5781,50 532.9688,50 L530.6719,50 Q530.0625,50 529.7969,49.7656 Q529.5313,49.5313 529.5313,49.1406 Q529.5313,48.7656 529.7969,48.5313 Q530.0625,48.2969 530.6719,48.2969 L531.0938,48.2969 L530.6875,47.2656 Z M529.9688,45.5625 L528.6094,42.1875 L527.2344,45.5625 L529.9688,45.5625 Z " fill="#000000"/><text fill="#000000" font-family="sans-serif" font-size="14" font-style="italic" lengthAdjust="spacing" textLength="121" x="542.5" y="51.2969">MetamodelElement</text></g><!--class Enumeration--><g id="elem_Enumeration"><rect codeLine="13" fill="#FFB6C1" height="32" id="Enumeration" rx="2.5" ry="2.5" style="stroke:#181818;stroke-width:0.5;" width="112" x="737" y="314.5"/><ellipse cx="752" cy="330.5" fill="#ADD1B2" rx="11" ry="11" style="stroke:#181818;stroke-width:1.0;"/><path d="M754.7656,326.375 Q754.9219,326.1563 755.1094,326.0469 Q755.2969,325.9375 755.5156,325.9375 Q755.8906,325.9375 756.125,326.2031 Q756.3594,326.4531 756.3594,327.0625 L756.3594,328.5156 Q756.3594,329.125 756.125,329.3906 Q755.8906,329.6563 755.5156,329.6563 Q755.1719,329.6563 754.9688,329.4531 Q754.7656,329.2656 754.6563,328.75 Q754.6094,328.3906 754.4219,328.2031 Q754.0938,327.8281 753.4844,327.6094 Q752.875,327.3906 752.25,327.3906 Q751.4844,327.3906 750.8438,327.7188 Q750.2188,328.0469 749.7188,328.7969 Q749.2344,329.5469 749.2344,330.5781 L749.2344,331.6719 Q749.2344,332.9063 750.125,333.7344 Q751.0156,334.5469 752.6094,334.5469 Q753.5469,334.5469 754.2031,334.2969 Q754.5938,334.1406 755.0156,333.7031 Q755.2813,333.4375 755.4219,333.3594 Q755.5781,333.2813 755.7813,333.2813 Q756.1094,333.2813 756.3594,333.5469 Q756.625,333.7969 756.625,334.1406 Q756.625,334.4844 756.2813,334.8906 Q755.7813,335.4688 754.9844,335.7969 Q753.9063,336.25 752.6094,336.25 Q751.0938,336.25 749.8906,335.625 Q748.9063,335.125 748.2188,334.0625 Q747.5313,332.9844 747.5313,331.7031 L747.5313,330.5469 Q747.5313,329.2188 748.1406,328.0781 Q748.7656,326.9219 749.8594,326.3125 Q750.9531,325.6875 752.1875,325.6875 Q752.9219,325.6875 753.5625,325.8594 Q754.2188,326.0156 754.7656,326.375 Z " fill="#000000"/><text fill="#000000" font-family="sans-serif" font-size="14" lengthAdjust="spacing" textLength="80" x="766" y="336.2969">Enumeration</text></g><!--class EnumerationLiteral--><g id="elem_EnumerationLiteral"><rect codeLine="15" fill="#FFB6C1" height="32" id="EnumerationLiteral" rx="2.5" ry="2.5" style="stroke:#181818;stroke-width:0.5;" width="151" x="511.5" y="314.5"/><ellipse cx="526.5" cy="330.5" fill="#ADD1B2" rx="11" ry="11" style="stroke:#181818;stroke-width:1.0;"/><path d="M529.2656,326.375 Q529.4219,326.1563 529.6094,326.0469 Q529.7969,325.9375 530.0156,325.9375 Q530.3906,325.9375 530.625,326.2031 Q530.8594,326.4531 530.8594,327.0625 L530.8594,328.5156 Q530.8594,329.125 530.625,329.3906 Q530.3906,329.6563 530.0156,329.6563 Q529.6719,329.6563 529.4688,329.4531 Q529.2656,329.2656 529.1563,328.75 Q529.1094,328.3906 528.9219,328.2031 Q528.5938,327.8281 527.9844,327.6094 Q527.375,327.3906 526.75,327.3906 Q525.9844,327.3906 525.3438,327.7188 Q524.7188,328.0469 524.2188,328.7969 Q523.7344,329.5469 523.7344,330.5781 L523.7344,331.6719 Q523.7344,332.9063 524.625,333.7344 Q525.5156,334.5469 527.1094,334.5469 Q528.0469,334.5469 528.7031,334.2969 Q529.0938,334.1406 529.5156,333.7031 Q529.7813,333.4375 529.9219,333.3594 Q530.0781,333.2813 530.2813,333.2813 Q530.6094,333.2813 530.8594,333.5469 Q531.125,333.7969 531.125,334.1406 Q531.125,334.4844 530.7813,334.8906 Q530.2813,335.4688 529.4844,335.7969 Q528.4063,336.25 527.1094,336.25 Q525.5938,336.25 524.3906,335.625 Q523.4063,335.125 522.7188,334.0625 Q522.0313,332.9844 522.0313,331.7031 L522.0313,330.5469 Q522.0313,329.2188 522.6406,328.0781 Q523.2656,326.9219 524.3594,326.3125 Q525.4531,325.6875 526.6875,325.6875 Q527.4219,325.6875 528.0625,325.8594 Q528.7188,326.0156 529.2656,326.375 Z " fill="#000000"/><text fill="#000000" font-family="sans-serif" font-size="14" lengthAdjust="spacing" textLength="119" x="540.5" y="336.2969">EnumerationLiteral</text></g><!--class Feature--><g id="elem_Feature"><rect codeLine="17" fill="#ADD8E6" height="58.6211" id="Feature" rx="2.5" ry="2.5" style="stroke:#181818;stroke-width:0.5;" width="121" x="280.5" y="16"/><ellipse cx="313.05" cy="32" fill="#A9DCDF" rx="11" ry="11" style="stroke:#181818;stroke-width:1.0;"/><path d="M315.2375,33.7656 L311.0969,33.7656 L310.675,34.7969 L311.0969,34.7969 Q311.7063,34.7969 311.9719,35.0313 Q312.2375,35.2656 312.2375,35.6563 Q312.2375,36.0313 311.9719,36.2656 Q311.7063,36.5 311.0969,36.5 L308.8,36.5 Q308.1906,36.5 307.9406,36.2656 Q307.675,36.0313 307.675,35.6406 Q307.675,35.2656 307.9563,35.0313 Q308.2219,34.7813 308.8469,34.7969 L311.5188,28.1406 L310.4094,28.1406 Q309.8,28.1406 309.5344,27.9063 Q309.2688,27.6719 309.2688,27.2813 Q309.2688,26.9063 309.5344,26.6719 Q309.8,26.4375 310.4094,26.4375 L314.0813,26.4375 L317.4719,34.7969 Q318.0656,34.7969 318.2531,34.9375 Q318.6438,35.2031 318.6438,35.6563 Q318.6438,36.0313 318.3781,36.2656 Q318.1281,36.5 317.5188,36.5 L315.2219,36.5 Q314.6125,36.5 314.3469,36.2656 Q314.0813,36.0313 314.0813,35.6406 Q314.0813,35.2656 314.3469,35.0313 Q314.6125,34.7969 315.2219,34.7969 L315.6438,34.7969 L315.2375,33.7656 Z M314.5188,32.0625 L313.1594,28.6875 L311.7844,32.0625 L314.5188,32.0625 Z " fill="#000000"/><text fill="#000000" font-family="sans-serif" font-size="14" font-style="italic" lengthAdjust="spacing" textLength="50" x="330.95" y="37.7969">Feature</text><line style="stroke:#181818;stroke-width:0.5;" x1="281.5" x2="400.5" y1="48" y2="48"/><text fill="#000000" font-family="sans-serif" font-size="14" lengthAdjust="spacing" textLength="109" x="286.5" y="67.1074">optional: boolean</text></g><!--class Metamodel--><g id="elem_Metamodel"><rect codeLine="29" fill="#F1F1F1" height="77.2422" id="Metamodel" rx="2.5" ry="2.5" style="stroke:#181818;stroke-width:0.5;" width="146" x="756" y="7"/><ellipse cx="791.25" cy="23" fill="#ADD1B2" rx="11" ry="11" style="stroke:#181818;stroke-width:1.0;"/><path d="M794.0156,18.875 Q794.1719,18.6563 794.3594,18.5469 Q794.5469,18.4375 794.7656,18.4375 Q795.1406,18.4375 795.375,18.7031 Q795.6094,18.9531 795.6094,19.5625 L795.6094,21.0156 Q795.6094,21.625 795.375,21.8906 Q795.1406,22.1563 794.7656,22.1563 Q794.4219,22.1563 794.2188,21.9531 Q794.0156,21.7656 793.9063,21.25 Q793.8594,20.8906 793.6719,20.7031 Q793.3438,20.3281 792.7344,20.1094 Q792.125,19.8906 791.5,19.8906 Q790.7344,19.8906 790.0938,20.2188 Q789.4688,20.5469 788.9688,21.2969 Q788.4844,22.0469 788.4844,23.0781 L788.4844,24.1719 Q788.4844,25.4063 789.375,26.2344 Q790.2656,27.0469 791.8594,27.0469 Q792.7969,27.0469 793.4531,26.7969 Q793.8438,26.6406 794.2656,26.2031 Q794.5313,25.9375 794.6719,25.8594 Q794.8281,25.7813 795.0313,25.7813 Q795.3594,25.7813 795.6094,26.0469 Q795.875,26.2969 795.875,26.6406 Q795.875,26.9844 795.5313,27.3906 Q795.0313,27.9688 794.2344,28.2969 Q793.1563,28.75 791.8594,28.75 Q790.3438,28.75 789.1406,28.125 Q788.1563,27.625 787.4688,26.5625 Q786.7813,25.4844 786.7813,24.2031 L786.7813,23.0469 Q786.7813,21.7188 787.3906,20.5781 Q788.0156,19.4219 789.1094,18.8125 Q790.2031,18.1875 791.4375,18.1875 Q792.1719,18.1875 792.8125,18.3594 Q793.4688,18.5156 794.0156,18.875 Z " fill="#000000"/><text fill="#000000" font-family="sans-serif" font-size="14" lengthAdjust="spacing" textLength="69" x="809.75" y="28.7969">Metamodel</text><line style="stroke:#181818;stroke-width:0.5;" x1="757" x2="901" y1="39" y2="39"/><text fill="#000000" font-family="sans-serif" font-size="14" lengthAdjust="spacing" textLength="134" x="762" y="58.1074">qualifiedName: String</text><text fill="#000000" font-family="sans-serif" font-size="14" lengthAdjust="spacing" textLength="30" x="762" y="76.7285">id: Id</text></g><!--class PrimitiveType--><g id="elem_PrimitiveType"><rect codeLine="46" fill="#FFB6C1" height="32" id="PrimitiveType" rx="2.5" ry="2.5" style="stroke:#181818;stroke-width:0.5;" width="117" x="884.5" y="314.5"/><ellipse cx="899.5" cy="330.5" fill="#ADD1B2" rx="11" ry="11" style="stroke:#181818;stroke-width:1.0;"/><path d="M902.2656,326.375 Q902.4219,326.1563 902.6094,326.0469 Q902.7969,325.9375 903.0156,325.9375 Q903.3906,325.9375 903.625,326.2031 Q903.8594,326.4531 903.8594,327.0625 L903.8594,328.5156 Q903.8594,329.125 903.625,329.3906 Q903.3906,329.6563 903.0156,329.6563 Q902.6719,329.6563 902.4688,329.4531 Q902.2656,329.2656 902.1563,328.75 Q902.1094,328.3906 901.9219,328.2031 Q901.5938,327.8281 900.9844,327.6094 Q900.375,327.3906 899.75,327.3906 Q898.9844,327.3906 898.3438,327.7188 Q897.7188,328.0469 897.2188,328.7969 Q896.7344,329.5469 896.7344,330.5781 L896.7344,331.6719 Q896.7344,332.9063 897.625,333.7344 Q898.5156,334.5469 900.1094,334.5469 Q901.0469,334.5469 901.7031,334.2969 Q902.0938,334.1406 902.5156,333.7031 Q902.7813,333.4375 902.9219,333.3594 Q903.0781,333.2813 903.2813,333.2813 Q903.6094,333.2813 903.8594,333.5469 Q904.125,333.7969 904.125,334.1406 Q904.125,334.4844 903.7813,334.8906 Q903.2813,335.4688 902.4844,335.7969 Q901.4063,336.25 900.1094,336.25 Q898.5938,336.25 897.3906,335.625 Q896.4063,335.125 895.7188,334.0625 Q895.0313,332.9844 895.0313,331.7031 L895.0313,330.5469 Q895.0313,329.2188 895.6406,328.0781 Q896.2656,326.9219 897.3594,326.3125 Q898.4531,325.6875 899.6875,325.6875 Q900.4219,325.6875 901.0625,325.8594 Q901.7188,326.0156 902.2656,326.375 Z " fill="#000000"/><text fill="#000000" font-family="sans-serif" font-size="14" lengthAdjust="spacing" textLength="85" x="913.5" y="336.2969">PrimitiveType</text></g><!--class Property--><g id="elem_Property"><rect codeLine="48" fill="#ADD8E6" height="32" id="Property" rx="2.5" ry="2.5" style="stroke:#181818;stroke-width:0.5;" width="86" x="298" y="176.5"/><ellipse cx="313" cy="192.5" fill="#ADD1B2" rx="11" ry="11" style="stroke:#181818;stroke-width:1.0;"/><path d="M315.7656,188.375 Q315.9219,188.1563 316.1094,188.0469 Q316.2969,187.9375 316.5156,187.9375 Q316.8906,187.9375 317.125,188.2031 Q317.3594,188.4531 317.3594,189.0625 L317.3594,190.5156 Q317.3594,191.125 317.125,191.3906 Q316.8906,191.6563 316.5156,191.6563 Q316.1719,191.6563 315.9688,191.4531 Q315.7656,191.2656 315.6563,190.75 Q315.6094,190.3906 315.4219,190.2031 Q315.0938,189.8281 314.4844,189.6094 Q313.875,189.3906 313.25,189.3906 Q312.4844,189.3906 311.8438,189.7188 Q311.2188,190.0469 310.7188,190.7969 Q310.2344,191.5469 310.2344,192.5781 L310.2344,193.6719 Q310.2344,194.9063 311.125,195.7344 Q312.0156,196.5469 313.6094,196.5469 Q314.5469,196.5469 315.2031,196.2969 Q315.5938,196.1406 316.0156,195.7031 Q316.2813,195.4375 316.4219,195.3594 Q316.5781,195.2813 316.7813,195.2813 Q317.1094,195.2813 317.3594,195.5469 Q317.625,195.7969 317.625,196.1406 Q317.625,196.4844 317.2813,196.8906 Q316.7813,197.4688 315.9844,197.7969 Q314.9063,198.25 313.6094,198.25 Q312.0938,198.25 310.8906,197.625 Q309.9063,197.125 309.2188,196.0625 Q308.5313,194.9844 308.5313,193.7031 L308.5313,192.5469 Q308.5313,191.2188 309.1406,190.0781 Q309.7656,188.9219 310.8594,188.3125 Q311.9531,187.6875 313.1875,187.6875 Q313.9219,187.6875 314.5625,187.8594 Q315.2188,188.0156 315.7656,188.375 Z " fill="#000000"/><text fill="#000000" font-family="sans-serif" font-size="14" lengthAdjust="spacing" textLength="54" x="327" y="198.2969">Property</text></g><!--class Reference--><g id="elem_Reference"><rect codeLine="50" fill="#ADD8E6" height="32" id="Reference" rx="2.5" ry="2.5" style="stroke:#181818;stroke-width:0.5;" width="98" x="154" y="314.5"/><ellipse cx="169" cy="330.5" fill="#ADD1B2" rx="11" ry="11" style="stroke:#181818;stroke-width:1.0;"/><path d="M171.7656,326.375 Q171.9219,326.1563 172.1094,326.0469 Q172.2969,325.9375 172.5156,325.9375 Q172.8906,325.9375 173.125,326.2031 Q173.3594,326.4531 173.3594,327.0625 L173.3594,328.5156 Q173.3594,329.125 173.125,329.3906 Q172.8906,329.6563 172.5156,329.6563 Q172.1719,329.6563 171.9688,329.4531 Q171.7656,329.2656 171.6563,328.75 Q171.6094,328.3906 171.4219,328.2031 Q171.0938,327.8281 170.4844,327.6094 Q169.875,327.3906 169.25,327.3906 Q168.4844,327.3906 167.8438,327.7188 Q167.2188,328.0469 166.7188,328.7969 Q166.2344,329.5469 166.2344,330.5781 L166.2344,331.6719 Q166.2344,332.9063 167.125,333.7344 Q168.0156,334.5469 169.6094,334.5469 Q170.5469,334.5469 171.2031,334.2969 Q171.5938,334.1406 172.0156,333.7031 Q172.2813,333.4375 172.4219,333.3594 Q172.5781,333.2813 172.7813,333.2813 Q173.1094,333.2813 173.3594,333.5469 Q173.625,333.7969 173.625,334.1406 Q173.625,334.4844 173.2813,334.8906 Q172.7813,335.4688 171.9844,335.7969 Q170.9063,336.25 169.6094,336.25 Q168.0938,336.25 166.8906,335.625 Q165.9063,335.125 165.2188,334.0625 Q164.5313,332.9844 164.5313,331.7031 L164.5313,330.5469 Q164.5313,329.2188 165.1406,328.0781 Q165.7656,326.9219 166.8594,326.3125 Q167.9531,325.6875 169.1875,325.6875 Q169.9219,325.6875 170.5625,325.8594 Q171.2188,326.0156 171.7656,326.375 Z " fill="#000000"/><text fill="#000000" font-family="sans-serif" font-size="14" lengthAdjust="spacing" textLength="66" x="183" y="336.2969">Reference</text></g><!--reverse link FeaturesContainer to Concept--><g id="link_FeaturesContainer_Concept"><path d="M334.62,373.53 C316.97,389.19 297.36,406.6 281.36,420.79 " fill="none" id="FeaturesContainer-backto-Concept" style="stroke:#181818;stroke-width:1.0;"/><polygon fill="none" points="330.2,368.1,349.8,360.06,339.49,378.57,330.2,368.1" style="stroke:#181818;stroke-width:1.0;"/></g><!--reverse link FeaturesContainer to ConceptInterface--><g id="link_FeaturesContainer_ConceptInterface"><path d="M397.42,379.61 C404.72,408.77 410.54,446.66 404,480 C399.47,503.08 396.44,509.03 384,529 C377.26,539.82 367.86,550.55 359.86,558.82 " fill="none" id="FeaturesContainer-backto-ConceptInterface" style="stroke:#181818;stroke-width:1.0;"/><polygon fill="none" points="390.61,381.25,392.01,360.1,404.1,377.5,390.61,381.25" style="stroke:#181818;stroke-width:1.0;"/></g><!--reverse link Link to Containment--><g id="link_Link_Containment"><path d="M159.13,236.11 C131.59,262.87 97.76,295.74 78.45,314.49 " fill="none" id="Link-backto-Containment" style="stroke:#181818;stroke-width:1.0;"/><polygon fill="none" points="154.43,230.92,173.65,222.01,164.18,240.97,154.43,230.92" style="stroke:#181818;stroke-width:1.0;"/></g><!--reverse link MetamodelElement to DataType--><g id="link_MetamodelElement_DataType"><path d="M605.16,80.32 C618.78,110.7 638.14,153.9 648.26,176.46 " fill="none" id="MetamodelElement-backto-DataType" style="stroke:#181818;stroke-width:1.0;"/><polygon fill="none" points="598.63,82.86,596.83,61.74,611.4,77.13,598.63,82.86" style="stroke:#181818;stroke-width:1.0;"/></g><!--reverse link DataType to Enumeration--><g id="link_DataType_Enumeration"><path d="M684.55,222.62 C713.1,250.75 755.21,292.26 777.64,314.36 " fill="none" id="DataType-backto-Enumeration" style="stroke:#181818;stroke-width:1.0;"/><polygon fill="none" points="679.63,227.6,670.3,208.57,689.45,217.63,679.63,227.6" style="stroke:#181818;stroke-width:1.0;"/></g><!--reverse link MetamodelElement to FeaturesContainer--><g id="link_MetamodelElement_FeaturesContainer"><path d="M567.48,78.09 C536.28,121.72 477.98,202.79 427,271 C419.71,280.75 411.64,291.32 404.36,300.76 " fill="none" id="MetamodelElement-backto-FeaturesContainer" style="stroke:#181818;stroke-width:1.0;"/><polygon fill="none" points="561.95,73.79,579.27,61.58,573.35,81.93,561.95,73.79" style="stroke:#181818;stroke-width:1.0;"/></g><!--reverse link Feature to Link--><g id="link_Feature_Link"><path d="M299.76,89.83 C277.26,113.47 250.04,142.07 230.21,162.91 " fill="none" id="Feature-backto-Link" style="stroke:#181818;stroke-width:1.0;"/><polygon fill="none" points="294.88,84.81,313.74,75.15,305.02,94.46,294.88,84.81" style="stroke:#181818;stroke-width:1.0;"/></g><!--reverse link DataType to PrimitiveType--><g id="link_DataType_PrimitiveType"><path d="M705.07,217.14 C764.26,245.09 861,290.78 910.94,314.36 " fill="none" id="DataType-backto-PrimitiveType" style="stroke:#181818;stroke-width:1.0;"/><polygon fill="none" points="702.02,223.44,686.92,208.57,708,210.78,702.02,223.44" style="stroke:#181818;stroke-width:1.0;"/></g><!--reverse link Feature to Property--><g id="link_Feature_Property"><path d="M341,95.36 C341,123.6 341,157.2 341,176.27 " fill="none" id="Feature-backto-Property" style="stroke:#181818;stroke-width:1.0;"/><polygon fill="none" points="334,95.15,341,75.15,348,95.15,334,95.15" style="stroke:#181818;stroke-width:1.0;"/></g><!--reverse link Link to Reference--><g id="link_Link_Reference"><path d="M203,242.15 C203,267.66 203,297.13 203,314.49 " fill="none" id="Link-backto-Reference" style="stroke:#181818;stroke-width:1.0;"/><polygon fill="none" points="196,242.01,203,222.01,210,242.01,196,242.01" style="stroke:#181818;stroke-width:1.0;"/></g><!--link Concept to Concept--><g id="link_Concept_Concept"><path codeLine="54" d="M310.4,439.26 C329.74,439.43 345,443.18 345,450.5 C345,457.14 332.47,460.84 315.72,461.6 " fill="none" id="Concept-to-Concept" style="stroke:#181818;stroke-width:1.0;"/><polygon fill="#181818" points="310.4,461.74,319.4998,465.5073,315.3983,461.6115,319.2942,457.51,310.4,461.74" style="stroke:#181818;stroke-width:1.0;"/><text fill="#000000" font-family="sans-serif" font-size="13" lengthAdjust="spacing" textLength="46" x="351" y="456.0283">extends</text><text fill="#000000" font-family="sans-serif" font-size="13" lengthAdjust="spacing" textLength="5" x="318.1878" y="433.9233">*</text><text fill="#000000" font-family="sans-serif" font-size="13" lengthAdjust="spacing" textLength="22" x="317.8663" y="459.0854">0..1</text></g><!--link Concept to ConceptInterface--><g id="link_Concept_ConceptInterface"><path codeLine="55" d="M271.27,480.22 C289.09,503.2 313.58,534.77 329.1,554.79 " fill="none" id="Concept-to-ConceptInterface" style="stroke:#181818;stroke-width:1.0;"/><polygon fill="#181818" points="332.27,558.87,329.9331,549.3024,329.2132,554.9133,323.6023,554.1933,332.27,558.87" style="stroke:#181818;stroke-width:1.0;"/><text fill="#000000" font-family="sans-serif" font-size="13" lengthAdjust="spacing" textLength="67" x="308" y="525.0283">implements</text><text fill="#000000" font-family="sans-serif" font-size="13" lengthAdjust="spacing" textLength="5" x="270.0387" y="501.5979">*</text><text fill="#000000" font-family="sans-serif" font-size="13" lengthAdjust="spacing" textLength="5" x="322.5563" y="547.7878">*</text></g><!--link ConceptInterface to ConceptInterface--><g id="link_ConceptInterface_ConceptInterface"><path codeLine="57" d="M414.17,564.93 C433.87,565.37 449,568.72 449,575 C449,580.69 436.58,583.98 419.58,584.87 " fill="none" id="ConceptInterface-to-ConceptInterface" style="stroke:#181818;stroke-width:1.0;"/><polygon fill="#181818" points="414.17,585.07,423.3123,588.7332,419.1666,584.8844,423.0153,580.7387,414.17,585.07" style="stroke:#181818;stroke-width:1.0;"/><text fill="#000000" font-family="sans-serif" font-size="13" lengthAdjust="spacing" textLength="46" x="455" y="580.5283">extends</text><text fill="#000000" font-family="sans-serif" font-size="13" lengthAdjust="spacing" textLength="5" x="422.1183" y="559.9431">*</text><text fill="#000000" font-family="sans-serif" font-size="13" lengthAdjust="spacing" textLength="5" x="422.1183" y="582.286">*</text></g><!--link EnumerationLiteral to Enumeration--><g id="link_EnumerationLiteral_Enumeration"><path codeLine="59" d="M662.54,330.5 C682.5,330.5 703.95,330.5 723.58,330.5 " fill="none" id="EnumerationLiteral-to-Enumeration" style="stroke:#181818;stroke-width:1.0;"/><polygon fill="#181818" points="736.83,330.5,730.83,326.5,724.83,330.5,730.83,334.5,736.83,330.5" style="stroke:#181818;stroke-width:1.0;"/><text fill="#000000" font-family="sans-serif" font-size="13" lengthAdjust="spacing" textLength="38" x="680.75" y="323.5283">literals</text><text fill="#000000" font-family="sans-serif" font-size="13" lengthAdjust="spacing" textLength="5" x="670.5879" y="326.6668">*</text><text fill="#000000" font-family="sans-serif" font-size="13" lengthAdjust="spacing" textLength="7" x="722.1848" y="326.4579">1</text></g><!--link Feature to FeaturesContainer--><g id="link_Feature_FeaturesContainer"><path codeLine="61" d="M361,75.08 C375.57,97.75 394.09,130.85 402,163 C412.31,204.93 403.96,254.16 395.11,288.16 " fill="none" id="Feature-to-FeaturesContainer" style="stroke:#181818;stroke-width:1.0;"/><polygon fill="#181818" points="391.61,300.84,397.0619,296.1202,394.802,289.2723,389.3501,293.9922,391.61,300.84" style="stroke:#181818;stroke-width:1.0;"/><text fill="#000000" font-family="sans-serif" font-size="13" lengthAdjust="spacing" textLength="46" x="407" y="198.0283">features</text><text fill="#000000" font-family="sans-serif" font-size="13" lengthAdjust="spacing" textLength="5" x="359.4453" y="96.6713">*</text><text fill="#000000" font-family="sans-serif" font-size="13" lengthAdjust="spacing" textLength="7" x="385.9466" y="289.5941">1</text></g><!--link Link to FeaturesContainer--><g id="link_Link_FeaturesContainer"><path codeLine="63" d="M240.52,222.01 C269.66,244.15 310.05,274.84 340.22,297.75 " fill="none" id="Link-to-FeaturesContainer" style="stroke:#181818;stroke-width:1.0;"/><polygon fill="#181818" points="344.22,300.79,339.4694,292.1626,340.2373,297.7671,334.6328,298.535,344.22,300.79" style="stroke:#181818;stroke-width:1.0;"/><text fill="#000000" font-family="sans-serif" font-size="13" lengthAdjust="spacing" textLength="25" x="304" y="267.0283">type</text><text fill="#000000" font-family="sans-serif" font-size="13" lengthAdjust="spacing" textLength="5" x="242.4146" y="243.5875">*</text><text fill="#000000" font-family="sans-serif" font-size="13" lengthAdjust="spacing" textLength="7" x="328.19" y="289.5332">1</text></g><!--link Metamodel to Metamodel--><g id="link_Metamodel_Metamodel"><path codeLine="65" d="M902.19,30.98 C921.96,31.75 937,36.59 937,45.5 C937,53.58 924.65,58.31 907.62,59.69 " fill="none" id="Metamodel-to-Metamodel" style="stroke:#181818;stroke-width:1.0;"/><polygon fill="#181818" points="902.19,60.02,911.4134,63.4738,907.181,59.7205,910.9343,55.4882,902.19,60.02" style="stroke:#181818;stroke-width:1.0;"/><text fill="#000000" font-family="sans-serif" font-size="13" lengthAdjust="spacing" textLength="66" x="943" y="51.0283">dependsOn</text><text fill="#000000" font-family="sans-serif" font-size="13" lengthAdjust="spacing" textLength="5" x="909.9955" y="25.6369">*</text><text fill="#000000" font-family="sans-serif" font-size="13" lengthAdjust="spacing" textLength="5" x="909.9955" y="57.6717">*</text></g><!--link MetamodelElement to Metamodel--><g id="link_MetamodelElement_Metamodel"><path codeLine="66" d="M666.61,45.5 C690.8,45.5 717.69,45.5 742.52,45.5 " fill="none" id="MetamodelElement-to-Metamodel" style="stroke:#181818;stroke-width:1.0;"/><polygon fill="#181818" points="755.68,45.5,749.68,41.5,743.68,45.5,749.68,49.5,755.68,45.5" style="stroke:#181818;stroke-width:1.0;"/><text fill="#000000" font-family="sans-serif" font-size="13" lengthAdjust="spacing" textLength="53" x="684.75" y="38.5283">elements</text><text fill="#000000" font-family="sans-serif" font-size="13" lengthAdjust="spacing" textLength="5" x="674.3974" y="41.7059">*</text><text fill="#000000" font-family="sans-serif" font-size="13" lengthAdjust="spacing" textLength="7" x="741.118" y="41.694">1</text></g><!--link Property to DataType--><g id="link_Property_DataType"><path codeLine="68" d="M360.82,176.44 C392.89,152.41 458.54,111.31 517.5,125 C557.66,134.33 599.6,157.11 626.45,173.63 " fill="none" id="Property-to-DataType" style="stroke:#181818;stroke-width:1.0;"/><polygon fill="#181818" points="630.95,176.44,625.4257,168.2864,626.706,173.7964,621.1959,175.0768,630.95,176.44" style="stroke:#181818;stroke-width:1.0;"/><text fill="#000000" font-family="sans-serif" font-size="13" lengthAdjust="spacing" textLength="25" x="491.5" y="129.0283">type</text><text fill="#000000" font-family="sans-serif" font-size="13" lengthAdjust="spacing" textLength="5" x="361.5573" y="165.381">*</text><text fill="#000000" font-family="sans-serif" font-size="13" lengthAdjust="spacing" textLength="7" x="614.8241" y="165.381">1</text></g><rect fill="#DDDDDD" height="69.8633" id="_legend" rx="7.5" ry="7.5" style="stroke:#000000;stroke-width:1.0;" width="130" x="439" y="609"/><rect fill="#D3D3D3" height="18.6211" style="stroke:none;stroke-width:1.0;" width="120" x="444" y="616"/><rect fill="#ADD8E6" height="18.6211" style="stroke:none;stroke-width:1.0;" width="120" x="444" y="616"/><text fill="#000000" font-family="sans-serif" font-size="14" lengthAdjust="spacing" textLength="50" x="444" y="631.1074">Feature</text><rect fill="#90EE90" height="18.6211" style="stroke:none;stroke-width:1.0;" width="120" x="444" y="634.6211"/><text fill="#000000" font-family="sans-serif" font-size="14" lengthAdjust="spacing" textLength="116" x="444" y="649.7285">Feature Container</text><rect fill="#FFB6C1" height="18.6211" style="stroke:none;stroke-width:1.0;" width="120" x="444" y="653.2422"/><text fill="#000000" font-family="sans-serif" font-size="14" lengthAdjust="spacing" textLength="62" x="444" y="668.3496">DataType</text><line style="stroke:#D3D3D3;stroke-width:1.0;" x1="444" x2="564" y1="616" y2="616"/><line style="stroke:#D3D3D3;stroke-width:1.0;" x1="444" x2="564" y1="634.6211" y2="634.6211"/><line style="stroke:#D3D3D3;stroke-width:1.0;" x1="444" x2="564" y1="653.2422" y2="653.2422"/><line style="stroke:#D3D3D3;stroke-width:1.0;" x1="444" x2="564" y1="671.8633" y2="671.8633"/><line style="stroke:#D3D3D3;stroke-width:1.0;" x1="444" x2="444" y1="616" y2="671.8633"/><line style="stroke:#D3D3D3;stroke-width:1.0;" x1="564" x2="564" y1="616" y2="671.8633"/><!--SRC=[KypCIyufJKbLo4qjIGJZ_9JK7Bs2qjmSBgwYrDpyibG5Fw14SK5YScgAQrv9PaabXdX0KNvPPafg4KmYfB8WDIKr3SPrpClBBqaioSpFum80]--></g></svg>