<?xml version="1.0" encoding="UTF-8" standalone="no"?><svg xmlns="http://www.w3.org/2000/svg" xmlns:xlink="http://www.w3.org/1999/xlink" contentStyleType="text/css" height="876px" preserveAspectRatio="none" style="width:1153px;height:876px;background:#FFFFFF;" version="1.1" viewBox="0 0 1153 876" width="1153px" zoomAndPan="magnify"><defs/><g><!--class Concept--><g id="elem_Concept"><rect codeLine="3" fill="#90EE90" height="58.6211" id="Concept" rx="2.5" ry="2.5" style="stroke:#181818;stroke-width:0.5;" width="122" x="248" y="599"/><ellipse cx="279.65" cy="615" fill="#ADD1B2" rx="11" ry="11" style="stroke:#181818;stroke-width:1.0;"/><path d="M282.4156,610.875 Q282.5719,610.6563 282.7594,610.5469 Q282.9469,610.4375 283.1656,610.4375 Q283.5406,610.4375 283.775,610.7031 Q284.0094,610.9531 284.0094,611.5625 L284.0094,613.0156 Q284.0094,613.625 283.775,613.8906 Q283.5406,614.1563 283.1656,614.1563 Q282.8219,614.1563 282.6188,613.9531 Q282.4156,613.7656 282.3063,613.25 Q282.2594,612.8906 282.0719,612.7031 Q281.7438,612.3281 281.1344,612.1094 Q280.525,611.8906 279.9,611.8906 Q279.1344,611.8906 278.4938,612.2188 Q277.8688,612.5469 277.3688,613.2969 Q276.8844,614.0469 276.8844,615.0781 L276.8844,616.1719 Q276.8844,617.4063 277.775,618.2344 Q278.6656,619.0469 280.2594,619.0469 Q281.1969,619.0469 281.8531,618.7969 Q282.2438,618.6406 282.6656,618.2031 Q282.9313,617.9375 283.0719,617.8594 Q283.2281,617.7813 283.4313,617.7813 Q283.7594,617.7813 284.0094,618.0469 Q284.275,618.2969 284.275,618.6406 Q284.275,618.9844 283.9313,619.3906 Q283.4313,619.9688 282.6344,620.2969 Q281.5563,620.75 280.2594,620.75 Q278.7438,620.75 277.5406,620.125 Q276.5563,619.625 275.8688,618.5625 Q275.1813,617.4844 275.1813,616.2031 L275.1813,615.0469 Q275.1813,613.7188 275.7906,612.5781 Q276.4156,611.4219 277.5094,610.8125 Q278.6031,610.1875 279.8375,610.1875 Q280.5719,610.1875 281.2125,610.3594 Q281.8688,610.5156 282.4156,610.875 Z " fill="#000000"/><text fill="#000000" font-family="sans-serif" font-size="14" lengthAdjust="spacing" textLength="53" x="297.35" y="620.7969">Concept</text><line style="stroke:#181818;stroke-width:0.5;" x1="249" x2="369" y1="631" y2="631"/><text fill="#000000" font-family="sans-serif" font-size="14" lengthAdjust="spacing" textLength="110" x="254" y="650.1074">abstract: boolean</text></g><!--class FeaturesContainer--><g id="elem_FeaturesContainer"><rect codeLine="21" fill="#90EE90" height="58.6211" id="FeaturesContainer" rx="2.5" ry="2.5" style="stroke:#181818;stroke-width:0.5;" width="189" x="347.5" y="470"/><ellipse cx="379.6" cy="486" fill="#A9DCDF" rx="11" ry="11" style="stroke:#181818;stroke-width:1.0;"/><path d="M381.7875,487.7656 L377.6469,487.7656 L377.225,488.7969 L377.6469,488.7969 Q378.2563,488.7969 378.5219,489.0313 Q378.7875,489.2656 378.7875,489.6563 Q378.7875,490.0313 378.5219,490.2656 Q378.2563,490.5 377.6469,490.5 L375.35,490.5 Q374.7406,490.5 374.4906,490.2656 Q374.225,490.0313 374.225,489.6406 Q374.225,489.2656 374.5063,489.0313 Q374.7719,488.7813 375.3969,488.7969 L378.0688,482.1406 L376.9594,482.1406 Q376.35,482.1406 376.0844,481.9063 Q375.8188,481.6719 375.8188,481.2813 Q375.8188,480.9063 376.0844,480.6719 Q376.35,480.4375 376.9594,480.4375 L380.6313,480.4375 L384.0219,488.7969 Q384.6156,488.7969 384.8031,488.9375 Q385.1938,489.2031 385.1938,489.6563 Q385.1938,490.0313 384.9281,490.2656 Q384.6781,490.5 384.0688,490.5 L381.7719,490.5 Q381.1625,490.5 380.8969,490.2656 Q380.6313,490.0313 380.6313,489.6406 Q380.6313,489.2656 380.8969,489.0313 Q381.1625,488.7969 381.7719,488.7969 L382.1938,488.7969 L381.7875,487.7656 Z M381.0688,486.0625 L379.7094,482.6875 L378.3344,486.0625 L381.0688,486.0625 Z " fill="#000000"/><text fill="#000000" font-family="sans-serif" font-size="14" font-style="italic" lengthAdjust="spacing" textLength="119" x="397.4" y="491.7969">FeaturesContainer</text><line style="stroke:#181818;stroke-width:0.5;" x1="348.5" x2="535.5" y1="502" y2="502"/><text fill="#000000" font-family="sans-serif" font-size="14" lengthAdjust="spacing" textLength="177" x="353.5" y="521.1074">allFeatures(): List&lt;Feature&gt;</text></g><!--class ConceptInterface--><g id="elem_ConceptInterface"><rect codeLine="7" fill="#90EE90" height="32" id="ConceptInterface" rx="2.5" ry="2.5" style="stroke:#181818;stroke-width:0.5;" width="140" x="334" y="737"/><ellipse cx="349" cy="753" fill="#ADD1B2" rx="11" ry="11" style="stroke:#181818;stroke-width:1.0;"/><path d="M351.7656,748.875 Q351.9219,748.6563 352.1094,748.5469 Q352.2969,748.4375 352.5156,748.4375 Q352.8906,748.4375 353.125,748.7031 Q353.3594,748.9531 353.3594,749.5625 L353.3594,751.0156 Q353.3594,751.625 353.125,751.8906 Q352.8906,752.1563 352.5156,752.1563 Q352.1719,752.1563 351.9688,751.9531 Q351.7656,751.7656 351.6563,751.25 Q351.6094,750.8906 351.4219,750.7031 Q351.0938,750.3281 350.4844,750.1094 Q349.875,749.8906 349.25,749.8906 Q348.4844,749.8906 347.8438,750.2188 Q347.2188,750.5469 346.7188,751.2969 Q346.2344,752.0469 346.2344,753.0781 L346.2344,754.1719 Q346.2344,755.4063 347.125,756.2344 Q348.0156,757.0469 349.6094,757.0469 Q350.5469,757.0469 351.2031,756.7969 Q351.5938,756.6406 352.0156,756.2031 Q352.2813,755.9375 352.4219,755.8594 Q352.5781,755.7813 352.7813,755.7813 Q353.1094,755.7813 353.3594,756.0469 Q353.625,756.2969 353.625,756.6406 Q353.625,756.9844 353.2813,757.3906 Q352.7813,757.9688 351.9844,758.2969 Q350.9063,758.75 349.6094,758.75 Q348.0938,758.75 346.8906,758.125 Q345.9063,757.625 345.2188,756.5625 Q344.5313,755.4844 344.5313,754.2031 L344.5313,753.0469 Q344.5313,751.7188 345.1406,750.5781 Q345.7656,749.4219 346.8594,748.8125 Q347.9531,748.1875 349.1875,748.1875 Q349.9219,748.1875 350.5625,748.3594 Q351.2188,748.5156 351.7656,748.875 Z " fill="#000000"/><text fill="#000000" font-family="sans-serif" font-size="14" lengthAdjust="spacing" textLength="108" x="363" y="758.7969">ConceptInterface</text></g><!--class Containment--><g id="elem_Containment"><rect codeLine="9" fill="#ADD8E6" height="32" id="Containment" rx="2.5" ry="2.5" style="stroke:#181818;stroke-width:0.5;" width="112" x="140" y="483.5"/><ellipse cx="155" cy="499.5" fill="#ADD1B2" rx="11" ry="11" style="stroke:#181818;stroke-width:1.0;"/><path d="M157.7656,495.375 Q157.9219,495.1563 158.1094,495.0469 Q158.2969,494.9375 158.5156,494.9375 Q158.8906,494.9375 159.125,495.2031 Q159.3594,495.4531 159.3594,496.0625 L159.3594,497.5156 Q159.3594,498.125 159.125,498.3906 Q158.8906,498.6563 158.5156,498.6563 Q158.1719,498.6563 157.9688,498.4531 Q157.7656,498.2656 157.6563,497.75 Q157.6094,497.3906 157.4219,497.2031 Q157.0938,496.8281 156.4844,496.6094 Q155.875,496.3906 155.25,496.3906 Q154.4844,496.3906 153.8438,496.7188 Q153.2188,497.0469 152.7188,497.7969 Q152.2344,498.5469 152.2344,499.5781 L152.2344,500.6719 Q152.2344,501.9063 153.125,502.7344 Q154.0156,503.5469 155.6094,503.5469 Q156.5469,503.5469 157.2031,503.2969 Q157.5938,503.1406 158.0156,502.7031 Q158.2813,502.4375 158.4219,502.3594 Q158.5781,502.2813 158.7813,502.2813 Q159.1094,502.2813 159.3594,502.5469 Q159.625,502.7969 159.625,503.1406 Q159.625,503.4844 159.2813,503.8906 Q158.7813,504.4688 157.9844,504.7969 Q156.9063,505.25 155.6094,505.25 Q154.0938,505.25 152.8906,504.625 Q151.9063,504.125 151.2188,503.0625 Q150.5313,501.9844 150.5313,500.7031 L150.5313,499.5469 Q150.5313,498.2188 151.1406,497.0781 Q151.7656,495.9219 152.8594,495.3125 Q153.9531,494.6875 155.1875,494.6875 Q155.9219,494.6875 156.5625,494.8594 Q157.2188,495.0156 157.7656,495.375 Z " fill="#000000"/><text fill="#000000" font-family="sans-serif" font-size="14" lengthAdjust="spacing" textLength="80" x="169" y="505.2969">Containment</text></g><!--class Link--><g id="elem_Link"><rect codeLine="25" fill="#ADD8E6" height="58.6211" id="Link" rx="2.5" ry="2.5" style="stroke:#181818;stroke-width:0.5;" width="119" x="109.5" y="323"/><ellipse cx="151.5" cy="339" fill="#A9DCDF" rx="11" ry="11" style="stroke:#181818;stroke-width:1.0;"/><path d="M153.6875,340.7656 L149.5469,340.7656 L149.125,341.7969 L149.5469,341.7969 Q150.1563,341.7969 150.4219,342.0313 Q150.6875,342.2656 150.6875,342.6563 Q150.6875,343.0313 150.4219,343.2656 Q150.1563,343.5 149.5469,343.5 L147.25,343.5 Q146.6406,343.5 146.3906,343.2656 Q146.125,343.0313 146.125,342.6406 Q146.125,342.2656 146.4063,342.0313 Q146.6719,341.7813 147.2969,341.7969 L149.9688,335.1406 L148.8594,335.1406 Q148.25,335.1406 147.9844,334.9063 Q147.7188,334.6719 147.7188,334.2813 Q147.7188,333.9063 147.9844,333.6719 Q148.25,333.4375 148.8594,333.4375 L152.5313,333.4375 L155.9219,341.7969 Q156.5156,341.7969 156.7031,341.9375 Q157.0938,342.2031 157.0938,342.6563 Q157.0938,343.0313 156.8281,343.2656 Q156.5781,343.5 155.9688,343.5 L153.6719,343.5 Q153.0625,343.5 152.7969,343.2656 Q152.5313,343.0313 152.5313,342.6406 Q152.5313,342.2656 152.7969,342.0313 Q153.0625,341.7969 153.6719,341.7969 L154.0938,341.7969 L153.6875,340.7656 Z M152.9688,339.0625 L151.6094,335.6875 L150.2344,339.0625 L152.9688,339.0625 Z " fill="#000000"/><text fill="#000000" font-family="sans-serif" font-size="14" font-style="italic" lengthAdjust="spacing" textLength="27" x="171.5" y="344.7969">Link</text><line style="stroke:#181818;stroke-width:0.5;" x1="110.5" x2="227.5" y1="355" y2="355"/><text fill="#000000" font-family="sans-serif" font-size="14" lengthAdjust="spacing" textLength="107" x="115.5" y="374.1074">multiple: boolean</text></g><!--class DataType--><g id="elem_DataType"><rect codeLine="11" fill="#FFB6C1" height="32" id="DataType" rx="2.5" ry="2.5" style="stroke:#181818;stroke-width:0.5;" width="94" x="928" y="336.5"/><ellipse cx="943" cy="352.5" fill="#A9DCDF" rx="11" ry="11" style="stroke:#181818;stroke-width:1.0;"/><path d="M945.1875,354.2656 L941.0469,354.2656 L940.625,355.2969 L941.0469,355.2969 Q941.6563,355.2969 941.9219,355.5313 Q942.1875,355.7656 942.1875,356.1563 Q942.1875,356.5313 941.9219,356.7656 Q941.6563,357 941.0469,357 L938.75,357 Q938.1406,357 937.8906,356.7656 Q937.625,356.5313 937.625,356.1406 Q937.625,355.7656 937.9063,355.5313 Q938.1719,355.2813 938.7969,355.2969 L941.4688,348.6406 L940.3594,348.6406 Q939.75,348.6406 939.4844,348.4063 Q939.2188,348.1719 939.2188,347.7813 Q939.2188,347.4063 939.4844,347.1719 Q939.75,346.9375 940.3594,346.9375 L944.0313,346.9375 L947.4219,355.2969 Q948.0156,355.2969 948.2031,355.4375 Q948.5938,355.7031 948.5938,356.1563 Q948.5938,356.5313 948.3281,356.7656 Q948.0781,357 947.4688,357 L945.1719,357 Q944.5625,357 944.2969,356.7656 Q944.0313,356.5313 944.0313,356.1406 Q944.0313,355.7656 944.2969,355.5313 Q944.5625,355.2969 945.1719,355.2969 L945.5938,355.2969 L945.1875,354.2656 Z M944.4688,352.5625 L943.1094,349.1875 L941.7344,352.5625 L944.4688,352.5625 Z " fill="#000000"/><text fill="#000000" font-family="sans-serif" font-size="14" font-style="italic" lengthAdjust="spacing" textLength="62" x="957" y="358.2969">DataType</text></g><!--class MetamodelElement--><g id="elem_MetamodelElement"><rect codeLine="34" fill="#F1F1F1" height="32" id="MetamodelElement" rx="2.5" ry="2.5" style="stroke:#181818;stroke-width:0.5;" width="153" x="761.5" y="185.5"/><ellipse cx="776.5" cy="201.5" fill="#A9DCDF" rx="11" ry="11" style="stroke:#181818;stroke-width:1.0;"/><path d="M778.6875,203.2656 L774.5469,203.2656 L774.125,204.2969 L774.5469,204.2969 Q775.1563,204.2969 775.4219,204.5313 Q775.6875,204.7656 775.6875,205.1563 Q775.6875,205.5313 775.4219,205.7656 Q775.1563,206 774.5469,206 L772.25,206 Q771.6406,206 771.3906,205.7656 Q771.125,205.5313 771.125,205.1406 Q771.125,204.7656 771.4063,204.5313 Q771.6719,204.2813 772.2969,204.2969 L774.9688,197.6406 L773.8594,197.6406 Q773.25,197.6406 772.9844,197.4063 Q772.7188,197.1719 772.7188,196.7813 Q772.7188,196.4063 772.9844,196.1719 Q773.25,195.9375 773.8594,195.9375 L777.5313,195.9375 L780.9219,204.2969 Q781.5156,204.2969 781.7031,204.4375 Q782.0938,204.7031 782.0938,205.1563 Q782.0938,205.5313 781.8281,205.7656 Q781.5781,206 780.9688,206 L778.6719,206 Q778.0625,206 777.7969,205.7656 Q777.5313,205.5313 777.5313,205.1406 Q777.5313,204.7656 777.7969,204.5313 Q778.0625,204.2969 778.6719,204.2969 L779.0938,204.2969 L778.6875,203.2656 Z M777.9688,201.5625 L776.6094,198.1875 L775.2344,201.5625 L777.9688,201.5625 Z " fill="#000000"/><text fill="#000000" font-family="sans-serif" font-size="14" font-style="italic" lengthAdjust="spacing" textLength="121" x="790.5" y="207.2969">MetamodelElement</text></g><!--class Enumeration--><g id="elem_Enumeration"><rect codeLine="13" fill="#FFB6C1" height="32" id="Enumeration" rx="2.5" ry="2.5" style="stroke:#181818;stroke-width:0.5;" width="112" x="1034" y="483.5"/><ellipse cx="1049" cy="499.5" fill="#ADD1B2" rx="11" ry="11" style="stroke:#181818;stroke-width:1.0;"/><path d="M1051.7656,495.375 Q1051.9219,495.1563 1052.1094,495.0469 Q1052.2969,494.9375 1052.5156,494.9375 Q1052.8906,494.9375 1053.125,495.2031 Q1053.3594,495.4531 1053.3594,496.0625 L1053.3594,497.5156 Q1053.3594,498.125 1053.125,498.3906 Q1052.8906,498.6563 1052.5156,498.6563 Q1052.1719,498.6563 1051.9688,498.4531 Q1051.7656,498.2656 1051.6563,497.75 Q1051.6094,497.3906 1051.4219,497.2031 Q1051.0938,496.8281 1050.4844,496.6094 Q1049.875,496.3906 1049.25,496.3906 Q1048.4844,496.3906 1047.8438,496.7188 Q1047.2188,497.0469 1046.7188,497.7969 Q1046.2344,498.5469 1046.2344,499.5781 L1046.2344,500.6719 Q1046.2344,501.9063 1047.125,502.7344 Q1048.0156,503.5469 1049.6094,503.5469 Q1050.5469,503.5469 1051.2031,503.2969 Q1051.5938,503.1406 1052.0156,502.7031 Q1052.2813,502.4375 1052.4219,502.3594 Q1052.5781,502.2813 1052.7813,502.2813 Q1053.1094,502.2813 1053.3594,502.5469 Q1053.625,502.7969 1053.625,503.1406 Q1053.625,503.4844 1053.2813,503.8906 Q1052.7813,504.4688 1051.9844,504.7969 Q1050.9063,505.25 1049.6094,505.25 Q1048.0938,505.25 1046.8906,504.625 Q1045.9063,504.125 1045.2188,503.0625 Q1044.5313,501.9844 1044.5313,500.7031 L1044.5313,499.5469 Q1044.5313,498.2188 1045.1406,497.0781 Q1045.7656,495.9219 1046.8594,495.3125 Q1047.9531,494.6875 1049.1875,494.6875 Q1049.9219,494.6875 1050.5625,494.8594 Q1051.2188,495.0156 1051.7656,495.375 Z " fill="#000000"/><text fill="#000000" font-family="sans-serif" font-size="14" lengthAdjust="spacing" textLength="80" x="1063" y="505.2969">Enumeration</text></g><!--class NamespaceProvider--><g id="elem_NamespaceProvider"><rect codeLine="42" fill="#F1F1F1" height="58.6211" id="NamespaceProvider" rx="2.5" ry="2.5" style="stroke:#181818;stroke-width:0.5;" width="193" x="574.5" y="323"/><ellipse cx="604.8" cy="339" fill="#B4A7E5" rx="11" ry="11" style="stroke:#181818;stroke-width:1.0;"/><path d="M605.7531,335.6406 L605.7531,342.2969 L607.4719,342.2969 Q608.0813,342.2969 608.3469,342.5313 Q608.6125,342.7656 608.6125,343.1563 Q608.6125,343.5313 608.3469,343.7656 Q608.0813,344 607.4719,344 L602.3313,344 Q601.7219,344 601.4563,343.7656 Q601.1906,343.5313 601.1906,343.1406 Q601.1906,342.7656 601.4563,342.5313 Q601.7219,342.2969 602.3313,342.2969 L604.05,342.2969 L604.05,335.6406 L602.3313,335.6406 Q601.7219,335.6406 601.4563,335.4063 Q601.1906,335.1719 601.1906,334.7813 Q601.1906,334.4063 601.4563,334.1719 Q601.7219,333.9375 602.3313,333.9375 L607.4719,333.9375 Q608.0813,333.9375 608.3469,334.1719 Q608.6125,334.4063 608.6125,334.7813 Q608.6125,335.1719 608.3469,335.4063 Q608.0813,335.6406 607.4719,335.6406 L605.7531,335.6406 Z " fill="#000000"/><text fill="#000000" font-family="sans-serif" font-size="14" font-style="italic" lengthAdjust="spacing" textLength="127" x="622.2" y="344.7969">NamespaceProvider</text><line style="stroke:#181818;stroke-width:0.5;" x1="575.5" x2="766.5" y1="355" y2="355"/><text fill="#000000" font-family="sans-serif" font-size="14" lengthAdjust="spacing" textLength="181" x="580.5" y="374.1074">namespaceQualifier(): String</text></g><!--class EnumerationLiteral--><g id="elem_EnumerationLiteral"><rect codeLine="15" fill="#FFB6C1" height="32" id="EnumerationLiteral" rx="2.5" ry="2.5" style="stroke:#181818;stroke-width:0.5;" width="151" x="983.5" y="261"/><ellipse cx="998.5" cy="277" fill="#ADD1B2" rx="11" ry="11" style="stroke:#181818;stroke-width:1.0;"/><path d="M1001.2656,272.875 Q1001.4219,272.6563 1001.6094,272.5469 Q1001.7969,272.4375 1002.0156,272.4375 Q1002.3906,272.4375 1002.625,272.7031 Q1002.8594,272.9531 1002.8594,273.5625 L1002.8594,275.0156 Q1002.8594,275.625 1002.625,275.8906 Q1002.3906,276.1563 1002.0156,276.1563 Q1001.6719,276.1563 1001.4688,275.9531 Q1001.2656,275.7656 1001.1563,275.25 Q1001.1094,274.8906 1000.9219,274.7031 Q1000.5938,274.3281 999.9844,274.1094 Q999.375,273.8906 998.75,273.8906 Q997.9844,273.8906 997.3438,274.2188 Q996.7188,274.5469 996.2188,275.2969 Q995.7344,276.0469 995.7344,277.0781 L995.7344,278.1719 Q995.7344,279.4063 996.625,280.2344 Q997.5156,281.0469 999.1094,281.0469 Q1000.0469,281.0469 1000.7031,280.7969 Q1001.0938,280.6406 1001.5156,280.2031 Q1001.7813,279.9375 1001.9219,279.8594 Q1002.0781,279.7813 1002.2813,279.7813 Q1002.6094,279.7813 1002.8594,280.0469 Q1003.125,280.2969 1003.125,280.6406 Q1003.125,280.9844 1002.7813,281.3906 Q1002.2813,281.9688 1001.4844,282.2969 Q1000.4063,282.75 999.1094,282.75 Q997.5938,282.75 996.3906,282.125 Q995.4063,281.625 994.7188,280.5625 Q994.0313,279.4844 994.0313,278.2031 L994.0313,277.0469 Q994.0313,275.7188 994.6406,274.5781 Q995.2656,273.4219 996.3594,272.8125 Q997.4531,272.1875 998.6875,272.1875 Q999.4219,272.1875 1000.0625,272.3594 Q1000.7188,272.5156 1001.2656,272.875 Z " fill="#000000"/><text fill="#000000" font-family="sans-serif" font-size="14" lengthAdjust="spacing" textLength="119" x="1012.5" y="282.7969">EnumerationLiteral</text></g><!--class NamespacedEntity--><g id="elem_NamespacedEntity"><rect codeLine="36" fill="#F1F1F1" height="103.8633" id="NamespacedEntity" rx="2.5" ry="2.5" style="stroke:#181818;stroke-width:0.5;" width="156" x="760" y="7"/><ellipse cx="777.7" cy="23" fill="#A9DCDF" rx="11" ry="11" style="stroke:#181818;stroke-width:1.0;"/><path d="M779.8875,24.7656 L775.7469,24.7656 L775.325,25.7969 L775.7469,25.7969 Q776.3563,25.7969 776.6219,26.0313 Q776.8875,26.2656 776.8875,26.6563 Q776.8875,27.0313 776.6219,27.2656 Q776.3563,27.5 775.7469,27.5 L773.45,27.5 Q772.8406,27.5 772.5906,27.2656 Q772.325,27.0313 772.325,26.6406 Q772.325,26.2656 772.6063,26.0313 Q772.8719,25.7813 773.4969,25.7969 L776.1688,19.1406 L775.0594,19.1406 Q774.45,19.1406 774.1844,18.9063 Q773.9188,18.6719 773.9188,18.2813 Q773.9188,17.9063 774.1844,17.6719 Q774.45,17.4375 775.0594,17.4375 L778.7313,17.4375 L782.1219,25.7969 Q782.7156,25.7969 782.9031,25.9375 Q783.2938,26.2031 783.2938,26.6563 Q783.2938,27.0313 783.0281,27.2656 Q782.7781,27.5 782.1688,27.5 L779.8719,27.5 Q779.2625,27.5 778.9969,27.2656 Q778.7313,27.0313 778.7313,26.6406 Q778.7313,26.2656 778.9969,26.0313 Q779.2625,25.7969 779.8719,25.7969 L780.2938,25.7969 L779.8875,24.7656 Z M779.1688,23.0625 L777.8094,19.6875 L776.4344,23.0625 L779.1688,23.0625 Z " fill="#000000"/><text fill="#000000" font-family="sans-serif" font-size="14" font-style="italic" lengthAdjust="spacing" textLength="118" x="792.3" y="28.7969">NamespacedEntity</text><line style="stroke:#181818;stroke-width:0.5;" x1="761" x2="915" y1="39" y2="39"/><text fill="#000000" font-family="sans-serif" font-size="14" lengthAdjust="spacing" textLength="121" x="766" y="58.1074">simpleName: String</text><text fill="#000000" font-family="sans-serif" font-size="14" lengthAdjust="spacing" textLength="30" x="766" y="76.7285">id: Id</text><line style="stroke:#181818;stroke-width:0.5;" x1="761" x2="915" y1="84.2422" y2="84.2422"/><text fill="#000000" font-family="sans-serif" font-size="14" lengthAdjust="spacing" textLength="144" x="766" y="103.3496">qualifiedName(): String</text></g><!--class Feature--><g id="elem_Feature"><rect codeLine="17" fill="#ADD8E6" height="58.6211" id="Feature" rx="2.5" ry="2.5" style="stroke:#181818;stroke-width:0.5;" width="121" x="339.5" y="172"/><ellipse cx="372.05" cy="188" fill="#A9DCDF" rx="11" ry="11" style="stroke:#181818;stroke-width:1.0;"/><path d="M374.2375,189.7656 L370.0969,189.7656 L369.675,190.7969 L370.0969,190.7969 Q370.7063,190.7969 370.9719,191.0313 Q371.2375,191.2656 371.2375,191.6563 Q371.2375,192.0313 370.9719,192.2656 Q370.7063,192.5 370.0969,192.5 L367.8,192.5 Q367.1906,192.5 366.9406,192.2656 Q366.675,192.0313 366.675,191.6406 Q366.675,191.2656 366.9563,191.0313 Q367.2219,190.7813 367.8469,190.7969 L370.5188,184.1406 L369.4094,184.1406 Q368.8,184.1406 368.5344,183.9063 Q368.2688,183.6719 368.2688,183.2813 Q368.2688,182.9063 368.5344,182.6719 Q368.8,182.4375 369.4094,182.4375 L373.0813,182.4375 L376.4719,190.7969 Q377.0656,190.7969 377.2531,190.9375 Q377.6438,191.2031 377.6438,191.6563 Q377.6438,192.0313 377.3781,192.2656 Q377.1281,192.5 376.5188,192.5 L374.2219,192.5 Q373.6125,192.5 373.3469,192.2656 Q373.0813,192.0313 373.0813,191.6406 Q373.0813,191.2656 373.3469,191.0313 Q373.6125,190.7969 374.2219,190.7969 L374.6438,190.7969 L374.2375,189.7656 Z M373.5188,188.0625 L372.1594,184.6875 L370.7844,188.0625 L373.5188,188.0625 Z " fill="#000000"/><text fill="#000000" font-family="sans-serif" font-size="14" font-style="italic" lengthAdjust="spacing" textLength="50" x="389.95" y="193.7969">Feature</text><line style="stroke:#181818;stroke-width:0.5;" x1="340.5" x2="459.5" y1="204" y2="204"/><text fill="#000000" font-family="sans-serif" font-size="14" lengthAdjust="spacing" textLength="109" x="345.5" y="223.1074">optional: boolean</text></g><!--class Metamodel--><g id="elem_Metamodel"><rect codeLine="29" fill="#F1F1F1" height="77.2422" id="Metamodel" rx="2.5" ry="2.5" style="stroke:#181818;stroke-width:0.5;" width="146" x="600" y="461"/><ellipse cx="635.25" cy="477" fill="#ADD1B2" rx="11" ry="11" style="stroke:#181818;stroke-width:1.0;"/><path d="M638.0156,472.875 Q638.1719,472.6563 638.3594,472.5469 Q638.5469,472.4375 638.7656,472.4375 Q639.1406,472.4375 639.375,472.7031 Q639.6094,472.9531 639.6094,473.5625 L639.6094,475.0156 Q639.6094,475.625 639.375,475.8906 Q639.1406,476.1563 638.7656,476.1563 Q638.4219,476.1563 638.2188,475.9531 Q638.0156,475.7656 637.9063,475.25 Q637.8594,474.8906 637.6719,474.7031 Q637.3438,474.3281 636.7344,474.1094 Q636.125,473.8906 635.5,473.8906 Q634.7344,473.8906 634.0938,474.2188 Q633.4688,474.5469 632.9688,475.2969 Q632.4844,476.0469 632.4844,477.0781 L632.4844,478.1719 Q632.4844,479.4063 633.375,480.2344 Q634.2656,481.0469 635.8594,481.0469 Q636.7969,481.0469 637.4531,480.7969 Q637.8438,480.6406 638.2656,480.2031 Q638.5313,479.9375 638.6719,479.8594 Q638.8281,479.7813 639.0313,479.7813 Q639.3594,479.7813 639.6094,480.0469 Q639.875,480.2969 639.875,480.6406 Q639.875,480.9844 639.5313,481.3906 Q639.0313,481.9688 638.2344,482.2969 Q637.1563,482.75 635.8594,482.75 Q634.3438,482.75 633.1406,482.125 Q632.1563,481.625 631.4688,480.5625 Q630.7813,479.4844 630.7813,478.2031 L630.7813,477.0469 Q630.7813,475.7188 631.3906,474.5781 Q632.0156,473.4219 633.1094,472.8125 Q634.2031,472.1875 635.4375,472.1875 Q636.1719,472.1875 636.8125,472.3594 Q637.4688,472.5156 638.0156,472.875 Z " fill="#000000"/><text fill="#000000" font-family="sans-serif" font-size="14" lengthAdjust="spacing" textLength="69" x="653.75" y="482.7969">Metamodel</text><line style="stroke:#181818;stroke-width:0.5;" x1="601" x2="745" y1="493" y2="493"/><text fill="#000000" font-family="sans-serif" font-size="14" lengthAdjust="spacing" textLength="134" x="606" y="512.1074">qualifiedName: String</text><text fill="#000000" font-family="sans-serif" font-size="14" lengthAdjust="spacing" textLength="30" x="606" y="530.7285">id: Id</text></g><!--class PrimitiveType--><g id="elem_PrimitiveType"><rect codeLine="46" fill="#FFB6C1" height="32" id="PrimitiveType" rx="2.5" ry="2.5" style="stroke:#181818;stroke-width:0.5;" width="117" x="881.5" y="483.5"/><ellipse cx="896.5" cy="499.5" fill="#ADD1B2" rx="11" ry="11" style="stroke:#181818;stroke-width:1.0;"/><path d="M899.2656,495.375 Q899.4219,495.1563 899.6094,495.0469 Q899.7969,494.9375 900.0156,494.9375 Q900.3906,494.9375 900.625,495.2031 Q900.8594,495.4531 900.8594,496.0625 L900.8594,497.5156 Q900.8594,498.125 900.625,498.3906 Q900.3906,498.6563 900.0156,498.6563 Q899.6719,498.6563 899.4688,498.4531 Q899.2656,498.2656 899.1563,497.75 Q899.1094,497.3906 898.9219,497.2031 Q898.5938,496.8281 897.9844,496.6094 Q897.375,496.3906 896.75,496.3906 Q895.9844,496.3906 895.3438,496.7188 Q894.7188,497.0469 894.2188,497.7969 Q893.7344,498.5469 893.7344,499.5781 L893.7344,500.6719 Q893.7344,501.9063 894.625,502.7344 Q895.5156,503.5469 897.1094,503.5469 Q898.0469,503.5469 898.7031,503.2969 Q899.0938,503.1406 899.5156,502.7031 Q899.7813,502.4375 899.9219,502.3594 Q900.0781,502.2813 900.2813,502.2813 Q900.6094,502.2813 900.8594,502.5469 Q901.125,502.7969 901.125,503.1406 Q901.125,503.4844 900.7813,503.8906 Q900.2813,504.4688 899.4844,504.7969 Q898.4063,505.25 897.1094,505.25 Q895.5938,505.25 894.3906,504.625 Q893.4063,504.125 892.7188,503.0625 Q892.0313,501.9844 892.0313,500.7031 L892.0313,499.5469 Q892.0313,498.2188 892.6406,497.0781 Q893.2656,495.9219 894.3594,495.3125 Q895.4531,494.6875 896.6875,494.6875 Q897.4219,494.6875 898.0625,494.8594 Q898.7188,495.0156 899.2656,495.375 Z " fill="#000000"/><text fill="#000000" font-family="sans-serif" font-size="14" lengthAdjust="spacing" textLength="85" x="910.5" y="505.2969">PrimitiveType</text></g><!--class Property--><g id="elem_Property"><rect codeLine="48" fill="#ADD8E6" height="32" id="Property" rx="2.5" ry="2.5" style="stroke:#181818;stroke-width:0.5;" width="86" x="264" y="336.5"/><ellipse cx="279" cy="352.5" fill="#ADD1B2" rx="11" ry="11" style="stroke:#181818;stroke-width:1.0;"/><path d="M281.7656,348.375 Q281.9219,348.1563 282.1094,348.0469 Q282.2969,347.9375 282.5156,347.9375 Q282.8906,347.9375 283.125,348.2031 Q283.3594,348.4531 283.3594,349.0625 L283.3594,350.5156 Q283.3594,351.125 283.125,351.3906 Q282.8906,351.6563 282.5156,351.6563 Q282.1719,351.6563 281.9688,351.4531 Q281.7656,351.2656 281.6563,350.75 Q281.6094,350.3906 281.4219,350.2031 Q281.0938,349.8281 280.4844,349.6094 Q279.875,349.3906 279.25,349.3906 Q278.4844,349.3906 277.8438,349.7188 Q277.2188,350.0469 276.7188,350.7969 Q276.2344,351.5469 276.2344,352.5781 L276.2344,353.6719 Q276.2344,354.9063 277.125,355.7344 Q278.0156,356.5469 279.6094,356.5469 Q280.5469,356.5469 281.2031,356.2969 Q281.5938,356.1406 282.0156,355.7031 Q282.2813,355.4375 282.4219,355.3594 Q282.5781,355.2813 282.7813,355.2813 Q283.1094,355.2813 283.3594,355.5469 Q283.625,355.7969 283.625,356.1406 Q283.625,356.4844 283.2813,356.8906 Q282.7813,357.4688 281.9844,357.7969 Q280.9063,358.25 279.6094,358.25 Q278.0938,358.25 276.8906,357.625 Q275.9063,357.125 275.2188,356.0625 Q274.5313,354.9844 274.5313,353.7031 L274.5313,352.5469 Q274.5313,351.2188 275.1406,350.0781 Q275.7656,348.9219 276.8594,348.3125 Q277.9531,347.6875 279.1875,347.6875 Q279.9219,347.6875 280.5625,347.8594 Q281.2188,348.0156 281.7656,348.375 Z " fill="#000000"/><text fill="#000000" font-family="sans-serif" font-size="14" lengthAdjust="spacing" textLength="54" x="293" y="358.2969">Property</text></g><!--class Reference--><g id="elem_Reference"><rect codeLine="50" fill="#ADD8E6" height="32" id="Reference" rx="2.5" ry="2.5" style="stroke:#181818;stroke-width:0.5;" width="98" x="7" y="483.5"/><ellipse cx="22" cy="499.5" fill="#ADD1B2" rx="11" ry="11" style="stroke:#181818;stroke-width:1.0;"/><path d="M24.7656,495.375 Q24.9219,495.1563 25.1094,495.0469 Q25.2969,494.9375 25.5156,494.9375 Q25.8906,494.9375 26.125,495.2031 Q26.3594,495.4531 26.3594,496.0625 L26.3594,497.5156 Q26.3594,498.125 26.125,498.3906 Q25.8906,498.6563 25.5156,498.6563 Q25.1719,498.6563 24.9688,498.4531 Q24.7656,498.2656 24.6563,497.75 Q24.6094,497.3906 24.4219,497.2031 Q24.0938,496.8281 23.4844,496.6094 Q22.875,496.3906 22.25,496.3906 Q21.4844,496.3906 20.8438,496.7188 Q20.2188,497.0469 19.7188,497.7969 Q19.2344,498.5469 19.2344,499.5781 L19.2344,500.6719 Q19.2344,501.9063 20.125,502.7344 Q21.0156,503.5469 22.6094,503.5469 Q23.5469,503.5469 24.2031,503.2969 Q24.5938,503.1406 25.0156,502.7031 Q25.2813,502.4375 25.4219,502.3594 Q25.5781,502.2813 25.7813,502.2813 Q26.1094,502.2813 26.3594,502.5469 Q26.625,502.7969 26.625,503.1406 Q26.625,503.4844 26.2813,503.8906 Q25.7813,504.4688 24.9844,504.7969 Q23.9063,505.25 22.6094,505.25 Q21.0938,505.25 19.8906,504.625 Q18.9063,504.125 18.2188,503.0625 Q17.5313,501.9844 17.5313,500.7031 L17.5313,499.5469 Q17.5313,498.2188 18.1406,497.0781 Q18.7656,495.9219 19.8594,495.3125 Q20.9531,494.6875 22.1875,494.6875 Q22.9219,494.6875 23.5625,494.8594 Q24.2188,495.0156 24.7656,495.375 Z " fill="#000000"/><text fill="#000000" font-family="sans-serif" font-size="14" lengthAdjust="spacing" textLength="66" x="36" y="505.2969">Reference</text></g><!--reverse link FeaturesContainer to Concept--><g id="link_FeaturesContainer_Concept"><path d="M397.51,542.98 C378.35,561.28 356.44,582.2 339.21,598.65 " fill="none" id="FeaturesContainer-backto-Concept" style="stroke:#181818;stroke-width:1.0;"/><polygon fill="none" points="392.85,537.75,412.15,529,402.52,547.88,392.85,537.75" style="stroke:#181818;stroke-width:1.0;"/></g><!--reverse link FeaturesContainer to ConceptInterface--><g id="link_FeaturesContainer_ConceptInterface"><path d="M456.96,548.49 C464.69,579.81 471.16,621.5 464,658 C459.47,681.08 456.44,687.03 444,707 C437.26,717.82 427.86,728.55 419.86,736.82 " fill="none" id="FeaturesContainer-backto-ConceptInterface" style="stroke:#181818;stroke-width:1.0;"/><polygon fill="none" points="450.18,550.25,451.69,529.11,463.69,546.57,450.18,550.25" style="stroke:#181818;stroke-width:1.0;"/></g><!--reverse link Link to Containment--><g id="link_Link_Containment"><path d="M178.02,401.95 C183.29,430.27 189.6,464.11 193.16,483.27 " fill="none" id="Link-backto-Containment" style="stroke:#181818;stroke-width:1.0;"/><polygon fill="none" points="171.11,403.09,174.33,382.15,184.88,400.53,171.11,403.09" style="stroke:#181818;stroke-width:1.0;"/></g><!--reverse link MetamodelElement to DataType--><g id="link_MetamodelElement_DataType"><path d="M865.79,232.73 C894.7,264.17 938.79,312.12 961.07,336.35 " fill="none" id="MetamodelElement-backto-DataType" style="stroke:#181818;stroke-width:1.0;"/><polygon fill="none" points="860.27,237.07,851.89,217.61,870.58,227.59,860.27,237.07" style="stroke:#181818;stroke-width:1.0;"/></g><!--reverse link DataType to Enumeration--><g id="link_DataType_Enumeration"><path d="M999.76,384.72 C1023.93,415.19 1059.66,460.25 1078.07,483.46 " fill="none" id="DataType-backto-Enumeration" style="stroke:#181818;stroke-width:1.0;"/><polygon fill="none" points="994.03,388.76,987.09,368.74,1005,380.06,994.03,388.76" style="stroke:#181818;stroke-width:1.0;"/></g><!--reverse link NamespaceProvider to Enumeration--><g id="link_NamespaceProvider_Enumeration"><path d="M787.17,384.45 C854.89,403.79 941.4,430.72 1016,461 C1032.01,467.5 1049.28,476.15 1063.09,483.5 " fill="none" id="NamespaceProvider-backto-Enumeration" style="stroke:#181818;stroke-width:1.0;stroke-dasharray:7.0,7.0;"/><polygon fill="none" points="785.04,391.12,767.69,378.95,788.84,377.65,785.04,391.12" style="stroke:#181818;stroke-width:1.0;"/></g><!--reverse link NamespacedEntity to EnumerationLiteral--><g id="link_NamespacedEntity_EnumerationLiteral"><path d="M904.9,125.39 C953.26,172.65 1014.88,232.88 1043.32,260.67 " fill="none" id="NamespacedEntity-backto-EnumerationLiteral" style="stroke:#181818;stroke-width:1.0;stroke-dasharray:7.0,7.0;"/><polygon fill="none" points="899.78,130.17,890.37,111.19,909.57,120.16,899.78,130.17" style="stroke:#181818;stroke-width:1.0;"/></g><!--reverse link NamespacedEntity to Feature--><g id="link_NamespacedEntity_Feature"><path d="M740.65,91.23 C655.07,118.68 533.19,157.78 460.79,181 " fill="none" id="NamespacedEntity-backto-Feature" style="stroke:#181818;stroke-width:1.0;stroke-dasharray:7.0,7.0;"/><polygon fill="none" points="738.76,84.48,759.95,85.04,743.04,97.81,738.76,84.48" style="stroke:#181818;stroke-width:1.0;"/></g><!--reverse link MetamodelElement to FeaturesContainer--><g id="link_MetamodelElement_FeaturesContainer"><path d="M757.3,223.32 C697.13,241.9 615.55,273.89 557,323 C507.88,364.2 471.94,431.7 454.28,469.87 " fill="none" id="MetamodelElement-backto-FeaturesContainer" style="stroke:#181818;stroke-width:1.0;"/><polygon fill="none" points="755.66,216.5,776.83,217.52,759.65,229.92,755.66,216.5" style="stroke:#181818;stroke-width:1.0;"/></g><!--reverse link NamespaceProvider to FeaturesContainer--><g id="link_NamespaceProvider_FeaturesContainer"><path d="M608.62,393 C570.22,417.32 521.86,447.93 487.15,469.91 " fill="none" id="NamespaceProvider-backto-FeaturesContainer" style="stroke:#181818;stroke-width:1.0;stroke-dasharray:7.0,7.0;"/><polygon fill="none" points="605.11,386.93,625.76,382.15,612.6,398.76,605.11,386.93" style="stroke:#181818;stroke-width:1.0;"/></g><!--reverse link Feature to Link--><g id="link_Feature_Link"><path d="M338.77,241.99 C299.39,267.4 249.1,299.83 213.51,322.79 " fill="none" id="Feature-backto-Link" style="stroke:#181818;stroke-width:1.0;"/><polygon fill="none" points="335.13,236.01,355.73,231.05,342.72,247.78,335.13,236.01" style="stroke:#181818;stroke-width:1.0;"/></g><!--reverse link NamespaceProvider to Metamodel--><g id="link_NamespaceProvider_Metamodel"><path d="M671.67,402.33 C671.94,421.43 672.23,442.98 672.48,460.84 " fill="none" id="NamespaceProvider-backto-Metamodel" style="stroke:#181818;stroke-width:1.0;stroke-dasharray:7.0,7.0;"/><polygon fill="none" points="664.67,402.24,671.4,382.15,678.67,402.05,664.67,402.24" style="stroke:#181818;stroke-width:1.0;"/></g><!--reverse link NamespacedEntity to MetamodelElement--><g id="link_NamespacedEntity_MetamodelElement"><path d="M838,131.37 C838,151.83 838,172.16 838,185.42 " fill="none" id="NamespacedEntity-backto-MetamodelElement" style="stroke:#181818;stroke-width:1.0;stroke-dasharray:7.0,7.0;"/><polygon fill="none" points="831,131.12,838,111.12,845,131.12,831,131.12" style="stroke:#181818;stroke-width:1.0;"/></g><!--reverse link DataType to PrimitiveType--><g id="link_DataType_PrimitiveType"><path d="M966.62,388.2 C959.3,418.53 949.02,461.12 943.63,483.46 " fill="none" id="DataType-backto-PrimitiveType" style="stroke:#181818;stroke-width:1.0;"/><polygon fill="none" points="959.82,386.54,971.32,368.74,973.43,389.83,959.82,386.54" style="stroke:#181818;stroke-width:1.0;"/></g><!--reverse link Feature to Property--><g id="link_Feature_Property"><path d="M371.36,248.38 C352.54,278.53 329.13,316.05 316.36,336.5 " fill="none" id="Feature-backto-Property" style="stroke:#181818;stroke-width:1.0;"/><polygon fill="none" points="365.54,244.49,382.07,231.23,377.42,251.9,365.54,244.49" style="stroke:#181818;stroke-width:1.0;"/></g><!--reverse link Link to Reference--><g id="link_Link_Reference"><path d="M134.13,398.25 C111.51,427.27 83.46,463.27 67.87,483.27 " fill="none" id="Link-backto-Reference" style="stroke:#181818;stroke-width:1.0;"/><polygon fill="none" points="128.86,393.62,146.67,382.15,139.9,402.23,128.86,393.62" style="stroke:#181818;stroke-width:1.0;"/></g><!--link Concept to Concept--><g id="link_Concept_Concept"><path codeLine="54" d="M370.4,617.26 C389.74,617.43 405,621.18 405,628.5 C405,635.14 392.47,638.84 375.72,639.6 " fill="none" id="Concept-to-Concept" style="stroke:#181818;stroke-width:1.0;"/><polygon fill="#181818" points="370.4,639.74,379.4998,643.5073,375.3983,639.6115,379.2942,635.51,370.4,639.74" style="stroke:#181818;stroke-width:1.0;"/><text fill="#000000" font-family="sans-serif" font-size="13" lengthAdjust="spacing" textLength="46" x="411" y="634.0283">extends</text><text fill="#000000" font-family="sans-serif" font-size="13" lengthAdjust="spacing" textLength="5" x="378.1878" y="611.9233">*</text><text fill="#000000" font-family="sans-serif" font-size="13" lengthAdjust="spacing" textLength="22" x="377.8663" y="637.0854">0..1</text></g><!--link Concept to ConceptInterface--><g id="link_Concept_ConceptInterface"><path codeLine="55" d="M331.27,658.22 C349.09,681.2 373.58,712.77 389.1,732.79 " fill="none" id="Concept-to-ConceptInterface" style="stroke:#181818;stroke-width:1.0;"/><polygon fill="#181818" points="392.27,736.87,389.9331,727.3024,389.2132,732.9133,383.6023,732.1933,392.27,736.87" style="stroke:#181818;stroke-width:1.0;"/><text fill="#000000" font-family="sans-serif" font-size="13" lengthAdjust="spacing" textLength="67" x="368" y="703.0283">implements</text><text fill="#000000" font-family="sans-serif" font-size="13" lengthAdjust="spacing" textLength="5" x="330.0387" y="679.5979">*</text><text fill="#000000" font-family="sans-serif" font-size="13" lengthAdjust="spacing" textLength="5" x="382.5563" y="725.7878">*</text></g><!--link ConceptInterface to ConceptInterface--><g id="link_ConceptInterface_ConceptInterface"><path codeLine="57" d="M474.17,742.93 C493.87,743.37 509,746.72 509,753 C509,758.69 496.58,761.98 479.58,762.87 " fill="none" id="ConceptInterface-to-ConceptInterface" style="stroke:#181818;stroke-width:1.0;"/><polygon fill="#181818" points="474.17,763.07,483.3123,766.7332,479.1666,762.8844,483.0153,758.7387,474.17,763.07" style="stroke:#181818;stroke-width:1.0;"/><text fill="#000000" font-family="sans-serif" font-size="13" lengthAdjust="spacing" textLength="46" x="515" y="758.5283">extends</text><text fill="#000000" font-family="sans-serif" font-size="13" lengthAdjust="spacing" textLength="5" x="482.1183" y="737.9431">*</text><text fill="#000000" font-family="sans-serif" font-size="13" lengthAdjust="spacing" textLength="5" x="482.1183" y="760.286">*</text></g><!--link EnumerationLiteral to Enumeration--><g id="link_EnumerationLiteral_Enumeration"><path codeLine="59" d="M1061.13,293.16 C1066.26,329.66 1079.38,422.93 1086.02,470.17 " fill="none" id="EnumerationLiteral-to-Enumeration" style="stroke:#181818;stroke-width:1.0;"/><polygon fill="#181818" points="1087.85,483.24,1090.9734,476.7404,1086.1751,471.3575,1083.0517,477.857,1087.85,483.24" style="stroke:#181818;stroke-width:1.0;"/><text fill="#000000" font-family="sans-serif" font-size="13" lengthAdjust="spacing" textLength="38" x="1074" y="358.0283">literals</text><text fill="#000000" font-family="sans-serif" font-size="13" lengthAdjust="spacing" textLength="5" x="1056.0121" y="315.0951">*</text><text fill="#000000" font-family="sans-serif" font-size="13" lengthAdjust="spacing" textLength="7" x="1078.9784" y="472.1148">1</text></g><!--link Feature to FeaturesContainer--><g id="link_Feature_FeaturesContainer"><path codeLine="61" d="M404.07,231.15 C411.53,283.76 427.45,395.93 436.1,456.92 " fill="none" id="Feature-to-FeaturesContainer" style="stroke:#181818;stroke-width:1.0;"/><polygon fill="#181818" points="437.93,469.83,441.0463,463.327,436.2422,457.9493,433.1259,464.4523,437.93,469.83" style="stroke:#181818;stroke-width:1.0;"/><text fill="#000000" font-family="sans-serif" font-size="13" lengthAdjust="spacing" textLength="46" x="426" y="358.0283">features</text><text fill="#000000" font-family="sans-serif" font-size="13" lengthAdjust="spacing" textLength="5" x="399.3791" y="252.755">*</text><text fill="#000000" font-family="sans-serif" font-size="13" lengthAdjust="spacing" textLength="7" x="429.2741" y="458.5819">1</text></g><!--link Link to FeaturesContainer--><g id="link_Link_FeaturesContainer"><path codeLine="63" d="M222.94,382.15 C269.3,406.77 336.02,442.21 383.63,467.5 " fill="none" id="Link-to-FeaturesContainer" style="stroke:#181818;stroke-width:1.0;"/><polygon fill="#181818" points="388.18,469.91,382.1055,462.1575,383.7635,467.566,378.3551,469.2239,388.18,469.91" style="stroke:#181818;stroke-width:1.0;"/><text fill="#000000" font-family="sans-serif" font-size="13" lengthAdjust="spacing" textLength="25" x="314" y="427.0283">type</text><text fill="#000000" font-family="sans-serif" font-size="13" lengthAdjust="spacing" textLength="5" x="228.0673" y="403.755">*</text><text fill="#000000" font-family="sans-serif" font-size="13" lengthAdjust="spacing" textLength="7" x="368.6413" y="458.6794">1</text></g><!--link Metamodel to Metamodel--><g id="link_Metamodel_Metamodel"><path codeLine="65" d="M746.19,486.84 C765.96,487.51 781,491.73 781,499.5 C781,506.54 768.65,510.67 751.62,511.87 " fill="none" id="Metamodel-to-Metamodel" style="stroke:#181818;stroke-width:1.0;"/><polygon fill="#181818" points="746.19,512.16,755.3841,515.6911,751.1834,511.9025,754.972,507.7017,746.19,512.16" style="stroke:#181818;stroke-width:1.0;"/><text fill="#000000" font-family="sans-serif" font-size="13" lengthAdjust="spacing" textLength="66" x="787" y="505.0283">dependsOn</text><text fill="#000000" font-family="sans-serif" font-size="13" lengthAdjust="spacing" textLength="5" x="753.9955" y="481.6887">*</text><text fill="#000000" font-family="sans-serif" font-size="13" lengthAdjust="spacing" textLength="5" x="753.9955" y="509.6198">*</text></g><!--link MetamodelElement to Metamodel--><g id="link_MetamodelElement_Metamodel"><path codeLine="66" d="M835.98,217.89 C831.21,250.19 817.16,326.65 785,382 C770.03,407.76 748.21,432.19 727.8,451.97 " fill="none" id="MetamodelElement-to-Metamodel" style="stroke:#181818;stroke-width:1.0;"/><polygon fill="#181818" points="718.24,461,725.3488,459.7896,726.9656,452.7621,719.8568,453.9725,718.24,461" style="stroke:#181818;stroke-width:1.0;"/><text fill="#000000" font-family="sans-serif" font-size="13" lengthAdjust="spacing" textLength="53" x="811" y="358.0283">elements</text><text fill="#000000" font-family="sans-serif" font-size="13" lengthAdjust="spacing" textLength="5" x="829.5958" y="239.5854">*</text><text fill="#000000" font-family="sans-serif" font-size="13" lengthAdjust="spacing" textLength="7" x="718.6749" y="449.6608">1</text></g><!--link Property to DataType--><g id="link_Property_DataType"><path codeLine="68" d="M331.09,336.43 C359.61,318.45 409.22,290.43 456.5,279.5 C553.2,257.15 804.63,299.26 901,323 C912.52,325.84 924.62,330.08 935.62,334.48 " fill="none" id="Property-to-DataType" style="stroke:#181818;stroke-width:1.0;"/><polygon fill="#181818" points="940.27,336.36,933.4444,329.26,935.6395,334.4735,930.426,336.6687,940.27,336.36" style="stroke:#181818;stroke-width:1.0;"/><text fill="#000000" font-family="sans-serif" font-size="13" lengthAdjust="spacing" textLength="25" x="457.5" y="282.5283">type</text><text fill="#000000" font-family="sans-serif" font-size="13" lengthAdjust="spacing" textLength="5" x="333.2417" y="325.3677">*</text><text fill="#000000" font-family="sans-serif" font-size="13" lengthAdjust="spacing" textLength="7" x="920.6063" y="325.2745">1</text></g><rect fill="#DDDDDD" height="69.8633" id="_legend" rx="7.5" ry="7.5" style="stroke:#000000;stroke-width:1.0;" width="130" x="504.5" y="787"/><rect fill="#D3D3D3" height="18.6211" style="stroke:none;stroke-width:1.0;" width="120" x="509.5" y="794"/><rect fill="#ADD8E6" height="18.6211" style="stroke:none;stroke-width:1.0;" width="120" x="509.5" y="794"/><text fill="#000000" font-family="sans-serif" font-size="14" lengthAdjust="spacing" textLength="50" x="509.5" y="809.1074">Feature</text><rect fill="#90EE90" height="18.6211" style="stroke:none;stroke-width:1.0;" width="120" x="509.5" y="812.6211"/><text fill="#000000" font-family="sans-serif" font-size="14" lengthAdjust="spacing" textLength="116" x="509.5" y="827.7285">Feature Container</text><rect fill="#FFB6C1" height="18.6211" style="stroke:none;stroke-width:1.0;" width="120" x="509.5" y="831.2422"/><text fill="#000000" font-family="sans-serif" font-size="14" lengthAdjust="spacing" textLength="62" x="509.5" y="846.3496">DataType</text><line style="stroke:#D3D3D3;stroke-width:1.0;" x1="509.5" x2="629.5" y1="794" y2="794"/><line style="stroke:#D3D3D3;stroke-width:1.0;" x1="509.5" x2="629.5" y1="812.6211" y2="812.6211"/><line style="stroke:#D3D3D3;stroke-width:1.0;" x1="509.5" x2="629.5" y1="831.2422" y2="831.2422"/><line style="stroke:#D3D3D3;stroke-width:1.0;" x1="509.5" x2="629.5" y1="849.8633" y2="849.8633"/><line style="stroke:#D3D3D3;stroke-width:1.0;" x1="509.5" x2="509.5" y1="794" y2="849.8633"/><line style="stroke:#D3D3D3;stroke-width:1.0;" x1="629.5" x2="629.5" y1="794" y2="849.8633"/><!--SRC=[ZLJ1ZjCm4BtxAqRX05ImWgkroW4eQAK21VO7t6JQjR2TO3ihAig_OwSTnstTihTeCk_DctdZUP0j0khURq6ZNg5rZ3LAE0VlEzDWx-7PGcuU_2UBQ01_UpIjWuye_63HXHmlf44BVnY0M3blHUCvhBfEeJ3ixmdPdV5erwB1fx5cw1ZGQ4ZEEpLWmYsa-SaOLOSzveFmudxRKwLbo4c0p-Y5xbfKSuMHbEhCpQ3H2YyxKu8bIgdxFT315w7HzQ6ZfUqUmonjWMiXGzT2vPGbXdPklFJRiquEOyaxlm8VdUZwM5Ue8oVAj9c79KzEHtMrz_qMA4NKBrxoO8xpjuT0NP0HpIkPIbr7IZqeBqFPmc8bVVyNzciGIgubjl4tXn_UIhC9STbok6iBqfxK-oNNYhwuaU6a_f6kEBA2CfaUJhatGz5l1pAR4QLXBQtKqij7lFGmQCCdGDUZ3U8l6qIftt6D5as3br_eSx2enXVXE6DqNwfP1QzhgDxStBojw51mWXwdnRnPTNPDUEPC8fvkpNKe5MA55piYPr05OVbjuA3s2G55Uvgbdhqi3kj3YB5ntvEYShOVBPXMEsyWHJcqs4VbNmqxszHCJGR0DADaB4q_99BvL5_X9j27vRgbmo2shwRFUaS_ejKrpM4N0Bi94cv9-ZLTcgEak85rkgqx5eh2llO_]--></g></svg>