<?xml version="1.0" encoding="UTF-8" standalone="no"?><svg xmlns="http://www.w3.org/2000/svg" xmlns:xlink="http://www.w3.org/1999/xlink" contentStyleType="text/css" height="876px" preserveAspectRatio="none" style="width:1107px;height:876px;background:#FFFFFF;" version="1.1" viewBox="0 0 1107 876" width="1107px" zoomAndPan="magnify"><defs/><g><!--class Concept--><g id="elem_Concept"><rect codeLine="3" fill="#90EE90" height="58.6211" id="Concept" rx="2.5" ry="2.5" style="stroke:#181818;stroke-width:0.5;" width="123" x="235.5" y="599"/><ellipse cx="267.6" cy="615" fill="#ADD1B2" rx="11" ry="11" style="stroke:#181818;stroke-width:1.0;"/><path d="M270.3656,610.875 Q270.5219,610.6563 270.7094,610.5469 Q270.8969,610.4375 271.1156,610.4375 Q271.4906,610.4375 271.725,610.7031 Q271.9594,610.9531 271.9594,611.5625 L271.9594,613.0156 Q271.9594,613.625 271.725,613.8906 Q271.4906,614.1563 271.1156,614.1563 Q270.7719,614.1563 270.5688,613.9531 Q270.3656,613.7656 270.2563,613.25 Q270.2094,612.8906 270.0219,612.7031 Q269.6938,612.3281 269.0844,612.1094 Q268.475,611.8906 267.85,611.8906 Q267.0844,611.8906 266.4438,612.2188 Q265.8188,612.5469 265.3188,613.2969 Q264.8344,614.0469 264.8344,615.0781 L264.8344,616.1719 Q264.8344,617.4063 265.725,618.2344 Q266.6156,619.0469 268.2094,619.0469 Q269.1469,619.0469 269.8031,618.7969 Q270.1938,618.6406 270.6156,618.2031 Q270.8813,617.9375 271.0219,617.8594 Q271.1781,617.7813 271.3813,617.7813 Q271.7094,617.7813 271.9594,618.0469 Q272.225,618.2969 272.225,618.6406 Q272.225,618.9844 271.8813,619.3906 Q271.3813,619.9688 270.5844,620.2969 Q269.5063,620.75 268.2094,620.75 Q266.6938,620.75 265.4906,620.125 Q264.5063,619.625 263.8188,618.5625 Q263.1313,617.4844 263.1313,616.2031 L263.1313,615.0469 Q263.1313,613.7188 263.7406,612.5781 Q264.3656,611.4219 265.4594,610.8125 Q266.5531,610.1875 267.7875,610.1875 Q268.5219,610.1875 269.1625,610.3594 Q269.8188,610.5156 270.3656,610.875 Z " fill="#000000"/><text fill="#000000" font-family="sans-serif" font-size="14" lengthAdjust="spacing" textLength="53" x="285.4" y="620.7969">Concept</text><line style="stroke:#181818;stroke-width:0.5;" x1="236.5" x2="357.5" y1="631" y2="631"/><text fill="#000000" font-family="sans-serif" font-size="14" lengthAdjust="spacing" textLength="111" x="241.5" y="650.1074">abstract: Boolean</text></g><!--class FeaturesContainer--><g id="elem_FeaturesContainer"><rect codeLine="21" fill="#90EE90" height="58.6211" id="FeaturesContainer" rx="2.5" ry="2.5" style="stroke:#181818;stroke-width:0.5;" width="189" x="335.5" y="470"/><ellipse cx="367.6" cy="486" fill="#A9DCDF" rx="11" ry="11" style="stroke:#181818;stroke-width:1.0;"/><path d="M369.7875,487.7656 L365.6469,487.7656 L365.225,488.7969 L365.6469,488.7969 Q366.2563,488.7969 366.5219,489.0313 Q366.7875,489.2656 366.7875,489.6563 Q366.7875,490.0313 366.5219,490.2656 Q366.2563,490.5 365.6469,490.5 L363.35,490.5 Q362.7406,490.5 362.4906,490.2656 Q362.225,490.0313 362.225,489.6406 Q362.225,489.2656 362.5063,489.0313 Q362.7719,488.7813 363.3969,488.7969 L366.0688,482.1406 L364.9594,482.1406 Q364.35,482.1406 364.0844,481.9063 Q363.8188,481.6719 363.8188,481.2813 Q363.8188,480.9063 364.0844,480.6719 Q364.35,480.4375 364.9594,480.4375 L368.6313,480.4375 L372.0219,488.7969 Q372.6156,488.7969 372.8031,488.9375 Q373.1938,489.2031 373.1938,489.6563 Q373.1938,490.0313 372.9281,490.2656 Q372.6781,490.5 372.0688,490.5 L369.7719,490.5 Q369.1625,490.5 368.8969,490.2656 Q368.6313,490.0313 368.6313,489.6406 Q368.6313,489.2656 368.8969,489.0313 Q369.1625,488.7969 369.7719,488.7969 L370.1938,488.7969 L369.7875,487.7656 Z M369.0688,486.0625 L367.7094,482.6875 L366.3344,486.0625 L369.0688,486.0625 Z " fill="#000000"/><text fill="#000000" font-family="sans-serif" font-size="14" font-style="italic" lengthAdjust="spacing" textLength="119" x="385.4" y="491.7969">FeaturesContainer</text><line style="stroke:#181818;stroke-width:0.5;" x1="336.5" x2="523.5" y1="502" y2="502"/><text fill="#000000" font-family="sans-serif" font-size="14" lengthAdjust="spacing" textLength="177" x="341.5" y="521.1074">allFeatures(): List&lt;Feature&gt;</text></g><!--class ConceptInterface--><g id="elem_ConceptInterface"><rect codeLine="7" fill="#90EE90" height="32" id="ConceptInterface" rx="2.5" ry="2.5" style="stroke:#181818;stroke-width:0.5;" width="140" x="323" y="737"/><ellipse cx="338" cy="753" fill="#ADD1B2" rx="11" ry="11" style="stroke:#181818;stroke-width:1.0;"/><path d="M340.7656,748.875 Q340.9219,748.6563 341.1094,748.5469 Q341.2969,748.4375 341.5156,748.4375 Q341.8906,748.4375 342.125,748.7031 Q342.3594,748.9531 342.3594,749.5625 L342.3594,751.0156 Q342.3594,751.625 342.125,751.8906 Q341.8906,752.1563 341.5156,752.1563 Q341.1719,752.1563 340.9688,751.9531 Q340.7656,751.7656 340.6563,751.25 Q340.6094,750.8906 340.4219,750.7031 Q340.0938,750.3281 339.4844,750.1094 Q338.875,749.8906 338.25,749.8906 Q337.4844,749.8906 336.8438,750.2188 Q336.2188,750.5469 335.7188,751.2969 Q335.2344,752.0469 335.2344,753.0781 L335.2344,754.1719 Q335.2344,755.4063 336.125,756.2344 Q337.0156,757.0469 338.6094,757.0469 Q339.5469,757.0469 340.2031,756.7969 Q340.5938,756.6406 341.0156,756.2031 Q341.2813,755.9375 341.4219,755.8594 Q341.5781,755.7813 341.7813,755.7813 Q342.1094,755.7813 342.3594,756.0469 Q342.625,756.2969 342.625,756.6406 Q342.625,756.9844 342.2813,757.3906 Q341.7813,757.9688 340.9844,758.2969 Q339.9063,758.75 338.6094,758.75 Q337.0938,758.75 335.8906,758.125 Q334.9063,757.625 334.2188,756.5625 Q333.5313,755.4844 333.5313,754.2031 L333.5313,753.0469 Q333.5313,751.7188 334.1406,750.5781 Q334.7656,749.4219 335.8594,748.8125 Q336.9531,748.1875 338.1875,748.1875 Q338.9219,748.1875 339.5625,748.3594 Q340.2188,748.5156 340.7656,748.875 Z " fill="#000000"/><text fill="#000000" font-family="sans-serif" font-size="14" lengthAdjust="spacing" textLength="108" x="352" y="758.7969">ConceptInterface</text></g><!--class Containment--><g id="elem_Containment"><rect codeLine="9" fill="#ADD8E6" height="32" id="Containment" rx="2.5" ry="2.5" style="stroke:#181818;stroke-width:0.5;" width="112" x="140" y="483.5"/><ellipse cx="155" cy="499.5" fill="#ADD1B2" rx="11" ry="11" style="stroke:#181818;stroke-width:1.0;"/><path d="M157.7656,495.375 Q157.9219,495.1563 158.1094,495.0469 Q158.2969,494.9375 158.5156,494.9375 Q158.8906,494.9375 159.125,495.2031 Q159.3594,495.4531 159.3594,496.0625 L159.3594,497.5156 Q159.3594,498.125 159.125,498.3906 Q158.8906,498.6563 158.5156,498.6563 Q158.1719,498.6563 157.9688,498.4531 Q157.7656,498.2656 157.6563,497.75 Q157.6094,497.3906 157.4219,497.2031 Q157.0938,496.8281 156.4844,496.6094 Q155.875,496.3906 155.25,496.3906 Q154.4844,496.3906 153.8438,496.7188 Q153.2188,497.0469 152.7188,497.7969 Q152.2344,498.5469 152.2344,499.5781 L152.2344,500.6719 Q152.2344,501.9063 153.125,502.7344 Q154.0156,503.5469 155.6094,503.5469 Q156.5469,503.5469 157.2031,503.2969 Q157.5938,503.1406 158.0156,502.7031 Q158.2813,502.4375 158.4219,502.3594 Q158.5781,502.2813 158.7813,502.2813 Q159.1094,502.2813 159.3594,502.5469 Q159.625,502.7969 159.625,503.1406 Q159.625,503.4844 159.2813,503.8906 Q158.7813,504.4688 157.9844,504.7969 Q156.9063,505.25 155.6094,505.25 Q154.0938,505.25 152.8906,504.625 Q151.9063,504.125 151.2188,503.0625 Q150.5313,501.9844 150.5313,500.7031 L150.5313,499.5469 Q150.5313,498.2188 151.1406,497.0781 Q151.7656,495.9219 152.8594,495.3125 Q153.9531,494.6875 155.1875,494.6875 Q155.9219,494.6875 156.5625,494.8594 Q157.2188,495.0156 157.7656,495.375 Z " fill="#000000"/><text fill="#000000" font-family="sans-serif" font-size="14" lengthAdjust="spacing" textLength="80" x="169" y="505.2969">Containment</text></g><!--class Link--><g id="elem_Link"><rect codeLine="25" fill="#ADD8E6" height="58.6211" id="Link" rx="2.5" ry="2.5" style="stroke:#181818;stroke-width:0.5;" width="120" x="66" y="323"/><ellipse cx="108.45" cy="339" fill="#A9DCDF" rx="11" ry="11" style="stroke:#181818;stroke-width:1.0;"/><path d="M110.6375,340.7656 L106.4969,340.7656 L106.075,341.7969 L106.4969,341.7969 Q107.1063,341.7969 107.3719,342.0313 Q107.6375,342.2656 107.6375,342.6563 Q107.6375,343.0313 107.3719,343.2656 Q107.1063,343.5 106.4969,343.5 L104.2,343.5 Q103.5906,343.5 103.3406,343.2656 Q103.075,343.0313 103.075,342.6406 Q103.075,342.2656 103.3563,342.0313 Q103.6219,341.7813 104.2469,341.7969 L106.9188,335.1406 L105.8094,335.1406 Q105.2,335.1406 104.9344,334.9063 Q104.6688,334.6719 104.6688,334.2813 Q104.6688,333.9063 104.9344,333.6719 Q105.2,333.4375 105.8094,333.4375 L109.4813,333.4375 L112.8719,341.7969 Q113.4656,341.7969 113.6531,341.9375 Q114.0438,342.2031 114.0438,342.6563 Q114.0438,343.0313 113.7781,343.2656 Q113.5281,343.5 112.9188,343.5 L110.6219,343.5 Q110.0125,343.5 109.7469,343.2656 Q109.4813,343.0313 109.4813,342.6406 Q109.4813,342.2656 109.7469,342.0313 Q110.0125,341.7969 110.6219,341.7969 L111.0438,341.7969 L110.6375,340.7656 Z M109.9188,339.0625 L108.5594,335.6875 L107.1844,339.0625 L109.9188,339.0625 Z " fill="#000000"/><text fill="#000000" font-family="sans-serif" font-size="14" font-style="italic" lengthAdjust="spacing" textLength="27" x="128.55" y="344.7969">Link</text><line style="stroke:#181818;stroke-width:0.5;" x1="67" x2="185" y1="355" y2="355"/><text fill="#000000" font-family="sans-serif" font-size="14" lengthAdjust="spacing" textLength="108" x="72" y="374.1074">multiple: Boolean</text></g><!--class DataType--><g id="elem_DataType"><rect codeLine="11" fill="#FFB6C1" height="32" id="DataType" rx="2.5" ry="2.5" style="stroke:#181818;stroke-width:0.5;" width="94" x="885" y="336.5"/><ellipse cx="900" cy="352.5" fill="#A9DCDF" rx="11" ry="11" style="stroke:#181818;stroke-width:1.0;"/><path d="M902.1875,354.2656 L898.0469,354.2656 L897.625,355.2969 L898.0469,355.2969 Q898.6563,355.2969 898.9219,355.5313 Q899.1875,355.7656 899.1875,356.1563 Q899.1875,356.5313 898.9219,356.7656 Q898.6563,357 898.0469,357 L895.75,357 Q895.1406,357 894.8906,356.7656 Q894.625,356.5313 894.625,356.1406 Q894.625,355.7656 894.9063,355.5313 Q895.1719,355.2813 895.7969,355.2969 L898.4688,348.6406 L897.3594,348.6406 Q896.75,348.6406 896.4844,348.4063 Q896.2188,348.1719 896.2188,347.7813 Q896.2188,347.4063 896.4844,347.1719 Q896.75,346.9375 897.3594,346.9375 L901.0313,346.9375 L904.4219,355.2969 Q905.0156,355.2969 905.2031,355.4375 Q905.5938,355.7031 905.5938,356.1563 Q905.5938,356.5313 905.3281,356.7656 Q905.0781,357 904.4688,357 L902.1719,357 Q901.5625,357 901.2969,356.7656 Q901.0313,356.5313 901.0313,356.1406 Q901.0313,355.7656 901.2969,355.5313 Q901.5625,355.2969 902.1719,355.2969 L902.5938,355.2969 L902.1875,354.2656 Z M901.4688,352.5625 L900.1094,349.1875 L898.7344,352.5625 L901.4688,352.5625 Z " fill="#000000"/><text fill="#000000" font-family="sans-serif" font-size="14" font-style="italic" lengthAdjust="spacing" textLength="62" x="914" y="358.2969">DataType</text></g><!--class MetamodelElement--><g id="elem_MetamodelElement"><rect codeLine="34" fill="#F1F1F1" height="32" id="MetamodelElement" rx="2.5" ry="2.5" style="stroke:#181818;stroke-width:0.5;" width="153" x="718.5" y="185.5"/><ellipse cx="733.5" cy="201.5" fill="#A9DCDF" rx="11" ry="11" style="stroke:#181818;stroke-width:1.0;"/><path d="M735.6875,203.2656 L731.5469,203.2656 L731.125,204.2969 L731.5469,204.2969 Q732.1563,204.2969 732.4219,204.5313 Q732.6875,204.7656 732.6875,205.1563 Q732.6875,205.5313 732.4219,205.7656 Q732.1563,206 731.5469,206 L729.25,206 Q728.6406,206 728.3906,205.7656 Q728.125,205.5313 728.125,205.1406 Q728.125,204.7656 728.4063,204.5313 Q728.6719,204.2813 729.2969,204.2969 L731.9688,197.6406 L730.8594,197.6406 Q730.25,197.6406 729.9844,197.4063 Q729.7188,197.1719 729.7188,196.7813 Q729.7188,196.4063 729.9844,196.1719 Q730.25,195.9375 730.8594,195.9375 L734.5313,195.9375 L737.9219,204.2969 Q738.5156,204.2969 738.7031,204.4375 Q739.0938,204.7031 739.0938,205.1563 Q739.0938,205.5313 738.8281,205.7656 Q738.5781,206 737.9688,206 L735.6719,206 Q735.0625,206 734.7969,205.7656 Q734.5313,205.5313 734.5313,205.1406 Q734.5313,204.7656 734.7969,204.5313 Q735.0625,204.2969 735.6719,204.2969 L736.0938,204.2969 L735.6875,203.2656 Z M734.9688,201.5625 L733.6094,198.1875 L732.2344,201.5625 L734.9688,201.5625 Z " fill="#000000"/><text fill="#000000" font-family="sans-serif" font-size="14" font-style="italic" lengthAdjust="spacing" textLength="121" x="747.5" y="207.2969">MetamodelElement</text></g><!--class Enumeration--><g id="elem_Enumeration"><rect codeLine="13" fill="#FFB6C1" height="32" id="Enumeration" rx="2.5" ry="2.5" style="stroke:#181818;stroke-width:0.5;" width="112" x="988" y="483.5"/><ellipse cx="1003" cy="499.5" fill="#ADD1B2" rx="11" ry="11" style="stroke:#181818;stroke-width:1.0;"/><path d="M1005.7656,495.375 Q1005.9219,495.1563 1006.1094,495.0469 Q1006.2969,494.9375 1006.5156,494.9375 Q1006.8906,494.9375 1007.125,495.2031 Q1007.3594,495.4531 1007.3594,496.0625 L1007.3594,497.5156 Q1007.3594,498.125 1007.125,498.3906 Q1006.8906,498.6563 1006.5156,498.6563 Q1006.1719,498.6563 1005.9688,498.4531 Q1005.7656,498.2656 1005.6563,497.75 Q1005.6094,497.3906 1005.4219,497.2031 Q1005.0938,496.8281 1004.4844,496.6094 Q1003.875,496.3906 1003.25,496.3906 Q1002.4844,496.3906 1001.8438,496.7188 Q1001.2188,497.0469 1000.7188,497.7969 Q1000.2344,498.5469 1000.2344,499.5781 L1000.2344,500.6719 Q1000.2344,501.9063 1001.125,502.7344 Q1002.0156,503.5469 1003.6094,503.5469 Q1004.5469,503.5469 1005.2031,503.2969 Q1005.5938,503.1406 1006.0156,502.7031 Q1006.2813,502.4375 1006.4219,502.3594 Q1006.5781,502.2813 1006.7813,502.2813 Q1007.1094,502.2813 1007.3594,502.5469 Q1007.625,502.7969 1007.625,503.1406 Q1007.625,503.4844 1007.2813,503.8906 Q1006.7813,504.4688 1005.9844,504.7969 Q1004.9063,505.25 1003.6094,505.25 Q1002.0938,505.25 1000.8906,504.625 Q999.9063,504.125 999.2188,503.0625 Q998.5313,501.9844 998.5313,500.7031 L998.5313,499.5469 Q998.5313,498.2188 999.1406,497.0781 Q999.7656,495.9219 1000.8594,495.3125 Q1001.9531,494.6875 1003.1875,494.6875 Q1003.9219,494.6875 1004.5625,494.8594 Q1005.2188,495.0156 1005.7656,495.375 Z " fill="#000000"/><text fill="#000000" font-family="sans-serif" font-size="14" lengthAdjust="spacing" textLength="80" x="1017" y="505.2969">Enumeration</text></g><!--class NamespaceProvider--><g id="elem_NamespaceProvider"><rect codeLine="42" fill="#F1F1F1" height="58.6211" id="NamespaceProvider" rx="2.5" ry="2.5" style="stroke:#181818;stroke-width:0.5;" width="193" x="531.5" y="323"/><ellipse cx="561.8" cy="339" fill="#B4A7E5" rx="11" ry="11" style="stroke:#181818;stroke-width:1.0;"/><path d="M562.7531,335.6406 L562.7531,342.2969 L564.4719,342.2969 Q565.0813,342.2969 565.3469,342.5313 Q565.6125,342.7656 565.6125,343.1563 Q565.6125,343.5313 565.3469,343.7656 Q565.0813,344 564.4719,344 L559.3313,344 Q558.7219,344 558.4563,343.7656 Q558.1906,343.5313 558.1906,343.1406 Q558.1906,342.7656 558.4563,342.5313 Q558.7219,342.2969 559.3313,342.2969 L561.05,342.2969 L561.05,335.6406 L559.3313,335.6406 Q558.7219,335.6406 558.4563,335.4063 Q558.1906,335.1719 558.1906,334.7813 Q558.1906,334.4063 558.4563,334.1719 Q558.7219,333.9375 559.3313,333.9375 L564.4719,333.9375 Q565.0813,333.9375 565.3469,334.1719 Q565.6125,334.4063 565.6125,334.7813 Q565.6125,335.1719 565.3469,335.4063 Q565.0813,335.6406 564.4719,335.6406 L562.7531,335.6406 Z " fill="#000000"/><text fill="#000000" font-family="sans-serif" font-size="14" font-style="italic" lengthAdjust="spacing" textLength="127" x="579.2" y="344.7969">NamespaceProvider</text><line style="stroke:#181818;stroke-width:0.5;" x1="532.5" x2="723.5" y1="355" y2="355"/><text fill="#000000" font-family="sans-serif" font-size="14" lengthAdjust="spacing" textLength="181" x="537.5" y="374.1074">namespaceQualifier(): String</text></g><!--class EnumerationLiteral--><g id="elem_EnumerationLiteral"><rect codeLine="15" fill="#FFB6C1" height="32" id="EnumerationLiteral" rx="2.5" ry="2.5" style="stroke:#181818;stroke-width:0.5;" width="151" x="940.5" y="261"/><ellipse cx="955.5" cy="277" fill="#ADD1B2" rx="11" ry="11" style="stroke:#181818;stroke-width:1.0;"/><path d="M958.2656,272.875 Q958.4219,272.6563 958.6094,272.5469 Q958.7969,272.4375 959.0156,272.4375 Q959.3906,272.4375 959.625,272.7031 Q959.8594,272.9531 959.8594,273.5625 L959.8594,275.0156 Q959.8594,275.625 959.625,275.8906 Q959.3906,276.1563 959.0156,276.1563 Q958.6719,276.1563 958.4688,275.9531 Q958.2656,275.7656 958.1563,275.25 Q958.1094,274.8906 957.9219,274.7031 Q957.5938,274.3281 956.9844,274.1094 Q956.375,273.8906 955.75,273.8906 Q954.9844,273.8906 954.3438,274.2188 Q953.7188,274.5469 953.2188,275.2969 Q952.7344,276.0469 952.7344,277.0781 L952.7344,278.1719 Q952.7344,279.4063 953.625,280.2344 Q954.5156,281.0469 956.1094,281.0469 Q957.0469,281.0469 957.7031,280.7969 Q958.0938,280.6406 958.5156,280.2031 Q958.7813,279.9375 958.9219,279.8594 Q959.0781,279.7813 959.2813,279.7813 Q959.6094,279.7813 959.8594,280.0469 Q960.125,280.2969 960.125,280.6406 Q960.125,280.9844 959.7813,281.3906 Q959.2813,281.9688 958.4844,282.2969 Q957.4063,282.75 956.1094,282.75 Q954.5938,282.75 953.3906,282.125 Q952.4063,281.625 951.7188,280.5625 Q951.0313,279.4844 951.0313,278.2031 L951.0313,277.0469 Q951.0313,275.7188 951.6406,274.5781 Q952.2656,273.4219 953.3594,272.8125 Q954.4531,272.1875 955.6875,272.1875 Q956.4219,272.1875 957.0625,272.3594 Q957.7188,272.5156 958.2656,272.875 Z " fill="#000000"/><text fill="#000000" font-family="sans-serif" font-size="14" lengthAdjust="spacing" textLength="119" x="969.5" y="282.7969">EnumerationLiteral</text></g><!--class NamespacedEntity--><g id="elem_NamespacedEntity"><rect codeLine="36" fill="#F1F1F1" height="103.8633" id="NamespacedEntity" rx="2.5" ry="2.5" style="stroke:#181818;stroke-width:0.5;" width="156" x="717" y="7"/><ellipse cx="734.7" cy="23" fill="#A9DCDF" rx="11" ry="11" style="stroke:#181818;stroke-width:1.0;"/><path d="M736.8875,24.7656 L732.7469,24.7656 L732.325,25.7969 L732.7469,25.7969 Q733.3563,25.7969 733.6219,26.0313 Q733.8875,26.2656 733.8875,26.6563 Q733.8875,27.0313 733.6219,27.2656 Q733.3563,27.5 732.7469,27.5 L730.45,27.5 Q729.8406,27.5 729.5906,27.2656 Q729.325,27.0313 729.325,26.6406 Q729.325,26.2656 729.6063,26.0313 Q729.8719,25.7813 730.4969,25.7969 L733.1688,19.1406 L732.0594,19.1406 Q731.45,19.1406 731.1844,18.9063 Q730.9188,18.6719 730.9188,18.2813 Q730.9188,17.9063 731.1844,17.6719 Q731.45,17.4375 732.0594,17.4375 L735.7313,17.4375 L739.1219,25.7969 Q739.7156,25.7969 739.9031,25.9375 Q740.2938,26.2031 740.2938,26.6563 Q740.2938,27.0313 740.0281,27.2656 Q739.7781,27.5 739.1688,27.5 L736.8719,27.5 Q736.2625,27.5 735.9969,27.2656 Q735.7313,27.0313 735.7313,26.6406 Q735.7313,26.2656 735.9969,26.0313 Q736.2625,25.7969 736.8719,25.7969 L737.2938,25.7969 L736.8875,24.7656 Z M736.1688,23.0625 L734.8094,19.6875 L733.4344,23.0625 L736.1688,23.0625 Z " fill="#000000"/><text fill="#000000" font-family="sans-serif" font-size="14" font-style="italic" lengthAdjust="spacing" textLength="118" x="749.3" y="28.7969">NamespacedEntity</text><line style="stroke:#181818;stroke-width:0.5;" x1="718" x2="872" y1="39" y2="39"/><text fill="#000000" font-family="sans-serif" font-size="14" lengthAdjust="spacing" textLength="121" x="723" y="58.1074">simpleName: String</text><text fill="#000000" font-family="sans-serif" font-size="14" lengthAdjust="spacing" textLength="30" x="723" y="76.7285">id: Id</text><line style="stroke:#181818;stroke-width:0.5;" x1="718" x2="872" y1="84.2422" y2="84.2422"/><text fill="#000000" font-family="sans-serif" font-size="14" lengthAdjust="spacing" textLength="144" x="723" y="103.3496">qualifiedName(): String</text></g><!--class Feature--><g id="elem_Feature"><rect codeLine="17" fill="#ADD8E6" height="58.6211" id="Feature" rx="2.5" ry="2.5" style="stroke:#181818;stroke-width:0.5;" width="122" x="296" y="172"/><ellipse cx="329" cy="188" fill="#A9DCDF" rx="11" ry="11" style="stroke:#181818;stroke-width:1.0;"/><path d="M331.1875,189.7656 L327.0469,189.7656 L326.625,190.7969 L327.0469,190.7969 Q327.6563,190.7969 327.9219,191.0313 Q328.1875,191.2656 328.1875,191.6563 Q328.1875,192.0313 327.9219,192.2656 Q327.6563,192.5 327.0469,192.5 L324.75,192.5 Q324.1406,192.5 323.8906,192.2656 Q323.625,192.0313 323.625,191.6406 Q323.625,191.2656 323.9063,191.0313 Q324.1719,190.7813 324.7969,190.7969 L327.4688,184.1406 L326.3594,184.1406 Q325.75,184.1406 325.4844,183.9063 Q325.2188,183.6719 325.2188,183.2813 Q325.2188,182.9063 325.4844,182.6719 Q325.75,182.4375 326.3594,182.4375 L330.0313,182.4375 L333.4219,190.7969 Q334.0156,190.7969 334.2031,190.9375 Q334.5938,191.2031 334.5938,191.6563 Q334.5938,192.0313 334.3281,192.2656 Q334.0781,192.5 333.4688,192.5 L331.1719,192.5 Q330.5625,192.5 330.2969,192.2656 Q330.0313,192.0313 330.0313,191.6406 Q330.0313,191.2656 330.2969,191.0313 Q330.5625,190.7969 331.1719,190.7969 L331.5938,190.7969 L331.1875,189.7656 Z M330.4688,188.0625 L329.1094,184.6875 L327.7344,188.0625 L330.4688,188.0625 Z " fill="#000000"/><text fill="#000000" font-family="sans-serif" font-size="14" font-style="italic" lengthAdjust="spacing" textLength="50" x="347" y="193.7969">Feature</text><line style="stroke:#181818;stroke-width:0.5;" x1="297" x2="417" y1="204" y2="204"/><text fill="#000000" font-family="sans-serif" font-size="14" lengthAdjust="spacing" textLength="110" x="302" y="223.1074">optional: Boolean</text></g><!--class Metamodel--><g id="elem_Metamodel"><rect codeLine="29" fill="#F1F1F1" height="77.2422" id="Metamodel" rx="2.5" ry="2.5" style="stroke:#181818;stroke-width:0.5;" width="101" x="603.5" y="461"/><ellipse cx="618.5" cy="477" fill="#ADD1B2" rx="11" ry="11" style="stroke:#181818;stroke-width:1.0;"/><path d="M621.2656,472.875 Q621.4219,472.6563 621.6094,472.5469 Q621.7969,472.4375 622.0156,472.4375 Q622.3906,472.4375 622.625,472.7031 Q622.8594,472.9531 622.8594,473.5625 L622.8594,475.0156 Q622.8594,475.625 622.625,475.8906 Q622.3906,476.1563 622.0156,476.1563 Q621.6719,476.1563 621.4688,475.9531 Q621.2656,475.7656 621.1563,475.25 Q621.1094,474.8906 620.9219,474.7031 Q620.5938,474.3281 619.9844,474.1094 Q619.375,473.8906 618.75,473.8906 Q617.9844,473.8906 617.3438,474.2188 Q616.7188,474.5469 616.2188,475.2969 Q615.7344,476.0469 615.7344,477.0781 L615.7344,478.1719 Q615.7344,479.4063 616.625,480.2344 Q617.5156,481.0469 619.1094,481.0469 Q620.0469,481.0469 620.7031,480.7969 Q621.0938,480.6406 621.5156,480.2031 Q621.7813,479.9375 621.9219,479.8594 Q622.0781,479.7813 622.2813,479.7813 Q622.6094,479.7813 622.8594,480.0469 Q623.125,480.2969 623.125,480.6406 Q623.125,480.9844 622.7813,481.3906 Q622.2813,481.9688 621.4844,482.2969 Q620.4063,482.75 619.1094,482.75 Q617.5938,482.75 616.3906,482.125 Q615.4063,481.625 614.7188,480.5625 Q614.0313,479.4844 614.0313,478.2031 L614.0313,477.0469 Q614.0313,475.7188 614.6406,474.5781 Q615.2656,473.4219 616.3594,472.8125 Q617.4531,472.1875 618.6875,472.1875 Q619.4219,472.1875 620.0625,472.3594 Q620.7188,472.5156 621.2656,472.875 Z " fill="#000000"/><text fill="#000000" font-family="sans-serif" font-size="14" lengthAdjust="spacing" textLength="69" x="632.5" y="482.7969">Metamodel</text><line style="stroke:#181818;stroke-width:0.5;" x1="604.5" x2="703.5" y1="493" y2="493"/><text fill="#000000" font-family="sans-serif" font-size="14" lengthAdjust="spacing" textLength="80" x="609.5" y="512.1074">name: String</text><text fill="#000000" font-family="sans-serif" font-size="14" lengthAdjust="spacing" textLength="30" x="609.5" y="530.7285">id: Id</text></g><!--class PrimitiveType--><g id="elem_PrimitiveType"><rect codeLine="46" fill="#FFB6C1" height="32" id="PrimitiveType" rx="2.5" ry="2.5" style="stroke:#181818;stroke-width:0.5;" width="117" x="835.5" y="483.5"/><ellipse cx="850.5" cy="499.5" fill="#ADD1B2" rx="11" ry="11" style="stroke:#181818;stroke-width:1.0;"/><path d="M853.2656,495.375 Q853.4219,495.1563 853.6094,495.0469 Q853.7969,494.9375 854.0156,494.9375 Q854.3906,494.9375 854.625,495.2031 Q854.8594,495.4531 854.8594,496.0625 L854.8594,497.5156 Q854.8594,498.125 854.625,498.3906 Q854.3906,498.6563 854.0156,498.6563 Q853.6719,498.6563 853.4688,498.4531 Q853.2656,498.2656 853.1563,497.75 Q853.1094,497.3906 852.9219,497.2031 Q852.5938,496.8281 851.9844,496.6094 Q851.375,496.3906 850.75,496.3906 Q849.9844,496.3906 849.3438,496.7188 Q848.7188,497.0469 848.2188,497.7969 Q847.7344,498.5469 847.7344,499.5781 L847.7344,500.6719 Q847.7344,501.9063 848.625,502.7344 Q849.5156,503.5469 851.1094,503.5469 Q852.0469,503.5469 852.7031,503.2969 Q853.0938,503.1406 853.5156,502.7031 Q853.7813,502.4375 853.9219,502.3594 Q854.0781,502.2813 854.2813,502.2813 Q854.6094,502.2813 854.8594,502.5469 Q855.125,502.7969 855.125,503.1406 Q855.125,503.4844 854.7813,503.8906 Q854.2813,504.4688 853.4844,504.7969 Q852.4063,505.25 851.1094,505.25 Q849.5938,505.25 848.3906,504.625 Q847.4063,504.125 846.7188,503.0625 Q846.0313,501.9844 846.0313,500.7031 L846.0313,499.5469 Q846.0313,498.2188 846.6406,497.0781 Q847.2656,495.9219 848.3594,495.3125 Q849.4531,494.6875 850.6875,494.6875 Q851.4219,494.6875 852.0625,494.8594 Q852.7188,495.0156 853.2656,495.375 Z " fill="#000000"/><text fill="#000000" font-family="sans-serif" font-size="14" lengthAdjust="spacing" textLength="85" x="864.5" y="505.2969">PrimitiveType</text></g><!--class Property--><g id="elem_Property"><rect codeLine="48" fill="#ADD8E6" height="32" id="Property" rx="2.5" ry="2.5" style="stroke:#181818;stroke-width:0.5;" width="86" x="221" y="336.5"/><ellipse cx="236" cy="352.5" fill="#ADD1B2" rx="11" ry="11" style="stroke:#181818;stroke-width:1.0;"/><path d="M238.7656,348.375 Q238.9219,348.1563 239.1094,348.0469 Q239.2969,347.9375 239.5156,347.9375 Q239.8906,347.9375 240.125,348.2031 Q240.3594,348.4531 240.3594,349.0625 L240.3594,350.5156 Q240.3594,351.125 240.125,351.3906 Q239.8906,351.6563 239.5156,351.6563 Q239.1719,351.6563 238.9688,351.4531 Q238.7656,351.2656 238.6563,350.75 Q238.6094,350.3906 238.4219,350.2031 Q238.0938,349.8281 237.4844,349.6094 Q236.875,349.3906 236.25,349.3906 Q235.4844,349.3906 234.8438,349.7188 Q234.2188,350.0469 233.7188,350.7969 Q233.2344,351.5469 233.2344,352.5781 L233.2344,353.6719 Q233.2344,354.9063 234.125,355.7344 Q235.0156,356.5469 236.6094,356.5469 Q237.5469,356.5469 238.2031,356.2969 Q238.5938,356.1406 239.0156,355.7031 Q239.2813,355.4375 239.4219,355.3594 Q239.5781,355.2813 239.7813,355.2813 Q240.1094,355.2813 240.3594,355.5469 Q240.625,355.7969 240.625,356.1406 Q240.625,356.4844 240.2813,356.8906 Q239.7813,357.4688 238.9844,357.7969 Q237.9063,358.25 236.6094,358.25 Q235.0938,358.25 233.8906,357.625 Q232.9063,357.125 232.2188,356.0625 Q231.5313,354.9844 231.5313,353.7031 L231.5313,352.5469 Q231.5313,351.2188 232.1406,350.0781 Q232.7656,348.9219 233.8594,348.3125 Q234.9531,347.6875 236.1875,347.6875 Q236.9219,347.6875 237.5625,347.8594 Q238.2188,348.0156 238.7656,348.375 Z " fill="#000000"/><text fill="#000000" font-family="sans-serif" font-size="14" lengthAdjust="spacing" textLength="54" x="250" y="358.2969">Property</text></g><!--class Reference--><g id="elem_Reference"><rect codeLine="50" fill="#ADD8E6" height="32" id="Reference" rx="2.5" ry="2.5" style="stroke:#181818;stroke-width:0.5;" width="98" x="7" y="483.5"/><ellipse cx="22" cy="499.5" fill="#ADD1B2" rx="11" ry="11" style="stroke:#181818;stroke-width:1.0;"/><path d="M24.7656,495.375 Q24.9219,495.1563 25.1094,495.0469 Q25.2969,494.9375 25.5156,494.9375 Q25.8906,494.9375 26.125,495.2031 Q26.3594,495.4531 26.3594,496.0625 L26.3594,497.5156 Q26.3594,498.125 26.125,498.3906 Q25.8906,498.6563 25.5156,498.6563 Q25.1719,498.6563 24.9688,498.4531 Q24.7656,498.2656 24.6563,497.75 Q24.6094,497.3906 24.4219,497.2031 Q24.0938,496.8281 23.4844,496.6094 Q22.875,496.3906 22.25,496.3906 Q21.4844,496.3906 20.8438,496.7188 Q20.2188,497.0469 19.7188,497.7969 Q19.2344,498.5469 19.2344,499.5781 L19.2344,500.6719 Q19.2344,501.9063 20.125,502.7344 Q21.0156,503.5469 22.6094,503.5469 Q23.5469,503.5469 24.2031,503.2969 Q24.5938,503.1406 25.0156,502.7031 Q25.2813,502.4375 25.4219,502.3594 Q25.5781,502.2813 25.7813,502.2813 Q26.1094,502.2813 26.3594,502.5469 Q26.625,502.7969 26.625,503.1406 Q26.625,503.4844 26.2813,503.8906 Q25.7813,504.4688 24.9844,504.7969 Q23.9063,505.25 22.6094,505.25 Q21.0938,505.25 19.8906,504.625 Q18.9063,504.125 18.2188,503.0625 Q17.5313,501.9844 17.5313,500.7031 L17.5313,499.5469 Q17.5313,498.2188 18.1406,497.0781 Q18.7656,495.9219 19.8594,495.3125 Q20.9531,494.6875 22.1875,494.6875 Q22.9219,494.6875 23.5625,494.8594 Q24.2188,495.0156 24.7656,495.375 Z " fill="#000000"/><text fill="#000000" font-family="sans-serif" font-size="14" lengthAdjust="spacing" textLength="66" x="36" y="505.2969">Reference</text></g><!--reverse link FeaturesContainer to Concept--><g id="link_FeaturesContainer_Concept"><path d="M385.51,542.98 C366.35,561.28 344.44,582.2 327.21,598.65 " fill="none" id="FeaturesContainer-backto-Concept" style="stroke:#181818;stroke-width:1.0;"/><polygon fill="none" points="380.85,537.75,400.15,529,390.52,547.88,380.85,537.75" style="stroke:#181818;stroke-width:1.0;"/></g><!--reverse link FeaturesContainer to ConceptInterface--><g id="link_FeaturesContainer_ConceptInterface"><path d="M444.74,548.45 C452.39,579.75 458.84,621.44 452,658 C447.7,680.96 445.17,687.07 433,707 C426.35,717.88 416.96,728.61 408.94,736.86 " fill="none" id="FeaturesContainer-backto-ConceptInterface" style="stroke:#181818;stroke-width:1.0;"/><polygon fill="none" points="437.97,550.21,439.54,529.08,451.49,546.58,437.97,550.21" style="stroke:#181818;stroke-width:1.0;"/></g><!--reverse link Link to Containment--><g id="link_Link_Containment"><path d="M148.59,400.3 C162.42,428.94 179.22,463.73 188.65,483.27 " fill="none" id="Link-backto-Containment" style="stroke:#181818;stroke-width:1.0;"/><polygon fill="none" points="142.22,403.2,139.83,382.15,154.83,397.12,142.22,403.2" style="stroke:#181818;stroke-width:1.0;"/></g><!--reverse link MetamodelElement to DataType--><g id="link_MetamodelElement_DataType"><path d="M822.79,232.73 C851.7,264.17 895.79,312.12 918.07,336.35 " fill="none" id="MetamodelElement-backto-DataType" style="stroke:#181818;stroke-width:1.0;"/><polygon fill="none" points="817.27,237.07,808.89,217.61,827.58,227.59,817.27,237.07" style="stroke:#181818;stroke-width:1.0;"/></g><!--reverse link DataType to Enumeration--><g id="link_DataType_Enumeration"><path d="M956.12,384.72 C979.65,415.19 1014.45,460.25 1032.38,483.46 " fill="none" id="DataType-backto-Enumeration" style="stroke:#181818;stroke-width:1.0;"/><polygon fill="none" points="950.46,388.85,943.77,368.74,961.54,380.29,950.46,388.85" style="stroke:#181818;stroke-width:1.0;"/></g><!--reverse link NamespaceProvider to Enumeration--><g id="link_NamespaceProvider_Enumeration"><path d="M743.86,384.77 C810.88,404.12 896.29,430.98 970,461 C985.87,467.47 1002.98,476.02 1016.74,483.33 " fill="none" id="NamespaceProvider-backto-Enumeration" style="stroke:#181818;stroke-width:1.0;stroke-dasharray:7.0,7.0;"/><polygon fill="none" points="741.88,391.48,724.58,379.26,745.73,378.02,741.88,391.48" style="stroke:#181818;stroke-width:1.0;"/></g><!--reverse link NamespacedEntity to EnumerationLiteral--><g id="link_NamespacedEntity_EnumerationLiteral"><path d="M861.9,125.39 C910.26,172.65 971.88,232.88 1000.32,260.67 " fill="none" id="NamespacedEntity-backto-EnumerationLiteral" style="stroke:#181818;stroke-width:1.0;stroke-dasharray:7.0,7.0;"/><polygon fill="none" points="856.78,130.17,847.37,111.19,866.57,120.16,856.78,130.17" style="stroke:#181818;stroke-width:1.0;"/></g><!--reverse link NamespacedEntity to Feature--><g id="link_NamespacedEntity_Feature"><path d="M697.68,91.22 C612.23,118.63 490.58,157.65 418.13,180.89 " fill="none" id="NamespacedEntity-backto-Feature" style="stroke:#181818;stroke-width:1.0;stroke-dasharray:7.0,7.0;"/><polygon fill="none" points="695.76,84.48,716.95,85.04,700.04,97.81,695.76,84.48" style="stroke:#181818;stroke-width:1.0;"/></g><!--reverse link MetamodelElement to FeaturesContainer--><g id="link_MetamodelElement_FeaturesContainer"><path d="M706.07,222.95 C645.63,240.73 567.28,271.88 514,323 C471.1,364.16 447.49,431.68 436.91,469.85 " fill="none" id="MetamodelElement-backto-FeaturesContainer" style="stroke:#181818;stroke-width:1.0;"/><polygon fill="none" points="704.27,216.19,725.42,217.53,708.05,229.67,704.27,216.19" style="stroke:#181818;stroke-width:1.0;"/></g><!--reverse link NamespaceProvider to FeaturesContainer--><g id="link_NamespaceProvider_FeaturesContainer"><path d="M572.49,394.15 C539.54,418.28 498.58,448.28 469.04,469.91 " fill="none" id="NamespaceProvider-backto-FeaturesContainer" style="stroke:#181818;stroke-width:1.0;stroke-dasharray:7.0,7.0;"/><polygon fill="none" points="568.61,388.32,588.88,382.15,576.88,399.61,568.61,388.32" style="stroke:#181818;stroke-width:1.0;"/></g><!--reverse link Feature to Link--><g id="link_Feature_Link"><path d="M295.77,241.99 C256.39,267.4 206.1,299.83 170.51,322.79 " fill="none" id="Feature-backto-Link" style="stroke:#181818;stroke-width:1.0;"/><polygon fill="none" points="292.13,236.01,312.73,231.05,299.72,247.78,292.13,236.01" style="stroke:#181818;stroke-width:1.0;"/></g><!--reverse link NamespaceProvider to Metamodel--><g id="link_NamespaceProvider_Metamodel"><path d="M636.7,402.02 C640.14,421.2 644.03,442.89 647.25,460.84 " fill="none" id="NamespaceProvider-backto-Metamodel" style="stroke:#181818;stroke-width:1.0;stroke-dasharray:7.0,7.0;"/><polygon fill="none" points="629.78,403.07,633.14,382.15,643.56,400.6,629.78,403.07" style="stroke:#181818;stroke-width:1.0;"/></g><!--reverse link NamespacedEntity to MetamodelElement--><g id="link_NamespacedEntity_MetamodelElement"><path d="M795,131.37 C795,151.83 795,172.16 795,185.42 " fill="none" id="NamespacedEntity-backto-MetamodelElement" style="stroke:#181818;stroke-width:1.0;stroke-dasharray:7.0,7.0;"/><polygon fill="none" points="788,131.12,795,111.12,802,131.12,788,131.12" style="stroke:#181818;stroke-width:1.0;"/></g><!--reverse link DataType to PrimitiveType--><g id="link_DataType_PrimitiveType"><path d="M922.91,388.2 C914.96,418.53 903.8,461.12 897.94,483.46 " fill="none" id="DataType-backto-PrimitiveType" style="stroke:#181818;stroke-width:1.0;"/><polygon fill="none" points="916.16,386.32,928.01,368.74,929.71,389.86,916.16,386.32" style="stroke:#181818;stroke-width:1.0;"/></g><!--reverse link Feature to Property--><g id="link_Feature_Property"><path d="M328.36,248.38 C309.54,278.53 286.13,316.05 273.36,336.5 " fill="none" id="Feature-backto-Property" style="stroke:#181818;stroke-width:1.0;"/><polygon fill="none" points="322.54,244.49,339.07,231.23,334.42,251.9,322.54,244.49" style="stroke:#181818;stroke-width:1.0;"/></g><!--reverse link Link to Reference--><g id="link_Link_Reference"><path d="M103.41,400.3 C89.58,428.94 72.78,463.73 63.35,483.27 " fill="none" id="Link-backto-Reference" style="stroke:#181818;stroke-width:1.0;"/><polygon fill="none" points="97.17,397.12,112.17,382.15,109.78,403.2,97.17,397.12" style="stroke:#181818;stroke-width:1.0;"/></g><!--link Concept to Concept--><g id="link_Concept_Concept"><path codeLine="54" d="M358.72,617.26 C378.16,617.43 393.5,621.18 393.5,628.5 C393.5,635.14 380.9,638.84 364.07,639.6 " fill="none" id="Concept-to-Concept" style="stroke:#181818;stroke-width:1.0;"/><polygon fill="#181818" points="358.72,639.74,367.8198,643.5073,363.7183,639.6115,367.6142,635.51,358.72,639.74" style="stroke:#181818;stroke-width:1.0;"/><text fill="#000000" font-family="sans-serif" font-size="13" lengthAdjust="spacing" textLength="46" x="399.5" y="634.0283">extends</text><text fill="#000000" font-family="sans-serif" font-size="13" lengthAdjust="spacing" textLength="5" x="366.5468" y="611.9233">*</text><text fill="#000000" font-family="sans-serif" font-size="13" lengthAdjust="spacing" textLength="22" x="366.6738" y="637.1046">0..1</text></g><!--link Concept to ConceptInterface--><g id="link_Concept_ConceptInterface"><path codeLine="55" d="M319.51,658.22 C337.51,681.2 362.26,712.77 377.94,732.79 " fill="none" id="Concept-to-ConceptInterface" style="stroke:#181818;stroke-width:1.0;"/><polygon fill="#181818" points="381.15,736.87,378.7532,727.3172,378.0685,732.9325,372.4532,732.2477,381.15,736.87" style="stroke:#181818;stroke-width:1.0;"/><text fill="#000000" font-family="sans-serif" font-size="13" lengthAdjust="spacing" textLength="67" x="357" y="703.0283">implements</text><text fill="#000000" font-family="sans-serif" font-size="13" lengthAdjust="spacing" textLength="5" x="318.3244" y="679.5979">*</text><text fill="#000000" font-family="sans-serif" font-size="13" lengthAdjust="spacing" textLength="5" x="371.3966" y="725.7878">*</text></g><!--link ConceptInterface to ConceptInterface--><g id="link_ConceptInterface_ConceptInterface"><path codeLine="57" d="M463.17,742.93 C482.87,743.37 498,746.72 498,753 C498,758.69 485.58,761.98 468.58,762.87 " fill="none" id="ConceptInterface-to-ConceptInterface" style="stroke:#181818;stroke-width:1.0;"/><polygon fill="#181818" points="463.17,763.07,472.3123,766.7332,468.1666,762.8844,472.0153,758.7387,463.17,763.07" style="stroke:#181818;stroke-width:1.0;"/><text fill="#000000" font-family="sans-serif" font-size="13" lengthAdjust="spacing" textLength="46" x="504" y="758.5283">extends</text><text fill="#000000" font-family="sans-serif" font-size="13" lengthAdjust="spacing" textLength="5" x="471.1183" y="737.9431">*</text><text fill="#000000" font-family="sans-serif" font-size="13" lengthAdjust="spacing" textLength="5" x="471.1183" y="760.286">*</text></g><!--link EnumerationLiteral to Enumeration--><g id="link_EnumerationLiteral_Enumeration"><path codeLine="59" d="M1017.92,293.16 C1022.56,329.66 1034.4,422.93 1040.4,470.17 " fill="none" id="EnumerationLiteral-to-Enumeration" style="stroke:#181818;stroke-width:1.0;"/><polygon fill="#181818" points="1042.06,483.24,1045.277,476.7862,1040.557,471.3345,1037.34,477.7883,1042.06,483.24" style="stroke:#181818;stroke-width:1.0;"/><text fill="#000000" font-family="sans-serif" font-size="13" lengthAdjust="spacing" textLength="38" x="1029" y="358.0283">literals</text><text fill="#000000" font-family="sans-serif" font-size="13" lengthAdjust="spacing" textLength="5" x="1012.7351" y="315.0951">*</text><text fill="#000000" font-family="sans-serif" font-size="13" lengthAdjust="spacing" textLength="7" x="1033.258" y="472.1148">1</text></g><!--link Feature to FeaturesContainer--><g id="link_Feature_FeaturesContainer"><path codeLine="61" d="M364.07,231.15 C377.04,283.76 404.7,395.93 419.75,456.92 " fill="none" id="Feature-to-FeaturesContainer" style="stroke:#181818;stroke-width:1.0;"/><polygon fill="#181818" points="422.93,469.83,425.3753,463.0461,420.0537,458.1798,417.6085,464.9637,422.93,469.83" style="stroke:#181818;stroke-width:1.0;"/><text fill="#000000" font-family="sans-serif" font-size="13" lengthAdjust="spacing" textLength="46" x="401" y="358.0283">features</text><text fill="#000000" font-family="sans-serif" font-size="13" lengthAdjust="spacing" textLength="5" x="359.9697" y="252.755">*</text><text fill="#000000" font-family="sans-serif" font-size="13" lengthAdjust="spacing" textLength="7" x="413.6178" y="458.5819">1</text></g><!--link Link to FeaturesContainer--><g id="link_Link_FeaturesContainer"><path codeLine="63" d="M186.06,382.15 C237.79,406.82 312.29,442.36 365.32,467.65 " fill="none" id="Link-to-FeaturesContainer" style="stroke:#181818;stroke-width:1.0;"/><polygon fill="#181818" points="370.06,469.91,363.6448,462.437,365.5431,467.7659,360.2142,469.6641,370.06,469.91" style="stroke:#181818;stroke-width:1.0;"/><text fill="#000000" font-family="sans-serif" font-size="13" lengthAdjust="spacing" textLength="25" x="288" y="427.0283">type</text><text fill="#000000" font-family="sans-serif" font-size="13" lengthAdjust="spacing" textLength="5" x="192.3921" y="403.755">*</text><text fill="#000000" font-family="sans-serif" font-size="13" lengthAdjust="spacing" textLength="7" x="349.1825" y="458.6794">1</text></g><!--link Metamodel to Metamodel--><g id="link_Metamodel_Metamodel"><path codeLine="65" d="M704.91,486.78 C723.88,486.36 739.5,490.6 739.5,499.5 C739.5,507.56 726.67,511.8 710.15,512.22 " fill="none" id="Metamodel-to-Metamodel" style="stroke:#181818;stroke-width:1.0;"/><polygon fill="#181818" points="704.91,512.22,713.91,516.22,709.91,512.22,713.91,508.22,704.91,512.22" style="stroke:#181818;stroke-width:1.0;"/><text fill="#000000" font-family="sans-serif" font-size="13" lengthAdjust="spacing" textLength="66" x="745.5" y="505.0283">dependsOn</text><text fill="#000000" font-family="sans-serif" font-size="13" lengthAdjust="spacing" textLength="5" x="712.4208" y="480.8277">*</text><text fill="#000000" font-family="sans-serif" font-size="13" lengthAdjust="spacing" textLength="5" x="712.4208" y="509.8452">*</text></g><!--link MetamodelElement to Metamodel--><g id="link_MetamodelElement_Metamodel"><path codeLine="66" d="M792.44,217.6 C786.67,249.36 770.82,324.84 742,382 C729.76,406.28 712.32,430.68 696.19,450.82 " fill="none" id="MetamodelElement-to-Metamodel" style="stroke:#181818;stroke-width:1.0;"/><polygon fill="#181818" points="687.91,460.95,694.8053,458.8392,695.5089,451.6625,688.6136,453.7733,687.91,460.95" style="stroke:#181818;stroke-width:1.0;"/><text fill="#000000" font-family="sans-serif" font-size="13" lengthAdjust="spacing" textLength="53" x="766" y="358.0283">elements</text><text fill="#000000" font-family="sans-serif" font-size="13" lengthAdjust="spacing" textLength="5" x="785.8271" y="239.516">*</text><text fill="#000000" font-family="sans-serif" font-size="13" lengthAdjust="spacing" textLength="7" x="686.3268" y="449.6019">1</text></g><!--link Property to DataType--><g id="link_Property_DataType"><path codeLine="68" d="M288.09,336.43 C316.61,318.45 366.22,290.43 413.5,279.5 C510.2,257.15 761.63,299.26 858,323 C869.52,325.84 881.62,330.08 892.62,334.48 " fill="none" id="Property-to-DataType" style="stroke:#181818;stroke-width:1.0;"/><polygon fill="#181818" points="897.27,336.36,890.4444,329.26,892.6395,334.4735,887.426,336.6687,897.27,336.36" style="stroke:#181818;stroke-width:1.0;"/><text fill="#000000" font-family="sans-serif" font-size="13" lengthAdjust="spacing" textLength="25" x="414.5" y="282.5283">type</text><text fill="#000000" font-family="sans-serif" font-size="13" lengthAdjust="spacing" textLength="5" x="290.2417" y="325.3677">*</text><text fill="#000000" font-family="sans-serif" font-size="13" lengthAdjust="spacing" textLength="7" x="877.6063" y="325.2745">1</text></g><rect fill="#DDDDDD" height="69.8633" id="_legend" rx="7.5" ry="7.5" style="stroke:#000000;stroke-width:1.0;" width="130" x="481.5" y="787"/><rect fill="#D3D3D3" height="18.6211" style="stroke:none;stroke-width:1.0;" width="120" x="486.5" y="794"/><rect fill="#ADD8E6" height="18.6211" style="stroke:none;stroke-width:1.0;" width="120" x="486.5" y="794"/><text fill="#000000" font-family="sans-serif" font-size="14" lengthAdjust="spacing" textLength="50" x="486.5" y="809.1074">Feature</text><rect fill="#90EE90" height="18.6211" style="stroke:none;stroke-width:1.0;" width="120" x="486.5" y="812.6211"/><text fill="#000000" font-family="sans-serif" font-size="14" lengthAdjust="spacing" textLength="116" x="486.5" y="827.7285">Feature Container</text><rect fill="#FFB6C1" height="18.6211" style="stroke:none;stroke-width:1.0;" width="120" x="486.5" y="831.2422"/><text fill="#000000" font-family="sans-serif" font-size="14" lengthAdjust="spacing" textLength="62" x="486.5" y="846.3496">DataType</text><line style="stroke:#D3D3D3;stroke-width:1.0;" x1="486.5" x2="606.5" y1="794" y2="794"/><line style="stroke:#D3D3D3;stroke-width:1.0;" x1="486.5" x2="606.5" y1="812.6211" y2="812.6211"/><line style="stroke:#D3D3D3;stroke-width:1.0;" x1="486.5" x2="606.5" y1="831.2422" y2="831.2422"/><line style="stroke:#D3D3D3;stroke-width:1.0;" x1="486.5" x2="606.5" y1="849.8633" y2="849.8633"/><line style="stroke:#D3D3D3;stroke-width:1.0;" x1="486.5" x2="486.5" y1="794" y2="849.8633"/><line style="stroke:#D3D3D3;stroke-width:1.0;" x1="606.5" x2="606.5" y1="794" y2="849.8633"/><!--SRC=[ZLJ1SjCm4BthAtRC0SYK3bmz7HzA0zEPK0Bq1rHxasgGP2EjEsG8_uvaHxBIoA6tPBtlxTjzgtqK3GAgZdQWK3sWiOpLabiB7rjTOqVmQYMsZ_JP86h0tuIwiV09EVK6hSiXBZGQ-CC0-8CbmsiguRfj9NBD_ZuZkzM4PiDhV1bhWlO1XJh8kPOzHjnAw9-CXUemOcuuyVjT5ogjNKu4V47YgcrGBYLwqb1dgNk5XfDeTGuMAONgHg25EwxGTgwZjMcVt2nDXcibNDTSffGvXcQfIT3kf9F3MDBEpy079zhEr-Noo8ayRU9XpfFdephR-xW5KWRgDszBPuwbgqEWoiZmvkLC3LrxIjLB4gviPh6YllyBqovQmWyoGc_TNz6KSDja5BsevJcpidROWU7kkFwldakn4TZuk9zKHfc8xsM-fI7wxK1c4g8uexKHIf1umhdt41Px0hGT6YT-tfUG-XqtQ53NEFymNuD1EJm4Mp8MpagnAE1T1SNxoyiFHRWFPO0Uf_cyHN5oHCh4cKWydPZpq528PHxgW5n0uOIb9w44EIOuL5ZF9FNaGPMmEOGO6zOyAifdqs31jD5f0p5QGeETL_vLivDDJTGa08mpYiQ6wRl4O7weBt7hwDroNOLxm7SNqyzg7pvugwimXxq3x2U8Eo7nqtHWZfBy1bRnfEwPAmfZxNy0]--></g></svg>