<?xml version="1.0" encoding="us-ascii" standalone="no"?><svg xmlns="http://www.w3.org/2000/svg" xmlns:xlink="http://www.w3.org/1999/xlink" contentStyleType="text/css" height="663px" preserveAspectRatio="none" style="width:556px;height:663px;background:#FFFFFF;" version="1.1" viewBox="0 0 556 663" width="556px" zoomAndPan="magnify"><defs/><g><text fill="#000000" font-family="sans-serif" font-size="14" font-weight="bold" lengthAdjust="spacing" textLength="139" x="201.5" y="25.1074">Serialization Format</text><!--class SerializationChunk--><g id="elem_SerializationChunk"><rect codeLine="10" fill="#F1F1F1" height="58.6211" id="SerializationChunk" rx="2.5" ry="2.5" style="stroke:#181818;stroke-width:0.5;" width="224" x="131" y="46.6211"/><ellipse cx="180.25" cy="62.6211" fill="#ADD1B2" rx="11" ry="11" style="stroke:#181818;stroke-width:1.0;"/><path d="M183.0156,58.4961 Q183.1719,58.2773 183.3594,58.168 Q183.5469,58.0586 183.7656,58.0586 Q184.1406,58.0586 184.375,58.3242 Q184.6094,58.5742 184.6094,59.1836 L184.6094,60.6367 Q184.6094,61.2461 184.375,61.5117 Q184.1406,61.7773 183.7656,61.7773 Q183.4219,61.7773 183.2188,61.5742 Q183.0156,61.3867 182.9063,60.8711 Q182.8594,60.5117 182.6719,60.3242 Q182.3438,59.9492 181.7344,59.7305 Q181.125,59.5117 180.5,59.5117 Q179.7344,59.5117 179.0938,59.8398 Q178.4688,60.168 177.9688,60.918 Q177.4844,61.668 177.4844,62.6992 L177.4844,63.793 Q177.4844,65.0273 178.375,65.8555 Q179.2656,66.668 180.8594,66.668 Q181.7969,66.668 182.4531,66.418 Q182.8438,66.2617 183.2656,65.8242 Q183.5313,65.5586 183.6719,65.4805 Q183.8281,65.4023 184.0313,65.4023 Q184.3594,65.4023 184.6094,65.668 Q184.875,65.918 184.875,66.2617 Q184.875,66.6055 184.5313,67.0117 Q184.0313,67.5898 183.2344,67.918 Q182.1563,68.3711 180.8594,68.3711 Q179.3438,68.3711 178.1406,67.7461 Q177.1563,67.2461 176.4688,66.1836 Q175.7813,65.1055 175.7813,63.8242 L175.7813,62.668 Q175.7813,61.3398 176.3906,60.1992 Q177.0156,59.043 178.1094,58.4336 Q179.2031,57.8086 180.4375,57.8086 Q181.1719,57.8086 181.8125,57.9805 Q182.4688,58.1367 183.0156,58.4961 Z " fill="#000000"/><text fill="#000000" font-family="sans-serif" font-size="14" lengthAdjust="spacing" textLength="117" x="200.75" y="68.418">SerializationChunk</text><line style="stroke:#181818;stroke-width:0.5;" x1="132" x2="354" y1="78.6211" y2="78.6211"/><text fill="#000000" font-family="sans-serif" font-size="14" lengthAdjust="spacing" textLength="212" x="137" y="97.7285">serializationFormatVersion: String</text></g><!--class UsedLanguage--><g id="elem_UsedLanguage"><rect codeLine="16" fill="#F1F1F1" height="77.2422" id="UsedLanguage" rx="2.5" ry="2.5" style="stroke:#181818;stroke-width:0.5;" width="128" x="129" y="184.6211"/><ellipse cx="144" cy="200.6211" fill="#ADD1B2" rx="11" ry="11" style="stroke:#181818;stroke-width:1.0;"/><path d="M146.7656,196.4961 Q146.9219,196.2773 147.1094,196.168 Q147.2969,196.0586 147.5156,196.0586 Q147.8906,196.0586 148.125,196.3242 Q148.3594,196.5742 148.3594,197.1836 L148.3594,198.6367 Q148.3594,199.2461 148.125,199.5117 Q147.8906,199.7773 147.5156,199.7773 Q147.1719,199.7773 146.9688,199.5742 Q146.7656,199.3867 146.6563,198.8711 Q146.6094,198.5117 146.4219,198.3242 Q146.0938,197.9492 145.4844,197.7305 Q144.875,197.5117 144.25,197.5117 Q143.4844,197.5117 142.8438,197.8398 Q142.2188,198.168 141.7188,198.918 Q141.2344,199.668 141.2344,200.6992 L141.2344,201.793 Q141.2344,203.0273 142.125,203.8555 Q143.0156,204.668 144.6094,204.668 Q145.5469,204.668 146.2031,204.418 Q146.5938,204.2617 147.0156,203.8242 Q147.2813,203.5586 147.4219,203.4805 Q147.5781,203.4023 147.7813,203.4023 Q148.1094,203.4023 148.3594,203.668 Q148.625,203.918 148.625,204.2617 Q148.625,204.6055 148.2813,205.0117 Q147.7813,205.5898 146.9844,205.918 Q145.9063,206.3711 144.6094,206.3711 Q143.0938,206.3711 141.8906,205.7461 Q140.9063,205.2461 140.2188,204.1836 Q139.5313,203.1055 139.5313,201.8242 L139.5313,200.668 Q139.5313,199.3398 140.1406,198.1992 Q140.7656,197.043 141.8594,196.4336 Q142.9531,195.8086 144.1875,195.8086 Q144.9219,195.8086 145.5625,195.9805 Q146.2188,196.1367 146.7656,196.4961 Z " fill="#000000"/><text fill="#000000" font-family="sans-serif" font-size="14" lengthAdjust="spacing" textLength="96" x="158" y="206.418">UsedLanguage</text><line style="stroke:#181818;stroke-width:0.5;" x1="130" x2="256" y1="216.6211" y2="216.6211"/><text fill="#000000" font-family="sans-serif" font-size="14" lengthAdjust="spacing" textLength="41" x="135" y="235.7285">key: Id</text><text fill="#000000" font-family="sans-serif" font-size="14" lengthAdjust="spacing" textLength="91" x="135" y="254.3496">version: String</text></g><!--class Node--><g id="elem_Node"><rect codeLine="23" fill="#F1F1F1" height="77.2422" id="Node" rx="2.5" ry="2.5" style="stroke:#181818;stroke-width:0.5;" width="72" x="292" y="184.6211"/><ellipse cx="310.15" cy="200.6211" fill="#ADD1B2" rx="11" ry="11" style="stroke:#181818;stroke-width:1.0;"/><path d="M312.9156,196.4961 Q313.0719,196.2773 313.2594,196.168 Q313.4469,196.0586 313.6656,196.0586 Q314.0406,196.0586 314.275,196.3242 Q314.5094,196.5742 314.5094,197.1836 L314.5094,198.6367 Q314.5094,199.2461 314.275,199.5117 Q314.0406,199.7773 313.6656,199.7773 Q313.3219,199.7773 313.1188,199.5742 Q312.9156,199.3867 312.8063,198.8711 Q312.7594,198.5117 312.5719,198.3242 Q312.2438,197.9492 311.6344,197.7305 Q311.025,197.5117 310.4,197.5117 Q309.6344,197.5117 308.9938,197.8398 Q308.3688,198.168 307.8688,198.918 Q307.3844,199.668 307.3844,200.6992 L307.3844,201.793 Q307.3844,203.0273 308.275,203.8555 Q309.1656,204.668 310.7594,204.668 Q311.6969,204.668 312.3531,204.418 Q312.7438,204.2617 313.1656,203.8242 Q313.4313,203.5586 313.5719,203.4805 Q313.7281,203.4023 313.9313,203.4023 Q314.2594,203.4023 314.5094,203.668 Q314.775,203.918 314.775,204.2617 Q314.775,204.6055 314.4313,205.0117 Q313.9313,205.5898 313.1344,205.918 Q312.0563,206.3711 310.7594,206.3711 Q309.2438,206.3711 308.0406,205.7461 Q307.0563,205.2461 306.3688,204.1836 Q305.6813,203.1055 305.6813,201.8242 L305.6813,200.668 Q305.6813,199.3398 306.2906,198.1992 Q306.9156,197.043 308.0094,196.4336 Q309.1031,195.8086 310.3375,195.8086 Q311.0719,195.8086 311.7125,195.9805 Q312.3688,196.1367 312.9156,196.4961 Z " fill="#000000"/><text fill="#000000" font-family="sans-serif" font-size="14" lengthAdjust="spacing" textLength="33" x="324.85" y="206.418">Node</text><line style="stroke:#181818;stroke-width:0.5;" x1="293" x2="363" y1="216.6211" y2="216.6211"/><text fill="#000000" font-family="sans-serif" font-size="14" lengthAdjust="spacing" textLength="30" x="298" y="235.7285">id: Id</text><text fill="#000000" font-family="sans-serif" font-size="14" lengthAdjust="spacing" textLength="60" x="298" y="254.3496">parent: Id</text></g><!--class MetaPointer--><g id="elem_MetaPointer"><rect codeLine="30" fill="#F1F1F1" height="95.8633" id="MetaPointer" rx="2.5" ry="2.5" style="stroke:#181818;stroke-width:0.5;" width="108" x="230" y="478.6211"/><ellipse cx="245" cy="494.6211" fill="#ADD1B2" rx="11" ry="11" style="stroke:#181818;stroke-width:1.0;"/><path d="M247.7656,490.4961 Q247.9219,490.2773 248.1094,490.168 Q248.2969,490.0586 248.5156,490.0586 Q248.8906,490.0586 249.125,490.3242 Q249.3594,490.5742 249.3594,491.1836 L249.3594,492.6367 Q249.3594,493.2461 249.125,493.5117 Q248.8906,493.7773 248.5156,493.7773 Q248.1719,493.7773 247.9688,493.5742 Q247.7656,493.3867 247.6563,492.8711 Q247.6094,492.5117 247.4219,492.3242 Q247.0938,491.9492 246.4844,491.7305 Q245.875,491.5117 245.25,491.5117 Q244.4844,491.5117 243.8438,491.8398 Q243.2188,492.168 242.7188,492.918 Q242.2344,493.668 242.2344,494.6992 L242.2344,495.793 Q242.2344,497.0273 243.125,497.8555 Q244.0156,498.668 245.6094,498.668 Q246.5469,498.668 247.2031,498.418 Q247.5938,498.2617 248.0156,497.8242 Q248.2813,497.5586 248.4219,497.4805 Q248.5781,497.4023 248.7813,497.4023 Q249.1094,497.4023 249.3594,497.668 Q249.625,497.918 249.625,498.2617 Q249.625,498.6055 249.2813,499.0117 Q248.7813,499.5898 247.9844,499.918 Q246.9063,500.3711 245.6094,500.3711 Q244.0938,500.3711 242.8906,499.7461 Q241.9063,499.2461 241.2188,498.1836 Q240.5313,497.1055 240.5313,495.8242 L240.5313,494.668 Q240.5313,493.3398 241.1406,492.1992 Q241.7656,491.043 242.8594,490.4336 Q243.9531,489.8086 245.1875,489.8086 Q245.9219,489.8086 246.5625,489.9805 Q247.2188,490.1367 247.7656,490.4961 Z " fill="#000000"/><text fill="#000000" font-family="sans-serif" font-size="14" lengthAdjust="spacing" textLength="76" x="259" y="500.418">MetaPointer</text><line style="stroke:#181818;stroke-width:0.5;" x1="231" x2="337" y1="510.6211" y2="510.6211"/><text fill="#000000" font-family="sans-serif" font-size="14" lengthAdjust="spacing" textLength="78" x="236" y="529.7285">language: Id</text><text fill="#000000" font-family="sans-serif" font-size="14" lengthAdjust="spacing" textLength="91" x="236" y="548.3496">version: String</text><text fill="#000000" font-family="sans-serif" font-size="14" lengthAdjust="spacing" textLength="41" x="236" y="566.9707">key: Id</text></g><!--class Children--><g id="elem_Children"><rect codeLine="38" fill="#F1F1F1" height="32" id="Children" rx="2.5" ry="2.5" style="stroke:#181818;stroke-width:0.5;" width="85" x="360.5" y="354.1211"/><ellipse cx="375.5" cy="370.1211" fill="#ADD1B2" rx="11" ry="11" style="stroke:#181818;stroke-width:1.0;"/><path d="M378.2656,365.9961 Q378.4219,365.7773 378.6094,365.668 Q378.7969,365.5586 379.0156,365.5586 Q379.3906,365.5586 379.625,365.8242 Q379.8594,366.0742 379.8594,366.6836 L379.8594,368.1367 Q379.8594,368.7461 379.625,369.0117 Q379.3906,369.2773 379.0156,369.2773 Q378.6719,369.2773 378.4688,369.0742 Q378.2656,368.8867 378.1563,368.3711 Q378.1094,368.0117 377.9219,367.8242 Q377.5938,367.4492 376.9844,367.2305 Q376.375,367.0117 375.75,367.0117 Q374.9844,367.0117 374.3438,367.3398 Q373.7188,367.668 373.2188,368.418 Q372.7344,369.168 372.7344,370.1992 L372.7344,371.293 Q372.7344,372.5273 373.625,373.3555 Q374.5156,374.168 376.1094,374.168 Q377.0469,374.168 377.7031,373.918 Q378.0938,373.7617 378.5156,373.3242 Q378.7813,373.0586 378.9219,372.9805 Q379.0781,372.9023 379.2813,372.9023 Q379.6094,372.9023 379.8594,373.168 Q380.125,373.418 380.125,373.7617 Q380.125,374.1055 379.7813,374.5117 Q379.2813,375.0898 378.4844,375.418 Q377.4063,375.8711 376.1094,375.8711 Q374.5938,375.8711 373.3906,375.2461 Q372.4063,374.7461 371.7188,373.6836 Q371.0313,372.6055 371.0313,371.3242 L371.0313,370.168 Q371.0313,368.8398 371.6406,367.6992 Q372.2656,366.543 373.3594,365.9336 Q374.4531,365.3086 375.6875,365.3086 Q376.4219,365.3086 377.0625,365.4805 Q377.7188,365.6367 378.2656,365.9961 Z " fill="#000000"/><text fill="#000000" font-family="sans-serif" font-size="14" lengthAdjust="spacing" textLength="53" x="389.5" y="375.918">Children</text></g><!--class ChildTarget--><g id="elem_ChildTarget"><rect codeLine="45" fill="#F1F1F1" height="58.6211" id="ChildTarget" rx="2.5" ry="2.5" style="stroke:#181818;stroke-width:0.5;" width="106" x="403" y="497.1211"/><ellipse cx="418" cy="513.1211" fill="#ADD1B2" rx="11" ry="11" style="stroke:#181818;stroke-width:1.0;"/><path d="M420.7656,508.9961 Q420.9219,508.7773 421.1094,508.668 Q421.2969,508.5586 421.5156,508.5586 Q421.8906,508.5586 422.125,508.8242 Q422.3594,509.0742 422.3594,509.6836 L422.3594,511.1367 Q422.3594,511.7461 422.125,512.0117 Q421.8906,512.2773 421.5156,512.2773 Q421.1719,512.2773 420.9688,512.0742 Q420.7656,511.8867 420.6563,511.3711 Q420.6094,511.0117 420.4219,510.8242 Q420.0938,510.4492 419.4844,510.2305 Q418.875,510.0117 418.25,510.0117 Q417.4844,510.0117 416.8438,510.3398 Q416.2188,510.668 415.7188,511.418 Q415.2344,512.168 415.2344,513.1992 L415.2344,514.293 Q415.2344,515.5273 416.125,516.3555 Q417.0156,517.168 418.6094,517.168 Q419.5469,517.168 420.2031,516.918 Q420.5938,516.7617 421.0156,516.3242 Q421.2813,516.0586 421.4219,515.9805 Q421.5781,515.9023 421.7813,515.9023 Q422.1094,515.9023 422.3594,516.168 Q422.625,516.418 422.625,516.7617 Q422.625,517.1055 422.2813,517.5117 Q421.7813,518.0898 420.9844,518.418 Q419.9063,518.8711 418.6094,518.8711 Q417.0938,518.8711 415.8906,518.2461 Q414.9063,517.7461 414.2188,516.6836 Q413.5313,515.6055 413.5313,514.3242 L413.5313,513.168 Q413.5313,511.8398 414.1406,510.6992 Q414.7656,509.543 415.8594,508.9336 Q416.9531,508.3086 418.1875,508.3086 Q418.9219,508.3086 419.5625,508.4805 Q420.2188,508.6367 420.7656,508.9961 Z " fill="#000000"/><text fill="#000000" font-family="sans-serif" font-size="14" lengthAdjust="spacing" textLength="74" x="432" y="518.918">ChildTarget</text><line style="stroke:#181818;stroke-width:0.5;" x1="404" x2="508" y1="529.1211" y2="529.1211"/><text fill="#000000" font-family="sans-serif" font-size="14" lengthAdjust="spacing" textLength="56" x="409" y="548.2285">target: Id</text></g><!--class References--><g id="elem_References"><rect codeLine="51" fill="#F1F1F1" height="32" id="References" rx="2.5" ry="2.5" style="stroke:#181818;stroke-width:0.5;" width="105" x="62.5" y="354.1211"/><ellipse cx="77.5" cy="370.1211" fill="#ADD1B2" rx="11" ry="11" style="stroke:#181818;stroke-width:1.0;"/><path d="M80.2656,365.9961 Q80.4219,365.7773 80.6094,365.668 Q80.7969,365.5586 81.0156,365.5586 Q81.3906,365.5586 81.625,365.8242 Q81.8594,366.0742 81.8594,366.6836 L81.8594,368.1367 Q81.8594,368.7461 81.625,369.0117 Q81.3906,369.2773 81.0156,369.2773 Q80.6719,369.2773 80.4688,369.0742 Q80.2656,368.8867 80.1563,368.3711 Q80.1094,368.0117 79.9219,367.8242 Q79.5938,367.4492 78.9844,367.2305 Q78.375,367.0117 77.75,367.0117 Q76.9844,367.0117 76.3438,367.3398 Q75.7188,367.668 75.2188,368.418 Q74.7344,369.168 74.7344,370.1992 L74.7344,371.293 Q74.7344,372.5273 75.625,373.3555 Q76.5156,374.168 78.1094,374.168 Q79.0469,374.168 79.7031,373.918 Q80.0938,373.7617 80.5156,373.3242 Q80.7813,373.0586 80.9219,372.9805 Q81.0781,372.9023 81.2813,372.9023 Q81.6094,372.9023 81.8594,373.168 Q82.125,373.418 82.125,373.7617 Q82.125,374.1055 81.7813,374.5117 Q81.2813,375.0898 80.4844,375.418 Q79.4063,375.8711 78.1094,375.8711 Q76.5938,375.8711 75.3906,375.2461 Q74.4063,374.7461 73.7188,373.6836 Q73.0313,372.6055 73.0313,371.3242 L73.0313,370.168 Q73.0313,368.8398 73.6406,367.6992 Q74.2656,366.543 75.3594,365.9336 Q76.4531,365.3086 77.6875,365.3086 Q78.4219,365.3086 79.0625,365.4805 Q79.7188,365.6367 80.2656,365.9961 Z " fill="#000000"/><text fill="#000000" font-family="sans-serif" font-size="14" lengthAdjust="spacing" textLength="73" x="91.5" y="375.918">References</text></g><!--class ReferenceTarget--><g id="elem_ReferenceTarget"><rect codeLine="58" fill="#F1F1F1" height="77.2422" id="ReferenceTarget" rx="2.5" ry="2.5" style="stroke:#181818;stroke-width:0.5;" width="140" x="7" y="488.1211"/><ellipse cx="22" cy="504.1211" fill="#ADD1B2" rx="11" ry="11" style="stroke:#181818;stroke-width:1.0;"/><path d="M24.7656,499.9961 Q24.9219,499.7773 25.1094,499.668 Q25.2969,499.5586 25.5156,499.5586 Q25.8906,499.5586 26.125,499.8242 Q26.3594,500.0742 26.3594,500.6836 L26.3594,502.1367 Q26.3594,502.7461 26.125,503.0117 Q25.8906,503.2773 25.5156,503.2773 Q25.1719,503.2773 24.9688,503.0742 Q24.7656,502.8867 24.6563,502.3711 Q24.6094,502.0117 24.4219,501.8242 Q24.0938,501.4492 23.4844,501.2305 Q22.875,501.0117 22.25,501.0117 Q21.4844,501.0117 20.8438,501.3398 Q20.2188,501.668 19.7188,502.418 Q19.2344,503.168 19.2344,504.1992 L19.2344,505.293 Q19.2344,506.5273 20.125,507.3555 Q21.0156,508.168 22.6094,508.168 Q23.5469,508.168 24.2031,507.918 Q24.5938,507.7617 25.0156,507.3242 Q25.2813,507.0586 25.4219,506.9805 Q25.5781,506.9023 25.7813,506.9023 Q26.1094,506.9023 26.3594,507.168 Q26.625,507.418 26.625,507.7617 Q26.625,508.1055 26.2813,508.5117 Q25.7813,509.0898 24.9844,509.418 Q23.9063,509.8711 22.6094,509.8711 Q21.0938,509.8711 19.8906,509.2461 Q18.9063,508.7461 18.2188,507.6836 Q17.5313,506.6055 17.5313,505.3242 L17.5313,504.168 Q17.5313,502.8398 18.1406,501.6992 Q18.7656,500.543 19.8594,499.9336 Q20.9531,499.3086 22.1875,499.3086 Q22.9219,499.3086 23.5625,499.4805 Q24.2188,499.6367 24.7656,499.9961 Z " fill="#000000"/><text fill="#000000" font-family="sans-serif" font-size="14" lengthAdjust="spacing" textLength="108" x="36" y="509.918">ReferenceTarget</text><line style="stroke:#181818;stroke-width:0.5;" x1="8" x2="146" y1="520.1211" y2="520.1211"/><text fill="#000000" font-family="sans-serif" font-size="14" lengthAdjust="spacing" textLength="80" x="13" y="539.2285">reference: Id</text><text fill="#000000" font-family="sans-serif" font-size="14" lengthAdjust="spacing" textLength="114" x="13" y="557.8496">resolveInfo: String</text></g><!--class PropertyValue--><g id="elem_PropertyValue"><rect codeLine="65" fill="#F1F1F1" height="58.6211" id="PropertyValue" rx="2.5" ry="2.5" style="stroke:#181818;stroke-width:0.5;" width="122" x="203" y="340.6211"/><ellipse cx="218" cy="356.6211" fill="#ADD1B2" rx="11" ry="11" style="stroke:#181818;stroke-width:1.0;"/><path d="M220.7656,352.4961 Q220.9219,352.2773 221.1094,352.168 Q221.2969,352.0586 221.5156,352.0586 Q221.8906,352.0586 222.125,352.3242 Q222.3594,352.5742 222.3594,353.1836 L222.3594,354.6367 Q222.3594,355.2461 222.125,355.5117 Q221.8906,355.7773 221.5156,355.7773 Q221.1719,355.7773 220.9688,355.5742 Q220.7656,355.3867 220.6563,354.8711 Q220.6094,354.5117 220.4219,354.3242 Q220.0938,353.9492 219.4844,353.7305 Q218.875,353.5117 218.25,353.5117 Q217.4844,353.5117 216.8438,353.8398 Q216.2188,354.168 215.7188,354.918 Q215.2344,355.668 215.2344,356.6992 L215.2344,357.793 Q215.2344,359.0273 216.125,359.8555 Q217.0156,360.668 218.6094,360.668 Q219.5469,360.668 220.2031,360.418 Q220.5938,360.2617 221.0156,359.8242 Q221.2813,359.5586 221.4219,359.4805 Q221.5781,359.4023 221.7813,359.4023 Q222.1094,359.4023 222.3594,359.668 Q222.625,359.918 222.625,360.2617 Q222.625,360.6055 222.2813,361.0117 Q221.7813,361.5898 220.9844,361.918 Q219.9063,362.3711 218.6094,362.3711 Q217.0938,362.3711 215.8906,361.7461 Q214.9063,361.2461 214.2188,360.1836 Q213.5313,359.1055 213.5313,357.8242 L213.5313,356.668 Q213.5313,355.3398 214.1406,354.1992 Q214.7656,353.043 215.8594,352.4336 Q216.9531,351.8086 218.1875,351.8086 Q218.9219,351.8086 219.5625,351.9805 Q220.2188,352.1367 220.7656,352.4961 Z " fill="#000000"/><text fill="#000000" font-family="sans-serif" font-size="14" lengthAdjust="spacing" textLength="90" x="232" y="362.418">PropertyValue</text><line style="stroke:#181818;stroke-width:0.5;" x1="204" x2="324" y1="372.6211" y2="372.6211"/><text fill="#000000" font-family="sans-serif" font-size="14" lengthAdjust="spacing" textLength="79" x="209" y="391.7285">value: String</text></g><!--link SerializationChunk to UsedLanguage--><g id="link_SerializationChunk_UsedLanguage"><path codeLine="14" d="M215.69,116.9711 C212.37,123.0311 209.33,129.3511 207,135.6211 C202.84,146.8111 199.91,159.2711 197.86,171.1611 " fill="none" id="SerializationChunk-UsedLanguage" style="stroke:#181818;stroke-width:1.0;"/><polygon fill="#181818" points="222.32,105.7211,215.8277,108.8596,216.2277,116.0596,222.72,112.9211,222.32,105.7211" style="stroke:#181818;stroke-width:1.0;"/><polygon fill="#181818" points="195.88,184.2611,201.1798,175.9598,196.6271,179.3172,193.2696,174.7645,195.88,184.2611" style="stroke:#181818;stroke-width:1.0;"/><line style="stroke:#181818;stroke-width:1.0;" x1="196.6271" x2="197.82" y1="179.3172" y2="171.4011"/><text fill="#000000" font-family="sans-serif" font-size="13" lengthAdjust="spacing" textLength="59" x="208" y="150.6494">languages</text><text fill="#000000" font-family="sans-serif" font-size="13" lengthAdjust="spacing" textLength="20" x="174.7008" y="173.4495">0..*</text></g><!--link SerializationChunk to Node--><g id="link_SerializationChunk_Node"><path codeLine="21" d="M266.51,117.2211 C276.66,134.5411 288.63,154.9711 299.3,173.1711 " fill="none" id="SerializationChunk-Node" style="stroke:#181818;stroke-width:1.0;"/><polygon fill="#181818" points="259.79,105.7711,259.3723,112.9701,265.8569,116.1245,266.2746,108.9255,259.79,105.7711" style="stroke:#181818;stroke-width:1.0;"/><polygon fill="#181818" points="305.92,184.4611,304.8116,174.6748,303.388,180.1496,297.9132,178.726,305.92,184.4611" style="stroke:#181818;stroke-width:1.0;"/><line style="stroke:#181818;stroke-width:1.0;" x1="303.388" x2="299.345" y1="180.1496" y2="173.2461"/><text fill="#000000" font-family="sans-serif" font-size="13" lengthAdjust="spacing" textLength="35" x="290" y="150.6494">nodes</text><text fill="#000000" font-family="sans-serif" font-size="13" lengthAdjust="spacing" textLength="20" x="280.4063" y="173.388">0..*</text></g><!--link Node to MetaPointer--><g id="link_Node_MetaPointer"><path codeLine="28" d="M375.12,251.5711 C392.41,262.8111 411.53,276.6911 427,291.6211 C480.41,343.1811 528.15,388.9411 484,448.6211 C456.91,485.2411 428.56,462.3911 386,478.6211 C374.3,483.0811 362.06,488.2611 350.28,493.5211 " fill="none" id="Node-MetaPointer" style="stroke:#181818;stroke-width:1.0;"/><polygon fill="#181818" points="364.07,244.5811,366.9989,251.1706,374.208,251.0014,371.2791,244.4119,364.07,244.5811" style="stroke:#181818;stroke-width:1.0;"/><polygon fill="#181818" points="338.21,499.0011,348.0586,498.9264,342.7635,496.9358,344.7541,491.6408,338.21,499.0011" style="stroke:#181818;stroke-width:1.0;"/><line style="stroke:#181818;stroke-width:1.0;" x1="342.7635" x2="350.05" y1="496.9358" y2="493.6261"/><text fill="#000000" font-family="sans-serif" font-size="13" lengthAdjust="spacing" textLength="46" x="502" y="375.6494">concept</text><text fill="#000000" font-family="sans-serif" font-size="13" lengthAdjust="spacing" textLength="7" x="345.9648" y="491.2045">1</text></g><!--link Node to Children--><g id="link_Node_Children"><path codeLine="36" d="M353.56,273.5411 C365.46,296.5311 379.14,322.9911 389.09,342.2311 " fill="none" id="Node-Children" style="stroke:#181818;stroke-width:1.0;"/><polygon fill="#181818" points="347.51,261.8411,346.7211,269.0089,353.0342,272.4939,353.823,265.3261,347.51,261.8411" style="stroke:#181818;stroke-width:1.0;"/><polygon fill="#181818" points="395.18,353.9911,394.6024,344.1592,392.8848,349.549,387.495,347.8315,395.18,353.9911" style="stroke:#181818;stroke-width:1.0;"/><line style="stroke:#181818;stroke-width:1.0;" x1="392.8848" x2="389.205" y1="349.549" y2="342.4511"/><text fill="#000000" font-family="sans-serif" font-size="13" lengthAdjust="spacing" textLength="45" x="373" y="306.6494">children</text><text fill="#000000" font-family="sans-serif" font-size="13" lengthAdjust="spacing" textLength="20" x="369.2771" y="342.9089">0..*</text></g><!--link Children to MetaPointer--><g id="link_Children_MetaPointer"><path codeLine="41" d="M374.99,395.0911 C364.04,405.1611 351.8,417.3811 342,429.6211 C332.68,441.2611 323.75,454.5311 315.81,467.4011 " fill="none" id="Children-MetaPointer" style="stroke:#181818;stroke-width:1.0;"/><polygon fill="#181818" points="384.96,386.1511,377.8217,387.1731,376.0195,394.1553,383.1578,393.1334,384.96,386.1511" style="stroke:#181818;stroke-width:1.0;"/><polygon fill="#181818" points="309.1,478.5711,317.1658,472.9192,311.6765,474.2861,310.3097,468.7968,309.1,478.5711" style="stroke:#181818;stroke-width:1.0;"/><line style="stroke:#181818;stroke-width:1.0;" x1="311.6765" x2="315.79" y1="474.2861" y2="467.4261"/><text fill="#000000" font-family="sans-serif" font-size="13" lengthAdjust="spacing" textLength="71" x="343" y="444.6494">containment</text><text fill="#000000" font-family="sans-serif" font-size="13" lengthAdjust="spacing" textLength="7" x="305.2725" y="467.325">1</text></g><!--link Children to ChildTarget--><g id="link_Children_ChildTarget"><path codeLine="43" d="M412.51,398.8411 C420.67,422.6211 432.54,457.2211 441.82,484.2711 " fill="none" id="Children-ChildTarget" style="stroke:#181818;stroke-width:1.0;"/><polygon fill="#181818" points="408.18,386.2211,406.3407,393.1937,412.0695,397.5733,413.9088,390.6007,408.18,386.2211" style="stroke:#181818;stroke-width:1.0;"/><polygon fill="#181818" points="446.14,496.8611,447.0069,487.0505,444.5194,492.131,439.4388,489.6435,446.14,496.8611" style="stroke:#181818;stroke-width:1.0;"/><line style="stroke:#181818;stroke-width:1.0;" x1="444.5194" x2="441.915" y1="492.131" y2="484.5661"/><text fill="#000000" font-family="sans-serif" font-size="13" lengthAdjust="spacing" textLength="45" x="430" y="444.6494">children</text><text fill="#000000" font-family="sans-serif" font-size="13" lengthAdjust="spacing" textLength="22" x="419.8376" y="486.0674">0..1</text></g><!--link Node to References--><g id="link_Node_References"><path codeLine="49" d="M280.66,257.7511 C278.43,259.0911 276.21,260.3911 274,261.6211 C244.79,277.9011 233.32,273.8411 205,291.6211 C180.99,306.6911 156.82,327.9211 139.58,344.3511 " fill="none" id="Node-References" style="stroke:#181818;stroke-width:1.0;"/><polygon fill="#181818" points="291.73,250.7411,284.5209,250.5719,281.592,257.1614,288.8011,257.3306,291.73,250.7411" style="stroke:#181818;stroke-width:1.0;"/><polygon fill="#181818" points="129.8,353.8711,139.0383,350.4573,133.3819,350.3826,133.4566,344.7262,129.8,353.8711" style="stroke:#181818;stroke-width:1.0;"/><line style="stroke:#181818;stroke-width:1.0;" x1="133.3819" x2="139.115" y1="350.3826" y2="344.8011"/><text fill="#000000" font-family="sans-serif" font-size="13" lengthAdjust="spacing" textLength="60" x="206" y="306.6494">references</text><text fill="#000000" font-family="sans-serif" font-size="13" lengthAdjust="spacing" textLength="20" x="111.39" y="342.7492">0..*</text></g><!--link References to MetaPointer--><g id="link_References_MetaPointer"><path codeLine="54" d="M136.65,396.3111 C150.5,411.9311 169.15,432.1011 187,448.6211 C197.27,458.1211 208.59,467.7711 219.76,476.8711 " fill="none" id="References-MetaPointer" style="stroke:#181818;stroke-width:1.0;"/><polygon fill="#181818" points="127.9,386.3211,128.8496,393.4694,135.8133,395.3422,134.8637,388.1939,127.9,386.3211" style="stroke:#181818;stroke-width:1.0;"/><polygon fill="#181818" points="229.94,485.0611,225.432,476.3045,226.0432,481.9282,220.4194,482.5394,229.94,485.0611" style="stroke:#181818;stroke-width:1.0;"/><line style="stroke:#181818;stroke-width:1.0;" x1="226.0432" x2="219.81" y1="481.9282" y2="476.9161"/><text fill="#000000" font-family="sans-serif" font-size="13" lengthAdjust="spacing" textLength="53" x="188" y="444.6494">reference</text><text fill="#000000" font-family="sans-serif" font-size="13" lengthAdjust="spacing" textLength="7" x="214.8456" y="475.0798">1</text></g><!--link References to ReferenceTarget--><g id="link_References_ReferenceTarget"><path codeLine="56" d="M91.86,396.8711 C84.69,406.4711 77.7,417.8911 74,429.6211 C69.51,443.8611 68.52,459.8911 69.15,474.7211 " fill="none" id="References-ReferenceTarget" style="stroke:#181818;stroke-width:1.0;"/><polygon fill="#181818" points="100.18,386.5511,93.3031,388.721,92.6612,395.9035,99.538,393.7336,100.18,386.5511" style="stroke:#181818;stroke-width:1.0;"/><polygon fill="#181818" points="70.11,487.9011,73.4369,478.6311,69.7421,482.9147,65.4585,479.2198,70.11,487.9011" style="stroke:#181818;stroke-width:1.0;"/><line style="stroke:#181818;stroke-width:1.0;" x1="69.7421" x2="69.16" y1="482.9147" y2="474.9361"/><text fill="#000000" font-family="sans-serif" font-size="13" lengthAdjust="spacing" textLength="40" x="75" y="444.6494">targets</text><text fill="#000000" font-family="sans-serif" font-size="13" lengthAdjust="spacing" textLength="20" x="47.207" y="476.8177">0..*</text></g><!--link Node to PropertyValue--><g id="link_Node_PropertyValue"><path codeLine="63" d="M290.67,273.1311 C287.05,279.1611 283.72,285.4011 281,291.6211 C276.11,302.8111 272.57,315.5411 270.03,327.4011 " fill="none" id="Node-PropertyValue" style="stroke:#181818;stroke-width:1.0;"/><polygon fill="#181818" points="297.9,261.8411,291.2946,264.7339,291.4242,271.9438,298.0297,269.051,297.9,261.8411" style="stroke:#181818;stroke-width:1.0;"/><polygon fill="#181818" points="267.56,340.3011,273.1796,332.2128,268.4993,335.3901,265.322,330.7099,267.56,340.3011" style="stroke:#181818;stroke-width:1.0;"/><line style="stroke:#181818;stroke-width:1.0;" x1="268.4993" x2="270" y1="335.3901" y2="327.5361"/><text fill="#000000" font-family="sans-serif" font-size="13" lengthAdjust="spacing" textLength="57" x="282" y="306.6494">properties</text><text fill="#000000" font-family="sans-serif" font-size="13" lengthAdjust="spacing" textLength="20" x="246.2318" y="329.495">0..*</text></g><!--link PropertyValue to MetaPointer--><g id="link_PropertyValue_MetaPointer"><path codeLine="69" d="M251.31,412.9511 C249.34,424.5411 248.63,437.0911 251,448.6211 C252.18,454.3911 253.82,460.2511 255.73,466.0411 " fill="none" id="PropertyValue-MetaPointer" style="stroke:#181818;stroke-width:1.0;"/><polygon fill="#181818" points="254.1,399.9211,248.9355,404.9538,251.5947,411.6566,256.7592,406.624,254.1,399.9211" style="stroke:#181818;stroke-width:1.0;"/><polygon fill="#181818" points="260.29,478.5411,260.9523,468.7145,258.5711,473.8458,253.4399,471.4647,260.29,478.5411" style="stroke:#181818;stroke-width:1.0;"/><line style="stroke:#181818;stroke-width:1.0;" x1="258.5711" x2="255.835" y1="473.8458" y2="466.3261"/><text fill="#000000" font-family="sans-serif" font-size="13" lengthAdjust="spacing" textLength="47" x="252" y="444.6494">property</text><text fill="#000000" font-family="sans-serif" font-size="13" lengthAdjust="spacing" textLength="7" x="249.2935" y="467.2906">1</text></g><rect fill="#DDDDDD" height="51.2422" id="_legend" rx="7.5" ry="7.5" style="stroke:#000000;stroke-width:1.0;" width="302" x="120" y="592.4844"/><rect fill="none" height="18.6211" style="stroke:none;stroke-width:1.0;" width="292" x="125" y="599.4844"/><text fill="#000000" font-family="sans-serif" font-size="14" font-weight="bold" lengthAdjust="spacing" textLength="53" x="129" y="614.5918">Legend</text><text fill="#000000" font-family="sans-serif" font-size="14" font-weight="bold" lengthAdjust="spacing" textLength="4" x="217" y="614.5918">&#160;</text><text fill="#000000" font-family="sans-serif" font-size="14" lengthAdjust="spacing" textLength="84" x="129" y="633.2129">[key] / [value]</text><text fill="#000000" font-family="sans-serif" font-size="14" lengthAdjust="spacing" textLength="192" x="221" y="633.2129">representation as JSON object</text><line style="stroke:none;stroke-width:1.0;" x1="125" x2="417" y1="599.4844" y2="599.4844"/><line style="stroke:none;stroke-width:1.0;" x1="125" x2="417" y1="618.1055" y2="618.1055"/><line style="stroke:none;stroke-width:1.0;" x1="125" x2="417" y1="636.7266" y2="636.7266"/><line style="stroke:none;stroke-width:1.0;" x1="125" x2="125" y1="599.4844" y2="636.7266"/><line style="stroke:none;stroke-width:1.0;" x1="217" x2="217" y1="599.4844" y2="636.7266"/><line style="stroke:none;stroke-width:1.0;" x1="417" x2="417" y1="599.4844" y2="636.7266"/><!--SRC=[bLFFJy8m5BxthtZ16n6Kww9SI4mmY4IK2-5GjiUeTEtI5X8K_tSVQpSsWOCxB7rzt_j-TAiJJY9CqGWknHTtGYjuqYRZZh6rI10mozqUCioMQ2nZ4bDK2GDw7cwSuShctA1oj_MYVtY4KG44MXqAz07c6zmlu0xcEowtkA0TWxb1ImDUbrjudhwEGIy_CNOqToG8WYoMtDgcqS5wgpRmNT3RUiC7c95XAYAOEYDKoduOkp3UxdJwqBhlTjij-B2OZBXAjpp526HOsLAytWwo52c2eJ-FtR_rnZeX7KNlIkEu5RX5Kb7xOorAOYqmdgVNWXTqVAA5ScWYYBMACNSbMwqNI6KLxuhhUggcblSyM0kPa1lI2gjIhEoG4WrMrLMZZWkLKQmpB0drWj0xDocwArg-6OAvWBnY-mrNIFCnseX-kt9Tqfswtdojlco_ehY0_IDOHl06poKRAIhUwllG1T5oXqErqlK_wopWnEWSZTlFZfShWjoNufIn0GXoEmy-qJP1bxC7wZtx1G00]--></g></svg>