<?xml version="1.0" encoding="UTF-8" standalone="no"?><svg xmlns="http://www.w3.org/2000/svg" xmlns:xlink="http://www.w3.org/1999/xlink" contentStyleType="text/css" height="682px" preserveAspectRatio="none" style="width:504px;height:682px;background:#FFFFFF;" version="1.1" viewBox="0 0 504 682" width="504px" zoomAndPan="magnify"><defs/><g><text fill="#000000" font-family="sans-serif" font-size="14" font-weight="bold" lengthAdjust="spacing" textLength="139" x="175.75" y="25.1074">Serialization Format</text><!--class SerializationChunk--><g id="elem_SerializationChunk"><rect codeLine="10" fill="#F1F1F1" height="58.6211" id="SerializationChunk" rx="2.5" ry="2.5" style="stroke:#181818;stroke-width:0.5;" width="149" x="180.5" y="46.6211"/><ellipse cx="195.5" cy="62.6211" fill="#ADD1B2" rx="11" ry="11" style="stroke:#181818;stroke-width:1.0;"/><path d="M198.2656,58.4961 Q198.4219,58.2773 198.6094,58.168 Q198.7969,58.0586 199.0156,58.0586 Q199.3906,58.0586 199.625,58.3242 Q199.8594,58.5742 199.8594,59.1836 L199.8594,60.6367 Q199.8594,61.2461 199.625,61.5117 Q199.3906,61.7773 199.0156,61.7773 Q198.6719,61.7773 198.4688,61.5742 Q198.2656,61.3867 198.1563,60.8711 Q198.1094,60.5117 197.9219,60.3242 Q197.5938,59.9492 196.9844,59.7305 Q196.375,59.5117 195.75,59.5117 Q194.9844,59.5117 194.3438,59.8398 Q193.7188,60.168 193.2188,60.918 Q192.7344,61.668 192.7344,62.6992 L192.7344,63.793 Q192.7344,65.0273 193.625,65.8555 Q194.5156,66.668 196.1094,66.668 Q197.0469,66.668 197.7031,66.418 Q198.0938,66.2617 198.5156,65.8242 Q198.7813,65.5586 198.9219,65.4805 Q199.0781,65.4023 199.2813,65.4023 Q199.6094,65.4023 199.8594,65.668 Q200.125,65.918 200.125,66.2617 Q200.125,66.6055 199.7813,67.0117 Q199.2813,67.5898 198.4844,67.918 Q197.4063,68.3711 196.1094,68.3711 Q194.5938,68.3711 193.3906,67.7461 Q192.4063,67.2461 191.7188,66.1836 Q191.0313,65.1055 191.0313,63.8242 L191.0313,62.668 Q191.0313,61.3398 191.6406,60.1992 Q192.2656,59.043 193.3594,58.4336 Q194.4531,57.8086 195.6875,57.8086 Q196.4219,57.8086 197.0625,57.9805 Q197.7188,58.1367 198.2656,58.4961 Z " fill="#000000"/><text fill="#000000" font-family="sans-serif" font-size="14" lengthAdjust="spacing" textLength="117" x="209.5" y="68.418">SerializationChunk</text><line style="stroke:#181818;stroke-width:0.5;" x1="181.5" x2="328.5" y1="78.6211" y2="78.6211"/><text fill="#000000" font-family="sans-serif" font-size="14" lengthAdjust="spacing" textLength="91" x="186.5" y="97.7285">version: String</text></g><!--class Node--><g id="elem_Node"><rect codeLine="16" fill="#F1F1F1" height="95.8633" id="Node" rx="2.5" ry="2.5" style="stroke:#181818;stroke-width:0.5;" width="81" x="214.5" y="184.6211"/><ellipse cx="236.7" cy="200.6211" fill="#ADD1B2" rx="11" ry="11" style="stroke:#181818;stroke-width:1.0;"/><path d="M239.4656,196.4961 Q239.6219,196.2773 239.8094,196.168 Q239.9969,196.0586 240.2156,196.0586 Q240.5906,196.0586 240.825,196.3242 Q241.0594,196.5742 241.0594,197.1836 L241.0594,198.6367 Q241.0594,199.2461 240.825,199.5117 Q240.5906,199.7773 240.2156,199.7773 Q239.8719,199.7773 239.6688,199.5742 Q239.4656,199.3867 239.3563,198.8711 Q239.3094,198.5117 239.1219,198.3242 Q238.7938,197.9492 238.1844,197.7305 Q237.575,197.5117 236.95,197.5117 Q236.1844,197.5117 235.5438,197.8398 Q234.9188,198.168 234.4188,198.918 Q233.9344,199.668 233.9344,200.6992 L233.9344,201.793 Q233.9344,203.0273 234.825,203.8555 Q235.7156,204.668 237.3094,204.668 Q238.2469,204.668 238.9031,204.418 Q239.2938,204.2617 239.7156,203.8242 Q239.9813,203.5586 240.1219,203.4805 Q240.2781,203.4023 240.4813,203.4023 Q240.8094,203.4023 241.0594,203.668 Q241.325,203.918 241.325,204.2617 Q241.325,204.6055 240.9813,205.0117 Q240.4813,205.5898 239.6844,205.918 Q238.6063,206.3711 237.3094,206.3711 Q235.7938,206.3711 234.5906,205.7461 Q233.6063,205.2461 232.9188,204.1836 Q232.2313,203.1055 232.2313,201.8242 L232.2313,200.668 Q232.2313,199.3398 232.8406,198.1992 Q233.4656,197.043 234.5594,196.4336 Q235.6531,195.8086 236.8875,195.8086 Q237.6219,195.8086 238.2625,195.9805 Q238.9188,196.1367 239.4656,196.4961 Z " fill="#000000"/><text fill="#000000" font-family="sans-serif" font-size="14" lengthAdjust="spacing" textLength="33" x="252.3" y="206.418">Node</text><line style="stroke:#181818;stroke-width:0.5;" x1="215.5" x2="294.5" y1="216.6211" y2="216.6211"/><text fill="#000000" font-family="sans-serif" font-size="14" lengthAdjust="spacing" textLength="69" x="220.5" y="235.7285">concept: Id</text><text fill="#000000" font-family="sans-serif" font-size="14" lengthAdjust="spacing" textLength="30" x="220.5" y="254.3496">id: Id</text><text fill="#000000" font-family="sans-serif" font-size="14" lengthAdjust="spacing" textLength="60" x="220.5" y="272.9707">parent: Id</text></g><!--class ChildrenValues--><g id="elem_ChildrenValues"><rect codeLine="24" fill="#F1F1F1" height="58.6211" id="ChildrenValues" rx="2.5" ry="2.5" style="stroke:#181818;stroke-width:0.5;" width="142" x="7" y="368.6211"/><ellipse cx="28.3" cy="384.6211" fill="#ADD1B2" rx="11" ry="11" style="stroke:#181818;stroke-width:1.0;"/><path d="M31.0656,380.4961 Q31.2219,380.2773 31.4094,380.168 Q31.5969,380.0586 31.8156,380.0586 Q32.1906,380.0586 32.425,380.3242 Q32.6594,380.5742 32.6594,381.1836 L32.6594,382.6367 Q32.6594,383.2461 32.425,383.5117 Q32.1906,383.7773 31.8156,383.7773 Q31.4719,383.7773 31.2688,383.5742 Q31.0656,383.3867 30.9563,382.8711 Q30.9094,382.5117 30.7219,382.3242 Q30.3938,381.9492 29.7844,381.7305 Q29.175,381.5117 28.55,381.5117 Q27.7844,381.5117 27.1438,381.8398 Q26.5188,382.168 26.0188,382.918 Q25.5344,383.668 25.5344,384.6992 L25.5344,385.793 Q25.5344,387.0273 26.425,387.8555 Q27.3156,388.668 28.9094,388.668 Q29.8469,388.668 30.5031,388.418 Q30.8938,388.2617 31.3156,387.8242 Q31.5813,387.5586 31.7219,387.4805 Q31.8781,387.4023 32.0813,387.4023 Q32.4094,387.4023 32.6594,387.668 Q32.925,387.918 32.925,388.2617 Q32.925,388.6055 32.5813,389.0117 Q32.0813,389.5898 31.2844,389.918 Q30.2063,390.3711 28.9094,390.3711 Q27.3938,390.3711 26.1906,389.7461 Q25.2063,389.2461 24.5188,388.1836 Q23.8313,387.1055 23.8313,385.8242 L23.8313,384.668 Q23.8313,383.3398 24.4406,382.1992 Q25.0656,381.043 26.1594,380.4336 Q27.2531,379.8086 28.4875,379.8086 Q29.2219,379.8086 29.8625,379.9805 Q30.5188,380.1367 31.0656,380.4961 Z " fill="#000000"/><text fill="#000000" font-family="sans-serif" font-size="14" lengthAdjust="spacing" textLength="96" x="43.7" y="390.418">ChildrenValues</text><line style="stroke:#181818;stroke-width:0.5;" x1="8" x2="148" y1="400.6211" y2="400.6211"/><text fill="#000000" font-family="sans-serif" font-size="14" lengthAdjust="spacing" textLength="130" x="13" y="419.7285">containment: Id [key]</text></g><!--class ChildTarget--><g id="elem_ChildTarget"><rect codeLine="30" fill="#F1F1F1" height="58.6211" id="ChildTarget" rx="2.5" ry="2.5" style="stroke:#181818;stroke-width:0.5;" width="106" x="25" y="524.6211"/><ellipse cx="40" cy="540.6211" fill="#ADD1B2" rx="11" ry="11" style="stroke:#181818;stroke-width:1.0;"/><path d="M42.7656,536.4961 Q42.9219,536.2773 43.1094,536.168 Q43.2969,536.0586 43.5156,536.0586 Q43.8906,536.0586 44.125,536.3242 Q44.3594,536.5742 44.3594,537.1836 L44.3594,538.6367 Q44.3594,539.2461 44.125,539.5117 Q43.8906,539.7773 43.5156,539.7773 Q43.1719,539.7773 42.9688,539.5742 Q42.7656,539.3867 42.6563,538.8711 Q42.6094,538.5117 42.4219,538.3242 Q42.0938,537.9492 41.4844,537.7305 Q40.875,537.5117 40.25,537.5117 Q39.4844,537.5117 38.8438,537.8398 Q38.2188,538.168 37.7188,538.918 Q37.2344,539.668 37.2344,540.6992 L37.2344,541.793 Q37.2344,543.0273 38.125,543.8555 Q39.0156,544.668 40.6094,544.668 Q41.5469,544.668 42.2031,544.418 Q42.5938,544.2617 43.0156,543.8242 Q43.2813,543.5586 43.4219,543.4805 Q43.5781,543.4023 43.7813,543.4023 Q44.1094,543.4023 44.3594,543.668 Q44.625,543.918 44.625,544.2617 Q44.625,544.6055 44.2813,545.0117 Q43.7813,545.5898 42.9844,545.918 Q41.9063,546.3711 40.6094,546.3711 Q39.0938,546.3711 37.8906,545.7461 Q36.9063,545.2461 36.2188,544.1836 Q35.5313,543.1055 35.5313,541.8242 L35.5313,540.668 Q35.5313,539.3398 36.1406,538.1992 Q36.7656,537.043 37.8594,536.4336 Q38.9531,535.8086 40.1875,535.8086 Q40.9219,535.8086 41.5625,535.9805 Q42.2188,536.1367 42.7656,536.4961 Z " fill="#000000"/><text fill="#000000" font-family="sans-serif" font-size="14" lengthAdjust="spacing" textLength="74" x="54" y="546.418">ChildTarget</text><line style="stroke:#181818;stroke-width:0.5;" x1="26" x2="130" y1="556.6211" y2="556.6211"/><text fill="#000000" font-family="sans-serif" font-size="14" lengthAdjust="spacing" textLength="56" x="31" y="575.7285">target: Id</text></g><!--class ReferenceValues--><g id="elem_ReferenceValues"><rect codeLine="36" fill="#F1F1F1" height="58.6211" id="ReferenceValues" rx="2.5" ry="2.5" style="stroke:#181818;stroke-width:0.5;" width="141" x="184.5" y="368.6211"/><ellipse cx="199.5" cy="384.6211" fill="#ADD1B2" rx="11" ry="11" style="stroke:#181818;stroke-width:1.0;"/><path d="M202.2656,380.4961 Q202.4219,380.2773 202.6094,380.168 Q202.7969,380.0586 203.0156,380.0586 Q203.3906,380.0586 203.625,380.3242 Q203.8594,380.5742 203.8594,381.1836 L203.8594,382.6367 Q203.8594,383.2461 203.625,383.5117 Q203.3906,383.7773 203.0156,383.7773 Q202.6719,383.7773 202.4688,383.5742 Q202.2656,383.3867 202.1563,382.8711 Q202.1094,382.5117 201.9219,382.3242 Q201.5938,381.9492 200.9844,381.7305 Q200.375,381.5117 199.75,381.5117 Q198.9844,381.5117 198.3438,381.8398 Q197.7188,382.168 197.2188,382.918 Q196.7344,383.668 196.7344,384.6992 L196.7344,385.793 Q196.7344,387.0273 197.625,387.8555 Q198.5156,388.668 200.1094,388.668 Q201.0469,388.668 201.7031,388.418 Q202.0938,388.2617 202.5156,387.8242 Q202.7813,387.5586 202.9219,387.4805 Q203.0781,387.4023 203.2813,387.4023 Q203.6094,387.4023 203.8594,387.668 Q204.125,387.918 204.125,388.2617 Q204.125,388.6055 203.7813,389.0117 Q203.2813,389.5898 202.4844,389.918 Q201.4063,390.3711 200.1094,390.3711 Q198.5938,390.3711 197.3906,389.7461 Q196.4063,389.2461 195.7188,388.1836 Q195.0313,387.1055 195.0313,385.8242 L195.0313,384.668 Q195.0313,383.3398 195.6406,382.1992 Q196.2656,381.043 197.3594,380.4336 Q198.4531,379.8086 199.6875,379.8086 Q200.4219,379.8086 201.0625,379.9805 Q201.7188,380.1367 202.2656,380.4961 Z " fill="#000000"/><text fill="#000000" font-family="sans-serif" font-size="14" lengthAdjust="spacing" textLength="109" x="213.5" y="390.418">ReferenceValues</text><line style="stroke:#181818;stroke-width:0.5;" x1="185.5" x2="324.5" y1="400.6211" y2="400.6211"/><text fill="#000000" font-family="sans-serif" font-size="14" lengthAdjust="spacing" textLength="114" x="190.5" y="419.7285">reference: Id [key]</text></g><!--class ReferenceTarget--><g id="elem_ReferenceTarget"><rect codeLine="42" fill="#F1F1F1" height="77.2422" id="ReferenceTarget" rx="2.5" ry="2.5" style="stroke:#181818;stroke-width:0.5;" width="172" x="169" y="515.6211"/><ellipse cx="198.4" cy="531.6211" fill="#ADD1B2" rx="11" ry="11" style="stroke:#181818;stroke-width:1.0;"/><path d="M201.1656,527.4961 Q201.3219,527.2773 201.5094,527.168 Q201.6969,527.0586 201.9156,527.0586 Q202.2906,527.0586 202.525,527.3242 Q202.7594,527.5742 202.7594,528.1836 L202.7594,529.6367 Q202.7594,530.2461 202.525,530.5117 Q202.2906,530.7773 201.9156,530.7773 Q201.5719,530.7773 201.3688,530.5742 Q201.1656,530.3867 201.0563,529.8711 Q201.0094,529.5117 200.8219,529.3242 Q200.4938,528.9492 199.8844,528.7305 Q199.275,528.5117 198.65,528.5117 Q197.8844,528.5117 197.2438,528.8398 Q196.6188,529.168 196.1188,529.918 Q195.6344,530.668 195.6344,531.6992 L195.6344,532.793 Q195.6344,534.0273 196.525,534.8555 Q197.4156,535.668 199.0094,535.668 Q199.9469,535.668 200.6031,535.418 Q200.9938,535.2617 201.4156,534.8242 Q201.6813,534.5586 201.8219,534.4805 Q201.9781,534.4023 202.1813,534.4023 Q202.5094,534.4023 202.7594,534.668 Q203.025,534.918 203.025,535.2617 Q203.025,535.6055 202.6813,536.0117 Q202.1813,536.5898 201.3844,536.918 Q200.3063,537.3711 199.0094,537.3711 Q197.4938,537.3711 196.2906,536.7461 Q195.3063,536.2461 194.6188,535.1836 Q193.9313,534.1055 193.9313,532.8242 L193.9313,531.668 Q193.9313,530.3398 194.5406,529.1992 Q195.1656,528.043 196.2594,527.4336 Q197.3531,526.8086 198.5875,526.8086 Q199.3219,526.8086 199.9625,526.9805 Q200.6188,527.1367 201.1656,527.4961 Z " fill="#000000"/><text fill="#000000" font-family="sans-serif" font-size="14" lengthAdjust="spacing" textLength="108" x="215.6" y="537.418">ReferenceTarget</text><line style="stroke:#181818;stroke-width:0.5;" x1="170" x2="340" y1="547.6211" y2="547.6211"/><text fill="#000000" font-family="sans-serif" font-size="14" lengthAdjust="spacing" textLength="90" x="175" y="566.7285">target: Id [key]</text><text fill="#000000" font-family="sans-serif" font-size="14" lengthAdjust="spacing" textLength="160" x="175" y="585.3496">resolveInfo: String [value]</text></g><!--class PropertyValue--><g id="elem_PropertyValue"><rect codeLine="49" fill="#F1F1F1" height="77.2422" id="PropertyValue" rx="2.5" ry="2.5" style="stroke:#181818;stroke-width:0.5;" width="137" x="360.5" y="359.6211"/><ellipse cx="382.25" cy="375.6211" fill="#ADD1B2" rx="11" ry="11" style="stroke:#181818;stroke-width:1.0;"/><path d="M385.0156,371.4961 Q385.1719,371.2773 385.3594,371.168 Q385.5469,371.0586 385.7656,371.0586 Q386.1406,371.0586 386.375,371.3242 Q386.6094,371.5742 386.6094,372.1836 L386.6094,373.6367 Q386.6094,374.2461 386.375,374.5117 Q386.1406,374.7773 385.7656,374.7773 Q385.4219,374.7773 385.2188,374.5742 Q385.0156,374.3867 384.9063,373.8711 Q384.8594,373.5117 384.6719,373.3242 Q384.3438,372.9492 383.7344,372.7305 Q383.125,372.5117 382.5,372.5117 Q381.7344,372.5117 381.0938,372.8398 Q380.4688,373.168 379.9688,373.918 Q379.4844,374.668 379.4844,375.6992 L379.4844,376.793 Q379.4844,378.0273 380.375,378.8555 Q381.2656,379.668 382.8594,379.668 Q383.7969,379.668 384.4531,379.418 Q384.8438,379.2617 385.2656,378.8242 Q385.5313,378.5586 385.6719,378.4805 Q385.8281,378.4023 386.0313,378.4023 Q386.3594,378.4023 386.6094,378.668 Q386.875,378.918 386.875,379.2617 Q386.875,379.6055 386.5313,380.0117 Q386.0313,380.5898 385.2344,380.918 Q384.1563,381.3711 382.8594,381.3711 Q381.3438,381.3711 380.1406,380.7461 Q379.1563,380.2461 378.4688,379.1836 Q377.7813,378.1055 377.7813,376.8242 L377.7813,375.668 Q377.7813,374.3398 378.3906,373.1992 Q379.0156,372.043 380.1094,371.4336 Q381.2031,370.8086 382.4375,370.8086 Q383.1719,370.8086 383.8125,370.9805 Q384.4688,371.1367 385.0156,371.4961 Z " fill="#000000"/><text fill="#000000" font-family="sans-serif" font-size="14" lengthAdjust="spacing" textLength="90" x="397.75" y="381.418">PropertyValue</text><line style="stroke:#181818;stroke-width:0.5;" x1="361.5" x2="496.5" y1="391.6211" y2="391.6211"/><text fill="#000000" font-family="sans-serif" font-size="14" lengthAdjust="spacing" textLength="106" x="366.5" y="410.7285">property: Id [key]</text><text fill="#000000" font-family="sans-serif" font-size="14" lengthAdjust="spacing" textLength="125" x="366.5" y="429.3496">value: String [value]</text></g><!--link SerializationChunk to Node--><g id="link_SerializationChunk_Node"><path codeLine="14" d="M255,117.8211 C255,117.8211 255,153.9611 255,171.4711 " fill="none" id="SerializationChunk-Node" style="stroke:#181818;stroke-width:1.0;"/><polygon fill="#181818" points="255,105.8211,251,111.8211,255,117.8211,259,111.8211,255,105.8211" style="stroke:#181818;stroke-width:1.0;"/><polygon fill="#181818" points="255,184.5611,259,175.5611,255,179.5611,251,175.5611,255,184.5611" style="stroke:#181818;stroke-width:1.0;"/><line style="stroke:#181818;stroke-width:1.0;" x1="255" x2="255" y1="179.5611" y2="171.5611"/><text fill="#000000" font-family="sans-serif" font-size="13" lengthAdjust="spacing" textLength="35" x="256" y="150.6494">nodes</text><text fill="#000000" font-family="sans-serif" font-size="13" lengthAdjust="spacing" textLength="20" x="233.5313" y="173.3136">0..*</text></g><!--link Node to ChildrenValues--><g id="link_Node_ChildrenValues"><path codeLine="22" d="M205.5749,279.2732 C205.5749,279.2732 144.35,335.8311 118.79,359.4411 " fill="none" id="Node-ChildrenValues" style="stroke:#181818;stroke-width:1.0;"/><polygon fill="#181818" points="214.39,271.1311,207.2684,272.2638,205.5749,279.2732,212.6965,278.1405,214.39,271.1311" style="stroke:#181818;stroke-width:1.0;"/><polygon fill="#181818" points="109.04,368.4511,118.3628,365.2754,112.7102,365.0556,112.93,359.403,109.04,368.4511" style="stroke:#181818;stroke-width:1.0;"/><line style="stroke:#181818;stroke-width:1.0;" x1="112.7102" x2="118.59" y1="365.0556" y2="359.6311"/><text fill="#000000" font-family="sans-serif" font-size="13" lengthAdjust="spacing" textLength="45" x="168" y="325.6494">children</text><text fill="#000000" font-family="sans-serif" font-size="13" lengthAdjust="spacing" textLength="20" x="93.6425" y="357.203">0..*</text></g><!--link ChildrenValues to ChildTarget--><g id="link_ChildrenValues_ChildTarget"><path codeLine="28" d="M78,439.7311 C78,439.7311 78,489.3111 78,511.1711 " fill="none" id="ChildrenValues-ChildTarget" style="stroke:#181818;stroke-width:1.0;"/><polygon fill="#181818" points="78,427.7311,74,433.7311,78,439.7311,82,433.7311,78,427.7311" style="stroke:#181818;stroke-width:1.0;"/><polygon fill="#181818" points="78,524.4111,82,515.4111,78,519.4111,74,515.4111,78,524.4111" style="stroke:#181818;stroke-width:1.0;"/><line style="stroke:#181818;stroke-width:1.0;" x1="78" x2="78" y1="519.4111" y2="511.4111"/><text fill="#000000" font-family="sans-serif" font-size="13" lengthAdjust="spacing" textLength="37" x="79" y="481.6494">[value]</text><text fill="#000000" font-family="sans-serif" font-size="13" lengthAdjust="spacing" textLength="20" x="55.8125" y="513.1542">0..*</text></g><!--link Node to ReferenceValues--><g id="link_Node_ReferenceValues"><path codeLine="34" d="M255,292.9111 C255,292.9111 255,336.7611 255,355.3111 " fill="none" id="Node-ReferenceValues" style="stroke:#181818;stroke-width:1.0;"/><polygon fill="#181818" points="255,280.9111,251,286.9111,255,292.9111,259,286.9111,255,280.9111" style="stroke:#181818;stroke-width:1.0;"/><polygon fill="#181818" points="255,368.4011,259,359.4011,255,363.4011,251,359.4011,255,368.4011" style="stroke:#181818;stroke-width:1.0;"/><line style="stroke:#181818;stroke-width:1.0;" x1="255" x2="255" y1="363.4011" y2="355.4011"/><text fill="#000000" font-family="sans-serif" font-size="13" lengthAdjust="spacing" textLength="60" x="256" y="325.6494">references</text><text fill="#000000" font-family="sans-serif" font-size="13" lengthAdjust="spacing" textLength="20" x="232.8125" y="357.1421">0..*</text></g><!--link ReferenceValues to ReferenceTarget--><g id="link_ReferenceValues_ReferenceTarget"><path codeLine="40" d="M255,439.7311 C255,439.7311 255,482.3111 255,502.1311 " fill="none" id="ReferenceValues-ReferenceTarget" style="stroke:#181818;stroke-width:1.0;"/><polygon fill="#181818" points="255,427.7311,251,433.7311,255,439.7311,259,433.7311,255,427.7311" style="stroke:#181818;stroke-width:1.0;"/><polygon fill="#181818" points="255,515.3611,259,506.3611,255,510.3611,251,506.3611,255,515.3611" style="stroke:#181818;stroke-width:1.0;"/><line style="stroke:#181818;stroke-width:1.0;" x1="255" x2="255" y1="510.3611" y2="502.3611"/><text fill="#000000" font-family="sans-serif" font-size="13" lengthAdjust="spacing" textLength="37" x="256" y="481.6494">[value]</text><text fill="#000000" font-family="sans-serif" font-size="13" lengthAdjust="spacing" textLength="20" x="233.2813" y="504.2708">0..*</text></g><!--link Node to PropertyValue--><g id="link_Node_PropertyValue"><path codeLine="47" d="M304.545,280.1685 C304.545,280.1685 356.21,328.7211 379.41,350.5211 " fill="none" id="Node-PropertyValue" style="stroke:#181818;stroke-width:1.0;"/><polygon fill="#181818" points="295.8,271.9511,297.4334,278.9748,304.545,280.1685,302.9116,273.1448,295.8,271.9511" style="stroke:#181818;stroke-width:1.0;"/><polygon fill="#181818" points="389.06,359.5911,385.2404,350.5131,385.4163,356.1672,379.7621,356.3431,389.06,359.5911" style="stroke:#181818;stroke-width:1.0;"/><line style="stroke:#181818;stroke-width:1.0;" x1="385.4163" x2="379.585" y1="356.1672" y2="350.6861"/><text fill="#000000" font-family="sans-serif" font-size="13" lengthAdjust="spacing" textLength="57" x="353" y="325.6494">properties</text><text fill="#000000" font-family="sans-serif" font-size="13" lengthAdjust="spacing" textLength="20" x="360.1644" y="348.2465">0..*</text></g><rect fill="#DDDDDD" height="51.2422" id="_legend" rx="7.5" ry="7.5" style="stroke:#000000;stroke-width:1.0;" width="302" x="94.25" y="610.8633"/><rect fill="none" height="18.6211" style="stroke:none;stroke-width:1.0;" width="292" x="99.25" y="617.8633"/><text fill="#000000" font-family="sans-serif" font-size="14" font-weight="bold" lengthAdjust="spacing" textLength="53" x="103.25" y="632.9707">Legend</text><text fill="#000000" font-family="sans-serif" font-size="14" font-weight="bold" lengthAdjust="spacing" textLength="4" x="191.25" y="632.9707"> </text><text fill="#000000" font-family="sans-serif" font-size="14" lengthAdjust="spacing" textLength="84" x="103.25" y="651.5918">[key] / [value]</text><text fill="#000000" font-family="sans-serif" font-size="14" lengthAdjust="spacing" textLength="192" x="195.25" y="651.5918">representation as JSON object</text><line style="stroke:none;stroke-width:1.0;" x1="99.25" x2="391.25" y1="617.8633" y2="617.8633"/><line style="stroke:none;stroke-width:1.0;" x1="99.25" x2="391.25" y1="636.4844" y2="636.4844"/><line style="stroke:none;stroke-width:1.0;" x1="99.25" x2="391.25" y1="655.1055" y2="655.1055"/><line style="stroke:none;stroke-width:1.0;" x1="99.25" x2="99.25" y1="617.8633" y2="655.1055"/><line style="stroke:none;stroke-width:1.0;" x1="191.25" x2="191.25" y1="617.8633" y2="655.1055"/><line style="stroke:none;stroke-width:1.0;" x1="391.25" x2="391.25" y1="617.8633" y2="655.1055"/><!--SRC=[TP4nRy8m48Lt_ueJtL2XdQEM1Gc9gg9LgReW1fCSuEBOaNr4Ial_UvtO2II1357k_EvzxnmI916MQ0INueUJq0fcsgIS6DkB107JZ0f8CTsWiOn9tA5A6BZdwOuCLpRZ1XNTNnQJqpEyLa9mNwTAVOBL0OirFC0gv_A8QzSnc1cqRi1pkOMNvTi2zEOROt9pfK40ibXoQzj1f_kZEi1lPP-xTAuLmPACK3lsnzWLxN0qci3WSJmU3c2X4un0kRUjtSjMy8krYZ6Z2EP-MP4qdtx7gdIKQkRITxeNCd6Aht9B6q4SwXhIFZ_ZY0kL1cD_LwLzHzq3VNApGpSJBhK5yMU1G45u8_K7Rj5XOgnZcxhHt4v74dmRNJjtLtoLTIDyvxotGA1ukjKonxdQwlhNDsxNrdmtEaD3HPKgWioNuhnaIn38GLLqsBdtw57_0G00]--></g></svg>