<?xml version="1.0" encoding="UTF-8" standalone="no"?><svg xmlns="http://www.w3.org/2000/svg" xmlns:xlink="http://www.w3.org/1999/xlink" contentStyleType="text/css" height="645px" preserveAspectRatio="none" style="width:941px;height:645px;background:#FFFFFF;" version="1.1" viewBox="0 0 941 645" width="941px" zoomAndPan="magnify"><defs/><g><text fill="#000000" font-family="sans-serif" font-size="14" font-weight="bold" lengthAdjust="spacing" textLength="91" x="418" y="25.1074">Typed Nodes</text><!--cluster meta--><g id="cluster_meta"><path d="M8.5,95.0511 L43.5,95.0511 A3.75,3.75 0 0 1 46,97.5511 L53,119.6722 L301.5,119.6722 A2.5,2.5 0 0 1 304,122.1722 L304,636.0511 A2.5,2.5 0 0 1 301.5,638.5511 L8.5,638.5511 A2.5,2.5 0 0 1 6,636.0511 L6,97.5511 A2.5,2.5 0 0 1 8.5,95.0511 " fill="none" style="stroke:#000000;stroke-width:1.5;"/><line style="stroke:#000000;stroke-width:1.5;" x1="6" x2="53" y1="119.6722" y2="119.6722"/><text fill="#000000" font-family="sans-serif" font-size="14" font-weight="bold" lengthAdjust="spacing" textLength="34" x="10" y="112.1585">meta</text></g><!--class Concept--><g id="elem_Concept"><rect codeLine="6" fill="#F1F1F1" height="32" id="Concept" rx="2.5" ry="2.5" style="stroke:#181818;stroke-width:0.5;" width="85" x="194.5" y="140.0511"/><ellipse cx="209.5" cy="156.0511" fill="#ADD1B2" rx="11" ry="11" style="stroke:#181818;stroke-width:1.0;"/><path d="M212.2656,151.9261 Q212.4219,151.7073 212.6094,151.598 Q212.7969,151.4886 213.0156,151.4886 Q213.3906,151.4886 213.625,151.7542 Q213.8594,152.0042 213.8594,152.6136 L213.8594,154.0667 Q213.8594,154.6761 213.625,154.9417 Q213.3906,155.2073 213.0156,155.2073 Q212.6719,155.2073 212.4688,155.0042 Q212.2656,154.8167 212.1563,154.3011 Q212.1094,153.9417 211.9219,153.7542 Q211.5938,153.3792 210.9844,153.1605 Q210.375,152.9417 209.75,152.9417 Q208.9844,152.9417 208.3438,153.2698 Q207.7188,153.598 207.2188,154.348 Q206.7344,155.098 206.7344,156.1292 L206.7344,157.223 Q206.7344,158.4573 207.625,159.2855 Q208.5156,160.098 210.1094,160.098 Q211.0469,160.098 211.7031,159.848 Q212.0938,159.6917 212.5156,159.2542 Q212.7813,158.9886 212.9219,158.9105 Q213.0781,158.8323 213.2813,158.8323 Q213.6094,158.8323 213.8594,159.098 Q214.125,159.348 214.125,159.6917 Q214.125,160.0355 213.7813,160.4417 Q213.2813,161.0198 212.4844,161.348 Q211.4063,161.8011 210.1094,161.8011 Q208.5938,161.8011 207.3906,161.1761 Q206.4063,160.6761 205.7188,159.6136 Q205.0313,158.5355 205.0313,157.2542 L205.0313,156.098 Q205.0313,154.7698 205.6406,153.6292 Q206.2656,152.473 207.3594,151.8636 Q208.4531,151.2386 209.6875,151.2386 Q210.4219,151.2386 211.0625,151.4105 Q211.7188,151.5667 212.2656,151.9261 Z " fill="#000000"/><text fill="#000000" font-family="sans-serif" font-size="14" lengthAdjust="spacing" textLength="53" x="223.5" y="161.848">Concept</text></g><!--class Link--><g id="elem_Link"><rect codeLine="9" fill="#F1F1F1" height="32" id="Link" rx="2.5" ry="2.5" style="stroke:#181818;stroke-width:0.5;" width="59" x="207.5" y="253.0511"/><ellipse cx="222.5" cy="269.0511" fill="#A9DCDF" rx="11" ry="11" style="stroke:#181818;stroke-width:1.0;"/><path d="M224.6875,270.8167 L220.5469,270.8167 L220.125,271.848 L220.5469,271.848 Q221.1563,271.848 221.4219,272.0823 Q221.6875,272.3167 221.6875,272.7073 Q221.6875,273.0823 221.4219,273.3167 Q221.1563,273.5511 220.5469,273.5511 L218.25,273.5511 Q217.6406,273.5511 217.3906,273.3167 Q217.125,273.0823 217.125,272.6917 Q217.125,272.3167 217.4063,272.0823 Q217.6719,271.8323 218.2969,271.848 L220.9688,265.1917 L219.8594,265.1917 Q219.25,265.1917 218.9844,264.9573 Q218.7188,264.723 218.7188,264.3323 Q218.7188,263.9573 218.9844,263.723 Q219.25,263.4886 219.8594,263.4886 L223.5313,263.4886 L226.9219,271.848 Q227.5156,271.848 227.7031,271.9886 Q228.0938,272.2542 228.0938,272.7073 Q228.0938,273.0823 227.8281,273.3167 Q227.5781,273.5511 226.9688,273.5511 L224.6719,273.5511 Q224.0625,273.5511 223.7969,273.3167 Q223.5313,273.0823 223.5313,272.6917 Q223.5313,272.3167 223.7969,272.0823 Q224.0625,271.848 224.6719,271.848 L225.0938,271.848 L224.6875,270.8167 Z M223.9688,269.1136 L222.6094,265.7386 L221.2344,269.1136 L223.9688,269.1136 Z " fill="#000000"/><text fill="#000000" font-family="sans-serif" font-size="14" font-style="italic" lengthAdjust="spacing" textLength="27" x="236.5" y="274.848">Link</text></g><!--class Containment--><g id="elem_Containment"><rect codeLine="13" fill="#F1F1F1" height="32" id="Containment" rx="2.5" ry="2.5" style="stroke:#181818;stroke-width:0.5;" width="112" x="110" y="383.0511"/><ellipse cx="125" cy="399.0511" fill="#ADD1B2" rx="11" ry="11" style="stroke:#181818;stroke-width:1.0;"/><path d="M127.7656,394.9261 Q127.9219,394.7073 128.1094,394.598 Q128.2969,394.4886 128.5156,394.4886 Q128.8906,394.4886 129.125,394.7542 Q129.3594,395.0042 129.3594,395.6136 L129.3594,397.0667 Q129.3594,397.6761 129.125,397.9417 Q128.8906,398.2073 128.5156,398.2073 Q128.1719,398.2073 127.9688,398.0042 Q127.7656,397.8167 127.6563,397.3011 Q127.6094,396.9417 127.4219,396.7542 Q127.0938,396.3792 126.4844,396.1605 Q125.875,395.9417 125.25,395.9417 Q124.4844,395.9417 123.8438,396.2698 Q123.2188,396.598 122.7188,397.348 Q122.2344,398.098 122.2344,399.1292 L122.2344,400.223 Q122.2344,401.4573 123.125,402.2855 Q124.0156,403.098 125.6094,403.098 Q126.5469,403.098 127.2031,402.848 Q127.5938,402.6917 128.0156,402.2542 Q128.2813,401.9886 128.4219,401.9105 Q128.5781,401.8323 128.7813,401.8323 Q129.1094,401.8323 129.3594,402.098 Q129.625,402.348 129.625,402.6917 Q129.625,403.0355 129.2813,403.4417 Q128.7813,404.0198 127.9844,404.348 Q126.9063,404.8011 125.6094,404.8011 Q124.0938,404.8011 122.8906,404.1761 Q121.9063,403.6761 121.2188,402.6136 Q120.5313,401.5355 120.5313,400.2542 L120.5313,399.098 Q120.5313,397.7698 121.1406,396.6292 Q121.7656,395.473 122.8594,394.8636 Q123.9531,394.2386 125.1875,394.2386 Q125.9219,394.2386 126.5625,394.4105 Q127.2188,394.5667 127.7656,394.9261 Z " fill="#000000"/><text fill="#000000" font-family="sans-serif" font-size="14" lengthAdjust="spacing" textLength="80" x="139" y="404.848">Containment</text></g><!--class Reference--><g id="elem_Reference"><rect codeLine="18" fill="#F1F1F1" height="32" id="Reference" rx="2.5" ry="2.5" style="stroke:#181818;stroke-width:0.5;" width="98" x="182" y="476.0511"/><ellipse cx="197" cy="492.0511" fill="#ADD1B2" rx="11" ry="11" style="stroke:#181818;stroke-width:1.0;"/><path d="M199.7656,487.9261 Q199.9219,487.7073 200.1094,487.598 Q200.2969,487.4886 200.5156,487.4886 Q200.8906,487.4886 201.125,487.7542 Q201.3594,488.0042 201.3594,488.6136 L201.3594,490.0667 Q201.3594,490.6761 201.125,490.9417 Q200.8906,491.2073 200.5156,491.2073 Q200.1719,491.2073 199.9688,491.0042 Q199.7656,490.8167 199.6563,490.3011 Q199.6094,489.9417 199.4219,489.7542 Q199.0938,489.3792 198.4844,489.1605 Q197.875,488.9417 197.25,488.9417 Q196.4844,488.9417 195.8438,489.2698 Q195.2188,489.598 194.7188,490.348 Q194.2344,491.098 194.2344,492.1292 L194.2344,493.223 Q194.2344,494.4573 195.125,495.2855 Q196.0156,496.098 197.6094,496.098 Q198.5469,496.098 199.2031,495.848 Q199.5938,495.6917 200.0156,495.2542 Q200.2813,494.9886 200.4219,494.9105 Q200.5781,494.8323 200.7813,494.8323 Q201.1094,494.8323 201.3594,495.098 Q201.625,495.348 201.625,495.6917 Q201.625,496.0355 201.2813,496.4417 Q200.7813,497.0198 199.9844,497.348 Q198.9063,497.8011 197.6094,497.8011 Q196.0938,497.8011 194.8906,497.1761 Q193.9063,496.6761 193.2188,495.6136 Q192.5313,494.5355 192.5313,493.2542 L192.5313,492.098 Q192.5313,490.7698 193.1406,489.6292 Q193.7656,488.473 194.8594,487.8636 Q195.9531,487.2386 197.1875,487.2386 Q197.9219,487.2386 198.5625,487.4105 Q199.2188,487.5667 199.7656,487.9261 Z " fill="#000000"/><text fill="#000000" font-family="sans-serif" font-size="14" lengthAdjust="spacing" textLength="66" x="211" y="497.848">Reference</text></g><!--class DataType--><g id="elem_DataType"><rect codeLine="20" fill="#F1F1F1" height="32" id="DataType" rx="2.5" ry="2.5" style="stroke:#181818;stroke-width:0.5;" width="94" x="38" y="582.5511"/><ellipse cx="53" cy="598.5511" fill="#A9DCDF" rx="11" ry="11" style="stroke:#181818;stroke-width:1.0;"/><path d="M55.1875,600.3167 L51.0469,600.3167 L50.625,601.348 L51.0469,601.348 Q51.6563,601.348 51.9219,601.5823 Q52.1875,601.8167 52.1875,602.2073 Q52.1875,602.5823 51.9219,602.8167 Q51.6563,603.0511 51.0469,603.0511 L48.75,603.0511 Q48.1406,603.0511 47.8906,602.8167 Q47.625,602.5823 47.625,602.1917 Q47.625,601.8167 47.9063,601.5823 Q48.1719,601.3323 48.7969,601.348 L51.4688,594.6917 L50.3594,594.6917 Q49.75,594.6917 49.4844,594.4573 Q49.2188,594.223 49.2188,593.8323 Q49.2188,593.4573 49.4844,593.223 Q49.75,592.9886 50.3594,592.9886 L54.0313,592.9886 L57.4219,601.348 Q58.0156,601.348 58.2031,601.4886 Q58.5938,601.7542 58.5938,602.2073 Q58.5938,602.5823 58.3281,602.8167 Q58.0781,603.0511 57.4688,603.0511 L55.1719,603.0511 Q54.5625,603.0511 54.2969,602.8167 Q54.0313,602.5823 54.0313,602.1917 Q54.0313,601.8167 54.2969,601.5823 Q54.5625,601.348 55.1719,601.348 L55.5938,601.348 L55.1875,600.3167 Z M54.4688,598.6136 L53.1094,595.2386 L51.7344,598.6136 L54.4688,598.6136 Z " fill="#000000"/><text fill="#000000" font-family="sans-serif" font-size="14" font-style="italic" lengthAdjust="spacing" textLength="62" x="67" y="604.348">DataType</text></g><!--class Property--><g id="elem_Property"><rect codeLine="24" fill="#F1F1F1" height="32" id="Property" rx="2.5" ry="2.5" style="stroke:#181818;stroke-width:0.5;" width="86" x="194" y="582.5511"/><ellipse cx="209" cy="598.5511" fill="#ADD1B2" rx="11" ry="11" style="stroke:#181818;stroke-width:1.0;"/><path d="M211.7656,594.4261 Q211.9219,594.2073 212.1094,594.098 Q212.2969,593.9886 212.5156,593.9886 Q212.8906,593.9886 213.125,594.2542 Q213.3594,594.5042 213.3594,595.1136 L213.3594,596.5667 Q213.3594,597.1761 213.125,597.4417 Q212.8906,597.7073 212.5156,597.7073 Q212.1719,597.7073 211.9688,597.5042 Q211.7656,597.3167 211.6563,596.8011 Q211.6094,596.4417 211.4219,596.2542 Q211.0938,595.8792 210.4844,595.6605 Q209.875,595.4417 209.25,595.4417 Q208.4844,595.4417 207.8438,595.7698 Q207.2188,596.098 206.7188,596.848 Q206.2344,597.598 206.2344,598.6292 L206.2344,599.723 Q206.2344,600.9573 207.125,601.7855 Q208.0156,602.598 209.6094,602.598 Q210.5469,602.598 211.2031,602.348 Q211.5938,602.1917 212.0156,601.7542 Q212.2813,601.4886 212.4219,601.4105 Q212.5781,601.3323 212.7813,601.3323 Q213.1094,601.3323 213.3594,601.598 Q213.625,601.848 213.625,602.1917 Q213.625,602.5355 213.2813,602.9417 Q212.7813,603.5198 211.9844,603.848 Q210.9063,604.3011 209.6094,604.3011 Q208.0938,604.3011 206.8906,603.6761 Q205.9063,603.1761 205.2188,602.1136 Q204.5313,601.0355 204.5313,599.7542 L204.5313,598.598 Q204.5313,597.2698 205.1406,596.1292 Q205.7656,594.973 206.8594,594.3636 Q207.9531,593.7386 209.1875,593.7386 Q209.9219,593.7386 210.5625,593.9105 Q211.2188,594.0667 211.7656,594.4261 Z " fill="#000000"/><text fill="#000000" font-family="sans-serif" font-size="14" lengthAdjust="spacing" textLength="54" x="223" y="604.348">Property</text></g><!--class TypedNode--><g id="elem_TypedNode"><rect codeLine="32" fill="#90EE90" height="32" id="TypedNode" rx="2.5" ry="2.5" style="stroke:#181818;stroke-width:0.5;" width="168" x="474" y="140.0511"/><ellipse cx="489" cy="156.0511" fill="#ADD1B2" rx="11" ry="11" style="stroke:#181818;stroke-width:1.0;"/><path d="M491.7656,151.9261 Q491.9219,151.7073 492.1094,151.598 Q492.2969,151.4886 492.5156,151.4886 Q492.8906,151.4886 493.125,151.7542 Q493.3594,152.0042 493.3594,152.6136 L493.3594,154.0667 Q493.3594,154.6761 493.125,154.9417 Q492.8906,155.2073 492.5156,155.2073 Q492.1719,155.2073 491.9688,155.0042 Q491.7656,154.8167 491.6563,154.3011 Q491.6094,153.9417 491.4219,153.7542 Q491.0938,153.3792 490.4844,153.1605 Q489.875,152.9417 489.25,152.9417 Q488.4844,152.9417 487.8438,153.2698 Q487.2188,153.598 486.7188,154.348 Q486.2344,155.098 486.2344,156.1292 L486.2344,157.223 Q486.2344,158.4573 487.125,159.2855 Q488.0156,160.098 489.6094,160.098 Q490.5469,160.098 491.2031,159.848 Q491.5938,159.6917 492.0156,159.2542 Q492.2813,158.9886 492.4219,158.9105 Q492.5781,158.8323 492.7813,158.8323 Q493.1094,158.8323 493.3594,159.098 Q493.625,159.348 493.625,159.6917 Q493.625,160.0355 493.2813,160.4417 Q492.7813,161.0198 491.9844,161.348 Q490.9063,161.8011 489.6094,161.8011 Q488.0938,161.8011 486.8906,161.1761 Q485.9063,160.6761 485.2188,159.6136 Q484.5313,158.5355 484.5313,157.2542 L484.5313,156.098 Q484.5313,154.7698 485.1406,153.6292 Q485.7656,152.473 486.8594,151.8636 Q487.9531,151.2386 489.1875,151.2386 Q489.9219,151.2386 490.5625,151.4105 Q491.2188,151.5667 491.7656,151.9261 Z " fill="#000000"/><text fill="#000000" font-family="sans-serif" font-size="14" lengthAdjust="spacing" textLength="73" x="503" y="161.848">TypedNode</text><rect fill="#FFFFFF" height="17.9609" style="stroke:#181818;stroke-width:1.0;stroke-dasharray:2.0,2.0;" width="61" x="584" y="137.0511"/><text fill="#000000" font-family="sans-serif" font-size="12" font-style="italic" lengthAdjust="spacing" textLength="59" x="585" y="151.0003">T: Concept</text></g><!--class TypedChild--><g id="elem_TypedChild"><rect codeLine="43" fill="#ADD8E6" height="32" id="TypedChild" rx="2.5" ry="2.5" style="stroke:#181818;stroke-width:0.5;" width="167" x="421.5" y="383.0511"/><ellipse cx="436.5" cy="399.0511" fill="#ADD1B2" rx="11" ry="11" style="stroke:#181818;stroke-width:1.0;"/><path d="M439.2656,394.9261 Q439.4219,394.7073 439.6094,394.598 Q439.7969,394.4886 440.0156,394.4886 Q440.3906,394.4886 440.625,394.7542 Q440.8594,395.0042 440.8594,395.6136 L440.8594,397.0667 Q440.8594,397.6761 440.625,397.9417 Q440.3906,398.2073 440.0156,398.2073 Q439.6719,398.2073 439.4688,398.0042 Q439.2656,397.8167 439.1563,397.3011 Q439.1094,396.9417 438.9219,396.7542 Q438.5938,396.3792 437.9844,396.1605 Q437.375,395.9417 436.75,395.9417 Q435.9844,395.9417 435.3438,396.2698 Q434.7188,396.598 434.2188,397.348 Q433.7344,398.098 433.7344,399.1292 L433.7344,400.223 Q433.7344,401.4573 434.625,402.2855 Q435.5156,403.098 437.1094,403.098 Q438.0469,403.098 438.7031,402.848 Q439.0938,402.6917 439.5156,402.2542 Q439.7813,401.9886 439.9219,401.9105 Q440.0781,401.8323 440.2813,401.8323 Q440.6094,401.8323 440.8594,402.098 Q441.125,402.348 441.125,402.6917 Q441.125,403.0355 440.7813,403.4417 Q440.2813,404.0198 439.4844,404.348 Q438.4063,404.8011 437.1094,404.8011 Q435.5938,404.8011 434.3906,404.1761 Q433.4063,403.6761 432.7188,402.6136 Q432.0313,401.5355 432.0313,400.2542 L432.0313,399.098 Q432.0313,397.7698 432.6406,396.6292 Q433.2656,395.473 434.3594,394.8636 Q435.4531,394.2386 436.6875,394.2386 Q437.4219,394.2386 438.0625,394.4105 Q438.7188,394.5667 439.2656,394.9261 Z " fill="#000000"/><text fill="#000000" font-family="sans-serif" font-size="14" lengthAdjust="spacing" textLength="72" x="450.5" y="404.848">TypedChild</text><rect fill="#FFFFFF" height="17.9609" style="stroke:#181818;stroke-width:1.0;stroke-dasharray:2.0,2.0;" width="61" x="530.5" y="380.0511"/><text fill="#000000" font-family="sans-serif" font-size="12" font-style="italic" lengthAdjust="spacing" textLength="59" x="531.5" y="394.0003">T: Concept</text></g><!--class TypedReference--><g id="elem_TypedReference"><rect codeLine="56" fill="#87CEFA" height="32" id="TypedReference" rx="2.5" ry="2.5" style="stroke:#181818;stroke-width:0.5;" width="201" x="473.5" y="476.0511"/><ellipse cx="488.5" cy="492.0511" fill="#ADD1B2" rx="11" ry="11" style="stroke:#181818;stroke-width:1.0;"/><path d="M491.2656,487.9261 Q491.4219,487.7073 491.6094,487.598 Q491.7969,487.4886 492.0156,487.4886 Q492.3906,487.4886 492.625,487.7542 Q492.8594,488.0042 492.8594,488.6136 L492.8594,490.0667 Q492.8594,490.6761 492.625,490.9417 Q492.3906,491.2073 492.0156,491.2073 Q491.6719,491.2073 491.4688,491.0042 Q491.2656,490.8167 491.1563,490.3011 Q491.1094,489.9417 490.9219,489.7542 Q490.5938,489.3792 489.9844,489.1605 Q489.375,488.9417 488.75,488.9417 Q487.9844,488.9417 487.3438,489.2698 Q486.7188,489.598 486.2188,490.348 Q485.7344,491.098 485.7344,492.1292 L485.7344,493.223 Q485.7344,494.4573 486.625,495.2855 Q487.5156,496.098 489.1094,496.098 Q490.0469,496.098 490.7031,495.848 Q491.0938,495.6917 491.5156,495.2542 Q491.7813,494.9886 491.9219,494.9105 Q492.0781,494.8323 492.2813,494.8323 Q492.6094,494.8323 492.8594,495.098 Q493.125,495.348 493.125,495.6917 Q493.125,496.0355 492.7813,496.4417 Q492.2813,497.0198 491.4844,497.348 Q490.4063,497.8011 489.1094,497.8011 Q487.5938,497.8011 486.3906,497.1761 Q485.4063,496.6761 484.7188,495.6136 Q484.0313,494.5355 484.0313,493.2542 L484.0313,492.098 Q484.0313,490.7698 484.6406,489.6292 Q485.2656,488.473 486.3594,487.8636 Q487.4531,487.2386 488.6875,487.2386 Q489.4219,487.2386 490.0625,487.4105 Q490.7188,487.5667 491.2656,487.9261 Z " fill="#000000"/><text fill="#000000" font-family="sans-serif" font-size="14" lengthAdjust="spacing" textLength="106" x="502.5" y="497.848">TypedReference</text><rect fill="#FFFFFF" height="17.9609" style="stroke:#181818;stroke-width:1.0;stroke-dasharray:2.0,2.0;" width="61" x="616.5" y="473.0511"/><text fill="#000000" font-family="sans-serif" font-size="12" font-style="italic" lengthAdjust="spacing" textLength="59" x="617.5" y="487.0003">T: Concept</text></g><!--class TypedProperty--><g id="elem_TypedProperty"><rect codeLine="66" fill="#FFB6C1" height="58.6211" id="TypedProperty" rx="2.5" ry="2.5" style="stroke:#181818;stroke-width:0.5;" width="196" x="571" y="569.0511"/><ellipse cx="586" cy="585.0511" fill="#ADD1B2" rx="11" ry="11" style="stroke:#181818;stroke-width:1.0;"/><path d="M588.7656,580.9261 Q588.9219,580.7073 589.1094,580.598 Q589.2969,580.4886 589.5156,580.4886 Q589.8906,580.4886 590.125,580.7542 Q590.3594,581.0042 590.3594,581.6136 L590.3594,583.0667 Q590.3594,583.6761 590.125,583.9417 Q589.8906,584.2073 589.5156,584.2073 Q589.1719,584.2073 588.9688,584.0042 Q588.7656,583.8167 588.6563,583.3011 Q588.6094,582.9417 588.4219,582.7542 Q588.0938,582.3792 587.4844,582.1605 Q586.875,581.9417 586.25,581.9417 Q585.4844,581.9417 584.8438,582.2698 Q584.2188,582.598 583.7188,583.348 Q583.2344,584.098 583.2344,585.1292 L583.2344,586.223 Q583.2344,587.4573 584.125,588.2855 Q585.0156,589.098 586.6094,589.098 Q587.5469,589.098 588.2031,588.848 Q588.5938,588.6917 589.0156,588.2542 Q589.2813,587.9886 589.4219,587.9105 Q589.5781,587.8323 589.7813,587.8323 Q590.1094,587.8323 590.3594,588.098 Q590.625,588.348 590.625,588.6917 Q590.625,589.0355 590.2813,589.4417 Q589.7813,590.0198 588.9844,590.348 Q587.9063,590.8011 586.6094,590.8011 Q585.0938,590.8011 583.8906,590.1761 Q582.9063,589.6761 582.2188,588.6136 Q581.5313,587.5355 581.5313,586.2542 L581.5313,585.098 Q581.5313,583.7698 582.1406,582.6292 Q582.7656,581.473 583.8594,580.8636 Q584.9531,580.2386 586.1875,580.2386 Q586.9219,580.2386 587.5625,580.4105 Q588.2188,580.5667 588.7656,580.9261 Z " fill="#000000"/><text fill="#000000" font-family="sans-serif" font-size="14" lengthAdjust="spacing" textLength="94" x="600" y="590.848">TypedProperty</text><rect fill="#FFFFFF" height="17.9609" style="stroke:#181818;stroke-width:1.0;stroke-dasharray:2.0,2.0;" width="68" x="702" y="566.0511"/><text fill="#000000" font-family="sans-serif" font-size="12" font-style="italic" lengthAdjust="spacing" textLength="66" x="703" y="580.0003">T: DataType</text><line style="stroke:#181818;stroke-width:0.5;" x1="572" x2="766" y1="601.0511" y2="601.0511"/><text fill="#000000" font-family="sans-serif" font-size="14" lengthAdjust="spacing" textLength="51" x="577" y="620.1585">value: T</text></g><!--reverse link Concept to Link--><g id="link_Concept_Link"><path codeLine="8" d="M237,177.7411 C237,199.5111 237,233.2611 237,252.7511 " fill="none" id="Concept-backto-Link" style="stroke:#181818;stroke-width:1.0;"/><polygon fill="#181818" points="237,172.4811,233,181.4811,237,177.4811,241,181.4811,237,172.4811" style="stroke:#181818;stroke-width:1.0;"/><text fill="#000000" font-family="sans-serif" font-size="13" lengthAdjust="spacing" textLength="25" x="238" y="217.0794">type</text></g><!--reverse link Link to Containment--><g id="link_Link_Containment"><path codeLine="11" d="M218.84,302.7911 C204.55,328.5511 185.3,363.2611 174.41,382.8811 " fill="none" id="Link-backto-Containment" style="stroke:#181818;stroke-width:1.0;"/><polygon fill="none" points="212.75,299.3311,228.58,285.2411,225,306.1211,212.75,299.3311" style="stroke:#181818;stroke-width:1.0;"/></g><!--link Containment to Reference--><!--reverse link Link to Reference--><g id="link_Link_Reference"><path codeLine="16" d="M238.8,305.6211 C239.97,334.9911 240.96,377.7511 239,415.0511 C237.89,436.2511 235.04,460.6411 233.06,475.9511 " fill="none" id="Link-backto-Reference" style="stroke:#181818;stroke-width:1.0;"/><polygon fill="none" points="231.79,305.6011,237.87,285.3011,245.78,304.9611,231.79,305.6011" style="stroke:#181818;stroke-width:1.0;"/></g><!--reverse link DataType to Property--><g id="link_DataType_Property"><path codeLine="22" d="M137.4,598.5511 C155.83,598.5511 176.32,598.5511 193.9,598.5511 " fill="none" id="DataType-backto-Property" style="stroke:#181818;stroke-width:1.0;"/><polygon fill="#181818" points="132.26,598.5511,141.26,602.5511,137.26,598.5511,141.26,594.5511,132.26,598.5511" style="stroke:#181818;stroke-width:1.0;"/><text fill="#000000" font-family="sans-serif" font-size="13" lengthAdjust="spacing" textLength="25" x="150.5" y="591.5794">type</text></g><!--link Reference to Property--><!--link meta to TypedNode--><!--link TypedNode to TypedNode--><g id="link_TypedNode_TypedNode"><path codeLine="36" d="M642.23,146.1111 C662.22,146.9111 677,150.2211 677,156.0511 C677,161.3811 664.65,164.6011 647.26,165.7211 " fill="none" id="TypedNode-to-TypedNode" style="stroke:#181818;stroke-width:1.0;"/><polygon fill="#181818" points="642.23,165.9911,651.4241,169.5222,647.2234,165.7336,651.012,161.5328,642.23,165.9911" style="stroke:#181818;stroke-width:1.0;"/><text fill="#000000" font-family="sans-serif" font-size="13" lengthAdjust="spacing" textLength="36" x="683" y="161.5794">parent</text><text fill="#000000" font-family="sans-serif" font-size="13" lengthAdjust="spacing" textLength="22" x="650.1162" y="163.1507">0..1</text></g><!--reverse link Concept to TypedNode--><g id="link_Concept_TypedNode"><path codeLine="37" d="M284.65,156.0511 C334.46,156.0511 413.61,156.0511 473.95,156.0511 " fill="none" id="Concept-backto-TypedNode" style="stroke:#181818;stroke-width:1.0;"/><polygon fill="#181818" points="279.63,156.0511,288.63,160.0511,284.63,156.0511,288.63,152.0511,279.63,156.0511" style="stroke:#181818;stroke-width:1.0;"/><text fill="#000000" font-family="sans-serif" font-size="13" lengthAdjust="spacing" textLength="46" x="353.75" y="149.0794">concept</text><text fill="#000000" font-family="sans-serif" font-size="13" lengthAdjust="spacing" textLength="7" x="287.5586" y="151.6435">1</text></g><!--link TypedNode to TypedChild--><g id="link_TypedNode_TypedChild"><path codeLine="41" d="M552.0964,183.8497 C552.0964,183.8497 521.33,323.8111 511.13,370.1711 " fill="none" id="TypedNode-TypedChild" style="stroke:#181818;stroke-width:1.0;"/><polygon fill="#181818" points="554.68,172.1311,549.482,177.1292,552.0964,183.8497,557.2944,178.8516,554.68,172.1311" style="stroke:#181818;stroke-width:1.0;"/><polygon fill="#181818" points="508.31,382.9811,514.1454,375.0471,509.3813,378.0972,506.3312,373.3331,508.31,382.9811" style="stroke:#181818;stroke-width:1.0;"/><line style="stroke:#181818;stroke-width:1.0;" x1="509.3813" x2="511.105" y1="378.0972" y2="370.2861"/><text fill="#000000" font-family="sans-serif" font-size="13" lengthAdjust="spacing" textLength="45" x="537" y="274.5794">children</text><text fill="#000000" font-family="sans-serif" font-size="13" lengthAdjust="spacing" textLength="20" x="486.0939" y="371.9188">0..*</text></g><!--link TypedChild to TypedNode--><g id="link_TypedChild_TypedNode"><path codeLine="47" d="M479.05,382.9911 C438.18,357.2411 366.35,302.5311 396,251.0511 C418.29,212.3511 463.28,188.1211 500.21,173.9711 " fill="none" id="TypedChild-to-TypedNode" style="stroke:#181818;stroke-width:1.0;"/><polygon fill="#181818" points="505.13,172.1311,495.3001,171.5196,500.4437,173.8742,498.0891,179.0177,505.13,172.1311" style="stroke:#181818;stroke-width:1.0;"/><text fill="#000000" font-family="sans-serif" font-size="13" lengthAdjust="spacing" textLength="33" x="442" y="266.0794">target</text><text fill="#000000" font-family="sans-serif" font-size="13" font-style="italic" lengthAdjust="spacing" textLength="123" x="397" y="283.3704">T = containment.type</text><text fill="#000000" font-family="sans-serif" font-size="13" lengthAdjust="spacing" textLength="7" x="480.1621" y="194.0407">1</text></g><!--reverse link Containment to TypedChild--><g id="link_Containment_TypedChild"><path codeLine="48" d="M227.53,399.0511 C281.83,399.0511 361.46,399.0511 421.5,399.0511 " fill="none" id="Containment-backto-TypedChild" style="stroke:#181818;stroke-width:1.0;"/><polygon fill="#181818" points="222.36,399.0511,231.36,403.0511,227.36,399.0511,231.36,395.0511,222.36,399.0511" style="stroke:#181818;stroke-width:1.0;"/><text fill="#000000" font-family="sans-serif" font-size="13" lengthAdjust="spacing" textLength="71" x="286.25" y="392.0794">containment</text><text fill="#000000" font-family="sans-serif" font-size="13" lengthAdjust="spacing" textLength="7" x="230.0296" y="395.009">1</text></g><!--link TypedNode to TypedReference--><g id="link_TypedNode_TypedReference"><path codeLine="52" d="M569.5425,183.2667 C569.5425,183.2667 622.95,331.1411 606,415.0511 C602.57,432.0311 595.24,449.9311 588.46,464.0911 " fill="none" id="TypedNode-TypedReference" style="stroke:#181818;stroke-width:1.0;"/><polygon fill="#181818" points="564.9,172.2011,563.5327,179.2814,569.5425,183.2667,570.9098,176.1864,564.9,172.2011" style="stroke:#181818;stroke-width:1.0;"/><polygon fill="#181818" points="582.51,475.9111,590.128,469.6688,584.757,471.4445,582.9814,466.0735,582.51,475.9111" style="stroke:#181818;stroke-width:1.0;"/><line style="stroke:#181818;stroke-width:1.0;" x1="584.757" x2="588.355" y1="471.4445" y2="464.2961"/><text fill="#000000" font-family="sans-serif" font-size="13" lengthAdjust="spacing" textLength="60" x="611" y="340.5794">references</text><text fill="#000000" font-family="sans-serif" font-size="13" lengthAdjust="spacing" textLength="20" x="562.0164" y="464.8256">0..*</text></g><!--link TypedReference to TypedNode--><g id="link_TypedReference_TypedNode"><path codeLine="60" d="M594.43,475.8611 C630.31,447.1611 699.1,382.0411 680,317.0511 C662.46,257.3911 610.33,203.3411 580.19,175.9411 " fill="none" id="TypedReference-to-TypedNode" style="stroke:#181818;stroke-width:1.0;"/><polygon fill="#181818" points="576.27,172.4111,580.2838,181.405,579.9865,175.7559,585.6355,175.4586,576.27,172.4111" style="stroke:#181818;stroke-width:1.0;"/><text fill="#000000" font-family="sans-serif" font-size="13" lengthAdjust="spacing" textLength="33" x="720.5" y="332.0794">target</text><text fill="#000000" font-family="sans-serif" font-size="13" font-style="italic" lengthAdjust="spacing" textLength="106" x="684" y="349.3704">T = reference.type</text><text fill="#000000" font-family="sans-serif" font-size="13" lengthAdjust="spacing" textLength="7" x="573.7933" y="194.0974">1</text></g><!--link TypedChild to TypedReference--><!--reverse link Reference to TypedReference--><g id="link_Reference_TypedReference"><path codeLine="61" d="M285.24,492.0511 C335.6,492.0511 411.84,492.0511 473.34,492.0511 " fill="none" id="Reference-backto-TypedReference" style="stroke:#181818;stroke-width:1.0;"/><polygon fill="#181818" points="280.14,492.0511,289.14,496.0511,285.14,492.0511,289.14,488.0511,280.14,492.0511" style="stroke:#181818;stroke-width:1.0;"/><text fill="#000000" font-family="sans-serif" font-size="13" lengthAdjust="spacing" textLength="53" x="350.25" y="485.0794">reference</text><text fill="#000000" font-family="sans-serif" font-size="13" lengthAdjust="spacing" textLength="7" x="287.8715" y="487.8523">1</text></g><!--link TypedNode to TypedProperty--><g id="link_TypedNode_TypedProperty"><path codeLine="65" d="M653.9308,171.7034 C653.9308,171.7034 875,220.8511 875,268.0511 C875,268.0511 875,268.0511 875,493.0511 C875,541.7511 828.65,567.7611 779.92,581.6511 " fill="none" id="TypedNode-TypedProperty" style="stroke:#181818;stroke-width:1.0;"/><polygon fill="#181818" points="642.12,169.5811,647.318,174.5792,653.9308,171.7034,648.7328,166.7053,642.12,169.5811" style="stroke:#181818;stroke-width:1.0;"/><polygon fill="#181818" points="767.17,585.0111,776.8907,586.5949,772.0062,583.7416,774.8595,578.8571,767.17,585.0111" style="stroke:#181818;stroke-width:1.0;"/><line style="stroke:#181818;stroke-width:1.0;" x1="772.0062" x2="779.745" y1="583.7416" y2="581.7011"/><text fill="#000000" font-family="sans-serif" font-size="13" lengthAdjust="spacing" textLength="57" x="876" y="404.5794">properties</text><text fill="#000000" font-family="sans-serif" font-size="13" lengthAdjust="spacing" textLength="20" x="775.1137" y="580.4455">0..*</text></g><!--reverse link Property to TypedProperty--><g id="link_Property_TypedProperty"><path codeLine="71" d="M285.25,598.5511 C354.01,598.5511 481.72,598.5511 570.84,598.5511 " fill="none" id="Property-backto-TypedProperty" style="stroke:#181818;stroke-width:1.0;"/><polygon fill="#181818" points="280,598.5511,289,602.5511,285,598.5511,289,594.5511,280,598.5511" style="stroke:#181818;stroke-width:1.0;"/><text fill="#000000" font-family="sans-serif" font-size="13" lengthAdjust="spacing" textLength="47" x="402" y="591.5794">property</text><text fill="#000000" font-family="sans-serif" font-size="13" lengthAdjust="spacing" textLength="7" x="287.9922" y="594.1435">1</text></g><!--SRC=[ZLJ1JiCm3BtdAwnn621rmBKgFJ0aBXD2K7413bbhjcXTLwK1L07_ZfCcQLecnYvhd-qNlsUdIgWI8MjhBE1sLs33s5eK2BYjLGjRt2vH4bRpVCDNI83YyCc0Vdd9cmRckoh7MZ43sHT8eWWMejh4e8ZOXFYoKPBdofRfQ5UZdo3veWggLbnKMwmidJ_1m_OGzmxH4pLROFKIfN2FhoYH6XZpZW8TwmWSjNVD5TUUT47tHhhWJkvgbAgrqW965p6Gfn-qw5E-6JDE-c3QZK1FWB5fzzVHUZp9OcTm2aUbMAtLZKIiQ1nJVUGArMBtKU8xbiSdCPJsEJPaTA0d0kfaSZwRNKnwyXXgBhN3ReGJYfBS825tavxErw8iA3laF8qiwwbbDKbKvNC3EIQsHyzL-OQ7v9ZQZ4kAUrK6CxA6cfH9UwuIaMPmgHMupPdfwILd8cNXEeMYNV_XKaxzM9i_jVkq6EIumlOQRCMmP62KH_UOzR1f_-ENfnXv5cpe8T-yXjwrlZhqR9zkSisklJZWMd-rwhuWCCF5jHVkIZepxlHjxxvBxvnSYI7xsnP7zgYpjIaE60ZwrLBBVW00]--></g></svg>