<?xml version="1.0" encoding="UTF-8" standalone="no"?><svg xmlns="http://www.w3.org/2000/svg" xmlns:xlink="http://www.w3.org/1999/xlink" contentStyleType="text/css" height="374px" preserveAspectRatio="none" style="width:1197px;height:374px;background:#FFFFFF;" version="1.1" viewBox="0 0 1197 374" width="1197px" zoomAndPan="magnify"><defs/><g><rect fill="#F1F1F1" height="45.2422" rx="5" ry="5" style="stroke:#F1F1F1;stroke-width:1.5;" width="220" x="10" y="165"/><text fill="#000000" font-family="sans-serif" font-size="14" font-weight="bold" lengthAdjust="spacing" textLength="188" x="15" y="182.1074">serializationFormatVersion</text><text fill="#000000" font-family="sans-serif" font-size="14" lengthAdjust="spacing" textLength="8" x="213" y="182.1074">1</text><line style="stroke:#000000;stroke-width:1.0;" x1="208" x2="208" y1="165" y2="187.6211"/><line style="stroke:#000000;stroke-width:1.0;" x1="10" x2="230" y1="187.6211" y2="187.6211"/><text fill="#000000" font-family="sans-serif" font-size="14" font-weight="bold" lengthAdjust="spacing" textLength="44" x="15" y="204.7285">nodes</text><text fill="#000000" font-family="sans-serif" font-size="14" lengthAdjust="spacing" textLength="12" x="213" y="204.7285">   </text><line style="stroke:#000000;stroke-width:1.0;" x1="208" x2="208" y1="187.6211" y2="210.2422"/><rect fill="none" height="45.2422" rx="5" ry="5" style="stroke:#000000;stroke-width:1.5;" width="220" x="10" y="165"/><rect fill="#F1F1F1" height="67.8633" rx="5" ry="5" style="stroke:#F1F1F1;stroke-width:1.5;" width="22" x="267" y="164.5"/><text fill="#000000" font-family="sans-serif" font-size="14" lengthAdjust="spacing" textLength="12" x="272" y="181.6074">   </text><line style="stroke:#000000;stroke-width:1.0;" x1="267" x2="289" y1="187.1211" y2="187.1211"/><text fill="#000000" font-family="sans-serif" font-size="14" lengthAdjust="spacing" textLength="12" x="272" y="204.2285">   </text><line style="stroke:#000000;stroke-width:1.0;" x1="267" x2="289" y1="209.7422" y2="209.7422"/><text fill="#000000" font-family="sans-serif" font-size="14" lengthAdjust="spacing" textLength="12" x="272" y="226.8496">   </text><rect fill="none" height="67.8633" rx="5" ry="5" style="stroke:#000000;stroke-width:1.5;" width="22" x="267" y="164.5"/><rect fill="#F1F1F1" height="113.1055" rx="5" ry="5" style="stroke:#F1F1F1;stroke-width:1.5;" width="149" x="354.5" y="10"/><text fill="#000000" font-family="sans-serif" font-size="14" font-weight="bold" lengthAdjust="spacing" textLength="30" x="359.5" y="27.1074">type</text><text fill="#000000" font-family="sans-serif" font-size="14" lengthAdjust="spacing" textLength="44" x="443.5" y="27.1074">Library</text><line style="stroke:#000000;stroke-width:1.0;" x1="438.5" x2="438.5" y1="10" y2="32.6211"/><line style="stroke:#000000;stroke-width:1.0;" x1="354.5" x2="503.5" y1="32.6211" y2="32.6211"/><text fill="#000000" font-family="sans-serif" font-size="14" font-weight="bold" lengthAdjust="spacing" textLength="13" x="359.5" y="49.7285">id</text><text fill="#000000" font-family="sans-serif" font-size="14" lengthAdjust="spacing" textLength="55" x="443.5" y="49.7285">idBobLib</text><line style="stroke:#000000;stroke-width:1.0;" x1="438.5" x2="438.5" y1="32.6211" y2="55.2422"/><line style="stroke:#000000;stroke-width:1.0;" x1="354.5" x2="503.5" y1="55.2422" y2="55.2422"/><text fill="#000000" font-family="sans-serif" font-size="14" font-weight="bold" lengthAdjust="spacing" textLength="74" x="359.5" y="72.3496">properties</text><text fill="#000000" font-family="sans-serif" font-size="14" lengthAdjust="spacing" textLength="12" x="443.5" y="72.3496">   </text><line style="stroke:#000000;stroke-width:1.0;" x1="438.5" x2="438.5" y1="55.2422" y2="77.8633"/><line style="stroke:#000000;stroke-width:1.0;" x1="354.5" x2="503.5" y1="77.8633" y2="77.8633"/><text fill="#000000" font-family="sans-serif" font-size="14" font-weight="bold" lengthAdjust="spacing" textLength="58" x="359.5" y="94.9707">children</text><text fill="#000000" font-family="sans-serif" font-size="14" lengthAdjust="spacing" textLength="12" x="443.5" y="94.9707">   </text><line style="stroke:#000000;stroke-width:1.0;" x1="438.5" x2="438.5" y1="77.8633" y2="100.4844"/><line style="stroke:#000000;stroke-width:1.0;" x1="354.5" x2="503.5" y1="100.4844" y2="100.4844"/><text fill="#000000" font-family="sans-serif" font-size="14" font-weight="bold" lengthAdjust="spacing" textLength="46" x="359.5" y="117.5918">parent</text><text fill="#000000" font-family="sans-serif" font-size="14" lengthAdjust="spacing" textLength="8" x="443.5" y="117.5918">␀</text><line style="stroke:#000000;stroke-width:1.0;" x1="438.5" x2="438.5" y1="100.4844" y2="123.1055"/><rect fill="none" height="113.1055" rx="5" ry="5" style="stroke:#000000;stroke-width:1.5;" width="149" x="354.5" y="10"/><rect fill="#F1F1F1" height="22.6211" rx="5" ry="5" style="stroke:#F1F1F1;stroke-width:1.5;" width="185" x="619.5" y="45"/><text fill="#000000" font-family="sans-serif" font-size="14" font-weight="bold" lengthAdjust="spacing" textLength="87" x="624.5" y="62.1074">LibraryName</text><text fill="#000000" font-family="sans-serif" font-size="14" lengthAdjust="spacing" textLength="78" x="721.5" y="62.1074">Bob's library</text><line style="stroke:#000000;stroke-width:1.0;" x1="716.5" x2="716.5" y1="45" y2="67.6211"/><rect fill="none" height="22.6211" rx="5" ry="5" style="stroke:#000000;stroke-width:1.5;" width="185" x="619.5" y="45"/><rect fill="#F1F1F1" height="22.6211" rx="5" ry="5" style="stroke:#F1F1F1;stroke-width:1.5;" width="124" x="650" y="86"/><text fill="#000000" font-family="sans-serif" font-size="14" font-weight="bold" lengthAdjust="spacing" textLength="92" x="655" y="103.1074">LibraryBooks</text><text fill="#000000" font-family="sans-serif" font-size="14" lengthAdjust="spacing" textLength="12" x="757" y="103.1074">   </text><line style="stroke:#000000;stroke-width:1.0;" x1="752" x2="752" y1="86" y2="108.6211"/><rect fill="none" height="22.6211" rx="5" ry="5" style="stroke:#000000;stroke-width:1.5;" width="124" x="650" y="86"/><rect fill="#F1F1F1" height="22.6211" rx="5" ry="5" style="stroke:#F1F1F1;stroke-width:1.5;" width="73" x="894" y="86"/><text fill="#000000" font-family="sans-serif" font-size="14" lengthAdjust="spacing" textLength="63" x="899" y="103.1074">idExplorer</text><rect fill="none" height="22.6211" rx="5" ry="5" style="stroke:#000000;stroke-width:1.5;" width="73" x="894" y="86"/><rect fill="#F1F1F1" height="113.1055" rx="5" ry="5" style="stroke:#F1F1F1;stroke-width:1.5;" width="161" x="348.5" y="141"/><text fill="#000000" font-family="sans-serif" font-size="14" font-weight="bold" lengthAdjust="spacing" textLength="30" x="353.5" y="158.1074">type</text><text fill="#000000" font-family="sans-serif" font-size="14" lengthAdjust="spacing" textLength="32" x="441.5" y="158.1074">Book</text><line style="stroke:#000000;stroke-width:1.0;" x1="436.5" x2="436.5" y1="141" y2="163.6211"/><line style="stroke:#000000;stroke-width:1.0;" x1="348.5" x2="509.5" y1="163.6211" y2="163.6211"/><text fill="#000000" font-family="sans-serif" font-size="14" font-weight="bold" lengthAdjust="spacing" textLength="13" x="353.5" y="180.7285">id</text><text fill="#000000" font-family="sans-serif" font-size="14" lengthAdjust="spacing" textLength="63" x="441.5" y="180.7285">idExplorer</text><line style="stroke:#000000;stroke-width:1.0;" x1="436.5" x2="436.5" y1="163.6211" y2="186.2422"/><line style="stroke:#000000;stroke-width:1.0;" x1="348.5" x2="509.5" y1="186.2422" y2="186.2422"/><text fill="#000000" font-family="sans-serif" font-size="14" font-weight="bold" lengthAdjust="spacing" textLength="74" x="353.5" y="203.3496">properties</text><text fill="#000000" font-family="sans-serif" font-size="14" lengthAdjust="spacing" textLength="12" x="441.5" y="203.3496">   </text><line style="stroke:#000000;stroke-width:1.0;" x1="436.5" x2="436.5" y1="186.2422" y2="208.8633"/><line style="stroke:#000000;stroke-width:1.0;" x1="348.5" x2="509.5" y1="208.8633" y2="208.8633"/><text fill="#000000" font-family="sans-serif" font-size="14" font-weight="bold" lengthAdjust="spacing" textLength="78" x="353.5" y="225.9707">references</text><text fill="#000000" font-family="sans-serif" font-size="14" lengthAdjust="spacing" textLength="12" x="441.5" y="225.9707">   </text><line style="stroke:#000000;stroke-width:1.0;" x1="436.5" x2="436.5" y1="208.8633" y2="231.4844"/><line style="stroke:#000000;stroke-width:1.0;" x1="348.5" x2="509.5" y1="231.4844" y2="231.4844"/><text fill="#000000" font-family="sans-serif" font-size="14" font-weight="bold" lengthAdjust="spacing" textLength="46" x="353.5" y="248.5918">parent</text><text fill="#000000" font-family="sans-serif" font-size="14" lengthAdjust="spacing" textLength="55" x="441.5" y="248.5918">idBobLib</text><line style="stroke:#000000;stroke-width:1.0;" x1="436.5" x2="436.5" y1="231.4844" y2="254.1055"/><rect fill="none" height="113.1055" rx="5" ry="5" style="stroke:#000000;stroke-width:1.5;" width="161" x="348.5" y="141"/><rect fill="#F1F1F1" height="45.2422" rx="5" ry="5" style="stroke:#F1F1F1;stroke-width:1.5;" width="187" x="618.5" y="159"/><text fill="#000000" font-family="sans-serif" font-size="14" font-weight="bold" lengthAdjust="spacing" textLength="66" x="623.5" y="176.1074">BookTitle</text><text fill="#000000" font-family="sans-serif" font-size="14" lengthAdjust="spacing" textLength="88" x="712.5" y="176.1074">Explorer Book</text><line style="stroke:#000000;stroke-width:1.0;" x1="707.5" x2="707.5" y1="159" y2="181.6211"/><line style="stroke:#000000;stroke-width:1.0;" x1="618.5" x2="805.5" y1="181.6211" y2="181.6211"/><text fill="#000000" font-family="sans-serif" font-size="14" font-weight="bold" lengthAdjust="spacing" textLength="79" x="623.5" y="198.7285">BookPages</text><text fill="#000000" font-family="sans-serif" font-size="14" lengthAdjust="spacing" textLength="24" x="712.5" y="198.7285">123</text><line style="stroke:#000000;stroke-width:1.0;" x1="707.5" x2="707.5" y1="181.6211" y2="204.2422"/><rect fill="none" height="45.2422" rx="5" ry="5" style="stroke:#000000;stroke-width:1.5;" width="187" x="618.5" y="159"/><rect fill="#F1F1F1" height="22.6211" rx="5" ry="5" style="stroke:#F1F1F1;stroke-width:1.5;" width="122" x="651" y="222"/><text fill="#000000" font-family="sans-serif" font-size="14" font-weight="bold" lengthAdjust="spacing" textLength="90" x="656" y="239.1074">WriterAuthor</text><text fill="#000000" font-family="sans-serif" font-size="14" lengthAdjust="spacing" textLength="12" x="756" y="239.1074">   </text><line style="stroke:#000000;stroke-width:1.0;" x1="751" x2="751" y1="222" y2="244.6211"/><rect fill="none" height="22.6211" rx="5" ry="5" style="stroke:#000000;stroke-width:1.5;" width="122" x="651" y="222"/><rect fill="#F1F1F1" height="22.6211" rx="5" ry="5" style="stroke:#F1F1F1;stroke-width:1.5;" width="22" x="918.5" y="222"/><text fill="#000000" font-family="sans-serif" font-size="14" lengthAdjust="spacing" textLength="12" x="923.5" y="239.1074">   </text><rect fill="none" height="22.6211" rx="5" ry="5" style="stroke:#000000;stroke-width:1.5;" width="22" x="918.5" y="222"/><rect fill="#F1F1F1" height="45.2422" rx="5" ry="5" style="stroke:#F1F1F1;stroke-width:1.5;" width="181" x="1004" y="211"/><text fill="#000000" font-family="sans-serif" font-size="14" font-weight="bold" lengthAdjust="spacing" textLength="81" x="1009" y="228.1074">resolveInfo</text><text fill="#000000" font-family="sans-serif" font-size="14" lengthAdjust="spacing" textLength="80" x="1100" y="228.1074">Jack London</text><line style="stroke:#000000;stroke-width:1.0;" x1="1095" x2="1095" y1="211" y2="233.6211"/><line style="stroke:#000000;stroke-width:1.0;" x1="1004" x2="1185" y1="233.6211" y2="233.6211"/><text fill="#000000" font-family="sans-serif" font-size="14" font-weight="bold" lengthAdjust="spacing" textLength="70" x="1009" y="250.7285">reference</text><text fill="#000000" font-family="sans-serif" font-size="14" lengthAdjust="spacing" textLength="39" x="1100" y="250.7285">idJack</text><line style="stroke:#000000;stroke-width:1.0;" x1="1095" x2="1095" y1="233.6211" y2="256.2422"/><rect fill="none" height="45.2422" rx="5" ry="5" style="stroke:#000000;stroke-width:1.5;" width="181" x="1004" y="211"/><rect fill="#F1F1F1" height="90.4844" rx="5" ry="5" style="stroke:#F1F1F1;stroke-width:1.5;" width="202" x="328" y="272.5"/><text fill="#000000" font-family="sans-serif" font-size="14" font-weight="bold" lengthAdjust="spacing" textLength="30" x="333" y="289.6074">type</text><text fill="#000000" font-family="sans-serif" font-size="14" lengthAdjust="spacing" textLength="108" x="417" y="289.6074">GuideBookWriter</text><line style="stroke:#000000;stroke-width:1.0;" x1="412" x2="412" y1="272.5" y2="295.1211"/><line style="stroke:#000000;stroke-width:1.0;" x1="328" x2="530" y1="295.1211" y2="295.1211"/><text fill="#000000" font-family="sans-serif" font-size="14" font-weight="bold" lengthAdjust="spacing" textLength="13" x="333" y="312.2285">id</text><text fill="#000000" font-family="sans-serif" font-size="14" lengthAdjust="spacing" textLength="39" x="417" y="312.2285">idJack</text><line style="stroke:#000000;stroke-width:1.0;" x1="412" x2="412" y1="295.1211" y2="317.7422"/><line style="stroke:#000000;stroke-width:1.0;" x1="328" x2="530" y1="317.7422" y2="317.7422"/><text fill="#000000" font-family="sans-serif" font-size="14" font-weight="bold" lengthAdjust="spacing" textLength="74" x="333" y="334.8496">properties</text><text fill="#000000" font-family="sans-serif" font-size="14" lengthAdjust="spacing" textLength="12" x="417" y="334.8496">   </text><line style="stroke:#000000;stroke-width:1.0;" x1="412" x2="412" y1="317.7422" y2="340.3633"/><line style="stroke:#000000;stroke-width:1.0;" x1="328" x2="530" y1="340.3633" y2="340.3633"/><text fill="#000000" font-family="sans-serif" font-size="14" font-weight="bold" lengthAdjust="spacing" textLength="46" x="333" y="357.4707">parent</text><text fill="#000000" font-family="sans-serif" font-size="14" lengthAdjust="spacing" textLength="8" x="417" y="357.4707">␀</text><line style="stroke:#000000;stroke-width:1.0;" x1="412" x2="412" y1="340.3633" y2="362.9844"/><rect fill="none" height="90.4844" rx="5" ry="5" style="stroke:#000000;stroke-width:1.5;" width="202" x="328" y="272.5"/><rect fill="#F1F1F1" height="45.2422" rx="5" ry="5" style="stroke:#F1F1F1;stroke-width:1.5;" width="290" x="567" y="306"/><text fill="#000000" font-family="sans-serif" font-size="14" font-weight="bold" lengthAdjust="spacing" textLength="82" x="572" y="323.1074">WriterName</text><text fill="#000000" font-family="sans-serif" font-size="14" lengthAdjust="spacing" textLength="80" x="772" y="323.1074">Jack London</text><line style="stroke:#000000;stroke-width:1.0;" x1="767" x2="767" y1="306" y2="328.6211"/><line style="stroke:#000000;stroke-width:1.0;" x1="567" x2="857" y1="328.6211" y2="328.6211"/><text fill="#000000" font-family="sans-serif" font-size="14" font-weight="bold" lengthAdjust="spacing" textLength="190" x="572" y="345.7285">GuideBookWriterCountries</text><text fill="#000000" font-family="sans-serif" font-size="14" lengthAdjust="spacing" textLength="42" x="772" y="345.7285">Alaska</text><line style="stroke:#000000;stroke-width:1.0;" x1="767" x2="767" y1="328.6211" y2="351.2422"/><rect fill="none" height="45.2422" rx="5" ry="5" style="stroke:#000000;stroke-width:1.5;" width="290" x="567" y="306"/><path d="M492.5,65.5 L505.5,65.5 C540.2786,65.5 578.3285,64.2038 612.158,62.5952 " fill="none" style="stroke:#000000;stroke-width:1.0;stroke-dasharray:3.0,3.0;"/><path d="M612.3059,65.6352 L614.438,62.4843 L612.01,59.5553 L619.7579,62.2253 L612.3059,65.6352 " fill="#000000" style="stroke:#000000;stroke-width:1.0;"/><ellipse cx="492.5" cy="65.5" fill="#000000" rx="3" ry="3" style="stroke:#000000;stroke-width:1.0;"/><path d="M762.5,97.5 L775.5,97.5 C813.0856,97.5 855.8145,97.5 886.7952,97.5 " fill="none" style="stroke:#000000;stroke-width:1.0;stroke-dasharray:3.0,3.0;"/><path d="M886.7952,100.5452 L889.0791,97.5 L886.7952,94.4548 L894.4083,97.5 L886.7952,100.5452 " fill="#000000" style="stroke:#000000;stroke-width:1.0;"/><ellipse cx="762.5" cy="97.5" fill="#000000" rx="3" ry="3" style="stroke:#000000;stroke-width:1.0;"/><path d="M492.5,88.5 L505.5,88.5 C551.1425,88.5 602.4192,90.7325 642.3963,92.9736 " fill="none" style="stroke:#000000;stroke-width:1.0;stroke-dasharray:3.0,3.0;"/><path d="M642.2172,96.1095 L644.7482,93.1079 L642.5754,89.8377 L650.236,93.4213 L642.2172,96.1095 " fill="#000000" style="stroke:#000000;stroke-width:1.0;"/><ellipse cx="492.5" cy="88.5" fill="#000000" rx="3" ry="3" style="stroke:#000000;stroke-width:1.0;"/><path d="M279,175.5 L292,175.5 C317.267,175.5 309.1647,148.3419 328,131.5 C334.4743,125.7109 341.5135,120.0795 348.7605,114.7086 " fill="none" style="stroke:#000000;stroke-width:1.0;stroke-dasharray:3.0,3.0;"/><path d="M350.5398,117.16 L350.5991,113.3741 L346.9813,112.2571 L354.8891,110.2605 L350.5398,117.16 " fill="#000000" style="stroke:#000000;stroke-width:1.0;"/><ellipse cx="279" cy="175.5" fill="#000000" rx="3" ry="3" style="stroke:#000000;stroke-width:1.0;"/><path d="M498.5,196.5 L511.5,196.5 C543.9772,196.5 579.3381,194.5088 611.1701,191.9773 " fill="none" style="stroke:#000000;stroke-width:1.0;stroke-dasharray:3.0,3.0;"/><path d="M611.4175,195.0111 L613.4454,191.7918 L610.9227,188.9436 L618.7546,191.3588 L611.4175,195.0111 " fill="#000000" style="stroke:#000000;stroke-width:1.0;"/><ellipse cx="498.5" cy="196.5" fill="#000000" rx="3" ry="3" style="stroke:#000000;stroke-width:1.0;"/><path d="M930.2515,233.5 L943.2515,233.5 C955.4377,233.5 975.3679,233.5 996.8037,233.5 " fill="none" style="stroke:#000000;stroke-width:1.0;stroke-dasharray:3.0,3.0;"/><path d="M996.8037,236.5539 L999.0941,233.5 L996.8037,230.4461 L1004.4383,233.5 L996.8037,236.5539 " fill="#000000" style="stroke:#000000;stroke-width:1.0;"/><ellipse cx="930.2515" cy="233.5" fill="#000000" rx="3" ry="3" style="stroke:#000000;stroke-width:1.0;"/><path d="M761.5,233.5 L774.5,233.5 C823.6421,233.5 881.52,233.5 910.8638,233.5 " fill="none" style="stroke:#000000;stroke-width:1.0;stroke-dasharray:3.0,3.0;"/><path d="M910.8638,236.6279 L913.2097,233.5 L910.8638,230.3721 L918.6836,233.5 L910.8638,236.6279 " fill="#000000" style="stroke:#000000;stroke-width:1.0;"/><ellipse cx="761.5" cy="233.5" fill="#000000" rx="3" ry="3" style="stroke:#000000;stroke-width:1.0;"/><path d="M498.5,219.5 L511.5,219.5 C555.5528,219.5 604.9308,222.9218 643.6014,226.3821 " fill="none" style="stroke:#000000;stroke-width:1.0;stroke-dasharray:3.0,3.0;"/><path d="M643.3248,229.4167 L645.8774,226.5896 L643.878,223.3474 L651.188,227.0736 L643.3248,229.4167 " fill="#000000" style="stroke:#000000;stroke-width:1.0;"/><ellipse cx="498.5" cy="219.5" fill="#000000" rx="3" ry="3" style="stroke:#000000;stroke-width:1.0;"/><path d="M279,197.5 L292,197.5 C307.7832,197.5 324.5929,197.5 340.8268,197.5 " fill="none" style="stroke:#000000;stroke-width:1.0;stroke-dasharray:3.0,3.0;"/><path d="M340.8268,200.6664 L343.2016,197.5 L340.8268,194.3336 L348.7428,197.5 L340.8268,200.6664 " fill="#000000" style="stroke:#000000;stroke-width:1.0;"/><ellipse cx="279" cy="197.5" fill="#000000" rx="3" ry="3" style="stroke:#000000;stroke-width:1.0;"/><path d="M518,328.5 L531,328.5 C540.2725,328.5 549.813,328.5 559.4355,328.5 " fill="none" style="stroke:#000000;stroke-width:1.0;stroke-dasharray:3.0,3.0;"/><path d="M559.4355,331.5925 L561.7549,328.5 L559.4355,325.4075 L567.1667,328.5 L559.4355,331.5925 " fill="#000000" style="stroke:#000000;stroke-width:1.0;"/><ellipse cx="518" cy="328.5" fill="#000000" rx="3" ry="3" style="stroke:#000000;stroke-width:1.0;"/><path d="M279,221.5 L292,221.5 C316.2497,221.5 309.0755,247.3371 328,262.5 C330.2677,264.3169 332.6038,266.1056 334.9933,267.8633 " fill="none" style="stroke:#000000;stroke-width:1.0;stroke-dasharray:3.0,3.0;"/><path d="M333.1618,270.4389 L336.9249,269.2369 L336.8247,265.2877 L341.4322,272.442 L333.1618,270.4389 " fill="#000000" style="stroke:#000000;stroke-width:1.0;"/><ellipse cx="279" cy="221.5" fill="#000000" rx="3" ry="3" style="stroke:#000000;stroke-width:1.0;"/><path d="M218,198.5 L231,198.5 C240.374,198.5 250.7885,198.5 259.4714,198.5 " fill="none" style="stroke:#000000;stroke-width:1.0;stroke-dasharray:3.0,3.0;"/><path d="M259.4714,201.5815 L261.7825,198.5 L259.4714,195.4185 L267.1751,198.5 L259.4714,201.5815 " fill="#000000" style="stroke:#000000;stroke-width:1.0;"/><ellipse cx="218" cy="198.5" fill="#000000" rx="3" ry="3" style="stroke:#000000;stroke-width:1.0;"/><!--SRC=[ZLHDRzim3BthLn2-h0Mw8dQw0VMfJPeMzPmjsBhqKEoWs4ogHf4CIWwQ5Vdlap_oxM3nnP0U-VZuIFl6M4xspMZ5FXYunpD8WalnbrkXrRsc6RT39ECENWYUxrrKOKgdQDpDIta4-AZV3hAB38lOM8o8qwBEA26H5e18Ethaq6qa8vqXML6IRiXWJVETpqfMb_h9WAovru7BBQxaLSYKK1rXwcWztPQ-rjPxpwGc96yB-DDO8UEEtZeEbKl9zl06AugIJJwiAvxaHC7o9AmiALUfiCTTnmtuf2Jm_A3Tx1BX65qNoK4TXpsJi4YtkNtLTE3KReyxUOH6opa-gh4kQaSycKAiLUgMv-9OHgsYCgJ8y0uYbpit_nd9PhrE6Cn3Bb8i_AewRffHAUca-LGSgqKzrln-pQxEbQMAphkLt4ovT_hIiSgH9Rj1bPRVCHj8hkplVWppwhi5_p9e1UtBrbdV7IAke7KD_dNOziFs5NHxJr30v-piOH23qJab2AamJjCeBtu2vopYSmu_dKmnmn1-PAYYks-h2-YfkI2jPauSYuRzJS3NgyyTOU4NabC2mpwxmp7FfNKPYKw5ceJGpVpWIy1YhYQvszWGKB7Aa4K8Zxr_]--></g></svg>