<?xml version="1.0" encoding="UTF-8" standalone="no"?><svg xmlns="http://www.w3.org/2000/svg" xmlns:xlink="http://www.w3.org/1999/xlink" contentStyleType="text/css" height="793px" preserveAspectRatio="none" style="width:2284px;height:793px;background:#FFFFFF;" version="1.1" viewBox="0 0 2284 793" width="2284px" zoomAndPan="magnify"><defs/><g><text fill="#000000" font-family="sans-serif" font-size="14" font-weight="bold" lengthAdjust="spacing" textLength="182" x="1044" y="25.1074">Typed M1 Library Example</text><!--cluster typedNode--><g id="cluster_typedNode"><path d="M1396.5,45.6348 L1477.5,45.6348 A3.75,3.75 0 0 1 1480,48.1348 L1487,70.2559 L1832.5,70.2559 A2.5,2.5 0 0 1 1835,72.7559 L1835,257.6348 A2.5,2.5 0 0 1 1832.5,260.1348 L1396.5,260.1348 A2.5,2.5 0 0 1 1394,257.6348 L1394,48.1348 A2.5,2.5 0 0 1 1396.5,45.6348 " fill="none" style="stroke:#000000;stroke-width:1.5;"/><line style="stroke:#000000;stroke-width:1.5;" x1="1394" x2="1487" y1="70.2559" y2="70.2559"/><text fill="#000000" font-family="sans-serif" font-size="14" font-weight="bold" lengthAdjust="spacing" textLength="80" x="1398" y="62.7422">typed Node</text></g><!--cluster generatedLibrary--><g id="cluster_generatedLibrary"><path d="M1861.5,45.6348 L1987.5,45.6348 A3.75,3.75 0 0 1 1990,48.1348 L1997,70.2559 L2274.5,70.2559 A2.5,2.5 0 0 1 2277,72.7559 L2277,257.6348 A2.5,2.5 0 0 1 2274.5,260.1348 L1861.5,260.1348 A2.5,2.5 0 0 1 1859,257.6348 L1859,48.1348 A2.5,2.5 0 0 1 1861.5,45.6348 " fill="none" style="stroke:#000000;stroke-width:1.5;"/><line style="stroke:#000000;stroke-width:1.5;" x1="1859" x2="1997" y1="70.2559" y2="70.2559"/><text fill="#000000" font-family="sans-serif" font-size="14" font-weight="bold" lengthAdjust="spacing" textLength="125" x="1863" y="62.7422">generated Library</text></g><!--class TypedNode--><g id="elem_TypedNode"><rect codeLine="11" fill="#F1F1F1" height="32" id="TypedNode" rx="2.5" ry="2.5" style="stroke:#181818;stroke-width:0.5;" width="171" x="1410.5" y="82.6348"/><ellipse cx="1425.5" cy="98.6348" fill="#ADD1B2" rx="11" ry="11" style="stroke:#181818;stroke-width:1.0;"/><path d="M1428.2656,94.5098 Q1428.4219,94.291 1428.6094,94.1816 Q1428.7969,94.0723 1429.0156,94.0723 Q1429.3906,94.0723 1429.625,94.3379 Q1429.8594,94.5879 1429.8594,95.1973 L1429.8594,96.6504 Q1429.8594,97.2598 1429.625,97.5254 Q1429.3906,97.791 1429.0156,97.791 Q1428.6719,97.791 1428.4688,97.5879 Q1428.2656,97.4004 1428.1563,96.8848 Q1428.1094,96.5254 1427.9219,96.3379 Q1427.5938,95.9629 1426.9844,95.7441 Q1426.375,95.5254 1425.75,95.5254 Q1424.9844,95.5254 1424.3438,95.8535 Q1423.7188,96.1816 1423.2188,96.9316 Q1422.7344,97.6816 1422.7344,98.7129 L1422.7344,99.8066 Q1422.7344,101.041 1423.625,101.8691 Q1424.5156,102.6816 1426.1094,102.6816 Q1427.0469,102.6816 1427.7031,102.4316 Q1428.0938,102.2754 1428.5156,101.8379 Q1428.7813,101.5723 1428.9219,101.4941 Q1429.0781,101.416 1429.2813,101.416 Q1429.6094,101.416 1429.8594,101.6816 Q1430.125,101.9316 1430.125,102.2754 Q1430.125,102.6191 1429.7813,103.0254 Q1429.2813,103.6035 1428.4844,103.9316 Q1427.4063,104.3848 1426.1094,104.3848 Q1424.5938,104.3848 1423.3906,103.7598 Q1422.4063,103.2598 1421.7188,102.1973 Q1421.0313,101.1191 1421.0313,99.8379 L1421.0313,98.6816 Q1421.0313,97.3535 1421.6406,96.2129 Q1422.2656,95.0566 1423.3594,94.4473 Q1424.4531,93.8223 1425.6875,93.8223 Q1426.4219,93.8223 1427.0625,93.9941 Q1427.7188,94.1504 1428.2656,94.5098 Z " fill="#000000"/><text fill="#000000" font-family="sans-serif" font-size="14" lengthAdjust="spacing" textLength="73" x="1439.5" y="104.4316">TypedNode</text><rect fill="#FFFFFF" height="17.9609" style="stroke:#181818;stroke-width:1.0;stroke-dasharray:2.0,2.0;" width="64" x="1520.5" y="79.6348"/><text fill="#000000" font-family="sans-serif" font-size="12" font-style="italic" lengthAdjust="spacing" textLength="62" x="1521.5" y="93.584">T : Concept</text></g><!--class TypedProperty--><g id="elem_TypedProperty"><rect codeLine="12" fill="#F1F1F1" height="32" id="TypedProperty" rx="2.5" ry="2.5" style="stroke:#181818;stroke-width:0.5;" width="137" x="1616.5" y="82.6348"/><ellipse cx="1631.5" cy="98.6348" fill="#ADD1B2" rx="11" ry="11" style="stroke:#181818;stroke-width:1.0;"/><path d="M1634.2656,94.5098 Q1634.4219,94.291 1634.6094,94.1816 Q1634.7969,94.0723 1635.0156,94.0723 Q1635.3906,94.0723 1635.625,94.3379 Q1635.8594,94.5879 1635.8594,95.1973 L1635.8594,96.6504 Q1635.8594,97.2598 1635.625,97.5254 Q1635.3906,97.791 1635.0156,97.791 Q1634.6719,97.791 1634.4688,97.5879 Q1634.2656,97.4004 1634.1563,96.8848 Q1634.1094,96.5254 1633.9219,96.3379 Q1633.5938,95.9629 1632.9844,95.7441 Q1632.375,95.5254 1631.75,95.5254 Q1630.9844,95.5254 1630.3438,95.8535 Q1629.7188,96.1816 1629.2188,96.9316 Q1628.7344,97.6816 1628.7344,98.7129 L1628.7344,99.8066 Q1628.7344,101.041 1629.625,101.8691 Q1630.5156,102.6816 1632.1094,102.6816 Q1633.0469,102.6816 1633.7031,102.4316 Q1634.0938,102.2754 1634.5156,101.8379 Q1634.7813,101.5723 1634.9219,101.4941 Q1635.0781,101.416 1635.2813,101.416 Q1635.6094,101.416 1635.8594,101.6816 Q1636.125,101.9316 1636.125,102.2754 Q1636.125,102.6191 1635.7813,103.0254 Q1635.2813,103.6035 1634.4844,103.9316 Q1633.4063,104.3848 1632.1094,104.3848 Q1630.5938,104.3848 1629.3906,103.7598 Q1628.4063,103.2598 1627.7188,102.1973 Q1627.0313,101.1191 1627.0313,99.8379 L1627.0313,98.6816 Q1627.0313,97.3535 1627.6406,96.2129 Q1628.2656,95.0566 1629.3594,94.4473 Q1630.4531,93.8223 1631.6875,93.8223 Q1632.4219,93.8223 1633.0625,93.9941 Q1633.7188,94.1504 1634.2656,94.5098 Z " fill="#000000"/><text fill="#000000" font-family="sans-serif" font-size="14" lengthAdjust="spacing" textLength="94" x="1645.5" y="104.4316">TypedProperty</text><rect fill="#FFFFFF" height="17.9609" style="stroke:#181818;stroke-width:1.0;stroke-dasharray:2.0,2.0;" width="9" x="1747.5" y="79.6348"/><text fill="#000000" font-family="sans-serif" font-size="12" font-style="italic" lengthAdjust="spacing" textLength="7" x="1748.5" y="93.584">T</text></g><!--class TypedChild--><g id="elem_TypedChild"><rect codeLine="13" fill="#F1F1F1" height="32" id="TypedChild" rx="2.5" ry="2.5" style="stroke:#181818;stroke-width:0.5;" width="170" x="1410" y="212.1348"/><ellipse cx="1425" cy="228.1348" fill="#ADD1B2" rx="11" ry="11" style="stroke:#181818;stroke-width:1.0;"/><path d="M1427.7656,224.0098 Q1427.9219,223.791 1428.1094,223.6816 Q1428.2969,223.5723 1428.5156,223.5723 Q1428.8906,223.5723 1429.125,223.8379 Q1429.3594,224.0879 1429.3594,224.6973 L1429.3594,226.1504 Q1429.3594,226.7598 1429.125,227.0254 Q1428.8906,227.291 1428.5156,227.291 Q1428.1719,227.291 1427.9688,227.0879 Q1427.7656,226.9004 1427.6563,226.3848 Q1427.6094,226.0254 1427.4219,225.8379 Q1427.0938,225.4629 1426.4844,225.2441 Q1425.875,225.0254 1425.25,225.0254 Q1424.4844,225.0254 1423.8438,225.3535 Q1423.2188,225.6816 1422.7188,226.4316 Q1422.2344,227.1816 1422.2344,228.2129 L1422.2344,229.3066 Q1422.2344,230.541 1423.125,231.3691 Q1424.0156,232.1816 1425.6094,232.1816 Q1426.5469,232.1816 1427.2031,231.9316 Q1427.5938,231.7754 1428.0156,231.3379 Q1428.2813,231.0723 1428.4219,230.9941 Q1428.5781,230.916 1428.7813,230.916 Q1429.1094,230.916 1429.3594,231.1816 Q1429.625,231.4316 1429.625,231.7754 Q1429.625,232.1191 1429.2813,232.5254 Q1428.7813,233.1035 1427.9844,233.4316 Q1426.9063,233.8848 1425.6094,233.8848 Q1424.0938,233.8848 1422.8906,233.2598 Q1421.9063,232.7598 1421.2188,231.6973 Q1420.5313,230.6191 1420.5313,229.3379 L1420.5313,228.1816 Q1420.5313,226.8535 1421.1406,225.7129 Q1421.7656,224.5566 1422.8594,223.9473 Q1423.9531,223.3223 1425.1875,223.3223 Q1425.9219,223.3223 1426.5625,223.4941 Q1427.2188,223.6504 1427.7656,224.0098 Z " fill="#000000"/><text fill="#000000" font-family="sans-serif" font-size="14" lengthAdjust="spacing" textLength="72" x="1439" y="233.9316">TypedChild</text><rect fill="#FFFFFF" height="17.9609" style="stroke:#181818;stroke-width:1.0;stroke-dasharray:2.0,2.0;" width="64" x="1519" y="209.1348"/><text fill="#000000" font-family="sans-serif" font-size="12" font-style="italic" lengthAdjust="spacing" textLength="62" x="1520" y="223.084">T : Concept</text></g><!--class TypedReference--><g id="elem_TypedReference"><rect codeLine="14" fill="#F1F1F1" height="32" id="TypedReference" rx="2.5" ry="2.5" style="stroke:#181818;stroke-width:0.5;" width="204" x="1615" y="212.1348"/><ellipse cx="1630" cy="228.1348" fill="#ADD1B2" rx="11" ry="11" style="stroke:#181818;stroke-width:1.0;"/><path d="M1632.7656,224.0098 Q1632.9219,223.791 1633.1094,223.6816 Q1633.2969,223.5723 1633.5156,223.5723 Q1633.8906,223.5723 1634.125,223.8379 Q1634.3594,224.0879 1634.3594,224.6973 L1634.3594,226.1504 Q1634.3594,226.7598 1634.125,227.0254 Q1633.8906,227.291 1633.5156,227.291 Q1633.1719,227.291 1632.9688,227.0879 Q1632.7656,226.9004 1632.6563,226.3848 Q1632.6094,226.0254 1632.4219,225.8379 Q1632.0938,225.4629 1631.4844,225.2441 Q1630.875,225.0254 1630.25,225.0254 Q1629.4844,225.0254 1628.8438,225.3535 Q1628.2188,225.6816 1627.7188,226.4316 Q1627.2344,227.1816 1627.2344,228.2129 L1627.2344,229.3066 Q1627.2344,230.541 1628.125,231.3691 Q1629.0156,232.1816 1630.6094,232.1816 Q1631.5469,232.1816 1632.2031,231.9316 Q1632.5938,231.7754 1633.0156,231.3379 Q1633.2813,231.0723 1633.4219,230.9941 Q1633.5781,230.916 1633.7813,230.916 Q1634.1094,230.916 1634.3594,231.1816 Q1634.625,231.4316 1634.625,231.7754 Q1634.625,232.1191 1634.2813,232.5254 Q1633.7813,233.1035 1632.9844,233.4316 Q1631.9063,233.8848 1630.6094,233.8848 Q1629.0938,233.8848 1627.8906,233.2598 Q1626.9063,232.7598 1626.2188,231.6973 Q1625.5313,230.6191 1625.5313,229.3379 L1625.5313,228.1816 Q1625.5313,226.8535 1626.1406,225.7129 Q1626.7656,224.5566 1627.8594,223.9473 Q1628.9531,223.3223 1630.1875,223.3223 Q1630.9219,223.3223 1631.5625,223.4941 Q1632.2188,223.6504 1632.7656,224.0098 Z " fill="#000000"/><text fill="#000000" font-family="sans-serif" font-size="14" lengthAdjust="spacing" textLength="106" x="1644" y="233.9316">TypedReference</text><rect fill="#FFFFFF" height="17.9609" style="stroke:#181818;stroke-width:1.0;stroke-dasharray:2.0,2.0;" width="64" x="1758" y="209.1348"/><text fill="#000000" font-family="sans-serif" font-size="12" font-style="italic" lengthAdjust="spacing" textLength="62" x="1759" y="223.084">T : Concept</text></g><!--class Library--><g id="elem_Library"><rect codeLine="18" fill="#F1F1F1" height="32" id="Library" rx="2.5" ry="2.5" style="stroke:#181818;stroke-width:0.5;" width="76" x="1890" y="82.6348"/><ellipse cx="1905" cy="98.6348" fill="#ADD1B2" rx="11" ry="11" style="stroke:#181818;stroke-width:1.0;"/><path d="M1907.7656,94.5098 Q1907.9219,94.291 1908.1094,94.1816 Q1908.2969,94.0723 1908.5156,94.0723 Q1908.8906,94.0723 1909.125,94.3379 Q1909.3594,94.5879 1909.3594,95.1973 L1909.3594,96.6504 Q1909.3594,97.2598 1909.125,97.5254 Q1908.8906,97.791 1908.5156,97.791 Q1908.1719,97.791 1907.9688,97.5879 Q1907.7656,97.4004 1907.6563,96.8848 Q1907.6094,96.5254 1907.4219,96.3379 Q1907.0938,95.9629 1906.4844,95.7441 Q1905.875,95.5254 1905.25,95.5254 Q1904.4844,95.5254 1903.8438,95.8535 Q1903.2188,96.1816 1902.7188,96.9316 Q1902.2344,97.6816 1902.2344,98.7129 L1902.2344,99.8066 Q1902.2344,101.041 1903.125,101.8691 Q1904.0156,102.6816 1905.6094,102.6816 Q1906.5469,102.6816 1907.2031,102.4316 Q1907.5938,102.2754 1908.0156,101.8379 Q1908.2813,101.5723 1908.4219,101.4941 Q1908.5781,101.416 1908.7813,101.416 Q1909.1094,101.416 1909.3594,101.6816 Q1909.625,101.9316 1909.625,102.2754 Q1909.625,102.6191 1909.2813,103.0254 Q1908.7813,103.6035 1907.9844,103.9316 Q1906.9063,104.3848 1905.6094,104.3848 Q1904.0938,104.3848 1902.8906,103.7598 Q1901.9063,103.2598 1901.2188,102.1973 Q1900.5313,101.1191 1900.5313,99.8379 L1900.5313,98.6816 Q1900.5313,97.3535 1901.1406,96.2129 Q1901.7656,95.0566 1902.8594,94.4473 Q1903.9531,93.8223 1905.1875,93.8223 Q1905.9219,93.8223 1906.5625,93.9941 Q1907.2188,94.1504 1907.7656,94.5098 Z " fill="#000000"/><text fill="#000000" font-family="sans-serif" font-size="14" lengthAdjust="spacing" textLength="44" x="1919" y="104.4316">Library</text></g><!--class Book--><g id="elem_Book"><rect codeLine="19" fill="#F1F1F1" height="32" id="Book" rx="2.5" ry="2.5" style="stroke:#181818;stroke-width:0.5;" width="64" x="2001" y="82.6348"/><ellipse cx="2016" cy="98.6348" fill="#ADD1B2" rx="11" ry="11" style="stroke:#181818;stroke-width:1.0;"/><path d="M2018.7656,94.5098 Q2018.9219,94.291 2019.1094,94.1816 Q2019.2969,94.0723 2019.5156,94.0723 Q2019.8906,94.0723 2020.125,94.3379 Q2020.3594,94.5879 2020.3594,95.1973 L2020.3594,96.6504 Q2020.3594,97.2598 2020.125,97.5254 Q2019.8906,97.791 2019.5156,97.791 Q2019.1719,97.791 2018.9688,97.5879 Q2018.7656,97.4004 2018.6563,96.8848 Q2018.6094,96.5254 2018.4219,96.3379 Q2018.0938,95.9629 2017.4844,95.7441 Q2016.875,95.5254 2016.25,95.5254 Q2015.4844,95.5254 2014.8438,95.8535 Q2014.2188,96.1816 2013.7188,96.9316 Q2013.2344,97.6816 2013.2344,98.7129 L2013.2344,99.8066 Q2013.2344,101.041 2014.125,101.8691 Q2015.0156,102.6816 2016.6094,102.6816 Q2017.5469,102.6816 2018.2031,102.4316 Q2018.5938,102.2754 2019.0156,101.8379 Q2019.2813,101.5723 2019.4219,101.4941 Q2019.5781,101.416 2019.7813,101.416 Q2020.1094,101.416 2020.3594,101.6816 Q2020.625,101.9316 2020.625,102.2754 Q2020.625,102.6191 2020.2813,103.0254 Q2019.7813,103.6035 2018.9844,103.9316 Q2017.9063,104.3848 2016.6094,104.3848 Q2015.0938,104.3848 2013.8906,103.7598 Q2012.9063,103.2598 2012.2188,102.1973 Q2011.5313,101.1191 2011.5313,99.8379 L2011.5313,98.6816 Q2011.5313,97.3535 2012.1406,96.2129 Q2012.7656,95.0566 2013.8594,94.4473 Q2014.9531,93.8223 2016.1875,93.8223 Q2016.9219,93.8223 2017.5625,93.9941 Q2018.2188,94.1504 2018.7656,94.5098 Z " fill="#000000"/><text fill="#000000" font-family="sans-serif" font-size="14" lengthAdjust="spacing" textLength="32" x="2030" y="104.4316">Book</text></g><!--class LibraryBooks--><g id="elem_LibraryBooks"><rect codeLine="20" fill="#F1F1F1" height="32" id="LibraryBooks" rx="2.5" ry="2.5" style="stroke:#181818;stroke-width:0.5;" width="115" x="2100.5" y="82.6348"/><ellipse cx="2115.5" cy="98.6348" fill="#ADD1B2" rx="11" ry="11" style="stroke:#181818;stroke-width:1.0;"/><path d="M2118.2656,94.5098 Q2118.4219,94.291 2118.6094,94.1816 Q2118.7969,94.0723 2119.0156,94.0723 Q2119.3906,94.0723 2119.625,94.3379 Q2119.8594,94.5879 2119.8594,95.1973 L2119.8594,96.6504 Q2119.8594,97.2598 2119.625,97.5254 Q2119.3906,97.791 2119.0156,97.791 Q2118.6719,97.791 2118.4688,97.5879 Q2118.2656,97.4004 2118.1563,96.8848 Q2118.1094,96.5254 2117.9219,96.3379 Q2117.5938,95.9629 2116.9844,95.7441 Q2116.375,95.5254 2115.75,95.5254 Q2114.9844,95.5254 2114.3438,95.8535 Q2113.7188,96.1816 2113.2188,96.9316 Q2112.7344,97.6816 2112.7344,98.7129 L2112.7344,99.8066 Q2112.7344,101.041 2113.625,101.8691 Q2114.5156,102.6816 2116.1094,102.6816 Q2117.0469,102.6816 2117.7031,102.4316 Q2118.0938,102.2754 2118.5156,101.8379 Q2118.7813,101.5723 2118.9219,101.4941 Q2119.0781,101.416 2119.2813,101.416 Q2119.6094,101.416 2119.8594,101.6816 Q2120.125,101.9316 2120.125,102.2754 Q2120.125,102.6191 2119.7813,103.0254 Q2119.2813,103.6035 2118.4844,103.9316 Q2117.4063,104.3848 2116.1094,104.3848 Q2114.5938,104.3848 2113.3906,103.7598 Q2112.4063,103.2598 2111.7188,102.1973 Q2111.0313,101.1191 2111.0313,99.8379 L2111.0313,98.6816 Q2111.0313,97.3535 2111.6406,96.2129 Q2112.2656,95.0566 2113.3594,94.4473 Q2114.4531,93.8223 2115.6875,93.8223 Q2116.4219,93.8223 2117.0625,93.9941 Q2117.7188,94.1504 2118.2656,94.5098 Z " fill="#000000"/><text fill="#000000" font-family="sans-serif" font-size="14" lengthAdjust="spacing" textLength="83" x="2129.5" y="104.4316">LibraryBooks</text></g><!--class BookAuthor--><g id="elem_BookAuthor"><rect codeLine="21" fill="#F1F1F1" height="32" id="BookAuthor" rx="2.5" ry="2.5" style="stroke:#181818;stroke-width:0.5;" width="106" x="1875" y="212.1348"/><ellipse cx="1890" cy="228.1348" fill="#ADD1B2" rx="11" ry="11" style="stroke:#181818;stroke-width:1.0;"/><path d="M1892.7656,224.0098 Q1892.9219,223.791 1893.1094,223.6816 Q1893.2969,223.5723 1893.5156,223.5723 Q1893.8906,223.5723 1894.125,223.8379 Q1894.3594,224.0879 1894.3594,224.6973 L1894.3594,226.1504 Q1894.3594,226.7598 1894.125,227.0254 Q1893.8906,227.291 1893.5156,227.291 Q1893.1719,227.291 1892.9688,227.0879 Q1892.7656,226.9004 1892.6563,226.3848 Q1892.6094,226.0254 1892.4219,225.8379 Q1892.0938,225.4629 1891.4844,225.2441 Q1890.875,225.0254 1890.25,225.0254 Q1889.4844,225.0254 1888.8438,225.3535 Q1888.2188,225.6816 1887.7188,226.4316 Q1887.2344,227.1816 1887.2344,228.2129 L1887.2344,229.3066 Q1887.2344,230.541 1888.125,231.3691 Q1889.0156,232.1816 1890.6094,232.1816 Q1891.5469,232.1816 1892.2031,231.9316 Q1892.5938,231.7754 1893.0156,231.3379 Q1893.2813,231.0723 1893.4219,230.9941 Q1893.5781,230.916 1893.7813,230.916 Q1894.1094,230.916 1894.3594,231.1816 Q1894.625,231.4316 1894.625,231.7754 Q1894.625,232.1191 1894.2813,232.5254 Q1893.7813,233.1035 1892.9844,233.4316 Q1891.9063,233.8848 1890.6094,233.8848 Q1889.0938,233.8848 1887.8906,233.2598 Q1886.9063,232.7598 1886.2188,231.6973 Q1885.5313,230.6191 1885.5313,229.3379 L1885.5313,228.1816 Q1885.5313,226.8535 1886.1406,225.7129 Q1886.7656,224.5566 1887.8594,223.9473 Q1888.9531,223.3223 1890.1875,223.3223 Q1890.9219,223.3223 1891.5625,223.4941 Q1892.2188,223.6504 1892.7656,224.0098 Z " fill="#000000"/><text fill="#000000" font-family="sans-serif" font-size="14" lengthAdjust="spacing" textLength="74" x="1904" y="233.9316">BookAuthor</text></g><!--class Writer--><g id="elem_Writer"><rect codeLine="22" fill="#F1F1F1" height="32" id="Writer" rx="2.5" ry="2.5" style="stroke:#181818;stroke-width:0.5;" width="70" x="2016" y="212.1348"/><ellipse cx="2031" cy="228.1348" fill="#ADD1B2" rx="11" ry="11" style="stroke:#181818;stroke-width:1.0;"/><path d="M2033.7656,224.0098 Q2033.9219,223.791 2034.1094,223.6816 Q2034.2969,223.5723 2034.5156,223.5723 Q2034.8906,223.5723 2035.125,223.8379 Q2035.3594,224.0879 2035.3594,224.6973 L2035.3594,226.1504 Q2035.3594,226.7598 2035.125,227.0254 Q2034.8906,227.291 2034.5156,227.291 Q2034.1719,227.291 2033.9688,227.0879 Q2033.7656,226.9004 2033.6563,226.3848 Q2033.6094,226.0254 2033.4219,225.8379 Q2033.0938,225.4629 2032.4844,225.2441 Q2031.875,225.0254 2031.25,225.0254 Q2030.4844,225.0254 2029.8438,225.3535 Q2029.2188,225.6816 2028.7188,226.4316 Q2028.2344,227.1816 2028.2344,228.2129 L2028.2344,229.3066 Q2028.2344,230.541 2029.125,231.3691 Q2030.0156,232.1816 2031.6094,232.1816 Q2032.5469,232.1816 2033.2031,231.9316 Q2033.5938,231.7754 2034.0156,231.3379 Q2034.2813,231.0723 2034.4219,230.9941 Q2034.5781,230.916 2034.7813,230.916 Q2035.1094,230.916 2035.3594,231.1816 Q2035.625,231.4316 2035.625,231.7754 Q2035.625,232.1191 2035.2813,232.5254 Q2034.7813,233.1035 2033.9844,233.4316 Q2032.9063,233.8848 2031.6094,233.8848 Q2030.0938,233.8848 2028.8906,233.2598 Q2027.9063,232.7598 2027.2188,231.6973 Q2026.5313,230.6191 2026.5313,229.3379 L2026.5313,228.1816 Q2026.5313,226.8535 2027.1406,225.7129 Q2027.7656,224.5566 2028.8594,223.9473 Q2029.9531,223.3223 2031.1875,223.3223 Q2031.9219,223.3223 2032.5625,223.4941 Q2033.2188,223.6504 2033.7656,224.0098 Z " fill="#000000"/><text fill="#000000" font-family="sans-serif" font-size="14" lengthAdjust="spacing" textLength="38" x="2045" y="233.9316">Writer</text></g><!--class GuideBookWriter--><g id="elem_GuideBookWriter"><rect codeLine="23" fill="#F1F1F1" height="32" id="GuideBookWriter" rx="2.5" ry="2.5" style="stroke:#181818;stroke-width:0.5;" width="140" x="2121" y="212.1348"/><ellipse cx="2136" cy="228.1348" fill="#ADD1B2" rx="11" ry="11" style="stroke:#181818;stroke-width:1.0;"/><path d="M2138.7656,224.0098 Q2138.9219,223.791 2139.1094,223.6816 Q2139.2969,223.5723 2139.5156,223.5723 Q2139.8906,223.5723 2140.125,223.8379 Q2140.3594,224.0879 2140.3594,224.6973 L2140.3594,226.1504 Q2140.3594,226.7598 2140.125,227.0254 Q2139.8906,227.291 2139.5156,227.291 Q2139.1719,227.291 2138.9688,227.0879 Q2138.7656,226.9004 2138.6563,226.3848 Q2138.6094,226.0254 2138.4219,225.8379 Q2138.0938,225.4629 2137.4844,225.2441 Q2136.875,225.0254 2136.25,225.0254 Q2135.4844,225.0254 2134.8438,225.3535 Q2134.2188,225.6816 2133.7188,226.4316 Q2133.2344,227.1816 2133.2344,228.2129 L2133.2344,229.3066 Q2133.2344,230.541 2134.125,231.3691 Q2135.0156,232.1816 2136.6094,232.1816 Q2137.5469,232.1816 2138.2031,231.9316 Q2138.5938,231.7754 2139.0156,231.3379 Q2139.2813,231.0723 2139.4219,230.9941 Q2139.5781,230.916 2139.7813,230.916 Q2140.1094,230.916 2140.3594,231.1816 Q2140.625,231.4316 2140.625,231.7754 Q2140.625,232.1191 2140.2813,232.5254 Q2139.7813,233.1035 2138.9844,233.4316 Q2137.9063,233.8848 2136.6094,233.8848 Q2135.0938,233.8848 2133.8906,233.2598 Q2132.9063,232.7598 2132.2188,231.6973 Q2131.5313,230.6191 2131.5313,229.3379 L2131.5313,228.1816 Q2131.5313,226.8535 2132.1406,225.7129 Q2132.7656,224.5566 2133.8594,223.9473 Q2134.9531,223.3223 2136.1875,223.3223 Q2136.9219,223.3223 2137.5625,223.4941 Q2138.2188,223.6504 2138.7656,224.0098 Z " fill="#000000"/><text fill="#000000" font-family="sans-serif" font-size="14" lengthAdjust="spacing" textLength="108" x="2150" y="233.9316">GuideBookWriter</text></g><g id="elem_library"><rect fill="#90EE90" height="49.2422" style="stroke:#181818;stroke-width:0.5;" width="340" x="528" y="74.1348"/><text fill="#000000" font-family="sans-serif" font-size="14" lengthAdjust="spacing" textLength="91" x="535" y="91.2422">Bob's Library :</text><text fill="#000000" font-family="sans-serif" font-size="14" lengthAdjust="spacing" text-decoration="underline" textLength="231" x="630" y="91.2422">TypedNode&lt;T = generated::Library&gt;</text><line style="stroke:#181818;stroke-width:0.5;" x1="529" x2="867" y1="96.7559" y2="96.7559"/><text fill="#000000" font-family="sans-serif" font-size="14" lengthAdjust="spacing" textLength="181" x="534" y="115.8633">concept = → runtime::Library</text></g><g id="elem_libraryProperties"><rect fill="#FFB6C1" height="45.2422" style="stroke:#181818;stroke-width:0.5;" width="448" x="919" y="206.1348"/><text fill="#000000" font-family="sans-serif" font-size="14" lengthAdjust="spacing" textLength="4" x="1141" y="223.2422"> </text><line style="stroke:#181818;stroke-width:1.0;" x1="919" x2="1367" y1="228.7559" y2="228.7559"/><text fill="#000000" font-family="sans-serif" font-size="14" lengthAdjust="spacing" textLength="151" x="924" y="245.8633">→ runtime::LibraryName</text><text fill="#000000" font-family="sans-serif" font-size="14" lengthAdjust="spacing" textLength="101" x="1085" y="245.8633">"Bob's Library" :</text><text fill="#000000" font-family="sans-serif" font-size="14" lengthAdjust="spacing" text-decoration="underline" textLength="172" x="1190" y="245.8633">TypedProperty&lt;T = String&gt;</text><line style="stroke:#181818;stroke-width:1.0;" x1="1080" x2="1080" y1="228.7559" y2="251.377"/></g><g id="elem_explorerBook"><rect fill="#90EE90" height="49.2422" style="stroke:#181818;stroke-width:0.5;" width="333" x="542.5" y="203.6348"/><text fill="#000000" font-family="sans-serif" font-size="14" lengthAdjust="spacing" textLength="96" x="549.5" y="220.7422">Explorer Book :</text><text fill="#000000" font-family="sans-serif" font-size="14" lengthAdjust="spacing" text-decoration="underline" textLength="219" x="649.5" y="220.7422">TypedNode&lt;T = generated::Book&gt;</text><line style="stroke:#181818;stroke-width:0.5;" x1="543.5" x2="874.5" y1="226.2559" y2="226.2559"/><text fill="#000000" font-family="sans-serif" font-size="14" lengthAdjust="spacing" textLength="169" x="548.5" y="245.3633">concept = → runtime::Book</text></g><g id="elem_explorerBookProperties"><rect fill="#FFB6C1" height="67.8633" style="stroke:#181818;stroke-width:0.5;" width="445" x="360.5" y="337.1348"/><text fill="#000000" font-family="sans-serif" font-size="14" lengthAdjust="spacing" textLength="4" x="581" y="354.2422"> </text><line style="stroke:#181818;stroke-width:1.0;" x1="360.5" x2="805.5" y1="359.7559" y2="359.7559"/><text fill="#000000" font-family="sans-serif" font-size="14" lengthAdjust="spacing" textLength="130" x="372" y="376.8633">→ runtime::BookTitle</text><text fill="#000000" font-family="sans-serif" font-size="14" lengthAdjust="spacing" textLength="106" x="518.5" y="376.8633">"Explorer Book" :</text><text fill="#000000" font-family="sans-serif" font-size="14" lengthAdjust="spacing" text-decoration="underline" textLength="172" x="628.5" y="376.8633">TypedProperty&lt;T = String&gt;</text><line style="stroke:#181818;stroke-width:1.0;" x1="513.5" x2="513.5" y1="359.7559" y2="382.377"/><line style="stroke:#181818;stroke-width:1.0;" x1="360.5" x2="805.5" y1="382.377" y2="382.377"/><text fill="#000000" font-family="sans-serif" font-size="14" lengthAdjust="spacing" textLength="143" x="365.5" y="399.4844">→ runtime::BookPages</text><text fill="#000000" font-family="sans-serif" font-size="14" lengthAdjust="spacing" textLength="32" x="518.5" y="399.4844">123 :</text><text fill="#000000" font-family="sans-serif" font-size="14" lengthAdjust="spacing" text-decoration="underline" textLength="179" x="554.5" y="399.4844">TypedProperty&lt;T = Integer&gt;</text><line style="stroke:#181818;stroke-width:1.0;" x1="513.5" x2="513.5" y1="382.377" y2="404.998"/></g><g id="elem_libraryChildren"><rect fill="#ADD8E6" height="45.2422" style="stroke:#181818;stroke-width:0.5;" width="492" x="7" y="206.1348"/><text fill="#000000" font-family="sans-serif" font-size="14" lengthAdjust="spacing" textLength="4" x="251" y="223.2422"> </text><line style="stroke:#181818;stroke-width:1.0;" x1="7" x2="499" y1="228.7559" y2="228.7559"/><text fill="#000000" font-family="sans-serif" font-size="14" lengthAdjust="spacing" textLength="83" x="12" y="245.8633">LibraryBooks</text><text fill="#000000" font-family="sans-serif" font-size="14" lengthAdjust="spacing" textLength="162" x="105" y="245.8633">→ runtime::LibraryBooks :</text><text fill="#000000" font-family="sans-serif" font-size="14" lengthAdjust="spacing" text-decoration="underline" textLength="223" x="271" y="245.8633">TypedChild&lt;T = generated::Book*&gt;</text><line style="stroke:#181818;stroke-width:1.0;" x1="100" x2="100" y1="228.7559" y2="251.377"/></g><g id="elem_explorerBookAuthor"><rect fill="#87CEFA" height="49.2422" style="stroke:#181818;stroke-width:0.5;" width="280" x="849" y="345.6348"/><text fill="#000000" font-family="sans-serif" font-size="14" lengthAdjust="spacing" textLength="4" x="856" y="362.7422">:</text><text fill="#000000" font-family="sans-serif" font-size="14" lengthAdjust="spacing" text-decoration="underline" textLength="258" x="864" y="362.7422">TypedReference&lt;T = generated::Writer&gt;</text><line style="stroke:#181818;stroke-width:0.5;" x1="850" x2="1128" y1="368.2559" y2="368.2559"/><text fill="#000000" font-family="sans-serif" font-size="14" lengthAdjust="spacing" textLength="222" x="855" y="387.3633">reference = → runtime::BookAuthor</text></g><g id="elem_jackLondon"><rect fill="#90EE90" height="49.2422" style="stroke:#181818;stroke-width:0.5;" width="401" x="788.5" y="486.1348"/><text fill="#000000" font-family="sans-serif" font-size="14" lengthAdjust="spacing" textLength="88" x="795.5" y="503.2422">Jack London :</text><text fill="#000000" font-family="sans-serif" font-size="14" lengthAdjust="spacing" text-decoration="underline" textLength="295" x="887.5" y="503.2422">TypedNode&lt;T = generated::GuideBookWriter&gt;</text><line style="stroke:#181818;stroke-width:0.5;" x1="789.5" x2="1188.5" y1="508.7559" y2="508.7559"/><text fill="#000000" font-family="sans-serif" font-size="14" lengthAdjust="spacing" textLength="245" x="794.5" y="527.8633">concept = → runtime::GuideBookWriter</text></g><g id="elem_jackLondonProperties"><rect fill="#FFB6C1" height="67.8633" style="stroke:#181818;stroke-width:0.5;" width="534" x="722" y="618.1348"/><text fill="#000000" font-family="sans-serif" font-size="14" lengthAdjust="spacing" textLength="4" x="987" y="635.2422"> </text><line style="stroke:#181818;stroke-width:1.0;" x1="722" x2="1256" y1="640.7559" y2="640.7559"/><text fill="#000000" font-family="sans-serif" font-size="14" lengthAdjust="spacing" textLength="145" x="774.5" y="657.8633">→ runtime::WriterName</text><text fill="#000000" font-family="sans-serif" font-size="14" lengthAdjust="spacing" textLength="98" x="977" y="657.8633">"Jack London" :</text><text fill="#000000" font-family="sans-serif" font-size="14" lengthAdjust="spacing" text-decoration="underline" textLength="172" x="1079" y="657.8633">TypedProperty&lt;T = String&gt;</text><line style="stroke:#181818;stroke-width:1.0;" x1="972" x2="972" y1="640.7559" y2="663.377"/><line style="stroke:#181818;stroke-width:1.0;" x1="722" x2="1256" y1="663.377" y2="663.377"/><text fill="#000000" font-family="sans-serif" font-size="14" lengthAdjust="spacing" textLength="240" x="727" y="680.4844">→ runtime::GuideBookWriterCountries</text><text fill="#000000" font-family="sans-serif" font-size="14" lengthAdjust="spacing" textLength="60" x="977" y="680.4844">"Alaska" :</text><text fill="#000000" font-family="sans-serif" font-size="14" lengthAdjust="spacing" text-decoration="underline" textLength="172" x="1041" y="680.4844">TypedProperty&lt;T = String&gt;</text><line style="stroke:#181818;stroke-width:1.0;" x1="972" x2="972" y1="663.377" y2="685.998"/></g><!--reverse link library to libraryProperties--><g id="link_library_libraryProperties"><path codeLine="34" d="M792.83,126.8048 C870.64,149.0948 979.93,180.4148 1055.63,202.1048 " fill="none" id="library-backto-libraryProperties" style="stroke:#181818;stroke-width:1.0;"/><polygon fill="#181818" points="780.14,123.1648,784.8045,128.6641,791.6748,126.4736,787.0103,120.9743,780.14,123.1648" style="stroke:#181818;stroke-width:1.0;"/><text fill="#000000" font-family="sans-serif" font-size="13" lengthAdjust="spacing" textLength="57" x="949" y="168.1631">properties</text></g><!--reverse link explorerBook to explorerBookProperties--><g id="link_explorerBook_explorerBookProperties"><path codeLine="46" d="M678.76,262.7348 C659.71,283.9048 635.12,311.2248 615.63,332.8848 " fill="none" id="explorerBook-backto-explorerBookProperties" style="stroke:#181818;stroke-width:1.0;"/><polygon fill="#181818" points="687.63,252.8848,680.6422,254.6652,679.5981,261.8004,686.5859,260.0199,687.63,252.8848" style="stroke:#181818;stroke-width:1.0;"/><text fill="#000000" font-family="sans-serif" font-size="13" lengthAdjust="spacing" textLength="57" x="659" y="299.1631">properties</text></g><!--reverse link library to libraryChildren--><g id="link_library_libraryChildren"><path codeLine="51" d="M603.17,126.8048 C525.36,149.0948 416.07,180.4148 340.37,202.1048 " fill="none" id="library-backto-libraryChildren" style="stroke:#181818;stroke-width:1.0;"/><polygon fill="#181818" points="615.86,123.1648,608.9897,120.9743,604.3252,126.4736,611.1955,128.6641,615.86,123.1648" style="stroke:#181818;stroke-width:1.0;"/><text fill="#000000" font-family="sans-serif" font-size="13" lengthAdjust="spacing" textLength="45" x="504" y="168.1631">children</text></g><!--link libraryChildren to explorerBook--><g id="link_libraryChildren_explorerBook"><path codeLine="52" d="M500,239.1348 C510.52,241.0648 521.34,242.6348 532.24,243.8748 " fill="none" id="libraryChildren-to-explorerBook" style="stroke:#181818;stroke-width:1.0;"/><polygon fill="#181818" points="542.28,244.9248,533.7394,240.0199,537.3065,244.4103,532.9162,247.9774,542.28,244.9248" style="stroke:#181818;stroke-width:1.0;"/></g><!--reverse link explorerBook to explorerBookAuthor--><g id="link_explorerBook_explorerBookAuthor"><path codeLine="58" d="M767.82,258.5448 C819.49,284.3748 893.69,321.4848 941.62,345.4448 " fill="none" id="explorerBook-backto-explorerBookAuthor" style="stroke:#181818;stroke-width:1.0;"/><polygon fill="#181818" points="756.18,252.7248,759.7577,258.9858,766.9131,258.0913,763.3354,251.8303,756.18,252.7248" style="stroke:#181818;stroke-width:1.0;"/><text fill="#000000" font-family="sans-serif" font-size="13" lengthAdjust="spacing" textLength="60" x="850" y="299.1631">references</text></g><!--reverse link jackLondon to jackLondonProperties--><g id="link_jackLondon_jackLondonProperties"><path codeLine="69" d="M989,548.5748 C989,568.8048 989,593.7848 989,613.9048 " fill="none" id="jackLondon-backto-jackLondonProperties" style="stroke:#181818;stroke-width:1.0;"/><polygon fill="#181818" points="989,535.4448,985,541.4448,989,547.4448,993,541.4448,989,535.4448" style="stroke:#181818;stroke-width:1.0;"/><text fill="#000000" font-family="sans-serif" font-size="13" lengthAdjust="spacing" textLength="57" x="990" y="580.1631">properties</text></g><!--link explorerBookAuthor to jackLondon--><g id="link_explorerBookAuthor_jackLondon"><path codeLine="71" d="M989,394.9448 C989,418.6248 989,455.0048 989,480.4248 " fill="none" id="explorerBookAuthor-to-jackLondon" style="stroke:#181818;stroke-width:1.0;"/><polygon fill="#181818" points="989,485.6748,993,476.6748,989,480.6748,985,476.6748,989,485.6748" style="stroke:#181818;stroke-width:1.0;"/><text fill="#000000" font-family="sans-serif" font-size="13" lengthAdjust="spacing" textLength="33" x="990" y="452.1631">target</text></g><rect fill="#DDDDDD" height="69.8633" id="_legend" rx="7.5" ry="7.5" style="stroke:#000000;stroke-width:1.0;" width="330" x="970" y="703.998"/><rect fill="none" height="18.6211" style="stroke:none;stroke-width:1.0;" width="320" x="975" y="710.998"/><text fill="#000000" font-family="sans-serif" font-size="14" font-weight="bold" lengthAdjust="spacing" textLength="53" x="979" y="726.1055">Legend</text><rect fill="#FFB6C1" height="18.6211" style="stroke:none;stroke-width:1.0;" width="320" x="975" y="729.6191"/><text fill="#000000" font-family="sans-serif" font-size="14" lengthAdjust="spacing" textLength="312" x="979" y="744.7266">each row represents one TypedProperty instance</text><rect fill="#ADD8E6" height="18.6211" style="stroke:none;stroke-width:1.0;" width="320" x="975" y="748.2402"/><text fill="#000000" font-family="sans-serif" font-size="14" lengthAdjust="spacing" textLength="290" x="979" y="763.3477">each row represents one TypedChild instance</text><line style="stroke:none;stroke-width:1.0;" x1="975" x2="1295" y1="710.998" y2="710.998"/><line style="stroke:none;stroke-width:1.0;" x1="975" x2="1295" y1="729.6191" y2="729.6191"/><line style="stroke:none;stroke-width:1.0;" x1="975" x2="1295" y1="748.2402" y2="748.2402"/><line style="stroke:none;stroke-width:1.0;" x1="975" x2="1295" y1="766.8613" y2="766.8613"/><line style="stroke:none;stroke-width:1.0;" x1="975" x2="975" y1="710.998" y2="766.8613"/><line style="stroke:none;stroke-width:1.0;" x1="1295" x2="1295" y1="710.998" y2="766.8613"/><!--SRC=[dLJBQjj05DtFLznwOmZ89krEA8B4bDAIXj0QkXvBj_R4qemOZQ2cTDiFw2VsItf7Zz7eaSIkLzPzd3ddlfPmBtQQwnCpmcG8srE1ANo-xipm_WVFYmmPEuWK0VF2d237V8UwR4obGOtAK5x9s1iXawmYwsgrBZ8kJPLdGNdW6jEr3Kc3yYXamJNFLmNvpaZ8UH5ak4UPDXciuCcHxn4MjHyUL8eBu2NKd_OBVZAWNvBnicm4MMkqXH0sIYPOc7WSyAXLWTgSekt4jJc8B7qn-Gj-fnAGRnZrowDAz55pGtJRkjQCdRKhja-yjKLH1-Y_UwVKSTxJfjc0ieumNCWSvJJ_jZ87fQF8qHz4VDE26Zl_neUA6cyXfa4acgdT4oO65dTgjtI4g39H5VlTkEdrXs4R5KVhAgvhatNoNKeST_LfNYE0lx__WAwa4Jaw24k1PWOMuEEq3HPOjeXTnntg7DO3pn5kuf6KXQUb7noYyzLe8VUr1cBHlWnNGJ1b4KBX_ZEsf3KhCgLHmuxAsfVGcMsrNocX3UdhXsrcCobd5z66Zohe8rrOHfkohU-ABU90p5b5d0Lyf8qgBU3rstVFWNoKXaw6xbhXIwZxCQzfs9Jf4DMdW5QbrLv_Ek7-ubbsS_FKE7lEtMsPzF7gXI7gM8IGjF_Os3DyBuW7UhqDxPduDsp0fbdn-RdgBiWGmLL4TvQv8MjoN-jD4nNsKFMoVAAp2lTAfaewAPxjbJqPNQzUsXD1D0WNBCm8RRGxFUI5czEWkVlZgVk_nHdHt2XoQD7iqUAMhlgHdtdMUabrj-OK3lTesay8Q2Jxn10Crtiqx1y0]--></g></svg>