<?xml version="1.0" encoding="UTF-8" standalone="no"?><svg xmlns="http://www.w3.org/2000/svg" xmlns:xlink="http://www.w3.org/1999/xlink" contentStyleType="text/css" height="774px" preserveAspectRatio="none" style="width:2754px;height:774px;background:#FFFFFF;" version="1.1" viewBox="0 0 2754 774" width="2754px" zoomAndPan="magnify"><defs/><g><text fill="#000000" font-family="sans-serif" font-size="14" font-weight="bold" lengthAdjust="spacing" textLength="198" x="1271" y="25.1074">Runtime M2 Library Example</text><!--cluster M3 descriptors--><g id="cluster_M3 descriptors"><path d="M2149.5,45.6348 L2256.5,45.6348 A3.75,3.75 0 0 1 2259,48.1348 L2266,70.2559 L2744.5,70.2559 A2.5,2.5 0 0 1 2747,72.7559 L2747,286.6348 A2.5,2.5 0 0 1 2744.5,289.1348 L2149.5,289.1348 A2.5,2.5 0 0 1 2147,286.6348 L2147,48.1348 A2.5,2.5 0 0 1 2149.5,45.6348 " fill="none" style="stroke:#000000;stroke-width:1.5;"/><line style="stroke:#000000;stroke-width:1.5;" x1="2147" x2="2266" y1="70.2559" y2="70.2559"/><text fill="#000000" font-family="sans-serif" font-size="14" font-weight="bold" lengthAdjust="spacing" textLength="106" x="2151" y="62.7422">M3 descriptors</text></g><!--class MetamodelDescriptor--><g id="elem_MetamodelDescriptor"><rect codeLine="9" fill="#F1F1F1" height="32" id="MetamodelDescriptor" rx="2.5" ry="2.5" style="stroke:#181818;stroke-width:0.5;" width="166" x="2163" y="103.6348"/><ellipse cx="2178" cy="119.6348" fill="#ADD1B2" rx="11" ry="11" style="stroke:#181818;stroke-width:1.0;"/><path d="M2180.7656,115.5098 Q2180.9219,115.291 2181.1094,115.1816 Q2181.2969,115.0723 2181.5156,115.0723 Q2181.8906,115.0723 2182.125,115.3379 Q2182.3594,115.5879 2182.3594,116.1973 L2182.3594,117.6504 Q2182.3594,118.2598 2182.125,118.5254 Q2181.8906,118.791 2181.5156,118.791 Q2181.1719,118.791 2180.9688,118.5879 Q2180.7656,118.4004 2180.6563,117.8848 Q2180.6094,117.5254 2180.4219,117.3379 Q2180.0938,116.9629 2179.4844,116.7441 Q2178.875,116.5254 2178.25,116.5254 Q2177.4844,116.5254 2176.8438,116.8535 Q2176.2188,117.1816 2175.7188,117.9316 Q2175.2344,118.6816 2175.2344,119.7129 L2175.2344,120.8066 Q2175.2344,122.041 2176.125,122.8691 Q2177.0156,123.6816 2178.6094,123.6816 Q2179.5469,123.6816 2180.2031,123.4316 Q2180.5938,123.2754 2181.0156,122.8379 Q2181.2813,122.5723 2181.4219,122.4941 Q2181.5781,122.416 2181.7813,122.416 Q2182.1094,122.416 2182.3594,122.6816 Q2182.625,122.9316 2182.625,123.2754 Q2182.625,123.6191 2182.2813,124.0254 Q2181.7813,124.6035 2180.9844,124.9316 Q2179.9063,125.3848 2178.6094,125.3848 Q2177.0938,125.3848 2175.8906,124.7598 Q2174.9063,124.2598 2174.2188,123.1973 Q2173.5313,122.1191 2173.5313,120.8379 L2173.5313,119.6816 Q2173.5313,118.3535 2174.1406,117.2129 Q2174.7656,116.0566 2175.8594,115.4473 Q2176.9531,114.8223 2178.1875,114.8223 Q2178.9219,114.8223 2179.5625,114.9941 Q2180.2188,115.1504 2180.7656,115.5098 Z " fill="#000000"/><text fill="#000000" font-family="sans-serif" font-size="14" lengthAdjust="spacing" textLength="134" x="2192" y="125.4316">MetamodelDescriptor</text></g><!--class PrimitiveTypeDescriptor--><g id="elem_PrimitiveTypeDescriptor"><rect codeLine="10" fill="#F1F1F1" height="32" id="PrimitiveTypeDescriptor" rx="2.5" ry="2.5" style="stroke:#181818;stroke-width:0.5;" width="182" x="2364" y="103.6348"/><ellipse cx="2379" cy="119.6348" fill="#ADD1B2" rx="11" ry="11" style="stroke:#181818;stroke-width:1.0;"/><path d="M2381.7656,115.5098 Q2381.9219,115.291 2382.1094,115.1816 Q2382.2969,115.0723 2382.5156,115.0723 Q2382.8906,115.0723 2383.125,115.3379 Q2383.3594,115.5879 2383.3594,116.1973 L2383.3594,117.6504 Q2383.3594,118.2598 2383.125,118.5254 Q2382.8906,118.791 2382.5156,118.791 Q2382.1719,118.791 2381.9688,118.5879 Q2381.7656,118.4004 2381.6563,117.8848 Q2381.6094,117.5254 2381.4219,117.3379 Q2381.0938,116.9629 2380.4844,116.7441 Q2379.875,116.5254 2379.25,116.5254 Q2378.4844,116.5254 2377.8438,116.8535 Q2377.2188,117.1816 2376.7188,117.9316 Q2376.2344,118.6816 2376.2344,119.7129 L2376.2344,120.8066 Q2376.2344,122.041 2377.125,122.8691 Q2378.0156,123.6816 2379.6094,123.6816 Q2380.5469,123.6816 2381.2031,123.4316 Q2381.5938,123.2754 2382.0156,122.8379 Q2382.2813,122.5723 2382.4219,122.4941 Q2382.5781,122.416 2382.7813,122.416 Q2383.1094,122.416 2383.3594,122.6816 Q2383.625,122.9316 2383.625,123.2754 Q2383.625,123.6191 2383.2813,124.0254 Q2382.7813,124.6035 2381.9844,124.9316 Q2380.9063,125.3848 2379.6094,125.3848 Q2378.0938,125.3848 2376.8906,124.7598 Q2375.9063,124.2598 2375.2188,123.1973 Q2374.5313,122.1191 2374.5313,120.8379 L2374.5313,119.6816 Q2374.5313,118.3535 2375.1406,117.2129 Q2375.7656,116.0566 2376.8594,115.4473 Q2377.9531,114.8223 2379.1875,114.8223 Q2379.9219,114.8223 2380.5625,114.9941 Q2381.2188,115.1504 2381.7656,115.5098 Z " fill="#000000"/><text fill="#000000" font-family="sans-serif" font-size="14" lengthAdjust="spacing" textLength="150" x="2393" y="125.4316">PrimitiveTypeDescriptor</text></g><!--class ConceptDescriptor--><g id="elem_ConceptDescriptor"><rect codeLine="11" fill="#F1F1F1" height="32" id="ConceptDescriptor" rx="2.5" ry="2.5" style="stroke:#181818;stroke-width:0.5;" width="150" x="2581" y="103.6348"/><ellipse cx="2596" cy="119.6348" fill="#ADD1B2" rx="11" ry="11" style="stroke:#181818;stroke-width:1.0;"/><path d="M2598.7656,115.5098 Q2598.9219,115.291 2599.1094,115.1816 Q2599.2969,115.0723 2599.5156,115.0723 Q2599.8906,115.0723 2600.125,115.3379 Q2600.3594,115.5879 2600.3594,116.1973 L2600.3594,117.6504 Q2600.3594,118.2598 2600.125,118.5254 Q2599.8906,118.791 2599.5156,118.791 Q2599.1719,118.791 2598.9688,118.5879 Q2598.7656,118.4004 2598.6563,117.8848 Q2598.6094,117.5254 2598.4219,117.3379 Q2598.0938,116.9629 2597.4844,116.7441 Q2596.875,116.5254 2596.25,116.5254 Q2595.4844,116.5254 2594.8438,116.8535 Q2594.2188,117.1816 2593.7188,117.9316 Q2593.2344,118.6816 2593.2344,119.7129 L2593.2344,120.8066 Q2593.2344,122.041 2594.125,122.8691 Q2595.0156,123.6816 2596.6094,123.6816 Q2597.5469,123.6816 2598.2031,123.4316 Q2598.5938,123.2754 2599.0156,122.8379 Q2599.2813,122.5723 2599.4219,122.4941 Q2599.5781,122.416 2599.7813,122.416 Q2600.1094,122.416 2600.3594,122.6816 Q2600.625,122.9316 2600.625,123.2754 Q2600.625,123.6191 2600.2813,124.0254 Q2599.7813,124.6035 2598.9844,124.9316 Q2597.9063,125.3848 2596.6094,125.3848 Q2595.0938,125.3848 2593.8906,124.7598 Q2592.9063,124.2598 2592.2188,123.1973 Q2591.5313,122.1191 2591.5313,120.8379 L2591.5313,119.6816 Q2591.5313,118.3535 2592.1406,117.2129 Q2592.7656,116.0566 2593.8594,115.4473 Q2594.9531,114.8223 2596.1875,114.8223 Q2596.9219,114.8223 2597.5625,114.9941 Q2598.2188,115.1504 2598.7656,115.5098 Z " fill="#000000"/><text fill="#000000" font-family="sans-serif" font-size="14" lengthAdjust="spacing" textLength="118" x="2610" y="125.4316">ConceptDescriptor</text></g><!--class PropertyDescriptor--><g id="elem_PropertyDescriptor"><rect codeLine="12" fill="#F1F1F1" height="32" id="PropertyDescriptor" rx="2.5" ry="2.5" style="stroke:#181818;stroke-width:0.5;" width="151" x="2169.5" y="241.1348"/><ellipse cx="2184.5" cy="257.1348" fill="#ADD1B2" rx="11" ry="11" style="stroke:#181818;stroke-width:1.0;"/><path d="M2187.2656,253.0098 Q2187.4219,252.791 2187.6094,252.6816 Q2187.7969,252.5723 2188.0156,252.5723 Q2188.3906,252.5723 2188.625,252.8379 Q2188.8594,253.0879 2188.8594,253.6973 L2188.8594,255.1504 Q2188.8594,255.7598 2188.625,256.0254 Q2188.3906,256.291 2188.0156,256.291 Q2187.6719,256.291 2187.4688,256.0879 Q2187.2656,255.9004 2187.1563,255.3848 Q2187.1094,255.0254 2186.9219,254.8379 Q2186.5938,254.4629 2185.9844,254.2441 Q2185.375,254.0254 2184.75,254.0254 Q2183.9844,254.0254 2183.3438,254.3535 Q2182.7188,254.6816 2182.2188,255.4316 Q2181.7344,256.1816 2181.7344,257.2129 L2181.7344,258.3066 Q2181.7344,259.541 2182.625,260.3691 Q2183.5156,261.1816 2185.1094,261.1816 Q2186.0469,261.1816 2186.7031,260.9316 Q2187.0938,260.7754 2187.5156,260.3379 Q2187.7813,260.0723 2187.9219,259.9941 Q2188.0781,259.916 2188.2813,259.916 Q2188.6094,259.916 2188.8594,260.1816 Q2189.125,260.4316 2189.125,260.7754 Q2189.125,261.1191 2188.7813,261.5254 Q2188.2813,262.1035 2187.4844,262.4316 Q2186.4063,262.8848 2185.1094,262.8848 Q2183.5938,262.8848 2182.3906,262.2598 Q2181.4063,261.7598 2180.7188,260.6973 Q2180.0313,259.6191 2180.0313,258.3379 L2180.0313,257.1816 Q2180.0313,255.8535 2180.6406,254.7129 Q2181.2656,253.5566 2182.3594,252.9473 Q2183.4531,252.3223 2184.6875,252.3223 Q2185.4219,252.3223 2186.0625,252.4941 Q2186.7188,252.6504 2187.2656,253.0098 Z " fill="#000000"/><text fill="#000000" font-family="sans-serif" font-size="14" lengthAdjust="spacing" textLength="119" x="2198.5" y="262.9316">PropertyDescriptor</text></g><!--class ContainmentDescriptor--><g id="elem_ContainmentDescriptor"><rect codeLine="13" fill="#F1F1F1" height="32" id="ContainmentDescriptor" rx="2.5" ry="2.5" style="stroke:#181818;stroke-width:0.5;" width="177" x="2355.5" y="241.1348"/><ellipse cx="2370.5" cy="257.1348" fill="#ADD1B2" rx="11" ry="11" style="stroke:#181818;stroke-width:1.0;"/><path d="M2373.2656,253.0098 Q2373.4219,252.791 2373.6094,252.6816 Q2373.7969,252.5723 2374.0156,252.5723 Q2374.3906,252.5723 2374.625,252.8379 Q2374.8594,253.0879 2374.8594,253.6973 L2374.8594,255.1504 Q2374.8594,255.7598 2374.625,256.0254 Q2374.3906,256.291 2374.0156,256.291 Q2373.6719,256.291 2373.4688,256.0879 Q2373.2656,255.9004 2373.1563,255.3848 Q2373.1094,255.0254 2372.9219,254.8379 Q2372.5938,254.4629 2371.9844,254.2441 Q2371.375,254.0254 2370.75,254.0254 Q2369.9844,254.0254 2369.3438,254.3535 Q2368.7188,254.6816 2368.2188,255.4316 Q2367.7344,256.1816 2367.7344,257.2129 L2367.7344,258.3066 Q2367.7344,259.541 2368.625,260.3691 Q2369.5156,261.1816 2371.1094,261.1816 Q2372.0469,261.1816 2372.7031,260.9316 Q2373.0938,260.7754 2373.5156,260.3379 Q2373.7813,260.0723 2373.9219,259.9941 Q2374.0781,259.916 2374.2813,259.916 Q2374.6094,259.916 2374.8594,260.1816 Q2375.125,260.4316 2375.125,260.7754 Q2375.125,261.1191 2374.7813,261.5254 Q2374.2813,262.1035 2373.4844,262.4316 Q2372.4063,262.8848 2371.1094,262.8848 Q2369.5938,262.8848 2368.3906,262.2598 Q2367.4063,261.7598 2366.7188,260.6973 Q2366.0313,259.6191 2366.0313,258.3379 L2366.0313,257.1816 Q2366.0313,255.8535 2366.6406,254.7129 Q2367.2656,253.5566 2368.3594,252.9473 Q2369.4531,252.3223 2370.6875,252.3223 Q2371.4219,252.3223 2372.0625,252.4941 Q2372.7188,252.6504 2373.2656,253.0098 Z " fill="#000000"/><text fill="#000000" font-family="sans-serif" font-size="14" lengthAdjust="spacing" textLength="145" x="2384.5" y="262.9316">ContainmentDescriptor</text></g><!--class ReferenceDescriptor--><g id="elem_ReferenceDescriptor"><rect codeLine="14" fill="#F1F1F1" height="32" id="ReferenceDescriptor" rx="2.5" ry="2.5" style="stroke:#181818;stroke-width:0.5;" width="163" x="2567.5" y="241.1348"/><ellipse cx="2582.5" cy="257.1348" fill="#ADD1B2" rx="11" ry="11" style="stroke:#181818;stroke-width:1.0;"/><path d="M2585.2656,253.0098 Q2585.4219,252.791 2585.6094,252.6816 Q2585.7969,252.5723 2586.0156,252.5723 Q2586.3906,252.5723 2586.625,252.8379 Q2586.8594,253.0879 2586.8594,253.6973 L2586.8594,255.1504 Q2586.8594,255.7598 2586.625,256.0254 Q2586.3906,256.291 2586.0156,256.291 Q2585.6719,256.291 2585.4688,256.0879 Q2585.2656,255.9004 2585.1563,255.3848 Q2585.1094,255.0254 2584.9219,254.8379 Q2584.5938,254.4629 2583.9844,254.2441 Q2583.375,254.0254 2582.75,254.0254 Q2581.9844,254.0254 2581.3438,254.3535 Q2580.7188,254.6816 2580.2188,255.4316 Q2579.7344,256.1816 2579.7344,257.2129 L2579.7344,258.3066 Q2579.7344,259.541 2580.625,260.3691 Q2581.5156,261.1816 2583.1094,261.1816 Q2584.0469,261.1816 2584.7031,260.9316 Q2585.0938,260.7754 2585.5156,260.3379 Q2585.7813,260.0723 2585.9219,259.9941 Q2586.0781,259.916 2586.2813,259.916 Q2586.6094,259.916 2586.8594,260.1816 Q2587.125,260.4316 2587.125,260.7754 Q2587.125,261.1191 2586.7813,261.5254 Q2586.2813,262.1035 2585.4844,262.4316 Q2584.4063,262.8848 2583.1094,262.8848 Q2581.5938,262.8848 2580.3906,262.2598 Q2579.4063,261.7598 2578.7188,260.6973 Q2578.0313,259.6191 2578.0313,258.3379 L2578.0313,257.1816 Q2578.0313,255.8535 2578.6406,254.7129 Q2579.2656,253.5566 2580.3594,252.9473 Q2581.4531,252.3223 2582.6875,252.3223 Q2583.4219,252.3223 2584.0625,252.4941 Q2584.7188,252.6504 2585.2656,253.0098 Z " fill="#000000"/><text fill="#000000" font-family="sans-serif" font-size="14" lengthAdjust="spacing" textLength="131" x="2596.5" y="262.9316">ReferenceDescriptor</text></g><g id="elem_library"><rect fill="#F1F1F1" height="49.2422" style="stroke:#181818;stroke-width:0.5;" width="199" x="797.5" y="95.1348"/><text fill="#000000" font-family="sans-serif" font-size="14" lengthAdjust="spacing" textLength="47" x="804.5" y="112.2422">library :</text><text fill="#000000" font-family="sans-serif" font-size="14" lengthAdjust="spacing" text-decoration="underline" textLength="134" x="855.5" y="112.2422">MetamodelDescriptor</text><line style="stroke:#181818;stroke-width:0.5;" x1="798.5" x2="995.5" y1="117.7559" y2="117.7559"/><text fill="#000000" font-family="sans-serif" font-size="14" lengthAdjust="spacing" textLength="154" x="803.5" y="136.8633">qualifiedName = "library"</text></g><g id="elem_LibBoolean"><rect fill="#F1F1F1" height="49.2422" style="stroke:#181818;stroke-width:0.5;" width="247" x="1026.5" y="232.6348"/><text fill="#000000" font-family="sans-serif" font-size="14" lengthAdjust="spacing" textLength="79" x="1033.5" y="249.7422">LibBoolean :</text><text fill="#000000" font-family="sans-serif" font-size="14" lengthAdjust="spacing" text-decoration="underline" textLength="150" x="1116.5" y="249.7422">PrimitiveTypeDescriptor</text><line style="stroke:#181818;stroke-width:0.5;" x1="1027.5" x2="1272.5" y1="255.2559" y2="255.2559"/><text fill="#000000" font-family="sans-serif" font-size="14" lengthAdjust="spacing" textLength="173" x="1032.5" y="274.3633">simpleName = "LibBoolean"</text></g><g id="elem_LibString"><rect fill="#F1F1F1" height="49.2422" style="stroke:#181818;stroke-width:0.5;" width="232" x="1006" y="709.6348"/><text fill="#000000" font-family="sans-serif" font-size="14" lengthAdjust="spacing" textLength="64" x="1013" y="726.7422">LibString :</text><text fill="#000000" font-family="sans-serif" font-size="14" lengthAdjust="spacing" text-decoration="underline" textLength="150" x="1081" y="726.7422">PrimitiveTypeDescriptor</text><line style="stroke:#181818;stroke-width:0.5;" x1="1007" x2="1237" y1="732.2559" y2="732.2559"/><text fill="#000000" font-family="sans-serif" font-size="14" lengthAdjust="spacing" textLength="158" x="1012" y="751.3633">simpleName = "LibString"</text></g><g id="elem_LibInteger"><rect fill="#F1F1F1" height="49.2422" style="stroke:#181818;stroke-width:0.5;" width="239" x="1052.5" y="553.6348"/><text fill="#000000" font-family="sans-serif" font-size="14" lengthAdjust="spacing" textLength="71" x="1059.5" y="570.7422">LibInteger :</text><text fill="#000000" font-family="sans-serif" font-size="14" lengthAdjust="spacing" text-decoration="underline" textLength="150" x="1134.5" y="570.7422">PrimitiveTypeDescriptor</text><line style="stroke:#181818;stroke-width:0.5;" x1="1053.5" x2="1290.5" y1="576.2559" y2="576.2559"/><text fill="#000000" font-family="sans-serif" font-size="14" lengthAdjust="spacing" textLength="165" x="1058.5" y="595.3633">simpleName = "LibInteger"</text></g><g id="elem_Library"><rect fill="#90EE90" height="67.8633" style="stroke:#181818;stroke-width:0.5;" width="188" x="803" y="223.1348"/><text fill="#000000" font-family="sans-serif" font-size="14" lengthAdjust="spacing" textLength="52" x="810" y="240.2422">Library :</text><text fill="#000000" font-family="sans-serif" font-size="14" lengthAdjust="spacing" text-decoration="underline" textLength="118" x="866" y="240.2422">ConceptDescriptor</text><line style="stroke:#181818;stroke-width:0.5;" x1="804" x2="990" y1="245.7559" y2="245.7559"/><text fill="#000000" font-family="sans-serif" font-size="14" lengthAdjust="spacing" textLength="146" x="809" y="264.8633">simpleName = "Library"</text><text fill="#000000" font-family="sans-serif" font-size="14" lengthAdjust="spacing" textLength="97" x="809" y="283.4844">abstract = false</text></g><g id="elem_LibraryName"><rect fill="#FFB6C1" height="67.8633" style="stroke:#181818;stroke-width:0.5;" width="225" x="1905.5" y="223.1348"/><text fill="#000000" font-family="sans-serif" font-size="14" lengthAdjust="spacing" textLength="88" x="1912.5" y="240.2422">LibraryName :</text><text fill="#000000" font-family="sans-serif" font-size="14" lengthAdjust="spacing" text-decoration="underline" textLength="119" x="2004.5" y="240.2422">PropertyDescriptor</text><line style="stroke:#181818;stroke-width:0.5;" x1="1906.5" x2="2129.5" y1="245.7559" y2="245.7559"/><text fill="#000000" font-family="sans-serif" font-size="14" lengthAdjust="spacing" textLength="137" x="1911.5" y="264.8633">simpleName = "name"</text><text fill="#000000" font-family="sans-serif" font-size="14" lengthAdjust="spacing" textLength="96" x="1911.5" y="283.4844">optional = false</text></g><g id="elem_LibraryBooks"><rect fill="#ADD8E6" height="86.4844" style="stroke:#181818;stroke-width:0.5;" width="254" x="836" y="370.1348"/><text fill="#000000" font-family="sans-serif" font-size="14" lengthAdjust="spacing" textLength="91" x="843" y="387.2422">LibraryBooks :</text><text fill="#000000" font-family="sans-serif" font-size="14" lengthAdjust="spacing" text-decoration="underline" textLength="145" x="938" y="387.2422">ContainmentDescriptor</text><line style="stroke:#181818;stroke-width:0.5;" x1="837" x2="1089" y1="392.7559" y2="392.7559"/><text fill="#000000" font-family="sans-serif" font-size="14" lengthAdjust="spacing" textLength="140" x="842" y="411.8633">simpleName = "books"</text><text fill="#000000" font-family="sans-serif" font-size="14" lengthAdjust="spacing" textLength="96" x="842" y="430.4844">optional = false</text><text fill="#000000" font-family="sans-serif" font-size="14" lengthAdjust="spacing" textLength="89" x="842" y="449.1055">multiple = true</text></g><g id="elem_Book"><rect fill="#90EE90" height="67.8633" style="stroke:#181818;stroke-width:0.5;" width="176" x="554" y="379.1348"/><text fill="#000000" font-family="sans-serif" font-size="14" lengthAdjust="spacing" textLength="40" x="561" y="396.2422">Book :</text><text fill="#000000" font-family="sans-serif" font-size="14" lengthAdjust="spacing" text-decoration="underline" textLength="118" x="605" y="396.2422">ConceptDescriptor</text><line style="stroke:#181818;stroke-width:0.5;" x1="555" x2="729" y1="401.7559" y2="401.7559"/><text fill="#000000" font-family="sans-serif" font-size="14" lengthAdjust="spacing" textLength="134" x="560" y="420.8633">simpleName = "Book"</text><text fill="#000000" font-family="sans-serif" font-size="14" lengthAdjust="spacing" textLength="97" x="560" y="439.4844">abstract = false</text></g><g id="elem_BookTitle"><rect fill="#FFB6C1" height="67.8633" style="stroke:#181818;stroke-width:0.5;" width="204" x="295" y="544.1348"/><text fill="#000000" font-family="sans-serif" font-size="14" lengthAdjust="spacing" textLength="67" x="302" y="561.2422">BookTitle :</text><text fill="#000000" font-family="sans-serif" font-size="14" lengthAdjust="spacing" text-decoration="underline" textLength="119" x="373" y="561.2422">PropertyDescriptor</text><line style="stroke:#181818;stroke-width:0.5;" x1="296" x2="498" y1="566.7559" y2="566.7559"/><text fill="#000000" font-family="sans-serif" font-size="14" lengthAdjust="spacing" textLength="124" x="301" y="585.8633">simpleName = "title"</text><text fill="#000000" font-family="sans-serif" font-size="14" lengthAdjust="spacing" textLength="96" x="301" y="604.4844">optional = false</text></g><g id="elem_BookPages"><rect fill="#FFB6C1" height="67.8633" style="stroke:#181818;stroke-width:0.5;" width="217" x="534.5" y="544.1348"/><text fill="#000000" font-family="sans-serif" font-size="14" lengthAdjust="spacing" textLength="80" x="541.5" y="561.2422">BookPages :</text><text fill="#000000" font-family="sans-serif" font-size="14" lengthAdjust="spacing" text-decoration="underline" textLength="119" x="625.5" y="561.2422">PropertyDescriptor</text><line style="stroke:#181818;stroke-width:0.5;" x1="535.5" x2="750.5" y1="566.7559" y2="566.7559"/><text fill="#000000" font-family="sans-serif" font-size="14" lengthAdjust="spacing" textLength="141" x="540.5" y="585.8633">simpleName = "pages"</text><text fill="#000000" font-family="sans-serif" font-size="14" lengthAdjust="spacing" textLength="96" x="540.5" y="604.4844">optional = false</text></g><g id="elem_BookAuthor"><rect fill="#87CEFA" height="86.4844" style="stroke:#181818;stroke-width:0.5;" width="231" x="786.5" y="535.1348"/><text fill="#000000" font-family="sans-serif" font-size="14" lengthAdjust="spacing" textLength="82" x="793.5" y="552.2422">BookAuthor :</text><text fill="#000000" font-family="sans-serif" font-size="14" lengthAdjust="spacing" text-decoration="underline" textLength="131" x="879.5" y="552.2422">ReferenceDescriptor</text><line style="stroke:#181818;stroke-width:0.5;" x1="787.5" x2="1016.5" y1="557.7559" y2="557.7559"/><text fill="#000000" font-family="sans-serif" font-size="14" lengthAdjust="spacing" textLength="143" x="792.5" y="576.8633">simpleName = "author"</text><text fill="#000000" font-family="sans-serif" font-size="14" lengthAdjust="spacing" textLength="96" x="792.5" y="595.4844">optional = false</text><text fill="#000000" font-family="sans-serif" font-size="14" lengthAdjust="spacing" textLength="89" x="792.5" y="614.1055">multiple = true</text></g><g id="elem_Writer"><rect fill="#90EE90" height="67.8633" style="stroke:#181818;stroke-width:0.5;" width="182" x="7" y="544.1348"/><text fill="#000000" font-family="sans-serif" font-size="14" lengthAdjust="spacing" textLength="46" x="14" y="561.2422">Writer :</text><text fill="#000000" font-family="sans-serif" font-size="14" lengthAdjust="spacing" text-decoration="underline" textLength="118" x="64" y="561.2422">ConceptDescriptor</text><line style="stroke:#181818;stroke-width:0.5;" x1="8" x2="188" y1="566.7559" y2="566.7559"/><text fill="#000000" font-family="sans-serif" font-size="14" lengthAdjust="spacing" textLength="140" x="13" y="585.8633">simpleName = "Writer"</text><text fill="#000000" font-family="sans-serif" font-size="14" lengthAdjust="spacing" textLength="97" x="13" y="604.4844">abstract = false</text></g><g id="elem_WriterName"><rect fill="#FFB6C1" height="67.8633" style="stroke:#181818;stroke-width:0.5;" width="219" x="273.5" y="700.1348"/><text fill="#000000" font-family="sans-serif" font-size="14" lengthAdjust="spacing" textLength="82" x="280.5" y="717.2422">WriterName :</text><text fill="#000000" font-family="sans-serif" font-size="14" lengthAdjust="spacing" text-decoration="underline" textLength="119" x="366.5" y="717.2422">PropertyDescriptor</text><line style="stroke:#181818;stroke-width:0.5;" x1="274.5" x2="491.5" y1="722.7559" y2="722.7559"/><text fill="#000000" font-family="sans-serif" font-size="14" lengthAdjust="spacing" textLength="137" x="279.5" y="741.8633">simpleName = "name"</text><text fill="#000000" font-family="sans-serif" font-size="14" lengthAdjust="spacing" textLength="96" x="279.5" y="760.4844">optional = false</text></g><g id="elem_SpecialistBookWriter"><rect fill="#90EE90" height="67.8633" style="stroke:#181818;stroke-width:0.5;" width="274" x="1309" y="223.1348"/><text fill="#000000" font-family="sans-serif" font-size="14" lengthAdjust="spacing" textLength="138" x="1316" y="240.2422">SpecialistBookWriter :</text><text fill="#000000" font-family="sans-serif" font-size="14" lengthAdjust="spacing" text-decoration="underline" textLength="118" x="1458" y="240.2422">ConceptDescriptor</text><line style="stroke:#181818;stroke-width:0.5;" x1="1310" x2="1582" y1="245.7559" y2="245.7559"/><text fill="#000000" font-family="sans-serif" font-size="14" lengthAdjust="spacing" textLength="232" x="1315" y="264.8633">simpleName = "SpecialistBookWriter"</text><text fill="#000000" font-family="sans-serif" font-size="14" lengthAdjust="spacing" textLength="97" x="1315" y="283.4844">abstract = false</text></g><g id="elem_SpecialistBookWriterSubject"><rect fill="#FFB6C1" height="67.8633" style="stroke:#181818;stroke-width:0.5;" width="322" x="1223" y="379.1348"/><text fill="#000000" font-family="sans-serif" font-size="14" lengthAdjust="spacing" textLength="185" x="1230" y="396.2422">SpecialistBookWriterSubject :</text><text fill="#000000" font-family="sans-serif" font-size="14" lengthAdjust="spacing" text-decoration="underline" textLength="119" x="1419" y="396.2422">PropertyDescriptor</text><line style="stroke:#181818;stroke-width:0.5;" x1="1224" x2="1544" y1="401.7559" y2="401.7559"/><text fill="#000000" font-family="sans-serif" font-size="14" lengthAdjust="spacing" textLength="147" x="1229" y="420.8633">simpleName = "subject"</text><text fill="#000000" font-family="sans-serif" font-size="14" lengthAdjust="spacing" textLength="96" x="1229" y="439.4844">optional = false</text></g><g id="elem_GuideBookWriter"><rect fill="#90EE90" height="67.8633" style="stroke:#181818;stroke-width:0.5;" width="252" x="1618" y="223.1348"/><text fill="#000000" font-family="sans-serif" font-size="14" lengthAdjust="spacing" textLength="116" x="1625" y="240.2422">GuideBookWriter :</text><text fill="#000000" font-family="sans-serif" font-size="14" lengthAdjust="spacing" text-decoration="underline" textLength="118" x="1745" y="240.2422">ConceptDescriptor</text><line style="stroke:#181818;stroke-width:0.5;" x1="1619" x2="1869" y1="245.7559" y2="245.7559"/><text fill="#000000" font-family="sans-serif" font-size="14" lengthAdjust="spacing" textLength="210" x="1624" y="264.8633">simpleName = "GuideBookWriter"</text><text fill="#000000" font-family="sans-serif" font-size="14" lengthAdjust="spacing" textLength="97" x="1624" y="283.4844">abstract = false</text></g><g id="elem_GuideBookWriterCountries"><rect fill="#FFB6C1" height="67.8633" style="stroke:#181818;stroke-width:0.5;" width="314" x="1581" y="379.1348"/><text fill="#000000" font-family="sans-serif" font-size="14" lengthAdjust="spacing" textLength="177" x="1588" y="396.2422">GuideBookWriterCountries :</text><text fill="#000000" font-family="sans-serif" font-size="14" lengthAdjust="spacing" text-decoration="underline" textLength="119" x="1769" y="396.2422">PropertyDescriptor</text><line style="stroke:#181818;stroke-width:0.5;" x1="1582" x2="1894" y1="401.7559" y2="401.7559"/><text fill="#000000" font-family="sans-serif" font-size="14" lengthAdjust="spacing" textLength="160" x="1587" y="420.8633">simpleName = "countries"</text><text fill="#000000" font-family="sans-serif" font-size="14" lengthAdjust="spacing" textLength="96" x="1587" y="439.4844">optional = false</text></g><!--reverse link library to LibBoolean--><g id="link_library_LibBoolean"><path codeLine="25" d="M952.67,150.4448 C998.79,175.1548 1063.45,209.7848 1106.01,232.5748 " fill="none" id="library-backto-LibBoolean" style="stroke:#181818;stroke-width:1.0;"/><polygon fill="#181818" points="941.07,144.2348,944.4678,150.5952,951.6458,149.9051,948.248,143.5447,941.07,144.2348" style="stroke:#181818;stroke-width:1.0;"/><text fill="#000000" font-family="sans-serif" font-size="13" lengthAdjust="spacing" textLength="53" x="1033" y="189.1631">elements</text></g><!--reverse link library to LibString--><g id="link_library_LibString"><path codeLine="30" d="M783.97,121.1148 C596.58,124.9848 242,146.7748 242,256.1348 C242,256.1348 242,256.1348 242,579.1348 C242,603.4348 255.73,609.3848 277,621.1348 C399.8,689.0048 804.3,717.7848 1005.81,728.1448 " fill="none" id="library-backto-LibString" style="stroke:#181818;stroke-width:1.0;"/><polygon fill="#181818" points="797.16,120.8648,791.0863,116.9775,785.1621,121.0889,791.2358,124.9761,797.16,120.8648" style="stroke:#181818;stroke-width:1.0;"/><text fill="#000000" font-family="sans-serif" font-size="13" lengthAdjust="spacing" textLength="53" x="243" y="418.6631">elements</text></g><!--reverse link library to LibInteger--><g id="link_library_LibInteger"><path codeLine="35" d="M846.87,151.9348 C823.38,169.6348 797.81,194.0548 785,223.1348 C759.81,280.3248 813.42,450.9448 818,456.1348 C827.59,467.0048 995.91,521.5448 1096.95,553.5648 " fill="none" id="library-backto-LibInteger" style="stroke:#181818;stroke-width:1.0;"/><polygon fill="#181818" points="857.45,144.2848,850.2441,144.5596,847.7264,151.3169,854.9322,151.042,857.45,144.2848" style="stroke:#181818;stroke-width:1.0;"/><text fill="#000000" font-family="sans-serif" font-size="13" lengthAdjust="spacing" textLength="53" x="788" y="336.1631">elements</text></g><!--reverse link library to Library--><g id="link_library_Library"><path codeLine="41" d="M897,157.4848 C897,177.9048 897,203.0948 897,222.9048 " fill="none" id="library-backto-Library" style="stroke:#181818;stroke-width:1.0;"/><polygon fill="#181818" points="897,144.2348,893,150.2348,897,156.2348,901,150.2348,897,144.2348" style="stroke:#181818;stroke-width:1.0;"/><text fill="#000000" font-family="sans-serif" font-size="13" lengthAdjust="spacing" textLength="53" x="898" y="189.1631">elements</text></g><!--reverse link library to LibraryName--><g id="link_library_LibraryName"><path codeLine="47" d="M1010.03,126.5248 C1194.75,137.4448 1572.25,165.2048 1887,223.1348 C1893,224.2348 1899.13,225.4548 1905.3,226.7548 " fill="none" id="library-backto-LibraryName" style="stroke:#181818;stroke-width:1.0;"/><polygon fill="#181818" points="996.8,125.7548,1002.5522,130.1035,1008.7789,126.4664,1003.0266,122.1176,996.8,125.7548" style="stroke:#181818;stroke-width:1.0;"/><text fill="#000000" font-family="sans-serif" font-size="13" lengthAdjust="spacing" textLength="46" x="1701" y="189.1631">features</text></g><!--link LibraryName to LibString--><g id="link_LibraryName_LibString"><path codeLine="48" d="M2007.44,291.1348 C1992.31,333.9348 1960.78,408.6948 1912,456.1348 C1725.64,637.3748 1414.05,700.5748 1243.2,722.2048 " fill="none" id="LibraryName-to-LibString" style="stroke:#181818;stroke-width:1.0;"/><polygon fill="#181818" points="1238.18,722.8348,1247.6036,725.6976,1243.142,722.2199,1246.6198,717.7583,1238.18,722.8348" style="stroke:#181818;stroke-width:1.0;"/><text fill="#000000" font-family="sans-serif" font-size="13" lengthAdjust="spacing" textLength="25" x="1875" y="501.1631">type</text></g><!--reverse link Library to LibraryBooks--><g id="link_Library_LibraryBooks"><path codeLine="55" d="M916.4,303.3948 C925.43,324.4748 936.11,349.3948 944.97,370.0548 " fill="none" id="Library-backto-LibraryBooks" style="stroke:#181818;stroke-width:1.0;"/><polygon fill="#181818" points="911.16,291.1748,909.8521,298.2663,915.895,302.2011,917.2029,295.1096,911.16,291.1748" style="stroke:#181818;stroke-width:1.0;"/><text fill="#000000" font-family="sans-serif" font-size="13" lengthAdjust="spacing" textLength="46" x="933" y="336.1631">features</text></g><!--reverse link library to Book--><g id="link_library_Book"><path codeLine="61" d="M784.62,140.4448 C739.23,154.9348 692.16,179.9648 669,223.1348 C642.44,272.6448 639.21,339.4448 640.07,378.9348 " fill="none" id="library-backto-Book" style="stroke:#181818;stroke-width:1.0;"/><polygon fill="#181818" points="797.36,136.6348,790.4643,134.5254,785.865,140.0793,792.7607,142.1887,797.36,136.6348" style="stroke:#181818;stroke-width:1.0;"/><text fill="#000000" font-family="sans-serif" font-size="13" lengthAdjust="spacing" textLength="53" x="670" y="262.6631">elements</text></g><!--link LibraryBooks to Book--><g id="link_LibraryBooks_Book"><path codeLine="63" d="M835.97,413.1348 C802.33,413.1348 766.63,413.1348 735.15,413.1348 " fill="none" id="LibraryBooks-to-Book" style="stroke:#181818;stroke-width:1.0;"/><polygon fill="#181818" points="730.14,413.1348,739.14,417.1348,735.14,413.1348,739.14,409.1348,730.14,413.1348" style="stroke:#181818;stroke-width:1.0;"/><text fill="#000000" font-family="sans-serif" font-size="13" lengthAdjust="spacing" textLength="25" x="770.5" y="406.1631">type</text></g><!--reverse link Book to BookTitle--><g id="link_Book_BookTitle"><path codeLine="69" d="M541.55,440.9448 C512.62,451.8448 482.34,466.5848 458,486.1348 C438.72,501.6148 423.29,524.8448 412.77,543.9548 " fill="none" id="Book-backto-BookTitle" style="stroke:#181818;stroke-width:1.0;"/><polygon fill="#181818" points="553.85,436.5148,546.8483,434.7896,542.5629,440.5892,549.5646,442.3144,553.85,436.5148" style="stroke:#181818;stroke-width:1.0;"/><text fill="#000000" font-family="sans-serif" font-size="13" lengthAdjust="spacing" textLength="46" x="459" y="501.1631">features</text></g><!--link BookTitle to LibString--><g id="link_BookTitle_LibString"><path codeLine="70" d="M486.63,612.1848 C496.81,615.4348 507.08,618.4948 517,621.1348 C682.46,665.1248 877.89,697.9348 1000.9,716.3248 " fill="none" id="BookTitle-to-LibString" style="stroke:#181818;stroke-width:1.0;"/><polygon fill="#181818" points="1005.97,717.0748,997.6473,711.8086,1001.0231,716.3477,996.484,719.7235,1005.97,717.0748" style="stroke:#181818;stroke-width:1.0;"/><text fill="#000000" font-family="sans-serif" font-size="13" lengthAdjust="spacing" textLength="25" x="733" y="666.1631">type</text></g><!--reverse link Book to BookPages--><g id="link_Book_BookPages"><path codeLine="76" d="M642.29,460.7948 C642.45,487.4048 642.65,520.1248 642.8,544.0748 " fill="none" id="Book-backto-BookPages" style="stroke:#181818;stroke-width:1.0;"/><polygon fill="#181818" points="642.2,447.5148,638.2396,453.541,642.2791,459.5145,646.2395,453.4883,642.2,447.5148" style="stroke:#181818;stroke-width:1.0;"/><text fill="#000000" font-family="sans-serif" font-size="13" lengthAdjust="spacing" textLength="46" x="644" y="501.1631">features</text></g><!--link BookPages to LibInteger--><g id="link_BookPages_LibInteger"><path codeLine="77" d="M677.88,543.9148 C697.71,526.8948 724.03,508.0748 751.5,499.1348 C779.57,489.9948 756.41,472.3148 1035,535.1348 C1055.18,539.6848 1076.66,545.8048 1096.5,551.9948 " fill="none" id="BookPages-to-LibInteger" style="stroke:#181818;stroke-width:1.0;"/><polygon fill="#181818" points="1101.5,553.5648,1094.1139,547.0498,1096.7301,552.0653,1091.7147,554.6815,1101.5,553.5648" style="stroke:#181818;stroke-width:1.0;"/><text fill="#000000" font-family="sans-serif" font-size="13" lengthAdjust="spacing" textLength="25" x="752.5" y="501.1631">type</text></g><!--reverse link Book to BookAuthor--><g id="link_Book_BookAuthor"><path codeLine="84" d="M722.4,453.3248 C741.61,463.4348 761.81,474.7048 780,486.1348 C803.49,500.8948 828.24,518.8548 849.26,534.9048 " fill="none" id="Book-backto-BookAuthor" style="stroke:#181818;stroke-width:1.0;"/><polygon fill="#181818" points="710.59,447.1848,714.0657,453.503,721.2347,452.7247,717.759,446.4065,710.59,447.1848" style="stroke:#181818;stroke-width:1.0;"/><text fill="#000000" font-family="sans-serif" font-size="13" lengthAdjust="spacing" textLength="46" x="809" y="501.1631">features</text></g><!--reverse link library to Writer--><g id="link_library_Writer"><path codeLine="90" d="M784.31,122.9448 C602.5,127.6348 260.24,140.8148 216,174.1348 C97.79,263.1748 92.86,464.4148 95.88,543.9148 " fill="none" id="library-backto-Writer" style="stroke:#181818;stroke-width:1.0;"/><polygon fill="#181818" points="797.38,122.6148,791.2808,118.7676,785.3838,122.918,791.483,126.7651,797.38,122.6148" style="stroke:#181818;stroke-width:1.0;"/><text fill="#000000" font-family="sans-serif" font-size="13" lengthAdjust="spacing" textLength="53" x="122" y="336.1631">elements</text></g><!--link BookAuthor to Writer--><g id="link_BookAuthor_Writer"><path codeLine="92" d="M786.24,539.5348 C780.44,537.9648 774.66,536.4948 769,535.1348 C769,535.1348 277,535.1348 277,535.1348 C249.98,540.4148 220.88,547.0148 194.15,553.4448 " fill="none" id="BookAuthor-to-Writer" style="stroke:#181818;stroke-width:1.0;"/><polygon fill="#181818" points="189.19,554.6348,198.877,556.4132,194.0506,553.4625,197.0013,548.6362,189.19,554.6348" style="stroke:#181818;stroke-width:1.0;"/><text fill="#000000" font-family="sans-serif" font-size="13" lengthAdjust="spacing" textLength="25" x="515.5" y="501.1631">type</text></g><!--reverse link Writer to WriterName--><g id="link_Writer_WriterName"><path codeLine="98" d="M123.83,623.7548 C135.44,640.4048 150.49,658.1548 168,670.1348 C199.14,691.4448 237.55,705.6448 273.25,715.0748 " fill="none" id="Writer-backto-WriterName" style="stroke:#181818;stroke-width:1.0;"/><polygon fill="#181818" points="116.36,612.4848,116.3402,619.6958,122.989,622.4876,123.0088,615.2765,116.36,612.4848" style="stroke:#181818;stroke-width:1.0;"/><text fill="#000000" font-family="sans-serif" font-size="13" lengthAdjust="spacing" textLength="46" x="169" y="666.1631">features</text></g><!--link WriterName to LibString--><g id="link_WriterName_LibString"><path codeLine="99" d="M492.84,734.1348 C628.7,734.1348 859.27,734.1348 1000.36,734.1348 " fill="none" id="WriterName-to-LibString" style="stroke:#181818;stroke-width:1.0;"/><polygon fill="#181818" points="1005.76,734.1348,996.76,730.1348,1000.76,734.1348,996.76,738.1348,1005.76,734.1348" style="stroke:#181818;stroke-width:1.0;"/><text fill="#000000" font-family="sans-serif" font-size="13" lengthAdjust="spacing" textLength="25" x="736.75" y="727.1631">type</text></g><!--reverse link library to SpecialistBookWriter--><g id="link_library_SpecialistBookWriter"><path codeLine="105" d="M1005.03,147.2948 C1093.09,169.0348 1217.88,199.8348 1312.25,223.1248 " fill="none" id="library-backto-SpecialistBookWriter" style="stroke:#181818;stroke-width:1.0;"/><polygon fill="#181818" points="992.31,144.1548,997.1777,149.475,1003.961,147.028,999.0932,141.7077,992.31,144.1548" style="stroke:#181818;stroke-width:1.0;"/><text fill="#000000" font-family="sans-serif" font-size="13" lengthAdjust="spacing" textLength="53" x="1189" y="189.1631">elements</text></g><!--reverse link SpecialistBookWriter to SpecialistBookWriterSubject--><g id="link_SpecialistBookWriter_SpecialistBookWriterSubject"><path codeLine="111" d="M1427.82,303.2948 C1418.07,327.4948 1406.28,356.7948 1397.39,378.8848 " fill="none" id="SpecialistBookWriter-backto-SpecialistBookWriterSubject" style="stroke:#181818;stroke-width:1.0;"/><polygon fill="#181818" points="1432.7,291.1748,1426.7494,295.2479,1428.2206,302.3074,1434.1712,298.2342,1432.7,291.1748" style="stroke:#181818;stroke-width:1.0;"/><text fill="#000000" font-family="sans-serif" font-size="13" lengthAdjust="spacing" textLength="46" x="1422" y="336.1631">features</text></g><!--link SpecialistBookWriterSubject to LibString--><g id="link_SpecialistBookWriterSubject_LibString"><path codeLine="112" d="M1379.07,447.3148 C1371.08,491.2948 1351.67,569.3748 1309,621.1348 C1276.96,659.9948 1227.7,688.7248 1187.77,707.3448 " fill="none" id="SpecialistBookWriterSubject-to-LibString" style="stroke:#181818;stroke-width:1.0;"/><polygon fill="#181818" points="1182.95,709.5748,1192.7978,709.4292,1187.4885,707.4768,1189.441,702.1675,1182.95,709.5748" style="stroke:#181818;stroke-width:1.0;"/><text fill="#000000" font-family="sans-serif" font-size="13" lengthAdjust="spacing" textLength="25" x="1356" y="583.6631">type</text></g><!--reverse link library to GuideBookWriter--><g id="link_library_GuideBookWriter"><path codeLine="118" d="M1009.81,134.2348 C1149.06,151.6848 1392.86,184.3648 1600,223.1348 C1605.8,224.2248 1611.72,225.3748 1617.69,226.5848 " fill="none" id="library-backto-GuideBookWriter" style="stroke:#181818;stroke-width:1.0;"/><polygon fill="#181818" points="996.67,132.5948,1002.1269,137.3088,1008.5771,134.0848,1003.1202,129.3707,996.67,132.5948" style="stroke:#181818;stroke-width:1.0;"/><text fill="#000000" font-family="sans-serif" font-size="13" lengthAdjust="spacing" textLength="53" x="1409" y="189.1631">elements</text></g><!--reverse link GuideBookWriter to GuideBookWriterCountries--><g id="link_GuideBookWriter_GuideBookWriterCountries"><path codeLine="124" d="M1742.2,304.2948 C1741.27,328.3048 1740.14,357.0948 1739.3,378.8848 " fill="none" id="GuideBookWriter-backto-GuideBookWriterCountries" style="stroke:#181818;stroke-width:1.0;"/><polygon fill="#181818" points="1742.71,291.1748,1738.4821,297.0164,1742.2483,303.1659,1746.4762,297.3242,1742.71,291.1748" style="stroke:#181818;stroke-width:1.0;"/><text fill="#000000" font-family="sans-serif" font-size="13" lengthAdjust="spacing" textLength="46" x="1743" y="336.1631">features</text></g><!--link GuideBookWriterCountries to LibString--><g id="link_GuideBookWriterCountries_LibString"><path codeLine="125" d="M1688.98,447.3048 C1609.11,500.2048 1444.66,604.3748 1294,670.1348 C1262.74,683.7748 1227.48,697.0448 1197.06,707.8648 " fill="none" id="GuideBookWriterCountries-to-LibString" style="stroke:#181818;stroke-width:1.0;"/><polygon fill="#181818" points="1192.22,709.5748,1202.0393,710.3373,1196.9326,707.9039,1199.366,702.7972,1192.22,709.5748" style="stroke:#181818;stroke-width:1.0;"/><text fill="#000000" font-family="sans-serif" font-size="13" lengthAdjust="spacing" textLength="25" x="1548" y="583.6631">type</text></g><!--SRC=[fLPDZzCm4BtdLvWUaRgLu5PbAx4BGaXRjDgknDbDfwsfanXxWgWG_nqxpeUJseaHlRJolF6yUVCw2JBaG5wg0baEPFkEFB6zfF9AFlsYkU2G96Ts00Avm2l98T-3LFP88KWeyIf09SaRLcIyqgTtTol1QO5LpfVgJ2KSLj9UlbGNLWWgQNudT3H91Cqkz0HaiNrF3g0ooGIMKYt8xuJeJyQfKcGBIFFo0FnZXt2YpvBb3DbFUDKql8Z7iiX0O22x523n6af4oeeS2d_o2nnr__hoKJJvaoJb_ZjaI1QyqN9DqchZwIHTLPi5eOeqm3JjG9jD8yEFYd9sP73uIlM0xhjB5suXFRI7ikH02rihe4jNhyUdwG3RbLNCJB-jsUDDsRQjjykbSzEQ00SZbnhmsg5anIcQbeL7ix9m3oaR273wKY2SG4QJQl3Hh1gyXrOJ2V3gpN9ZMvUEjKe32REmBZ4XkbSegIvoJuwKAxZbPNvFaAflRTGQ_sV6p0pMA6Ln0Ng5_hRSIe6iB2YVvcRorkG852kfzurBQxbnvstsqGrzxT2BweIz_LkFMwZnjS8jDj36tW03VPZ3lEB8D5uVegnCRq-tlTNLdEOwzYOmPmU3cVE2mKGPmG1T5mpaqphR-51YS_PQFqJc_D4XPzs11XMqHorBIxU-q16lfpFb2uDwriyU5KMwHiwI5WOLHxg-S4JQqh6akorno_f3XUUosLoUHz20jyMcQOSBCASrxfziF6Z7rl4v-9jasExPi8SjQix55XNbOmjrdUn8foLkuqDvxMdKgkkX_xVf6drwpgCzvr2QilDEGCRqQu92qsUSwBwSkH7uSg86ualqFMvyk5rbWtCpcSYT7PAokE2Sl0A76ckAEcESQcjghfyh_Q8TFz8HV6wQ8tZK84SvlXcE88-bVlsNB6BLXX9dfvUroE3yna9wMkdAENCBjk8Rsby0]--></g></svg>