<?xml version="1.0" encoding="UTF-8" standalone="no"?><svg xmlns="http://www.w3.org/2000/svg" xmlns:xlink="http://www.w3.org/1999/xlink" contentStyleType="text/css" height="387px" preserveAspectRatio="none" style="width:4365px;height:387px;background:#FFFFFF;" version="1.1" viewBox="0 0 4365 387" width="4365px" zoomAndPan="magnify"><defs/><g><text fill="#000000" font-family="sans-serif" font-size="14" font-weight="bold" lengthAdjust="spacing" textLength="198" x="2076.5" y="25.1074">Dynamic M2 Library Example</text><!--cluster M3 runtime--><g id="cluster_M3 runtime"><path d="M1743.5,45.6348 L1823.5,45.6348 A3.75,3.75 0 0 1 1826,48.1348 L1833,70.2559 L2578.5,70.2559 A2.5,2.5 0 0 1 2581,72.7559 L2581,128.1348 A2.5,2.5 0 0 1 2578.5,130.6348 L1743.5,130.6348 A2.5,2.5 0 0 1 1741,128.1348 L1741,48.1348 A2.5,2.5 0 0 1 1743.5,45.6348 " fill="none" style="stroke:#000000;stroke-width:1.5;"/><line style="stroke:#000000;stroke-width:1.5;" x1="1741" x2="1833" y1="70.2559" y2="70.2559"/><text fill="#000000" font-family="sans-serif" font-size="14" font-weight="bold" lengthAdjust="spacing" textLength="79" x="1745" y="62.7422">M3 runtime</text></g><!--cluster M3 dynamic--><g id="cluster_M3 dynamic"><path d="M1578.5,181.6348 L1661.5,181.6348 A3.75,3.75 0 0 1 1664,184.1348 L1671,206.2559 L2704.5,206.2559 A2.5,2.5 0 0 1 2707,208.7559 L2707,264.1348 A2.5,2.5 0 0 1 2704.5,266.6348 L1578.5,266.6348 A2.5,2.5 0 0 1 1576,264.1348 L1576,184.1348 A2.5,2.5 0 0 1 1578.5,181.6348 " fill="none" style="stroke:#000000;stroke-width:1.5;"/><line style="stroke:#000000;stroke-width:1.5;" x1="1576" x2="1671" y1="206.2559" y2="206.2559"/><text fill="#000000" font-family="sans-serif" font-size="14" font-weight="bold" lengthAdjust="spacing" textLength="82" x="1580" y="198.7422">M3 dynamic</text></g><!--class Metamodel--><g id="elem_Metamodel"><rect codeLine="9" fill="#F1F1F1" height="32" id="Metamodel" rx="2.5" ry="2.5" style="stroke:#181818;stroke-width:0.5;" width="102" x="1757" y="82.6348"/><ellipse cx="1772" cy="98.6348" fill="#B4A7E5" rx="11" ry="11" style="stroke:#181818;stroke-width:1.0;"/><path d="M1772.9531,95.2754 L1772.9531,101.9316 L1774.6719,101.9316 Q1775.2813,101.9316 1775.5469,102.166 Q1775.8125,102.4004 1775.8125,102.791 Q1775.8125,103.166 1775.5469,103.4004 Q1775.2813,103.6348 1774.6719,103.6348 L1769.5313,103.6348 Q1768.9219,103.6348 1768.6563,103.4004 Q1768.3906,103.166 1768.3906,102.7754 Q1768.3906,102.4004 1768.6563,102.166 Q1768.9219,101.9316 1769.5313,101.9316 L1771.25,101.9316 L1771.25,95.2754 L1769.5313,95.2754 Q1768.9219,95.2754 1768.6563,95.041 Q1768.3906,94.8066 1768.3906,94.416 Q1768.3906,94.041 1768.6563,93.8066 Q1768.9219,93.5723 1769.5313,93.5723 L1774.6719,93.5723 Q1775.2813,93.5723 1775.5469,93.8066 Q1775.8125,94.041 1775.8125,94.416 Q1775.8125,94.8066 1775.5469,95.041 Q1775.2813,95.2754 1774.6719,95.2754 L1772.9531,95.2754 Z " fill="#000000"/><text fill="#000000" font-family="sans-serif" font-size="14" font-style="italic" lengthAdjust="spacing" textLength="70" x="1786" y="104.4316">Metamodel</text></g><!--class PrimitiveType--><g id="elem_PrimitiveType"><rect codeLine="11" fill="#F1F1F1" height="32" id="PrimitiveType" rx="2.5" ry="2.5" style="stroke:#181818;stroke-width:0.5;" width="116" x="1894" y="82.6348"/><ellipse cx="1909" cy="98.6348" fill="#B4A7E5" rx="11" ry="11" style="stroke:#181818;stroke-width:1.0;"/><path d="M1909.9531,95.2754 L1909.9531,101.9316 L1911.6719,101.9316 Q1912.2813,101.9316 1912.5469,102.166 Q1912.8125,102.4004 1912.8125,102.791 Q1912.8125,103.166 1912.5469,103.4004 Q1912.2813,103.6348 1911.6719,103.6348 L1906.5313,103.6348 Q1905.9219,103.6348 1905.6563,103.4004 Q1905.3906,103.166 1905.3906,102.7754 Q1905.3906,102.4004 1905.6563,102.166 Q1905.9219,101.9316 1906.5313,101.9316 L1908.25,101.9316 L1908.25,95.2754 L1906.5313,95.2754 Q1905.9219,95.2754 1905.6563,95.041 Q1905.3906,94.8066 1905.3906,94.416 Q1905.3906,94.041 1905.6563,93.8066 Q1905.9219,93.5723 1906.5313,93.5723 L1911.6719,93.5723 Q1912.2813,93.5723 1912.5469,93.8066 Q1912.8125,94.041 1912.8125,94.416 Q1912.8125,94.8066 1912.5469,95.041 Q1912.2813,95.2754 1911.6719,95.2754 L1909.9531,95.2754 Z " fill="#000000"/><text fill="#000000" font-family="sans-serif" font-size="14" font-style="italic" lengthAdjust="spacing" textLength="84" x="1923" y="104.4316">PrimitiveType</text></g><!--class Concept--><g id="elem_Concept"><rect codeLine="13" fill="#F1F1F1" height="32" id="Concept" rx="2.5" ry="2.5" style="stroke:#181818;stroke-width:0.5;" width="85" x="2045.5" y="82.6348"/><ellipse cx="2060.5" cy="98.6348" fill="#B4A7E5" rx="11" ry="11" style="stroke:#181818;stroke-width:1.0;"/><path d="M2061.4531,95.2754 L2061.4531,101.9316 L2063.1719,101.9316 Q2063.7813,101.9316 2064.0469,102.166 Q2064.3125,102.4004 2064.3125,102.791 Q2064.3125,103.166 2064.0469,103.4004 Q2063.7813,103.6348 2063.1719,103.6348 L2058.0313,103.6348 Q2057.4219,103.6348 2057.1563,103.4004 Q2056.8906,103.166 2056.8906,102.7754 Q2056.8906,102.4004 2057.1563,102.166 Q2057.4219,101.9316 2058.0313,101.9316 L2059.75,101.9316 L2059.75,95.2754 L2058.0313,95.2754 Q2057.4219,95.2754 2057.1563,95.041 Q2056.8906,94.8066 2056.8906,94.416 Q2056.8906,94.041 2057.1563,93.8066 Q2057.4219,93.5723 2058.0313,93.5723 L2063.1719,93.5723 Q2063.7813,93.5723 2064.0469,93.8066 Q2064.3125,94.041 2064.3125,94.416 Q2064.3125,94.8066 2064.0469,95.041 Q2063.7813,95.2754 2063.1719,95.2754 L2061.4531,95.2754 Z " fill="#000000"/><text fill="#000000" font-family="sans-serif" font-size="14" font-style="italic" lengthAdjust="spacing" textLength="53" x="2074.5" y="104.4316">Concept</text></g><!--class Property--><g id="elem_Property"><rect codeLine="15" fill="#F1F1F1" height="32" id="Property" rx="2.5" ry="2.5" style="stroke:#181818;stroke-width:0.5;" width="97" x="2165.5" y="82.6348"/><ellipse cx="2180.5" cy="98.6348" fill="#B4A7E5" rx="11" ry="11" style="stroke:#181818;stroke-width:1.0;"/><path d="M2181.4531,95.2754 L2181.4531,101.9316 L2183.1719,101.9316 Q2183.7813,101.9316 2184.0469,102.166 Q2184.3125,102.4004 2184.3125,102.791 Q2184.3125,103.166 2184.0469,103.4004 Q2183.7813,103.6348 2183.1719,103.6348 L2178.0313,103.6348 Q2177.4219,103.6348 2177.1563,103.4004 Q2176.8906,103.166 2176.8906,102.7754 Q2176.8906,102.4004 2177.1563,102.166 Q2177.4219,101.9316 2178.0313,101.9316 L2179.75,101.9316 L2179.75,95.2754 L2178.0313,95.2754 Q2177.4219,95.2754 2177.1563,95.041 Q2176.8906,94.8066 2176.8906,94.416 Q2176.8906,94.041 2177.1563,93.8066 Q2177.4219,93.5723 2178.0313,93.5723 L2183.1719,93.5723 Q2183.7813,93.5723 2184.0469,93.8066 Q2184.3125,94.041 2184.3125,94.416 Q2184.3125,94.8066 2184.0469,95.041 Q2183.7813,95.2754 2183.1719,95.2754 L2181.4531,95.2754 Z " fill="#000000"/><text fill="#000000" font-family="sans-serif" font-size="14" font-style="italic" lengthAdjust="spacing" textLength="54" x="2194.5" y="104.4316">Property</text><rect fill="#FFFFFF" height="17.9609" style="stroke:#181818;stroke-width:1.0;stroke-dasharray:2.0,2.0;" width="9" x="2256.5" y="79.6348"/><text fill="#000000" font-family="sans-serif" font-size="12" font-style="italic" lengthAdjust="spacing" textLength="7" x="2257.5" y="93.584">T</text></g><!--class Containment--><g id="elem_Containment"><rect codeLine="17" fill="#F1F1F1" height="32" id="Containment" rx="2.5" ry="2.5" style="stroke:#181818;stroke-width:0.5;" width="123" x="2297.5" y="82.6348"/><ellipse cx="2312.5" cy="98.6348" fill="#B4A7E5" rx="11" ry="11" style="stroke:#181818;stroke-width:1.0;"/><path d="M2313.4531,95.2754 L2313.4531,101.9316 L2315.1719,101.9316 Q2315.7813,101.9316 2316.0469,102.166 Q2316.3125,102.4004 2316.3125,102.791 Q2316.3125,103.166 2316.0469,103.4004 Q2315.7813,103.6348 2315.1719,103.6348 L2310.0313,103.6348 Q2309.4219,103.6348 2309.1563,103.4004 Q2308.8906,103.166 2308.8906,102.7754 Q2308.8906,102.4004 2309.1563,102.166 Q2309.4219,101.9316 2310.0313,101.9316 L2311.75,101.9316 L2311.75,95.2754 L2310.0313,95.2754 Q2309.4219,95.2754 2309.1563,95.041 Q2308.8906,94.8066 2308.8906,94.416 Q2308.8906,94.041 2309.1563,93.8066 Q2309.4219,93.5723 2310.0313,93.5723 L2315.1719,93.5723 Q2315.7813,93.5723 2316.0469,93.8066 Q2316.3125,94.041 2316.3125,94.416 Q2316.3125,94.8066 2316.0469,95.041 Q2315.7813,95.2754 2315.1719,95.2754 L2313.4531,95.2754 Z " fill="#000000"/><text fill="#000000" font-family="sans-serif" font-size="14" font-style="italic" lengthAdjust="spacing" textLength="80" x="2326.5" y="104.4316">Containment</text><rect fill="#FFFFFF" height="17.9609" style="stroke:#181818;stroke-width:1.0;stroke-dasharray:2.0,2.0;" width="9" x="2414.5" y="79.6348"/><text fill="#000000" font-family="sans-serif" font-size="12" font-style="italic" lengthAdjust="spacing" textLength="7" x="2415.5" y="93.584">T</text></g><!--class Reference--><g id="elem_Reference"><rect codeLine="19" fill="#F1F1F1" height="32" id="Reference" rx="2.5" ry="2.5" style="stroke:#181818;stroke-width:0.5;" width="109" x="2455.5" y="82.6348"/><ellipse cx="2470.5" cy="98.6348" fill="#B4A7E5" rx="11" ry="11" style="stroke:#181818;stroke-width:1.0;"/><path d="M2471.4531,95.2754 L2471.4531,101.9316 L2473.1719,101.9316 Q2473.7813,101.9316 2474.0469,102.166 Q2474.3125,102.4004 2474.3125,102.791 Q2474.3125,103.166 2474.0469,103.4004 Q2473.7813,103.6348 2473.1719,103.6348 L2468.0313,103.6348 Q2467.4219,103.6348 2467.1563,103.4004 Q2466.8906,103.166 2466.8906,102.7754 Q2466.8906,102.4004 2467.1563,102.166 Q2467.4219,101.9316 2468.0313,101.9316 L2469.75,101.9316 L2469.75,95.2754 L2468.0313,95.2754 Q2467.4219,95.2754 2467.1563,95.041 Q2466.8906,94.8066 2466.8906,94.416 Q2466.8906,94.041 2467.1563,93.8066 Q2467.4219,93.5723 2468.0313,93.5723 L2473.1719,93.5723 Q2473.7813,93.5723 2474.0469,93.8066 Q2474.3125,94.041 2474.3125,94.416 Q2474.3125,94.8066 2474.0469,95.041 Q2473.7813,95.2754 2473.1719,95.2754 L2471.4531,95.2754 Z " fill="#000000"/><text fill="#000000" font-family="sans-serif" font-size="14" font-style="italic" lengthAdjust="spacing" textLength="66" x="2484.5" y="104.4316">Reference</text><rect fill="#FFFFFF" height="17.9609" style="stroke:#181818;stroke-width:1.0;stroke-dasharray:2.0,2.0;" width="9" x="2558.5" y="79.6348"/><text fill="#000000" font-family="sans-serif" font-size="12" font-style="italic" lengthAdjust="spacing" textLength="7" x="2559.5" y="93.584">T</text></g><!--class DynamicMetamodel--><g id="elem_DynamicMetamodel"><rect codeLine="23" fill="#F1F1F1" height="32" id="DynamicMetamodel" rx="2.5" ry="2.5" style="stroke:#181818;stroke-width:0.5;" width="155" x="1592.5" y="218.6348"/><ellipse cx="1607.5" cy="234.6348" fill="#ADD1B2" rx="11" ry="11" style="stroke:#181818;stroke-width:1.0;"/><path d="M1610.2656,230.5098 Q1610.4219,230.291 1610.6094,230.1816 Q1610.7969,230.0723 1611.0156,230.0723 Q1611.3906,230.0723 1611.625,230.3379 Q1611.8594,230.5879 1611.8594,231.1973 L1611.8594,232.6504 Q1611.8594,233.2598 1611.625,233.5254 Q1611.3906,233.791 1611.0156,233.791 Q1610.6719,233.791 1610.4688,233.5879 Q1610.2656,233.4004 1610.1563,232.8848 Q1610.1094,232.5254 1609.9219,232.3379 Q1609.5938,231.9629 1608.9844,231.7441 Q1608.375,231.5254 1607.75,231.5254 Q1606.9844,231.5254 1606.3438,231.8535 Q1605.7188,232.1816 1605.2188,232.9316 Q1604.7344,233.6816 1604.7344,234.7129 L1604.7344,235.8066 Q1604.7344,237.041 1605.625,237.8691 Q1606.5156,238.6816 1608.1094,238.6816 Q1609.0469,238.6816 1609.7031,238.4316 Q1610.0938,238.2754 1610.5156,237.8379 Q1610.7813,237.5723 1610.9219,237.4941 Q1611.0781,237.416 1611.2813,237.416 Q1611.6094,237.416 1611.8594,237.6816 Q1612.125,237.9316 1612.125,238.2754 Q1612.125,238.6191 1611.7813,239.0254 Q1611.2813,239.6035 1610.4844,239.9316 Q1609.4063,240.3848 1608.1094,240.3848 Q1606.5938,240.3848 1605.3906,239.7598 Q1604.4063,239.2598 1603.7188,238.1973 Q1603.0313,237.1191 1603.0313,235.8379 L1603.0313,234.6816 Q1603.0313,233.3535 1603.6406,232.2129 Q1604.2656,231.0566 1605.3594,230.4473 Q1606.4531,229.8223 1607.6875,229.8223 Q1608.4219,229.8223 1609.0625,229.9941 Q1609.7188,230.1504 1610.2656,230.5098 Z " fill="#000000"/><text fill="#000000" font-family="sans-serif" font-size="14" lengthAdjust="spacing" textLength="123" x="1621.5" y="240.4316">DynamicMetamodel</text></g><!--class DynamicPrimitiveType--><g id="elem_DynamicPrimitiveType"><rect codeLine="25" fill="#F1F1F1" height="32" id="DynamicPrimitiveType" rx="2.5" ry="2.5" style="stroke:#181818;stroke-width:0.5;" width="171" x="1782.5" y="218.6348"/><ellipse cx="1797.5" cy="234.6348" fill="#ADD1B2" rx="11" ry="11" style="stroke:#181818;stroke-width:1.0;"/><path d="M1800.2656,230.5098 Q1800.4219,230.291 1800.6094,230.1816 Q1800.7969,230.0723 1801.0156,230.0723 Q1801.3906,230.0723 1801.625,230.3379 Q1801.8594,230.5879 1801.8594,231.1973 L1801.8594,232.6504 Q1801.8594,233.2598 1801.625,233.5254 Q1801.3906,233.791 1801.0156,233.791 Q1800.6719,233.791 1800.4688,233.5879 Q1800.2656,233.4004 1800.1563,232.8848 Q1800.1094,232.5254 1799.9219,232.3379 Q1799.5938,231.9629 1798.9844,231.7441 Q1798.375,231.5254 1797.75,231.5254 Q1796.9844,231.5254 1796.3438,231.8535 Q1795.7188,232.1816 1795.2188,232.9316 Q1794.7344,233.6816 1794.7344,234.7129 L1794.7344,235.8066 Q1794.7344,237.041 1795.625,237.8691 Q1796.5156,238.6816 1798.1094,238.6816 Q1799.0469,238.6816 1799.7031,238.4316 Q1800.0938,238.2754 1800.5156,237.8379 Q1800.7813,237.5723 1800.9219,237.4941 Q1801.0781,237.416 1801.2813,237.416 Q1801.6094,237.416 1801.8594,237.6816 Q1802.125,237.9316 1802.125,238.2754 Q1802.125,238.6191 1801.7813,239.0254 Q1801.2813,239.6035 1800.4844,239.9316 Q1799.4063,240.3848 1798.1094,240.3848 Q1796.5938,240.3848 1795.3906,239.7598 Q1794.4063,239.2598 1793.7188,238.1973 Q1793.0313,237.1191 1793.0313,235.8379 L1793.0313,234.6816 Q1793.0313,233.3535 1793.6406,232.2129 Q1794.2656,231.0566 1795.3594,230.4473 Q1796.4531,229.8223 1797.6875,229.8223 Q1798.4219,229.8223 1799.0625,229.9941 Q1799.7188,230.1504 1800.2656,230.5098 Z " fill="#000000"/><text fill="#000000" font-family="sans-serif" font-size="14" lengthAdjust="spacing" textLength="139" x="1811.5" y="240.4316">DynamicPrimitiveType</text></g><!--class DynamicConcept--><g id="elem_DynamicConcept"><rect codeLine="27" fill="#F1F1F1" height="32" id="DynamicConcept" rx="2.5" ry="2.5" style="stroke:#181818;stroke-width:0.5;" width="139" x="1988.5" y="218.6348"/><ellipse cx="2003.5" cy="234.6348" fill="#ADD1B2" rx="11" ry="11" style="stroke:#181818;stroke-width:1.0;"/><path d="M2006.2656,230.5098 Q2006.4219,230.291 2006.6094,230.1816 Q2006.7969,230.0723 2007.0156,230.0723 Q2007.3906,230.0723 2007.625,230.3379 Q2007.8594,230.5879 2007.8594,231.1973 L2007.8594,232.6504 Q2007.8594,233.2598 2007.625,233.5254 Q2007.3906,233.791 2007.0156,233.791 Q2006.6719,233.791 2006.4688,233.5879 Q2006.2656,233.4004 2006.1563,232.8848 Q2006.1094,232.5254 2005.9219,232.3379 Q2005.5938,231.9629 2004.9844,231.7441 Q2004.375,231.5254 2003.75,231.5254 Q2002.9844,231.5254 2002.3438,231.8535 Q2001.7188,232.1816 2001.2188,232.9316 Q2000.7344,233.6816 2000.7344,234.7129 L2000.7344,235.8066 Q2000.7344,237.041 2001.625,237.8691 Q2002.5156,238.6816 2004.1094,238.6816 Q2005.0469,238.6816 2005.7031,238.4316 Q2006.0938,238.2754 2006.5156,237.8379 Q2006.7813,237.5723 2006.9219,237.4941 Q2007.0781,237.416 2007.2813,237.416 Q2007.6094,237.416 2007.8594,237.6816 Q2008.125,237.9316 2008.125,238.2754 Q2008.125,238.6191 2007.7813,239.0254 Q2007.2813,239.6035 2006.4844,239.9316 Q2005.4063,240.3848 2004.1094,240.3848 Q2002.5938,240.3848 2001.3906,239.7598 Q2000.4063,239.2598 1999.7188,238.1973 Q1999.0313,237.1191 1999.0313,235.8379 L1999.0313,234.6816 Q1999.0313,233.3535 1999.6406,232.2129 Q2000.2656,231.0566 2001.3594,230.4473 Q2002.4531,229.8223 2003.6875,229.8223 Q2004.4219,229.8223 2005.0625,229.9941 Q2005.7188,230.1504 2006.2656,230.5098 Z " fill="#000000"/><text fill="#000000" font-family="sans-serif" font-size="14" lengthAdjust="spacing" textLength="107" x="2017.5" y="240.4316">DynamicConcept</text></g><!--class DynamicProperty--><g id="elem_DynamicProperty"><rect codeLine="29" fill="#F1F1F1" height="32" id="DynamicProperty" rx="2.5" ry="2.5" style="stroke:#181818;stroke-width:0.5;" width="140" x="2163" y="218.6348"/><ellipse cx="2178" cy="234.6348" fill="#ADD1B2" rx="11" ry="11" style="stroke:#181818;stroke-width:1.0;"/><path d="M2180.7656,230.5098 Q2180.9219,230.291 2181.1094,230.1816 Q2181.2969,230.0723 2181.5156,230.0723 Q2181.8906,230.0723 2182.125,230.3379 Q2182.3594,230.5879 2182.3594,231.1973 L2182.3594,232.6504 Q2182.3594,233.2598 2182.125,233.5254 Q2181.8906,233.791 2181.5156,233.791 Q2181.1719,233.791 2180.9688,233.5879 Q2180.7656,233.4004 2180.6563,232.8848 Q2180.6094,232.5254 2180.4219,232.3379 Q2180.0938,231.9629 2179.4844,231.7441 Q2178.875,231.5254 2178.25,231.5254 Q2177.4844,231.5254 2176.8438,231.8535 Q2176.2188,232.1816 2175.7188,232.9316 Q2175.2344,233.6816 2175.2344,234.7129 L2175.2344,235.8066 Q2175.2344,237.041 2176.125,237.8691 Q2177.0156,238.6816 2178.6094,238.6816 Q2179.5469,238.6816 2180.2031,238.4316 Q2180.5938,238.2754 2181.0156,237.8379 Q2181.2813,237.5723 2181.4219,237.4941 Q2181.5781,237.416 2181.7813,237.416 Q2182.1094,237.416 2182.3594,237.6816 Q2182.625,237.9316 2182.625,238.2754 Q2182.625,238.6191 2182.2813,239.0254 Q2181.7813,239.6035 2180.9844,239.9316 Q2179.9063,240.3848 2178.6094,240.3848 Q2177.0938,240.3848 2175.8906,239.7598 Q2174.9063,239.2598 2174.2188,238.1973 Q2173.5313,237.1191 2173.5313,235.8379 L2173.5313,234.6816 Q2173.5313,233.3535 2174.1406,232.2129 Q2174.7656,231.0566 2175.8594,230.4473 Q2176.9531,229.8223 2178.1875,229.8223 Q2178.9219,229.8223 2179.5625,229.9941 Q2180.2188,230.1504 2180.7656,230.5098 Z " fill="#000000"/><text fill="#000000" font-family="sans-serif" font-size="14" lengthAdjust="spacing" textLength="108" x="2192" y="240.4316">DynamicProperty</text></g><!--class DynamicContainment--><g id="elem_DynamicContainment"><rect codeLine="32" fill="#F1F1F1" height="32" id="DynamicContainment" rx="2.5" ry="2.5" style="stroke:#181818;stroke-width:0.5;" width="166" x="2338" y="218.6348"/><ellipse cx="2353" cy="234.6348" fill="#ADD1B2" rx="11" ry="11" style="stroke:#181818;stroke-width:1.0;"/><path d="M2355.7656,230.5098 Q2355.9219,230.291 2356.1094,230.1816 Q2356.2969,230.0723 2356.5156,230.0723 Q2356.8906,230.0723 2357.125,230.3379 Q2357.3594,230.5879 2357.3594,231.1973 L2357.3594,232.6504 Q2357.3594,233.2598 2357.125,233.5254 Q2356.8906,233.791 2356.5156,233.791 Q2356.1719,233.791 2355.9688,233.5879 Q2355.7656,233.4004 2355.6563,232.8848 Q2355.6094,232.5254 2355.4219,232.3379 Q2355.0938,231.9629 2354.4844,231.7441 Q2353.875,231.5254 2353.25,231.5254 Q2352.4844,231.5254 2351.8438,231.8535 Q2351.2188,232.1816 2350.7188,232.9316 Q2350.2344,233.6816 2350.2344,234.7129 L2350.2344,235.8066 Q2350.2344,237.041 2351.125,237.8691 Q2352.0156,238.6816 2353.6094,238.6816 Q2354.5469,238.6816 2355.2031,238.4316 Q2355.5938,238.2754 2356.0156,237.8379 Q2356.2813,237.5723 2356.4219,237.4941 Q2356.5781,237.416 2356.7813,237.416 Q2357.1094,237.416 2357.3594,237.6816 Q2357.625,237.9316 2357.625,238.2754 Q2357.625,238.6191 2357.2813,239.0254 Q2356.7813,239.6035 2355.9844,239.9316 Q2354.9063,240.3848 2353.6094,240.3848 Q2352.0938,240.3848 2350.8906,239.7598 Q2349.9063,239.2598 2349.2188,238.1973 Q2348.5313,237.1191 2348.5313,235.8379 L2348.5313,234.6816 Q2348.5313,233.3535 2349.1406,232.2129 Q2349.7656,231.0566 2350.8594,230.4473 Q2351.9531,229.8223 2353.1875,229.8223 Q2353.9219,229.8223 2354.5625,229.9941 Q2355.2188,230.1504 2355.7656,230.5098 Z " fill="#000000"/><text fill="#000000" font-family="sans-serif" font-size="14" lengthAdjust="spacing" textLength="134" x="2367" y="240.4316">DynamicContainment</text></g><!--class DynamicReference--><g id="elem_DynamicReference"><rect codeLine="35" fill="#F1F1F1" height="32" id="DynamicReference" rx="2.5" ry="2.5" style="stroke:#181818;stroke-width:0.5;" width="152" x="2539" y="218.6348"/><ellipse cx="2554" cy="234.6348" fill="#ADD1B2" rx="11" ry="11" style="stroke:#181818;stroke-width:1.0;"/><path d="M2556.7656,230.5098 Q2556.9219,230.291 2557.1094,230.1816 Q2557.2969,230.0723 2557.5156,230.0723 Q2557.8906,230.0723 2558.125,230.3379 Q2558.3594,230.5879 2558.3594,231.1973 L2558.3594,232.6504 Q2558.3594,233.2598 2558.125,233.5254 Q2557.8906,233.791 2557.5156,233.791 Q2557.1719,233.791 2556.9688,233.5879 Q2556.7656,233.4004 2556.6563,232.8848 Q2556.6094,232.5254 2556.4219,232.3379 Q2556.0938,231.9629 2555.4844,231.7441 Q2554.875,231.5254 2554.25,231.5254 Q2553.4844,231.5254 2552.8438,231.8535 Q2552.2188,232.1816 2551.7188,232.9316 Q2551.2344,233.6816 2551.2344,234.7129 L2551.2344,235.8066 Q2551.2344,237.041 2552.125,237.8691 Q2553.0156,238.6816 2554.6094,238.6816 Q2555.5469,238.6816 2556.2031,238.4316 Q2556.5938,238.2754 2557.0156,237.8379 Q2557.2813,237.5723 2557.4219,237.4941 Q2557.5781,237.416 2557.7813,237.416 Q2558.1094,237.416 2558.3594,237.6816 Q2558.625,237.9316 2558.625,238.2754 Q2558.625,238.6191 2558.2813,239.0254 Q2557.7813,239.6035 2556.9844,239.9316 Q2555.9063,240.3848 2554.6094,240.3848 Q2553.0938,240.3848 2551.8906,239.7598 Q2550.9063,239.2598 2550.2188,238.1973 Q2549.5313,237.1191 2549.5313,235.8379 L2549.5313,234.6816 Q2549.5313,233.3535 2550.1406,232.2129 Q2550.7656,231.0566 2551.8594,230.4473 Q2552.9531,229.8223 2554.1875,229.8223 Q2554.9219,229.8223 2555.5625,229.9941 Q2556.2188,230.1504 2556.7656,230.5098 Z " fill="#000000"/><text fill="#000000" font-family="sans-serif" font-size="14" lengthAdjust="spacing" textLength="120" x="2568" y="240.4316">DynamicReference</text></g><g id="elem_library"><rect fill="#F1F1F1" height="49.2422" style="stroke:#181818;stroke-width:0.5;" width="188" x="7" y="331.6348"/><text fill="#000000" font-family="sans-serif" font-size="14" lengthAdjust="spacing" textLength="47" x="14" y="348.7422">library :</text><text fill="#000000" font-family="sans-serif" font-size="14" lengthAdjust="spacing" text-decoration="underline" textLength="123" x="65" y="348.7422">DynamicMetamodel</text><line style="stroke:#181818;stroke-width:0.5;" x1="8" x2="194" y1="354.2559" y2="354.2559"/><text fill="#000000" font-family="sans-serif" font-size="14" lengthAdjust="spacing" textLength="157" x="13" y="373.3633">runtime = runtime::library</text></g><g id="elem_LibBoolean"><rect fill="#F1F1F1" height="49.2422" style="stroke:#181818;stroke-width:0.5;" width="236" x="230" y="331.6348"/><text fill="#000000" font-family="sans-serif" font-size="14" lengthAdjust="spacing" textLength="75" x="237" y="348.7422">LibBoolean:</text><text fill="#000000" font-family="sans-serif" font-size="14" lengthAdjust="spacing" text-decoration="underline" textLength="139" x="316" y="348.7422">DynamicPrimitiveType</text><text fill="#000000" font-family="sans-serif" font-size="14" lengthAdjust="spacing" textLength="4" x="455" y="348.7422"> </text><line style="stroke:#181818;stroke-width:0.5;" x1="231" x2="465" y1="354.2559" y2="354.2559"/><text fill="#000000" font-family="sans-serif" font-size="14" lengthAdjust="spacing" textLength="189" x="236" y="373.3633">runtime = runtime::LibBoolean</text></g><g id="elem_LibString"><rect fill="#F1F1F1" height="49.2422" style="stroke:#181818;stroke-width:0.5;" width="221" x="501.5" y="331.6348"/><text fill="#000000" font-family="sans-serif" font-size="14" lengthAdjust="spacing" textLength="64" x="508.5" y="348.7422">LibString :</text><text fill="#000000" font-family="sans-serif" font-size="14" lengthAdjust="spacing" text-decoration="underline" textLength="139" x="576.5" y="348.7422">DynamicPrimitiveType</text><line style="stroke:#181818;stroke-width:0.5;" x1="502.5" x2="721.5" y1="354.2559" y2="354.2559"/><text fill="#000000" font-family="sans-serif" font-size="14" lengthAdjust="spacing" textLength="174" x="507.5" y="373.3633">runtime = runtime::LibString</text></g><g id="elem_LibInteger"><rect fill="#F1F1F1" height="49.2422" style="stroke:#181818;stroke-width:0.5;" width="228" x="758" y="331.6348"/><text fill="#000000" font-family="sans-serif" font-size="14" lengthAdjust="spacing" textLength="71" x="765" y="348.7422">LibInteger :</text><text fill="#000000" font-family="sans-serif" font-size="14" lengthAdjust="spacing" text-decoration="underline" textLength="139" x="840" y="348.7422">DynamicPrimitiveType</text><line style="stroke:#181818;stroke-width:0.5;" x1="759" x2="985" y1="354.2559" y2="354.2559"/><text fill="#000000" font-family="sans-serif" font-size="14" lengthAdjust="spacing" textLength="181" x="764" y="373.3633">runtime = runtime::LibInteger</text></g><g id="elem_Library"><rect fill="#90EE90" height="49.2422" style="stroke:#181818;stroke-width:0.5;" width="177" x="1021.5" y="331.6348"/><text fill="#000000" font-family="sans-serif" font-size="14" lengthAdjust="spacing" textLength="52" x="1028.5" y="348.7422">Library :</text><text fill="#000000" font-family="sans-serif" font-size="14" lengthAdjust="spacing" text-decoration="underline" textLength="107" x="1084.5" y="348.7422">DynamicConcept</text><line style="stroke:#181818;stroke-width:0.5;" x1="1022.5" x2="1197.5" y1="354.2559" y2="354.2559"/><text fill="#000000" font-family="sans-serif" font-size="14" lengthAdjust="spacing" textLength="162" x="1027.5" y="373.3633">runtime = runtime::Library</text></g><g id="elem_LibraryName"><rect fill="#FFB6C1" height="49.2422" style="stroke:#181818;stroke-width:0.5;" width="214" x="2214" y="331.6348"/><text fill="#000000" font-family="sans-serif" font-size="14" lengthAdjust="spacing" textLength="88" x="2221" y="348.7422">LibraryName :</text><text fill="#000000" font-family="sans-serif" font-size="14" lengthAdjust="spacing" text-decoration="underline" textLength="108" x="2313" y="348.7422">DynamicProperty</text><line style="stroke:#181818;stroke-width:0.5;" x1="2215" x2="2427" y1="354.2559" y2="354.2559"/><text fill="#000000" font-family="sans-serif" font-size="14" lengthAdjust="spacing" textLength="198" x="2220" y="373.3633">runtime = runtime::LibraryName</text></g><g id="elem_LibraryBooks"><rect fill="#ADD8E6" height="49.2422" style="stroke:#181818;stroke-width:0.5;" width="243" x="3860.5" y="331.6348"/><text fill="#000000" font-family="sans-serif" font-size="14" lengthAdjust="spacing" textLength="91" x="3867.5" y="348.7422">LibraryBooks :</text><text fill="#000000" font-family="sans-serif" font-size="14" lengthAdjust="spacing" text-decoration="underline" textLength="134" x="3962.5" y="348.7422">DynamicContainment</text><line style="stroke:#181818;stroke-width:0.5;" x1="3861.5" x2="4102.5" y1="354.2559" y2="354.2559"/><text fill="#000000" font-family="sans-serif" font-size="14" lengthAdjust="spacing" textLength="201" x="3866.5" y="373.3633">runtime = runtime::LibraryBooks</text></g><g id="elem_Book"><rect fill="#90EE90" height="49.2422" style="stroke:#181818;stroke-width:0.5;" width="165" x="1233.5" y="331.6348"/><text fill="#000000" font-family="sans-serif" font-size="14" lengthAdjust="spacing" textLength="40" x="1240.5" y="348.7422">Book :</text><text fill="#000000" font-family="sans-serif" font-size="14" lengthAdjust="spacing" text-decoration="underline" textLength="107" x="1284.5" y="348.7422">DynamicConcept</text><line style="stroke:#181818;stroke-width:0.5;" x1="1234.5" x2="1397.5" y1="354.2559" y2="354.2559"/><text fill="#000000" font-family="sans-serif" font-size="14" lengthAdjust="spacing" textLength="150" x="1239.5" y="373.3633">runtime = runtime::Book</text></g><g id="elem_BookTitle"><rect fill="#FFB6C1" height="49.2422" style="stroke:#181818;stroke-width:0.5;" width="193" x="2463.5" y="331.6348"/><text fill="#000000" font-family="sans-serif" font-size="14" lengthAdjust="spacing" textLength="67" x="2470.5" y="348.7422">BookTitle :</text><text fill="#000000" font-family="sans-serif" font-size="14" lengthAdjust="spacing" text-decoration="underline" textLength="108" x="2541.5" y="348.7422">DynamicProperty</text><line style="stroke:#181818;stroke-width:0.5;" x1="2464.5" x2="2655.5" y1="354.2559" y2="354.2559"/><text fill="#000000" font-family="sans-serif" font-size="14" lengthAdjust="spacing" textLength="177" x="2469.5" y="373.3633">runtime = runtime::BookTitle</text></g><g id="elem_BookPages"><rect fill="#FFB6C1" height="49.2422" style="stroke:#181818;stroke-width:0.5;" width="206" x="2692" y="331.6348"/><text fill="#000000" font-family="sans-serif" font-size="14" lengthAdjust="spacing" textLength="80" x="2699" y="348.7422">BookPages :</text><text fill="#000000" font-family="sans-serif" font-size="14" lengthAdjust="spacing" text-decoration="underline" textLength="108" x="2783" y="348.7422">DynamicProperty</text><line style="stroke:#181818;stroke-width:0.5;" x1="2693" x2="2897" y1="354.2559" y2="354.2559"/><text fill="#000000" font-family="sans-serif" font-size="14" lengthAdjust="spacing" textLength="190" x="2698" y="373.3633">runtime = runtime::BookPages</text></g><g id="elem_BookAuthor"><rect fill="#87CEFA" height="49.2422" style="stroke:#181818;stroke-width:0.5;" width="220" x="4139" y="331.6348"/><text fill="#000000" font-family="sans-serif" font-size="14" lengthAdjust="spacing" textLength="82" x="4146" y="348.7422">BookAuthor :</text><text fill="#000000" font-family="sans-serif" font-size="14" lengthAdjust="spacing" text-decoration="underline" textLength="120" x="4232" y="348.7422">DynamicReference</text><line style="stroke:#181818;stroke-width:0.5;" x1="4140" x2="4358" y1="354.2559" y2="354.2559"/><text fill="#000000" font-family="sans-serif" font-size="14" lengthAdjust="spacing" textLength="192" x="4145" y="373.3633">runtime = runtime::BookAuthor</text></g><g id="elem_Writer"><rect fill="#90EE90" height="49.2422" style="stroke:#181818;stroke-width:0.5;" width="171" x="1433.5" y="331.6348"/><text fill="#000000" font-family="sans-serif" font-size="14" lengthAdjust="spacing" textLength="46" x="1440.5" y="348.7422">Writer :</text><text fill="#000000" font-family="sans-serif" font-size="14" lengthAdjust="spacing" text-decoration="underline" textLength="107" x="1490.5" y="348.7422">DynamicConcept</text><line style="stroke:#181818;stroke-width:0.5;" x1="1434.5" x2="1603.5" y1="354.2559" y2="354.2559"/><text fill="#000000" font-family="sans-serif" font-size="14" lengthAdjust="spacing" textLength="156" x="1439.5" y="373.3633">runtime = runtime::Writer</text></g><g id="elem_WriterName"><rect fill="#FFB6C1" height="49.2422" style="stroke:#181818;stroke-width:0.5;" width="208" x="2933" y="331.6348"/><text fill="#000000" font-family="sans-serif" font-size="14" lengthAdjust="spacing" textLength="82" x="2940" y="348.7422">WriterName :</text><text fill="#000000" font-family="sans-serif" font-size="14" lengthAdjust="spacing" text-decoration="underline" textLength="108" x="3026" y="348.7422">DynamicProperty</text><line style="stroke:#181818;stroke-width:0.5;" x1="2934" x2="3140" y1="354.2559" y2="354.2559"/><text fill="#000000" font-family="sans-serif" font-size="14" lengthAdjust="spacing" textLength="192" x="2939" y="373.3633">runtime = runtime::WriterName</text></g><g id="elem_SpecialistBookWriter"><rect fill="#90EE90" height="49.2422" style="stroke:#181818;stroke-width:0.5;" width="263" x="1639.5" y="331.6348"/><text fill="#000000" font-family="sans-serif" font-size="14" lengthAdjust="spacing" textLength="138" x="1646.5" y="348.7422">SpecialistBookWriter :</text><text fill="#000000" font-family="sans-serif" font-size="14" lengthAdjust="spacing" text-decoration="underline" textLength="107" x="1788.5" y="348.7422">DynamicConcept</text><line style="stroke:#181818;stroke-width:0.5;" x1="1640.5" x2="1901.5" y1="354.2559" y2="354.2559"/><text fill="#000000" font-family="sans-serif" font-size="14" lengthAdjust="spacing" textLength="248" x="1645.5" y="373.3633">runtime = runtime::SpecialistBookWriter</text></g><g id="elem_SpecialistBookWriterSubject"><rect fill="#FFB6C1" height="49.2422" style="stroke:#181818;stroke-width:0.5;" width="311" x="3176.5" y="331.6348"/><text fill="#000000" font-family="sans-serif" font-size="14" lengthAdjust="spacing" textLength="185" x="3183.5" y="348.7422">SpecialistBookWriterSubject :</text><text fill="#000000" font-family="sans-serif" font-size="14" lengthAdjust="spacing" text-decoration="underline" textLength="108" x="3372.5" y="348.7422">DynamicProperty</text><line style="stroke:#181818;stroke-width:0.5;" x1="3177.5" x2="3486.5" y1="354.2559" y2="354.2559"/><text fill="#000000" font-family="sans-serif" font-size="14" lengthAdjust="spacing" textLength="295" x="3182.5" y="373.3633">runtime = runtime::SpecialistBookWriterSubject</text></g><g id="elem_GuideBookWriter"><rect fill="#90EE90" height="49.2422" style="stroke:#181818;stroke-width:0.5;" width="241" x="1937.5" y="331.6348"/><text fill="#000000" font-family="sans-serif" font-size="14" lengthAdjust="spacing" textLength="116" x="1944.5" y="348.7422">GuideBookWriter :</text><text fill="#000000" font-family="sans-serif" font-size="14" lengthAdjust="spacing" text-decoration="underline" textLength="107" x="2064.5" y="348.7422">DynamicConcept</text><line style="stroke:#181818;stroke-width:0.5;" x1="1938.5" x2="2177.5" y1="354.2559" y2="354.2559"/><text fill="#000000" font-family="sans-serif" font-size="14" lengthAdjust="spacing" textLength="226" x="1943.5" y="373.3633">runtime = runtime::GuideBookWriter</text></g><g id="elem_GuideBookWriterCountries"><rect fill="#FFB6C1" height="49.2422" style="stroke:#181818;stroke-width:0.5;" width="303" x="3522.5" y="331.6348"/><text fill="#000000" font-family="sans-serif" font-size="14" lengthAdjust="spacing" textLength="177" x="3529.5" y="348.7422">GuideBookWriterCountries :</text><text fill="#000000" font-family="sans-serif" font-size="14" lengthAdjust="spacing" text-decoration="underline" textLength="108" x="3710.5" y="348.7422">DynamicProperty</text><line style="stroke:#181818;stroke-width:0.5;" x1="3523.5" x2="3824.5" y1="354.2559" y2="354.2559"/><text fill="#000000" font-family="sans-serif" font-size="14" lengthAdjust="spacing" textLength="287" x="3528.5" y="373.3633">runtime = runtime::GuideBookWriterCountries</text></g><!--reverse link Metamodel to DynamicMetamodel--><g id="link_Metamodel_DynamicMetamodel"><path d="M1777.84,128.9248 C1749.46,156.4848 1708.06,196.6748 1685.72,218.3748 " fill="none" id="Metamodel-backto-DynamicMetamodel" style="stroke:#181818;stroke-width:1.0;stroke-dasharray:7.0,7.0;"/><polygon fill="none" points="1773.21,123.6548,1792.44,114.7448,1782.97,133.7048,1773.21,123.6548" style="stroke:#181818;stroke-width:1.0;"/></g><!--reverse link PrimitiveType to DynamicPrimitiveType--><g id="link_PrimitiveType_DynamicPrimitiveType"><path d="M1931.68,132.0448 C1914.51,159.4448 1890.66,197.4848 1877.57,218.3748 " fill="none" id="PrimitiveType-backto-DynamicPrimitiveType" style="stroke:#181818;stroke-width:1.0;stroke-dasharray:7.0,7.0;"/><polygon fill="none" points="1925.97,127.9748,1942.53,114.7448,1937.84,135.4048,1925.97,127.9748" style="stroke:#181818;stroke-width:1.0;"/></g><!--reverse link Concept to DynamicConcept--><g id="link_Concept_DynamicConcept"><path d="M2080.2,134.4548 C2074.12,161.6348 2065.96,198.0848 2061.42,218.3748 " fill="none" id="Concept-backto-DynamicConcept" style="stroke:#181818;stroke-width:1.0;stroke-dasharray:7.0,7.0;"/><polygon fill="none" points="2073.42,132.7348,2084.62,114.7448,2087.08,135.7948,2073.42,132.7348" style="stroke:#181818;stroke-width:1.0;"/></g><!--reverse link Property to DynamicProperty--><g id="link_Property_DynamicProperty"><path codeLine="30" d="M2219,134.8648 C2222.84,162.0048 2227.97,198.1848 2230.84,218.3748 " fill="none" id="Property-backto-DynamicProperty" style="stroke:#181818;stroke-width:1.0;stroke-dasharray:7.0,7.0;"/><polygon fill="none" points="2212.02,135.5348,2216.14,114.7448,2225.88,133.5648,2212.02,135.5348" style="stroke:#181818;stroke-width:1.0;"/><text fill="#000000" font-family="sans-serif" font-size="13" font-style="italic" lengthAdjust="spacing" textLength="122" x="2223" y="161.6631">T = DynamicConcept</text></g><!--reverse link Containment to DynamicContainment--><g id="link_Containment_DynamicContainment"><path codeLine="33" d="M2374.55,133.2448 C2387.18,160.5448 2404.41,197.7848 2413.94,218.3748 " fill="none" id="Containment-backto-DynamicContainment" style="stroke:#181818;stroke-width:1.0;stroke-dasharray:7.0,7.0;"/><polygon fill="none" points="2368.04,135.8348,2365.99,114.7448,2380.74,129.9548,2368.04,135.8348" style="stroke:#181818;stroke-width:1.0;"/><text fill="#000000" font-family="sans-serif" font-size="13" font-style="italic" lengthAdjust="spacing" textLength="122" x="2389" y="161.6631">T = DynamicConcept</text></g><!--reverse link Reference to DynamicReference--><g id="link_Reference_DynamicReference"><path codeLine="36" d="M2534.47,130.8648 C2556,158.3448 2586.43,197.1748 2603.04,218.3748 " fill="none" id="Reference-backto-DynamicReference" style="stroke:#181818;stroke-width:1.0;stroke-dasharray:7.0,7.0;"/><polygon fill="none" points="2528.67,134.8048,2521.84,114.7448,2539.69,126.1748,2528.67,134.8048" style="stroke:#181818;stroke-width:1.0;"/><text fill="#000000" font-family="sans-serif" font-size="13" font-style="italic" lengthAdjust="spacing" textLength="122" x="2560" y="161.6631">T = DynamicConcept</text></g><!--reverse link DynamicMetamodel to library--><g id="link_DynamicMetamodel_library"><path codeLine="42" d="M1587.3,236.7148 C1405.28,239.6348 956.36,249.8248 582,282.6348 C416.75,297.1148 375.48,303.5448 212,331.6348 C206.47,332.5848 200.79,333.6148 195.07,334.6948 " fill="none" id="DynamicMetamodel-backto-library" style="stroke:#181818;stroke-width:1.0;stroke-dasharray:7.0,7.0;"/><polygon fill="#181818" points="1592.34,236.6348,1583.2838,232.7637,1587.3405,236.7062,1583.3981,240.7629,1592.34,236.6348" style="stroke:#181818;stroke-width:1.0;"/><text fill="#000000" font-family="sans-serif" font-size="13" lengthAdjust="spacing" textLength="73" x="583" y="297.6631">«instanceof»</text></g><!--reverse link DynamicPrimitiveType to LibBoolean--><g id="link_DynamicPrimitiveType_LibBoolean"><path codeLine="47" d="M1832.02,252.8448 C1812.64,261.1848 1788.04,270.3148 1765,274.6348 C1713.45,284.2948 873.29,278.6348 821,282.6348 C699.23,291.9548 561.35,314.4848 466,331.9648 " fill="none" id="DynamicPrimitiveType-backto-LibBoolean" style="stroke:#181818;stroke-width:1.0;stroke-dasharray:7.0,7.0;"/><polygon fill="#181818" points="1836.83,250.7448,1826.9814,250.6762,1832.2469,252.7436,1830.1795,258.0092,1836.83,250.7448" style="stroke:#181818;stroke-width:1.0;"/><text fill="#000000" font-family="sans-serif" font-size="13" lengthAdjust="spacing" textLength="73" x="822" y="297.6631">«instanceof»</text></g><!--reverse link DynamicPrimitiveType to LibString--><g id="link_DynamicPrimitiveType_LibString"><path codeLine="52" d="M1832.01,252.8248 C1812.63,261.1548 1788.04,270.2848 1765,274.6348 C1686.82,289.3948 1128.28,275.9448 1049,282.6348 C937.12,292.0848 810.71,314.3348 722.74,331.7148 " fill="none" id="DynamicPrimitiveType-backto-LibString" style="stroke:#181818;stroke-width:1.0;stroke-dasharray:7.0,7.0;"/><polygon fill="#181818" points="1836.82,250.7248,1826.9713,250.6675,1832.2392,252.7289,1830.1779,257.9968,1836.82,250.7248" style="stroke:#181818;stroke-width:1.0;"/><text fill="#000000" font-family="sans-serif" font-size="13" lengthAdjust="spacing" textLength="73" x="1050" y="297.6631">«instanceof»</text></g><!--reverse link DynamicPrimitiveType to LibInteger--><g id="link_DynamicPrimitiveType_LibInteger"><path codeLine="57" d="M1832,252.7848 C1812.62,261.1048 1788.03,270.2348 1765,274.6348 C1709.88,285.1748 1315.84,277.0148 1260,282.6348 C1161.31,292.5648 1050.17,314.4448 972.22,331.5848 " fill="none" id="DynamicPrimitiveType-backto-LibInteger" style="stroke:#181818;stroke-width:1.0;stroke-dasharray:7.0,7.0;"/><polygon fill="#181818" points="1836.81,250.6848,1826.9614,250.6162,1832.2269,252.6836,1830.1595,257.9492,1836.81,250.6848" style="stroke:#181818;stroke-width:1.0;"/><text fill="#000000" font-family="sans-serif" font-size="13" lengthAdjust="spacing" textLength="73" x="1261" y="297.6631">«instanceof»</text></g><!--reverse link DynamicConcept to Library--><g id="link_DynamicConcept_Library"><path codeLine="62" d="M2027.48,252.9948 C2011.25,261.2648 1990.64,270.2748 1971,274.6348 C1914.91,287.0848 1511.11,276.3748 1454,282.6348 C1346.65,294.4148 1321.61,309.0548 1216,331.6348 C1210.38,332.8348 1204.59,334.0848 1198.76,335.3548 " fill="none" id="DynamicConcept-backto-Library" style="stroke:#181818;stroke-width:1.0;stroke-dasharray:7.0,7.0;"/><polygon fill="#181818" points="2031.93,250.6848,2022.0986,251.2701,2027.4897,252.9834,2025.7764,258.3746,2031.93,250.6848" style="stroke:#181818;stroke-width:1.0;"/><text fill="#000000" font-family="sans-serif" font-size="13" lengthAdjust="spacing" textLength="73" x="1455" y="297.6631">«instanceof»</text></g><!--reverse link DynamicProperty to LibraryName--><g id="link_DynamicProperty_LibraryName"><path codeLine="67" d="M2247.28,255.0248 C2262.65,275.8948 2287.1,309.0948 2303.58,331.4848 " fill="none" id="DynamicProperty-backto-LibraryName" style="stroke:#181818;stroke-width:1.0;stroke-dasharray:7.0,7.0;"/><polygon fill="#181818" points="2244.15,250.7648,2246.2732,260.382,2247.1179,254.7886,2252.7114,255.6333,2244.15,250.7648" style="stroke:#181818;stroke-width:1.0;"/><text fill="#000000" font-family="sans-serif" font-size="13" lengthAdjust="spacing" textLength="73" x="2280" y="297.6631">«instanceof»</text></g><!--reverse link DynamicContainment to LibraryBooks--><g id="link_DynamicContainment_LibraryBooks"><path codeLine="72" d="M2456.25,252.8448 C2475.24,261.1748 2499.36,270.3048 2522,274.6348 C2568.77,283.5748 3331.46,279.9048 3379,282.6348 C3586.03,294.5048 3637.56,303.4448 3843,331.6348 C3848.7,332.4148 3854.52,333.2548 3860.4,334.1248 " fill="none" id="DynamicContainment-backto-LibraryBooks" style="stroke:#181818;stroke-width:1.0;stroke-dasharray:7.0,7.0;"/><polygon fill="#181818" points="2451.54,250.7448,2458.1249,258.0686,2456.1049,252.7847,2461.3888,250.7647,2451.54,250.7448" style="stroke:#181818;stroke-width:1.0;"/><text fill="#000000" font-family="sans-serif" font-size="13" lengthAdjust="spacing" textLength="73" x="3612" y="297.6631">«instanceof»</text></g><!--reverse link DynamicConcept to Book--><g id="link_DynamicConcept_Book"><path codeLine="77" d="M2026.68,253.3148 C2010.57,261.4548 1990.31,270.2548 1971,274.6348 C1899.89,290.7548 1715.4,274.0148 1643,282.6348 C1540.51,294.8348 1516.69,308.9348 1416,331.6348 C1410.35,332.9048 1404.52,334.2348 1398.65,335.5848 " fill="none" id="DynamicConcept-backto-Book" style="stroke:#181818;stroke-width:1.0;stroke-dasharray:7.0,7.0;"/><polygon fill="#181818" points="2031.54,250.8248,2021.7071,251.3852,2027.0939,253.1122,2025.3669,258.4989,2031.54,250.8248" style="stroke:#181818;stroke-width:1.0;"/><text fill="#000000" font-family="sans-serif" font-size="13" lengthAdjust="spacing" textLength="73" x="1644" y="297.6631">«instanceof»</text></g><!--reverse link DynamicProperty to BookTitle--><g id="link_DynamicProperty_BookTitle"><path codeLine="82" d="M2267.34,253.0048 C2283.33,260.5248 2302.8,268.9048 2321,274.6348 C2338.71,280.2048 2344.12,277.6448 2362,282.6348 C2410.49,296.1548 2464.01,316.0648 2503.17,331.6048 " fill="none" id="DynamicProperty-backto-BookTitle" style="stroke:#181818;stroke-width:1.0;stroke-dasharray:7.0,7.0;"/><polygon fill="#181818" points="2262.49,250.7048,2268.9052,258.1777,2267.0069,252.8489,2272.3358,250.9506,2262.49,250.7048" style="stroke:#181818;stroke-width:1.0;"/><text fill="#000000" font-family="sans-serif" font-size="13" lengthAdjust="spacing" textLength="73" x="2418" y="297.6631">«instanceof»</text></g><!--reverse link DynamicProperty to BookPages--><g id="link_DynamicProperty_BookPages"><path codeLine="87" d="M2264.32,252.9448 C2280.7,261.0948 2301.37,270.0248 2321,274.6348 C2398.52,292.8648 2421.18,271.2948 2500,282.6348 C2574.78,293.3848 2658.24,314.8048 2717.25,331.5948 " fill="none" id="DynamicProperty-backto-BookPages" style="stroke:#181818;stroke-width:1.0;stroke-dasharray:7.0,7.0;"/><polygon fill="#181818" points="2259.82,250.6648,2266.042,258.2993,2264.2806,252.9237,2269.6563,251.1623,2259.82,250.6648" style="stroke:#181818;stroke-width:1.0;"/><text fill="#000000" font-family="sans-serif" font-size="13" lengthAdjust="spacing" textLength="73" x="2599" y="297.6631">«instanceof»</text></g><!--reverse link DynamicReference to BookAuthor--><g id="link_DynamicReference_BookAuthor"><path codeLine="92" d="M2696.57,237.2148 C2876.74,241.1448 3322.19,253.2448 3694,282.6348 C3884.43,297.6848 3932.06,303.4848 4121,331.6348 C4126.81,332.5048 4132.76,333.4348 4138.76,334.4048 " fill="none" id="DynamicReference-backto-BookAuthor" style="stroke:#181818;stroke-width:1.0;stroke-dasharray:7.0,7.0;"/><polygon fill="#181818" points="2691.32,237.1048,2700.2382,241.2839,2696.319,237.2047,2700.3982,233.2855,2691.32,237.1048" style="stroke:#181818;stroke-width:1.0;"/><text fill="#000000" font-family="sans-serif" font-size="13" lengthAdjust="spacing" textLength="73" x="3901" y="297.6631">«instanceof»</text></g><!--reverse link DynamicConcept to Writer--><g id="link_DynamicConcept_Writer"><path codeLine="97" d="M2026.25,253.2448 C2010.19,261.2648 1990.09,269.9848 1971,274.6348 C1909.15,289.6848 1891,273.5548 1828,282.6348 C1750.28,293.8348 1663.34,315.0348 1601.53,331.6248 " fill="none" id="DynamicConcept-backto-Writer" style="stroke:#181818;stroke-width:1.0;stroke-dasharray:7.0,7.0;"/><polygon fill="#181818" points="2031.1,250.7848,2021.2637,251.2823,2026.6394,253.0437,2024.878,258.4193,2031.1,250.7848" style="stroke:#181818;stroke-width:1.0;"/><text fill="#000000" font-family="sans-serif" font-size="13" lengthAdjust="spacing" textLength="73" x="1829" y="297.6631">«instanceof»</text></g><!--reverse link DynamicProperty to WriterName--><g id="link_DynamicProperty_WriterName"><path codeLine="102" d="M2263.91,252.9448 C2280.33,261.1948 2301.17,270.2048 2321,274.6348 C2399.1,292.0748 2601.48,273.7248 2681,282.6348 C2771.58,292.7848 2873.32,314.5748 2944.77,331.6348 " fill="none" id="DynamicProperty-backto-WriterName" style="stroke:#181818;stroke-width:1.0;stroke-dasharray:7.0,7.0;"/><polygon fill="#181818" points="2259.4,250.6348,2265.6026,258.2851,2263.8549,252.905,2269.235,251.1574,2259.4,250.6348" style="stroke:#181818;stroke-width:1.0;"/><text fill="#000000" font-family="sans-serif" font-size="13" lengthAdjust="spacing" textLength="73" x="2800" y="297.6631">«instanceof»</text></g><!--reverse link DynamicConcept to SpecialistBookWriter--><g id="link_DynamicConcept_SpecialistBookWriter"><path codeLine="107" d="M2020.43,252.8548 C2005.15,259.7648 1987.29,267.7048 1971,274.6348 C1924.33,294.4848 1871.03,315.8648 1831.2,331.6048 " fill="none" id="DynamicConcept-backto-SpecialistBookWriter" style="stroke:#181818;stroke-width:1.0;stroke-dasharray:7.0,7.0;"/><polygon fill="#181818" points="2025.08,250.7548,2015.2314,250.8235,2020.5252,252.8173,2018.5314,258.1112,2025.08,250.7548" style="stroke:#181818;stroke-width:1.0;"/><text fill="#000000" font-family="sans-serif" font-size="13" lengthAdjust="spacing" textLength="73" x="1951" y="297.6631">«instanceof»</text></g><!--reverse link DynamicProperty to SpecialistBookWriterSubject--><g id="link_DynamicProperty_SpecialistBookWriterSubject"><path codeLine="112" d="M2263.9,253.0048 C2280.31,261.2748 2301.16,270.2848 2321,274.6348 C2381.89,287.9748 2819.9,277.2148 2882,282.6348 C2996.11,292.5848 3125.05,314.4648 3215.56,331.5948 " fill="none" id="DynamicProperty-backto-SpecialistBookWriterSubject" style="stroke:#181818;stroke-width:1.0;stroke-dasharray:7.0,7.0;"/><polygon fill="#181818" points="2259.39,250.6948,2265.5731,258.3609,2263.8391,252.9763,2269.2236,251.2423,2259.39,250.6948" style="stroke:#181818;stroke-width:1.0;"/><text fill="#000000" font-family="sans-serif" font-size="13" lengthAdjust="spacing" textLength="73" x="3032" y="297.6631">«instanceof»</text></g><!--reverse link DynamicConcept to GuideBookWriter--><g id="link_DynamicConcept_GuideBookWriter"><path codeLine="117" d="M2058,255.8148 C2058,276.7248 2058,309.3748 2058,331.4848 " fill="none" id="DynamicConcept-backto-GuideBookWriter" style="stroke:#181818;stroke-width:1.0;stroke-dasharray:7.0,7.0;"/><polygon fill="#181818" points="2058,250.7648,2054,259.7648,2058,255.7648,2062,259.7648,2058,250.7648" style="stroke:#181818;stroke-width:1.0;"/><text fill="#000000" font-family="sans-serif" font-size="13" lengthAdjust="spacing" textLength="73" x="2059" y="297.6631">«instanceof»</text></g><!--reverse link DynamicProperty to GuideBookWriterCountries--><g id="link_DynamicProperty_GuideBookWriterCountries"><path codeLine="122" d="M2263.89,253.0448 C2280.3,261.3148 2301.15,270.3248 2321,274.6348 C2364.06,283.9748 3070.04,279.6648 3114,282.6348 C3288.74,294.4248 3331.37,308.6848 3505,331.6348 C3510.73,332.3948 3516.56,333.1648 3522.45,333.9648 " fill="none" id="DynamicProperty-backto-GuideBookWriterCountries" style="stroke:#181818;stroke-width:1.0;stroke-dasharray:7.0,7.0;"/><polygon fill="#181818" points="2259.38,250.7248,2265.5531,258.3989,2263.8261,253.0122,2269.2129,251.2852,2259.38,250.7248" style="stroke:#181818;stroke-width:1.0;"/><text fill="#000000" font-family="sans-serif" font-size="13" lengthAdjust="spacing" textLength="73" x="3297" y="297.6631">«instanceof»</text></g><!--SRC=[bPTVRzCm5CNVyobCtzTAy5QPIB0XX4JHn2hnxALkQnexaUqWAk2xut-9OpTnt3sjEUVQFzzpwsoIo1g3foj3b5HWznPy9QySyIluz1lHjiP5SIO7331jvHLGJ5yn5_QHa9ZZHbvRB8hY3M5LtQcdw_MchH6J7QqVn1bnVDZmZab2yOEu4DOYZkYwLMfHjAYwe1C6gzqxu3mhyAS0weSmjVWHLHZii4IqEM3b3uLdJYYHv1VUAu9OV6nOXLjvMzEqcCiht9SJ5H8HHZ6J4-ftV5I7LMjgxL-8Vh2zwz6h6WdHDtIW1qGtKwykuYC51S6fnaKJnmqAtOd79K4Jebri7upIVm3mxteTExO0ad8FtaVRm0qffo7w9Xfnz3bOVVJylWs678mqV0eM7vwcbbOPDgy_SIN1gdO3h-nT6US6Drsv0aW0vuAGzb9PkiJTxAgDt6_RhNEhRMu60IfI9wiT8M528iNL7ClICwaluSUcgJ5YOwfW1ZGPC6ZU365WIH7w8WyP3fy63JZcMLya9-m4agmzglNUHsfh5a2jASdvHNsXJvZdWJhpVQIkQ07LkPAiDpCvZAz7j1DPMM61B9p7_hfmG8lJg0tVa5eqR9sxJYCaROImTMe6bouOjwo_a3oSTYm2gb6zYBXdmwqUGHgpQLxlo00rHK4N_VtcOOrhdbRBoMIr8IjMRPpEL2jfWhrvyIVZ76nvOGxscIW7FGtsh5wiOXdCsFB1Z3q1PlGqs8TEdflmyl1_5upHh152tgjBSBR0qurUR0xFEkRvVd0YeuijdYfhoPehQvsUBAijaIpV5TwN5wBtpwJe3VDmBosk2Ag9aBgf6KsRAiXguLJXT4EddFUTuAMpOhBVYSAy018Bp2IIg9W_uETE_NEHcKxapGecgfdE939bqpusQXjEbkwlkQgy8EQgPrAOizySwZy0]--></g></svg>