<?xml version="1.0" encoding="UTF-8" standalone="no"?><svg xmlns="http://www.w3.org/2000/svg" xmlns:xlink="http://www.w3.org/1999/xlink" contentStyleType="text/css" height="1083px" preserveAspectRatio="none" style="width:2229px;height:1083px;background:#FFFFFF;" version="1.1" viewBox="0 0 2229 1083" width="2229px" zoomAndPan="magnify"><defs/><g><text fill="#000000" font-family="sans-serif" font-size="14" font-weight="bold" lengthAdjust="spacing" textLength="215" x="1000.25" y="25.1074">Generated M2 Library Example</text><!--cluster meta--><g id="cluster_meta"><path d="M848,45.6348 L947,45.6348 A3.75,3.75 0 0 1 949.5,48.1348 L956.5,70.2559 L1683,70.2559 A2.5,2.5 0 0 1 1685.5,72.7559 L1685.5,128.1348 A2.5,2.5 0 0 1 1683,130.6348 L848,130.6348 A2.5,2.5 0 0 1 845.5,128.1348 L845.5,48.1348 A2.5,2.5 0 0 1 848,45.6348 " fill="none" style="stroke:#000000;stroke-width:1.5;"/><line style="stroke:#000000;stroke-width:1.5;" x1="845.5" x2="956.5" y1="70.2559" y2="70.2559"/><text fill="#000000" font-family="sans-serif" font-size="14" font-weight="bold" lengthAdjust="spacing" textLength="98" x="849.5" y="62.7422">M3 generated</text></g><!--class Metamodel--><g id="elem_Metamodel"><rect codeLine="8" fill="#F1F1F1" height="32" id="Metamodel" rx="2.5" ry="2.5" style="stroke:#181818;stroke-width:0.5;" width="102" x="861.5" y="82.6348"/><ellipse cx="876.5" cy="98.6348" fill="#B4A7E5" rx="11" ry="11" style="stroke:#181818;stroke-width:1.0;"/><path d="M877.4531,95.2754 L877.4531,101.9316 L879.1719,101.9316 Q879.7813,101.9316 880.0469,102.166 Q880.3125,102.4004 880.3125,102.791 Q880.3125,103.166 880.0469,103.4004 Q879.7813,103.6348 879.1719,103.6348 L874.0313,103.6348 Q873.4219,103.6348 873.1563,103.4004 Q872.8906,103.166 872.8906,102.7754 Q872.8906,102.4004 873.1563,102.166 Q873.4219,101.9316 874.0313,101.9316 L875.75,101.9316 L875.75,95.2754 L874.0313,95.2754 Q873.4219,95.2754 873.1563,95.041 Q872.8906,94.8066 872.8906,94.416 Q872.8906,94.041 873.1563,93.8066 Q873.4219,93.5723 874.0313,93.5723 L879.1719,93.5723 Q879.7813,93.5723 880.0469,93.8066 Q880.3125,94.041 880.3125,94.416 Q880.3125,94.8066 880.0469,95.041 Q879.7813,95.2754 879.1719,95.2754 L877.4531,95.2754 Z " fill="#000000"/><text fill="#000000" font-family="sans-serif" font-size="14" font-style="italic" lengthAdjust="spacing" textLength="70" x="890.5" y="104.4316">Metamodel</text></g><!--class PrimitiveType--><g id="elem_PrimitiveType"><rect codeLine="9" fill="#F1F1F1" height="32" id="PrimitiveType" rx="2.5" ry="2.5" style="stroke:#181818;stroke-width:0.5;" width="116" x="998.5" y="82.6348"/><ellipse cx="1013.5" cy="98.6348" fill="#B4A7E5" rx="11" ry="11" style="stroke:#181818;stroke-width:1.0;"/><path d="M1014.4531,95.2754 L1014.4531,101.9316 L1016.1719,101.9316 Q1016.7813,101.9316 1017.0469,102.166 Q1017.3125,102.4004 1017.3125,102.791 Q1017.3125,103.166 1017.0469,103.4004 Q1016.7813,103.6348 1016.1719,103.6348 L1011.0313,103.6348 Q1010.4219,103.6348 1010.1563,103.4004 Q1009.8906,103.166 1009.8906,102.7754 Q1009.8906,102.4004 1010.1563,102.166 Q1010.4219,101.9316 1011.0313,101.9316 L1012.75,101.9316 L1012.75,95.2754 L1011.0313,95.2754 Q1010.4219,95.2754 1010.1563,95.041 Q1009.8906,94.8066 1009.8906,94.416 Q1009.8906,94.041 1010.1563,93.8066 Q1010.4219,93.5723 1011.0313,93.5723 L1016.1719,93.5723 Q1016.7813,93.5723 1017.0469,93.8066 Q1017.3125,94.041 1017.3125,94.416 Q1017.3125,94.8066 1017.0469,95.041 Q1016.7813,95.2754 1016.1719,95.2754 L1014.4531,95.2754 Z " fill="#000000"/><text fill="#000000" font-family="sans-serif" font-size="14" font-style="italic" lengthAdjust="spacing" textLength="84" x="1027.5" y="104.4316">PrimitiveType</text></g><!--class Concept--><g id="elem_Concept"><rect codeLine="10" fill="#F1F1F1" height="32" id="Concept" rx="2.5" ry="2.5" style="stroke:#181818;stroke-width:0.5;" width="85" x="1440" y="82.6348"/><ellipse cx="1455" cy="98.6348" fill="#B4A7E5" rx="11" ry="11" style="stroke:#181818;stroke-width:1.0;"/><path d="M1455.9531,95.2754 L1455.9531,101.9316 L1457.6719,101.9316 Q1458.2813,101.9316 1458.5469,102.166 Q1458.8125,102.4004 1458.8125,102.791 Q1458.8125,103.166 1458.5469,103.4004 Q1458.2813,103.6348 1457.6719,103.6348 L1452.5313,103.6348 Q1451.9219,103.6348 1451.6563,103.4004 Q1451.3906,103.166 1451.3906,102.7754 Q1451.3906,102.4004 1451.6563,102.166 Q1451.9219,101.9316 1452.5313,101.9316 L1454.25,101.9316 L1454.25,95.2754 L1452.5313,95.2754 Q1451.9219,95.2754 1451.6563,95.041 Q1451.3906,94.8066 1451.3906,94.416 Q1451.3906,94.041 1451.6563,93.8066 Q1451.9219,93.5723 1452.5313,93.5723 L1457.6719,93.5723 Q1458.2813,93.5723 1458.5469,93.8066 Q1458.8125,94.041 1458.8125,94.416 Q1458.8125,94.8066 1458.5469,95.041 Q1458.2813,95.2754 1457.6719,95.2754 L1455.9531,95.2754 Z " fill="#000000"/><text fill="#000000" font-family="sans-serif" font-size="14" font-style="italic" lengthAdjust="spacing" textLength="53" x="1469" y="104.4316">Concept</text></g><!--class Property--><g id="elem_Property"><rect codeLine="11" fill="#F1F1F1" height="32" id="Property" rx="2.5" ry="2.5" style="stroke:#181818;stroke-width:0.5;" width="97" x="1150" y="82.6348"/><ellipse cx="1165" cy="98.6348" fill="#B4A7E5" rx="11" ry="11" style="stroke:#181818;stroke-width:1.0;"/><path d="M1165.9531,95.2754 L1165.9531,101.9316 L1167.6719,101.9316 Q1168.2813,101.9316 1168.5469,102.166 Q1168.8125,102.4004 1168.8125,102.791 Q1168.8125,103.166 1168.5469,103.4004 Q1168.2813,103.6348 1167.6719,103.6348 L1162.5313,103.6348 Q1161.9219,103.6348 1161.6563,103.4004 Q1161.3906,103.166 1161.3906,102.7754 Q1161.3906,102.4004 1161.6563,102.166 Q1161.9219,101.9316 1162.5313,101.9316 L1164.25,101.9316 L1164.25,95.2754 L1162.5313,95.2754 Q1161.9219,95.2754 1161.6563,95.041 Q1161.3906,94.8066 1161.3906,94.416 Q1161.3906,94.041 1161.6563,93.8066 Q1161.9219,93.5723 1162.5313,93.5723 L1167.6719,93.5723 Q1168.2813,93.5723 1168.5469,93.8066 Q1168.8125,94.041 1168.8125,94.416 Q1168.8125,94.8066 1168.5469,95.041 Q1168.2813,95.2754 1167.6719,95.2754 L1165.9531,95.2754 Z " fill="#000000"/><text fill="#000000" font-family="sans-serif" font-size="14" font-style="italic" lengthAdjust="spacing" textLength="54" x="1179" y="104.4316">Property</text><rect fill="#FFFFFF" height="17.9609" style="stroke:#181818;stroke-width:1.0;stroke-dasharray:2.0,2.0;" width="9" x="1241" y="79.6348"/><text fill="#000000" font-family="sans-serif" font-size="12" font-style="italic" lengthAdjust="spacing" textLength="7" x="1242" y="93.584">T</text></g><!--class Containment--><g id="elem_Containment"><rect codeLine="12" fill="#F1F1F1" height="32" id="Containment" rx="2.5" ry="2.5" style="stroke:#181818;stroke-width:0.5;" width="123" x="1282" y="82.6348"/><ellipse cx="1297" cy="98.6348" fill="#B4A7E5" rx="11" ry="11" style="stroke:#181818;stroke-width:1.0;"/><path d="M1297.9531,95.2754 L1297.9531,101.9316 L1299.6719,101.9316 Q1300.2813,101.9316 1300.5469,102.166 Q1300.8125,102.4004 1300.8125,102.791 Q1300.8125,103.166 1300.5469,103.4004 Q1300.2813,103.6348 1299.6719,103.6348 L1294.5313,103.6348 Q1293.9219,103.6348 1293.6563,103.4004 Q1293.3906,103.166 1293.3906,102.7754 Q1293.3906,102.4004 1293.6563,102.166 Q1293.9219,101.9316 1294.5313,101.9316 L1296.25,101.9316 L1296.25,95.2754 L1294.5313,95.2754 Q1293.9219,95.2754 1293.6563,95.041 Q1293.3906,94.8066 1293.3906,94.416 Q1293.3906,94.041 1293.6563,93.8066 Q1293.9219,93.5723 1294.5313,93.5723 L1299.6719,93.5723 Q1300.2813,93.5723 1300.5469,93.8066 Q1300.8125,94.041 1300.8125,94.416 Q1300.8125,94.8066 1300.5469,95.041 Q1300.2813,95.2754 1299.6719,95.2754 L1297.9531,95.2754 Z " fill="#000000"/><text fill="#000000" font-family="sans-serif" font-size="14" font-style="italic" lengthAdjust="spacing" textLength="80" x="1311" y="104.4316">Containment</text><rect fill="#FFFFFF" height="17.9609" style="stroke:#181818;stroke-width:1.0;stroke-dasharray:2.0,2.0;" width="9" x="1399" y="79.6348"/><text fill="#000000" font-family="sans-serif" font-size="12" font-style="italic" lengthAdjust="spacing" textLength="7" x="1400" y="93.584">T</text></g><!--class Reference--><g id="elem_Reference"><rect codeLine="13" fill="#F1F1F1" height="32" id="Reference" rx="2.5" ry="2.5" style="stroke:#181818;stroke-width:0.5;" width="109" x="1560" y="82.6348"/><ellipse cx="1575" cy="98.6348" fill="#B4A7E5" rx="11" ry="11" style="stroke:#181818;stroke-width:1.0;"/><path d="M1575.9531,95.2754 L1575.9531,101.9316 L1577.6719,101.9316 Q1578.2813,101.9316 1578.5469,102.166 Q1578.8125,102.4004 1578.8125,102.791 Q1578.8125,103.166 1578.5469,103.4004 Q1578.2813,103.6348 1577.6719,103.6348 L1572.5313,103.6348 Q1571.9219,103.6348 1571.6563,103.4004 Q1571.3906,103.166 1571.3906,102.7754 Q1571.3906,102.4004 1571.6563,102.166 Q1571.9219,101.9316 1572.5313,101.9316 L1574.25,101.9316 L1574.25,95.2754 L1572.5313,95.2754 Q1571.9219,95.2754 1571.6563,95.041 Q1571.3906,94.8066 1571.3906,94.416 Q1571.3906,94.041 1571.6563,93.8066 Q1571.9219,93.5723 1572.5313,93.5723 L1577.6719,93.5723 Q1578.2813,93.5723 1578.5469,93.8066 Q1578.8125,94.041 1578.8125,94.416 Q1578.8125,94.8066 1578.5469,95.041 Q1578.2813,95.2754 1577.6719,95.2754 L1575.9531,95.2754 Z " fill="#000000"/><text fill="#000000" font-family="sans-serif" font-size="14" font-style="italic" lengthAdjust="spacing" textLength="66" x="1589" y="104.4316">Reference</text><rect fill="#FFFFFF" height="17.9609" style="stroke:#181818;stroke-width:1.0;stroke-dasharray:2.0,2.0;" width="9" x="1663" y="79.6348"/><text fill="#000000" font-family="sans-serif" font-size="12" font-style="italic" lengthAdjust="spacing" textLength="7" x="1664" y="93.584">T</text></g><!--class library--><g id="elem_library"><rect codeLine="16" fill="#F1F1F1" height="71.2031" id="library" rx="2.5" ry="2.5" style="stroke:#181818;stroke-width:0.5;" width="169" x="7" y="195.6348"/><ellipse cx="50.8" cy="217.9258" fill="#B4A7E5" rx="11" ry="11" style="stroke:#181818;stroke-width:1.0;"/><path d="M51.7531,214.5664 L51.7531,221.2227 L53.4719,221.2227 Q54.0813,221.2227 54.3469,221.457 Q54.6125,221.6914 54.6125,222.082 Q54.6125,222.457 54.3469,222.6914 Q54.0813,222.9258 53.4719,222.9258 L48.3313,222.9258 Q47.7219,222.9258 47.4563,222.6914 Q47.1906,222.457 47.1906,222.0664 Q47.1906,221.6914 47.4563,221.457 Q47.7219,221.2227 48.3313,221.2227 L50.05,221.2227 L50.05,214.5664 L48.3313,214.5664 Q47.7219,214.5664 47.4563,214.332 Q47.1906,214.0977 47.1906,213.707 Q47.1906,213.332 47.4563,213.0977 Q47.7219,212.8633 48.3313,212.8633 L53.4719,212.8633 Q54.0813,212.8633 54.3469,213.0977 Q54.6125,213.332 54.6125,213.707 Q54.6125,214.0977 54.3469,214.332 Q54.0813,214.5664 53.4719,214.5664 L51.7531,214.5664 Z " fill="#000000"/><text fill="#000000" font-family="sans-serif" font-size="12" font-style="italic" lengthAdjust="spacing" textLength="77" x="69.2" y="213.584">«metamodel»</text><text fill="#000000" font-family="sans-serif" font-size="14" font-style="italic" lengthAdjust="spacing" textLength="39" x="88.2" y="231.7031">library</text><line style="stroke:#181818;stroke-width:0.5;" x1="8" x2="175" y1="240.2168" y2="240.2168"/><text fill="#000000" font-family="sans-serif" font-size="14" lengthAdjust="spacing" textLength="157" x="13" y="259.3242">runtime = runtime::library</text></g><!--class LibBoolean--><g id="elem_LibBoolean"><rect codeLine="20" fill="#F1F1F1" height="71.2031" id="LibBoolean" rx="2.5" ry="2.5" style="stroke:#181818;stroke-width:0.5;" width="201" x="439" y="195.6348"/><ellipse cx="492.75" cy="217.9258" fill="#B4A7E5" rx="11" ry="11" style="stroke:#181818;stroke-width:1.0;"/><path d="M493.7031,214.5664 L493.7031,221.2227 L495.4219,221.2227 Q496.0313,221.2227 496.2969,221.457 Q496.5625,221.6914 496.5625,222.082 Q496.5625,222.457 496.2969,222.6914 Q496.0313,222.9258 495.4219,222.9258 L490.2813,222.9258 Q489.6719,222.9258 489.4063,222.6914 Q489.1406,222.457 489.1406,222.0664 Q489.1406,221.6914 489.4063,221.457 Q489.6719,221.2227 490.2813,221.2227 L492,221.2227 L492,214.5664 L490.2813,214.5664 Q489.6719,214.5664 489.4063,214.332 Q489.1406,214.0977 489.1406,213.707 Q489.1406,213.332 489.4063,213.0977 Q489.6719,212.8633 490.2813,212.8633 L495.4219,212.8633 Q496.0313,212.8633 496.2969,213.0977 Q496.5625,213.332 496.5625,213.707 Q496.5625,214.0977 496.2969,214.332 Q496.0313,214.5664 495.4219,214.5664 L493.7031,214.5664 Z " fill="#000000"/><text fill="#000000" font-family="sans-serif" font-size="12" font-style="italic" lengthAdjust="spacing" textLength="89" x="511.25" y="213.584">«PrimitiveType»</text><text fill="#000000" font-family="sans-serif" font-size="14" font-style="italic" lengthAdjust="spacing" textLength="71" x="520.25" y="231.7031">LibBoolean</text><line style="stroke:#181818;stroke-width:0.5;" x1="440" x2="639" y1="240.2168" y2="240.2168"/><text fill="#000000" font-family="sans-serif" font-size="14" lengthAdjust="spacing" textLength="189" x="445" y="259.3242">runtime = runtime::LibBoolean</text></g><!--class LibString--><g id="elem_LibString"><rect codeLine="24" fill="#F1F1F1" height="71.2031" id="LibString" rx="2.5" ry="2.5" style="stroke:#181818;stroke-width:0.5;" width="186" x="675.5" y="195.6348"/><ellipse cx="721.75" cy="217.9258" fill="#B4A7E5" rx="11" ry="11" style="stroke:#181818;stroke-width:1.0;"/><path d="M722.7031,214.5664 L722.7031,221.2227 L724.4219,221.2227 Q725.0313,221.2227 725.2969,221.457 Q725.5625,221.6914 725.5625,222.082 Q725.5625,222.457 725.2969,222.6914 Q725.0313,222.9258 724.4219,222.9258 L719.2813,222.9258 Q718.6719,222.9258 718.4063,222.6914 Q718.1406,222.457 718.1406,222.0664 Q718.1406,221.6914 718.4063,221.457 Q718.6719,221.2227 719.2813,221.2227 L721,221.2227 L721,214.5664 L719.2813,214.5664 Q718.6719,214.5664 718.4063,214.332 Q718.1406,214.0977 718.1406,213.707 Q718.1406,213.332 718.4063,213.0977 Q718.6719,212.8633 719.2813,212.8633 L724.4219,212.8633 Q725.0313,212.8633 725.2969,213.0977 Q725.5625,213.332 725.5625,213.707 Q725.5625,214.0977 725.2969,214.332 Q725.0313,214.5664 724.4219,214.5664 L722.7031,214.5664 Z " fill="#000000"/><text fill="#000000" font-family="sans-serif" font-size="12" font-style="italic" lengthAdjust="spacing" textLength="89" x="740.25" y="213.584">«PrimitiveType»</text><text fill="#000000" font-family="sans-serif" font-size="14" font-style="italic" lengthAdjust="spacing" textLength="56" x="756.75" y="231.7031">LibString</text><line style="stroke:#181818;stroke-width:0.5;" x1="676.5" x2="860.5" y1="240.2168" y2="240.2168"/><text fill="#000000" font-family="sans-serif" font-size="14" lengthAdjust="spacing" textLength="174" x="681.5" y="259.3242">runtime = runtime::LibString</text></g><!--class LibInteger--><g id="elem_LibInteger"><rect codeLine="28" fill="#F1F1F1" height="71.2031" id="LibInteger" rx="2.5" ry="2.5" style="stroke:#181818;stroke-width:0.5;" width="193" x="211" y="195.6348"/><ellipse cx="260.75" cy="217.9258" fill="#B4A7E5" rx="11" ry="11" style="stroke:#181818;stroke-width:1.0;"/><path d="M261.7031,214.5664 L261.7031,221.2227 L263.4219,221.2227 Q264.0313,221.2227 264.2969,221.457 Q264.5625,221.6914 264.5625,222.082 Q264.5625,222.457 264.2969,222.6914 Q264.0313,222.9258 263.4219,222.9258 L258.2813,222.9258 Q257.6719,222.9258 257.4063,222.6914 Q257.1406,222.457 257.1406,222.0664 Q257.1406,221.6914 257.4063,221.457 Q257.6719,221.2227 258.2813,221.2227 L260,221.2227 L260,214.5664 L258.2813,214.5664 Q257.6719,214.5664 257.4063,214.332 Q257.1406,214.0977 257.1406,213.707 Q257.1406,213.332 257.4063,213.0977 Q257.6719,212.8633 258.2813,212.8633 L263.4219,212.8633 Q264.0313,212.8633 264.2969,213.0977 Q264.5625,213.332 264.5625,213.707 Q264.5625,214.0977 264.2969,214.332 Q264.0313,214.5664 263.4219,214.5664 L261.7031,214.5664 Z " fill="#000000"/><text fill="#000000" font-family="sans-serif" font-size="12" font-style="italic" lengthAdjust="spacing" textLength="89" x="279.25" y="213.584">«PrimitiveType»</text><text fill="#000000" font-family="sans-serif" font-size="14" font-style="italic" lengthAdjust="spacing" textLength="64" x="291.75" y="231.7031">LibInteger</text><line style="stroke:#181818;stroke-width:0.5;" x1="212" x2="403" y1="240.2168" y2="240.2168"/><text fill="#000000" font-family="sans-serif" font-size="14" lengthAdjust="spacing" textLength="181" x="217" y="259.3242">runtime = runtime::LibInteger</text></g><!--class Library--><g id="elem_Library"><rect codeLine="32" fill="#90EE90" height="71.2031" id="Library" rx="2.5" ry="2.5" style="stroke:#181818;stroke-width:0.5;" width="174" x="1251.5" y="195.6348"/><ellipse cx="1307.75" cy="217.9258" fill="#B4A7E5" rx="11" ry="11" style="stroke:#181818;stroke-width:1.0;"/><path d="M1308.7031,214.5664 L1308.7031,221.2227 L1310.4219,221.2227 Q1311.0313,221.2227 1311.2969,221.457 Q1311.5625,221.6914 1311.5625,222.082 Q1311.5625,222.457 1311.2969,222.6914 Q1311.0313,222.9258 1310.4219,222.9258 L1305.2813,222.9258 Q1304.6719,222.9258 1304.4063,222.6914 Q1304.1406,222.457 1304.1406,222.0664 Q1304.1406,221.6914 1304.4063,221.457 Q1304.6719,221.2227 1305.2813,221.2227 L1307,221.2227 L1307,214.5664 L1305.2813,214.5664 Q1304.6719,214.5664 1304.4063,214.332 Q1304.1406,214.0977 1304.1406,213.707 Q1304.1406,213.332 1304.4063,213.0977 Q1304.6719,212.8633 1305.2813,212.8633 L1310.4219,212.8633 Q1311.0313,212.8633 1311.2969,213.0977 Q1311.5625,213.332 1311.5625,213.707 Q1311.5625,214.0977 1311.2969,214.332 Q1311.0313,214.5664 1310.4219,214.5664 L1308.7031,214.5664 Z " fill="#000000"/><text fill="#000000" font-family="sans-serif" font-size="12" font-style="italic" lengthAdjust="spacing" textLength="57" x="1326.25" y="213.584">«concept»</text><text fill="#000000" font-family="sans-serif" font-size="14" font-style="italic" lengthAdjust="spacing" textLength="44" x="1332.75" y="231.7031">Library</text><line style="stroke:#181818;stroke-width:0.5;" x1="1252.5" x2="1424.5" y1="240.2168" y2="240.2168"/><text fill="#000000" font-family="sans-serif" font-size="14" lengthAdjust="spacing" textLength="162" x="1257.5" y="259.3242">runtime = runtime::Library</text></g><!--class LibraryName--><g id="elem_LibraryName"><rect codeLine="36" fill="#FFB6C1" height="71.2031" id="LibraryName" rx="2.5" ry="2.5" style="stroke:#181818;stroke-width:0.5;" width="210" x="1460.5" y="195.6348"/><ellipse cx="1520.75" cy="217.9258" fill="#B4A7E5" rx="11" ry="11" style="stroke:#181818;stroke-width:1.0;"/><path d="M1521.7031,214.5664 L1521.7031,221.2227 L1523.4219,221.2227 Q1524.0313,221.2227 1524.2969,221.457 Q1524.5625,221.6914 1524.5625,222.082 Q1524.5625,222.457 1524.2969,222.6914 Q1524.0313,222.9258 1523.4219,222.9258 L1518.2813,222.9258 Q1517.6719,222.9258 1517.4063,222.6914 Q1517.1406,222.457 1517.1406,222.0664 Q1517.1406,221.6914 1517.4063,221.457 Q1517.6719,221.2227 1518.2813,221.2227 L1520,221.2227 L1520,214.5664 L1518.2813,214.5664 Q1517.6719,214.5664 1517.4063,214.332 Q1517.1406,214.0977 1517.1406,213.707 Q1517.1406,213.332 1517.4063,213.0977 Q1517.6719,212.8633 1518.2813,212.8633 L1523.4219,212.8633 Q1524.0313,212.8633 1524.2969,213.0977 Q1524.5625,213.332 1524.5625,213.707 Q1524.5625,214.0977 1524.2969,214.332 Q1524.0313,214.5664 1523.4219,214.5664 L1521.7031,214.5664 Z " fill="#000000"/><text fill="#000000" font-family="sans-serif" font-size="12" font-style="italic" lengthAdjust="spacing" textLength="59" x="1552.25" y="213.584">«property»</text><text fill="#000000" font-family="sans-serif" font-size="14" font-style="italic" lengthAdjust="spacing" textLength="81" x="1541.25" y="231.7031">LibraryName</text><line style="stroke:#181818;stroke-width:0.5;" x1="1461.5" x2="1669.5" y1="240.2168" y2="240.2168"/><text fill="#000000" font-family="sans-serif" font-size="14" lengthAdjust="spacing" textLength="198" x="1466.5" y="259.3242">runtime = runtime::LibraryName</text></g><!--class LibraryBooks--><g id="elem_LibraryBooks"><rect codeLine="42" fill="#ADD8E6" height="71.2031" id="LibraryBooks" rx="2.5" ry="2.5" style="stroke:#181818;stroke-width:0.5;" width="213" x="1567" y="327.6348"/><ellipse cx="1627.25" cy="349.9258" fill="#B4A7E5" rx="11" ry="11" style="stroke:#181818;stroke-width:1.0;"/><path d="M1628.2031,346.5664 L1628.2031,353.2227 L1629.9219,353.2227 Q1630.5313,353.2227 1630.7969,353.457 Q1631.0625,353.6914 1631.0625,354.082 Q1631.0625,354.457 1630.7969,354.6914 Q1630.5313,354.9258 1629.9219,354.9258 L1624.7813,354.9258 Q1624.1719,354.9258 1623.9063,354.6914 Q1623.6406,354.457 1623.6406,354.0664 Q1623.6406,353.6914 1623.9063,353.457 Q1624.1719,353.2227 1624.7813,353.2227 L1626.5,353.2227 L1626.5,346.5664 L1624.7813,346.5664 Q1624.1719,346.5664 1623.9063,346.332 Q1623.6406,346.0977 1623.6406,345.707 Q1623.6406,345.332 1623.9063,345.0977 Q1624.1719,344.8633 1624.7813,344.8633 L1629.9219,344.8633 Q1630.5313,344.8633 1630.7969,345.0977 Q1631.0625,345.332 1631.0625,345.707 Q1631.0625,346.0977 1630.7969,346.332 Q1630.5313,346.5664 1629.9219,346.5664 L1628.2031,346.5664 Z " fill="#000000"/><text fill="#000000" font-family="sans-serif" font-size="12" font-style="italic" lengthAdjust="spacing" textLength="82" x="1648.75" y="345.584">«containment»</text><text fill="#000000" font-family="sans-serif" font-size="14" font-style="italic" lengthAdjust="spacing" textLength="84" x="1647.75" y="363.7031">LibraryBooks</text><line style="stroke:#181818;stroke-width:0.5;" x1="1568" x2="1779" y1="372.2168" y2="372.2168"/><text fill="#000000" font-family="sans-serif" font-size="14" lengthAdjust="spacing" textLength="201" x="1573" y="391.3242">runtime = runtime::LibraryBooks</text></g><!--class Book--><g id="elem_Book"><rect codeLine="48" fill="#90EE90" height="71.2031" id="Book" rx="2.5" ry="2.5" style="stroke:#181818;stroke-width:0.5;" width="162" x="1592.5" y="459.6348"/><ellipse cx="1642.75" cy="481.9258" fill="#B4A7E5" rx="11" ry="11" style="stroke:#181818;stroke-width:1.0;"/><path d="M1643.7031,478.5664 L1643.7031,485.2227 L1645.4219,485.2227 Q1646.0313,485.2227 1646.2969,485.457 Q1646.5625,485.6914 1646.5625,486.082 Q1646.5625,486.457 1646.2969,486.6914 Q1646.0313,486.9258 1645.4219,486.9258 L1640.2813,486.9258 Q1639.6719,486.9258 1639.4063,486.6914 Q1639.1406,486.457 1639.1406,486.0664 Q1639.1406,485.6914 1639.4063,485.457 Q1639.6719,485.2227 1640.2813,485.2227 L1642,485.2227 L1642,478.5664 L1640.2813,478.5664 Q1639.6719,478.5664 1639.4063,478.332 Q1639.1406,478.0977 1639.1406,477.707 Q1639.1406,477.332 1639.4063,477.0977 Q1639.6719,476.8633 1640.2813,476.8633 L1645.4219,476.8633 Q1646.0313,476.8633 1646.2969,477.0977 Q1646.5625,477.332 1646.5625,477.707 Q1646.5625,478.0977 1646.2969,478.332 Q1646.0313,478.5664 1645.4219,478.5664 L1643.7031,478.5664 Z " fill="#000000"/><text fill="#000000" font-family="sans-serif" font-size="12" font-style="italic" lengthAdjust="spacing" textLength="57" x="1661.25" y="477.584">«concept»</text><text fill="#000000" font-family="sans-serif" font-size="14" font-style="italic" lengthAdjust="spacing" textLength="33" x="1673.25" y="495.7031">Book</text><line style="stroke:#181818;stroke-width:0.5;" x1="1593.5" x2="1753.5" y1="504.2168" y2="504.2168"/><text fill="#000000" font-family="sans-serif" font-size="14" lengthAdjust="spacing" textLength="150" x="1598.5" y="523.3242">runtime = runtime::Book</text></g><!--class BookTitle--><g id="elem_BookTitle"><rect codeLine="53" fill="#FFB6C1" height="71.2031" id="BookTitle" rx="2.5" ry="2.5" style="stroke:#181818;stroke-width:0.5;" width="189" x="1203" y="609.6348"/><ellipse cx="1263.25" cy="631.9258" fill="#B4A7E5" rx="11" ry="11" style="stroke:#181818;stroke-width:1.0;"/><path d="M1264.2031,628.5664 L1264.2031,635.2227 L1265.9219,635.2227 Q1266.5313,635.2227 1266.7969,635.457 Q1267.0625,635.6914 1267.0625,636.082 Q1267.0625,636.457 1266.7969,636.6914 Q1266.5313,636.9258 1265.9219,636.9258 L1260.7813,636.9258 Q1260.1719,636.9258 1259.9063,636.6914 Q1259.6406,636.457 1259.6406,636.0664 Q1259.6406,635.6914 1259.9063,635.457 Q1260.1719,635.2227 1260.7813,635.2227 L1262.5,635.2227 L1262.5,628.5664 L1260.7813,628.5664 Q1260.1719,628.5664 1259.9063,628.332 Q1259.6406,628.0977 1259.6406,627.707 Q1259.6406,627.332 1259.9063,627.0977 Q1260.1719,626.8633 1260.7813,626.8633 L1265.9219,626.8633 Q1266.5313,626.8633 1266.7969,627.0977 Q1267.0625,627.332 1267.0625,627.707 Q1267.0625,628.0977 1266.7969,628.332 Q1266.5313,628.5664 1265.9219,628.5664 L1264.2031,628.5664 Z " fill="#000000"/><text fill="#000000" font-family="sans-serif" font-size="12" font-style="italic" lengthAdjust="spacing" textLength="59" x="1284.25" y="627.584">«property»</text><text fill="#000000" font-family="sans-serif" font-size="14" font-style="italic" lengthAdjust="spacing" textLength="60" x="1283.75" y="645.7031">BookTitle</text><line style="stroke:#181818;stroke-width:0.5;" x1="1204" x2="1391" y1="654.2168" y2="654.2168"/><text fill="#000000" font-family="sans-serif" font-size="14" lengthAdjust="spacing" textLength="177" x="1209" y="673.3242">runtime = runtime::BookTitle</text></g><!--class BookPages--><g id="elem_BookPages"><rect codeLine="59" fill="#FFB6C1" height="71.2031" id="BookPages" rx="2.5" ry="2.5" style="stroke:#181818;stroke-width:0.5;" width="202" x="1465.5" y="609.6348"/><ellipse cx="1525.75" cy="631.9258" fill="#B4A7E5" rx="11" ry="11" style="stroke:#181818;stroke-width:1.0;"/><path d="M1526.7031,628.5664 L1526.7031,635.2227 L1528.4219,635.2227 Q1529.0313,635.2227 1529.2969,635.457 Q1529.5625,635.6914 1529.5625,636.082 Q1529.5625,636.457 1529.2969,636.6914 Q1529.0313,636.9258 1528.4219,636.9258 L1523.2813,636.9258 Q1522.6719,636.9258 1522.4063,636.6914 Q1522.1406,636.457 1522.1406,636.0664 Q1522.1406,635.6914 1522.4063,635.457 Q1522.6719,635.2227 1523.2813,635.2227 L1525,635.2227 L1525,628.5664 L1523.2813,628.5664 Q1522.6719,628.5664 1522.4063,628.332 Q1522.1406,628.0977 1522.1406,627.707 Q1522.1406,627.332 1522.4063,627.0977 Q1522.6719,626.8633 1523.2813,626.8633 L1528.4219,626.8633 Q1529.0313,626.8633 1529.2969,627.0977 Q1529.5625,627.332 1529.5625,627.707 Q1529.5625,628.0977 1529.2969,628.332 Q1529.0313,628.5664 1528.4219,628.5664 L1526.7031,628.5664 Z " fill="#000000"/><text fill="#000000" font-family="sans-serif" font-size="12" font-style="italic" lengthAdjust="spacing" textLength="59" x="1553.25" y="627.584">«property»</text><text fill="#000000" font-family="sans-serif" font-size="14" font-style="italic" lengthAdjust="spacing" textLength="73" x="1546.25" y="645.7031">BookPages</text><line style="stroke:#181818;stroke-width:0.5;" x1="1466.5" x2="1666.5" y1="654.2168" y2="654.2168"/><text fill="#000000" font-family="sans-serif" font-size="14" lengthAdjust="spacing" textLength="190" x="1471.5" y="673.3242">runtime = runtime::BookPages</text></g><!--class BookAuthor--><g id="elem_BookAuthor"><rect codeLine="65" fill="#87CEFA" height="71.2031" id="BookAuthor" rx="2.5" ry="2.5" style="stroke:#181818;stroke-width:0.5;" width="204" x="1811.5" y="609.6348"/><ellipse cx="1871.75" cy="631.9258" fill="#B4A7E5" rx="11" ry="11" style="stroke:#181818;stroke-width:1.0;"/><path d="M1872.7031,628.5664 L1872.7031,635.2227 L1874.4219,635.2227 Q1875.0313,635.2227 1875.2969,635.457 Q1875.5625,635.6914 1875.5625,636.082 Q1875.5625,636.457 1875.2969,636.6914 Q1875.0313,636.9258 1874.4219,636.9258 L1869.2813,636.9258 Q1868.6719,636.9258 1868.4063,636.6914 Q1868.1406,636.457 1868.1406,636.0664 Q1868.1406,635.6914 1868.4063,635.457 Q1868.6719,635.2227 1869.2813,635.2227 L1871,635.2227 L1871,628.5664 L1869.2813,628.5664 Q1868.6719,628.5664 1868.4063,628.332 Q1868.1406,628.0977 1868.1406,627.707 Q1868.1406,627.332 1868.4063,627.0977 Q1868.6719,626.8633 1869.2813,626.8633 L1874.4219,626.8633 Q1875.0313,626.8633 1875.2969,627.0977 Q1875.5625,627.332 1875.5625,627.707 Q1875.5625,628.0977 1875.2969,628.332 Q1875.0313,628.5664 1874.4219,628.5664 L1872.7031,628.5664 Z " fill="#000000"/><text fill="#000000" font-family="sans-serif" font-size="12" font-style="italic" lengthAdjust="spacing" textLength="66" x="1896.75" y="627.584">«reference»</text><text fill="#000000" font-family="sans-serif" font-size="14" font-style="italic" lengthAdjust="spacing" textLength="75" x="1892.25" y="645.7031">BookAuthor</text><line style="stroke:#181818;stroke-width:0.5;" x1="1812.5" x2="2014.5" y1="654.2168" y2="654.2168"/><text fill="#000000" font-family="sans-serif" font-size="14" lengthAdjust="spacing" textLength="192" x="1817.5" y="673.3242">runtime = runtime::BookAuthor</text></g><!--class Writer--><g id="elem_Writer"><rect codeLine="71" fill="#90EE90" height="71.2031" id="Writer" rx="2.5" ry="2.5" style="stroke:#181818;stroke-width:0.5;" width="168" x="1829.5" y="741.6348"/><ellipse cx="1882.75" cy="763.9258" fill="#B4A7E5" rx="11" ry="11" style="stroke:#181818;stroke-width:1.0;"/><path d="M1883.7031,760.5664 L1883.7031,767.2227 L1885.4219,767.2227 Q1886.0313,767.2227 1886.2969,767.457 Q1886.5625,767.6914 1886.5625,768.082 Q1886.5625,768.457 1886.2969,768.6914 Q1886.0313,768.9258 1885.4219,768.9258 L1880.2813,768.9258 Q1879.6719,768.9258 1879.4063,768.6914 Q1879.1406,768.457 1879.1406,768.0664 Q1879.1406,767.6914 1879.4063,767.457 Q1879.6719,767.2227 1880.2813,767.2227 L1882,767.2227 L1882,760.5664 L1880.2813,760.5664 Q1879.6719,760.5664 1879.4063,760.332 Q1879.1406,760.0977 1879.1406,759.707 Q1879.1406,759.332 1879.4063,759.0977 Q1879.6719,758.8633 1880.2813,758.8633 L1885.4219,758.8633 Q1886.0313,758.8633 1886.2969,759.0977 Q1886.5625,759.332 1886.5625,759.707 Q1886.5625,760.0977 1886.2969,760.332 Q1886.0313,760.5664 1885.4219,760.5664 L1883.7031,760.5664 Z " fill="#000000"/><text fill="#000000" font-family="sans-serif" font-size="12" font-style="italic" lengthAdjust="spacing" textLength="57" x="1901.25" y="759.584">«concept»</text><text fill="#000000" font-family="sans-serif" font-size="14" font-style="italic" lengthAdjust="spacing" textLength="39" x="1910.25" y="777.7031">Writer</text><line style="stroke:#181818;stroke-width:0.5;" x1="1830.5" x2="1996.5" y1="786.2168" y2="786.2168"/><text fill="#000000" font-family="sans-serif" font-size="14" lengthAdjust="spacing" textLength="156" x="1835.5" y="805.3242">runtime = runtime::Writer</text></g><!--class WriterName--><g id="elem_WriterName"><rect codeLine="77" fill="#FFB6C1" height="71.2031" id="WriterName" rx="2.5" ry="2.5" style="stroke:#181818;stroke-width:0.5;" width="204" x="1158.5" y="873.6348"/><ellipse cx="1218.25" cy="895.9258" fill="#B4A7E5" rx="11" ry="11" style="stroke:#181818;stroke-width:1.0;"/><path d="M1219.2031,892.5664 L1219.2031,899.2227 L1220.9219,899.2227 Q1221.5313,899.2227 1221.7969,899.457 Q1222.0625,899.6914 1222.0625,900.082 Q1222.0625,900.457 1221.7969,900.6914 Q1221.5313,900.9258 1220.9219,900.9258 L1215.7813,900.9258 Q1215.1719,900.9258 1214.9063,900.6914 Q1214.6406,900.457 1214.6406,900.0664 Q1214.6406,899.6914 1214.9063,899.457 Q1215.1719,899.2227 1215.7813,899.2227 L1217.5,899.2227 L1217.5,892.5664 L1215.7813,892.5664 Q1215.1719,892.5664 1214.9063,892.332 Q1214.6406,892.0977 1214.6406,891.707 Q1214.6406,891.332 1214.9063,891.0977 Q1215.1719,890.8633 1215.7813,890.8633 L1220.9219,890.8633 Q1221.5313,890.8633 1221.7969,891.0977 Q1222.0625,891.332 1222.0625,891.707 Q1222.0625,892.0977 1221.7969,892.332 Q1221.5313,892.5664 1220.9219,892.5664 L1219.2031,892.5664 Z " fill="#000000"/><text fill="#000000" font-family="sans-serif" font-size="12" font-style="italic" lengthAdjust="spacing" textLength="59" x="1247.25" y="891.584">«property»</text><text fill="#000000" font-family="sans-serif" font-size="14" font-style="italic" lengthAdjust="spacing" textLength="76" x="1238.75" y="909.7031">WriterName</text><line style="stroke:#181818;stroke-width:0.5;" x1="1159.5" x2="1361.5" y1="918.2168" y2="918.2168"/><text fill="#000000" font-family="sans-serif" font-size="14" lengthAdjust="spacing" textLength="192" x="1164.5" y="937.3242">runtime = runtime::WriterName</text></g><!--class SpecialistBookWriter--><g id="elem_SpecialistBookWriter"><rect codeLine="83" fill="#90EE90" height="71.2031" id="SpecialistBookWriter" rx="2.5" ry="2.5" style="stroke:#181818;stroke-width:0.5;" width="260" x="1848.5" y="873.6348"/><ellipse cx="1908.25" cy="895.9258" fill="#B4A7E5" rx="11" ry="11" style="stroke:#181818;stroke-width:1.0;"/><path d="M1909.2031,892.5664 L1909.2031,899.2227 L1910.9219,899.2227 Q1911.5313,899.2227 1911.7969,899.457 Q1912.0625,899.6914 1912.0625,900.082 Q1912.0625,900.457 1911.7969,900.6914 Q1911.5313,900.9258 1910.9219,900.9258 L1905.7813,900.9258 Q1905.1719,900.9258 1904.9063,900.6914 Q1904.6406,900.457 1904.6406,900.0664 Q1904.6406,899.6914 1904.9063,899.457 Q1905.1719,899.2227 1905.7813,899.2227 L1907.5,899.2227 L1907.5,892.5664 L1905.7813,892.5664 Q1905.1719,892.5664 1904.9063,892.332 Q1904.6406,892.0977 1904.6406,891.707 Q1904.6406,891.332 1904.9063,891.0977 Q1905.1719,890.8633 1905.7813,890.8633 L1910.9219,890.8633 Q1911.5313,890.8633 1911.7969,891.0977 Q1912.0625,891.332 1912.0625,891.707 Q1912.0625,892.0977 1911.7969,892.332 Q1911.5313,892.5664 1910.9219,892.5664 L1909.2031,892.5664 Z " fill="#000000"/><text fill="#000000" font-family="sans-serif" font-size="12" font-style="italic" lengthAdjust="spacing" textLength="57" x="1966.25" y="891.584">«concept»</text><text fill="#000000" font-family="sans-serif" font-size="14" font-style="italic" lengthAdjust="spacing" textLength="132" x="1928.75" y="909.7031">SpecialistBookWriter</text><line style="stroke:#181818;stroke-width:0.5;" x1="1849.5" x2="2107.5" y1="918.2168" y2="918.2168"/><text fill="#000000" font-family="sans-serif" font-size="14" lengthAdjust="spacing" textLength="248" x="1854.5" y="937.3242">runtime = runtime::SpecialistBookWriter</text></g><!--class SpecialistBookWriterSubject--><g id="elem_SpecialistBookWriterSubject"><rect codeLine="87" fill="#FFB6C1" height="71.2031" id="SpecialistBookWriterSubject" rx="2.5" ry="2.5" style="stroke:#181818;stroke-width:0.5;" width="307" x="1503" y="1005.6348"/><ellipse cx="1562.75" cy="1027.9258" fill="#B4A7E5" rx="11" ry="11" style="stroke:#181818;stroke-width:1.0;"/><path d="M1563.7031,1024.5664 L1563.7031,1031.2227 L1565.4219,1031.2227 Q1566.0313,1031.2227 1566.2969,1031.457 Q1566.5625,1031.6914 1566.5625,1032.082 Q1566.5625,1032.457 1566.2969,1032.6914 Q1566.0313,1032.9258 1565.4219,1032.9258 L1560.2813,1032.9258 Q1559.6719,1032.9258 1559.4063,1032.6914 Q1559.1406,1032.457 1559.1406,1032.0664 Q1559.1406,1031.6914 1559.4063,1031.457 Q1559.6719,1031.2227 1560.2813,1031.2227 L1562,1031.2227 L1562,1024.5664 L1560.2813,1024.5664 Q1559.6719,1024.5664 1559.4063,1024.332 Q1559.1406,1024.0977 1559.1406,1023.707 Q1559.1406,1023.332 1559.4063,1023.0977 Q1559.6719,1022.8633 1560.2813,1022.8633 L1565.4219,1022.8633 Q1566.0313,1022.8633 1566.2969,1023.0977 Q1566.5625,1023.332 1566.5625,1023.707 Q1566.5625,1024.0977 1566.2969,1024.332 Q1566.0313,1024.5664 1565.4219,1024.5664 L1563.7031,1024.5664 Z " fill="#000000"/><text fill="#000000" font-family="sans-serif" font-size="12" font-style="italic" lengthAdjust="spacing" textLength="59" x="1643.25" y="1023.584">«property»</text><text fill="#000000" font-family="sans-serif" font-size="14" font-style="italic" lengthAdjust="spacing" textLength="179" x="1583.25" y="1041.7031">SpecialistBookWriterSubject</text><line style="stroke:#181818;stroke-width:0.5;" x1="1504" x2="1809" y1="1050.2168" y2="1050.2168"/><text fill="#000000" font-family="sans-serif" font-size="14" lengthAdjust="spacing" textLength="295" x="1509" y="1069.3242">runtime = runtime::SpecialistBookWriterSubject</text></g><!--class GuideBookWriter--><g id="elem_GuideBookWriter"><rect codeLine="93" fill="#90EE90" height="71.2031" id="GuideBookWriter" rx="2.5" ry="2.5" style="stroke:#181818;stroke-width:0.5;" width="238" x="1575.5" y="873.6348"/><ellipse cx="1635.25" cy="895.9258" fill="#B4A7E5" rx="11" ry="11" style="stroke:#181818;stroke-width:1.0;"/><path d="M1636.2031,892.5664 L1636.2031,899.2227 L1637.9219,899.2227 Q1638.5313,899.2227 1638.7969,899.457 Q1639.0625,899.6914 1639.0625,900.082 Q1639.0625,900.457 1638.7969,900.6914 Q1638.5313,900.9258 1637.9219,900.9258 L1632.7813,900.9258 Q1632.1719,900.9258 1631.9063,900.6914 Q1631.6406,900.457 1631.6406,900.0664 Q1631.6406,899.6914 1631.9063,899.457 Q1632.1719,899.2227 1632.7813,899.2227 L1634.5,899.2227 L1634.5,892.5664 L1632.7813,892.5664 Q1632.1719,892.5664 1631.9063,892.332 Q1631.6406,892.0977 1631.6406,891.707 Q1631.6406,891.332 1631.9063,891.0977 Q1632.1719,890.8633 1632.7813,890.8633 L1637.9219,890.8633 Q1638.5313,890.8633 1638.7969,891.0977 Q1639.0625,891.332 1639.0625,891.707 Q1639.0625,892.0977 1638.7969,892.332 Q1638.5313,892.5664 1637.9219,892.5664 L1636.2031,892.5664 Z " fill="#000000"/><text fill="#000000" font-family="sans-serif" font-size="12" font-style="italic" lengthAdjust="spacing" textLength="57" x="1682.25" y="891.584">«concept»</text><text fill="#000000" font-family="sans-serif" font-size="14" font-style="italic" lengthAdjust="spacing" textLength="110" x="1655.75" y="909.7031">GuideBookWriter</text><line style="stroke:#181818;stroke-width:0.5;" x1="1576.5" x2="1812.5" y1="918.2168" y2="918.2168"/><text fill="#000000" font-family="sans-serif" font-size="14" lengthAdjust="spacing" textLength="226" x="1581.5" y="937.3242">runtime = runtime::GuideBookWriter</text></g><!--class GuideBookWriterCountries--><g id="elem_GuideBookWriterCountries"><rect codeLine="97" fill="#FFB6C1" height="71.2031" id="GuideBookWriterCountries" rx="2.5" ry="2.5" style="stroke:#181818;stroke-width:0.5;" width="299" x="1026" y="1005.6348"/><ellipse cx="1085.75" cy="1027.9258" fill="#B4A7E5" rx="11" ry="11" style="stroke:#181818;stroke-width:1.0;"/><path d="M1086.7031,1024.5664 L1086.7031,1031.2227 L1088.4219,1031.2227 Q1089.0313,1031.2227 1089.2969,1031.457 Q1089.5625,1031.6914 1089.5625,1032.082 Q1089.5625,1032.457 1089.2969,1032.6914 Q1089.0313,1032.9258 1088.4219,1032.9258 L1083.2813,1032.9258 Q1082.6719,1032.9258 1082.4063,1032.6914 Q1082.1406,1032.457 1082.1406,1032.0664 Q1082.1406,1031.6914 1082.4063,1031.457 Q1082.6719,1031.2227 1083.2813,1031.2227 L1085,1031.2227 L1085,1024.5664 L1083.2813,1024.5664 Q1082.6719,1024.5664 1082.4063,1024.332 Q1082.1406,1024.0977 1082.1406,1023.707 Q1082.1406,1023.332 1082.4063,1023.0977 Q1082.6719,1022.8633 1083.2813,1022.8633 L1088.4219,1022.8633 Q1089.0313,1022.8633 1089.2969,1023.0977 Q1089.5625,1023.332 1089.5625,1023.707 Q1089.5625,1024.0977 1089.2969,1024.332 Q1089.0313,1024.5664 1088.4219,1024.5664 L1086.7031,1024.5664 Z " fill="#000000"/><text fill="#000000" font-family="sans-serif" font-size="12" font-style="italic" lengthAdjust="spacing" textLength="59" x="1162.25" y="1023.584">«property»</text><text fill="#000000" font-family="sans-serif" font-size="14" font-style="italic" lengthAdjust="spacing" textLength="171" x="1106.25" y="1041.7031">GuideBookWriterCountries</text><line style="stroke:#181818;stroke-width:0.5;" x1="1027" x2="1324" y1="1050.2168" y2="1050.2168"/><text fill="#000000" font-family="sans-serif" font-size="14" lengthAdjust="spacing" textLength="287" x="1032" y="1069.3242">runtime = runtime::GuideBookWriterCountries</text></g><!--reverse link Metamodel to library--><g id="link_Metamodel_library"><path d="M841.06,104.5748 C710.89,114.5848 427,141.1048 193.5,195.6348 C187.77,196.9748 181.9,198.5048 176.02,200.1648 " fill="none" id="Metamodel-backto-library" style="stroke:#181818;stroke-width:1.0;"/><polygon fill="none" points="840.86,97.5648,861.33,103.0548,841.91,111.5248,840.86,97.5648" style="stroke:#181818;stroke-width:1.0;"/></g><!--reverse link PrimitiveType to LibBoolean--><g id="link_PrimitiveType_LibBoolean"><path d="M1015.51,124.5748 C1004.51,130.1648 992.36,135.3948 980.5,138.6348 C922.52,154.4748 904.87,137.2348 845.5,146.6348 C760.22,160.1448 740.73,172.6248 657.5,195.6348 C651.84,197.1948 646.04,198.8248 640.19,200.4848 " fill="none" id="PrimitiveType-backto-LibBoolean" style="stroke:#181818;stroke-width:1.0;"/><polygon fill="none" points="1012.35,118.3248,1033.24,114.7848,1019.11,130.5848,1012.35,118.3248" style="stroke:#181818;stroke-width:1.0;"/></g><!--reverse link PrimitiveType to LibString--><g id="link_PrimitiveType_LibString"><path d="M1015.2,124.4748 C1004.26,130.0248 992.22,135.2548 980.5,138.6348 C941.06,149.9948 927.09,132.6648 888.5,146.6348 C858.55,157.4748 829.12,177.7548 806.91,195.6148 " fill="none" id="PrimitiveType-backto-LibString" style="stroke:#181818;stroke-width:1.0;"/><polygon fill="none" points="1011.95,118.2748,1032.85,114.8048,1018.68,130.5548,1011.95,118.2748" style="stroke:#181818;stroke-width:1.0;"/></g><!--reverse link PrimitiveType to LibInteger--><g id="link_PrimitiveType_LibInteger"><path d="M1015.82,124.6348 C1004.75,130.2748 992.49,135.5148 980.5,138.6348 C931.44,151.4048 802.99,142.0248 752.5,146.6348 C604.4,160.1548 566.62,163.1248 421.5,195.6348 C415.85,196.9048 410.07,198.3048 404.26,199.7948 " fill="none" id="PrimitiveType-backto-LibInteger" style="stroke:#181818;stroke-width:1.0;"/><polygon fill="none" points="1012.73,118.3448,1033.62,114.7548,1019.53,130.5848,1012.73,118.3448" style="stroke:#181818;stroke-width:1.0;"/></g><!--reverse link Concept to Library--><g id="link_Concept_Library"><path d="M1487.66,134.8048 C1487.53,145.4648 1485.52,156.7148 1479.5,165.6348 C1472.2,176.4548 1450.19,188.3348 1425.66,198.9248 " fill="none" id="Concept-backto-Library" style="stroke:#181818;stroke-width:1.0;"/><polygon fill="none" points="1480.67,135.1548,1485.97,114.6448,1494.62,133.9848,1480.67,135.1548" style="stroke:#181818;stroke-width:1.0;"/></g><!--reverse link Property to LibraryName--><g id="link_Property_LibraryName"><path codeLine="39" d="M1238.29,125.1948 C1246.75,130.0448 1255.77,134.7948 1264.5,138.6348 C1283.03,146.7848 1381.04,176.1848 1460.26,199.4848 " fill="none" id="Property-backto-LibraryName" style="stroke:#181818;stroke-width:1.0;"/><polygon fill="none" points="1234.49,131.0848,1221,114.7448,1241.74,119.1048,1234.49,131.0848" style="stroke:#181818;stroke-width:1.0;"/><text fill="#000000" font-family="sans-serif" font-size="13" font-style="italic" lengthAdjust="spacing" textLength="58" x="1345.5" y="161.6631">T = String</text></g><!--link Library to LibraryName--><g id="link_Library_LibraryName"><path codeLine="40" d="M1425.84,231.1348 C1435.68,231.1348 1445.51,231.1348 1455.34,231.1348 " fill="none" id="Library-to-LibraryName" style="stroke:#181818;stroke-width:1.0;"/><polygon fill="#181818" points="1460.48,231.1348,1451.48,227.1348,1455.48,231.1348,1451.48,235.1348,1460.48,231.1348" style="stroke:#181818;stroke-width:1.0;"/><text fill="#000000" font-family="sans-serif" font-size="13" lengthAdjust="spacing" textLength="7" x="1445.5106" y="227.5421">1</text></g><!--reverse link Containment to LibraryBooks--><g id="link_Containment_LibraryBooks"><path codeLine="45" d="M1387.9,123.9348 C1398.98,129.3248 1410.98,134.6248 1422.5,138.6348 C1536.27,178.2648 1611.8,101.9148 1687.5,195.6348 C1717.39,232.6448 1703.24,290.5648 1689.21,327.4148 " fill="none" id="Containment-backto-LibraryBooks" style="stroke:#181818;stroke-width:1.0;"/><polygon fill="none" points="1384.46,130.0348,1369.85,114.6848,1390.84,117.5748,1384.46,130.0348" style="stroke:#181818;stroke-width:1.0;"/><text fill="#000000" font-family="sans-serif" font-size="13" font-style="italic" lengthAdjust="spacing" textLength="60" x="1706.5" y="236.6631">T = Book*</text></g><!--link Library to LibraryBooks--><g id="link_Library_LibraryBooks"><path codeLine="46" d="M1425.64,265.9548 C1472.87,284.2848 1531.28,306.9448 1579.53,325.6648 " fill="none" id="Library-to-LibraryBooks" style="stroke:#181818;stroke-width:1.0;"/><polygon fill="#181818" points="1584.46,327.5848,1577.5073,320.6091,1579.7962,325.7822,1574.6232,328.0712,1584.46,327.5848" style="stroke:#181818;stroke-width:1.0;"/><text fill="#000000" font-family="sans-serif" font-size="13" lengthAdjust="spacing" textLength="5" x="1562.5823" y="316.4995">*</text></g><!--reverse link Concept to Book--><g id="link_Concept_Book"><path d="M1518.89,126.0348 C1526.44,130.7148 1534.53,135.1848 1542.5,138.6348 C1640.35,180.9448 1702.99,117.4848 1775.5,195.6348 C1837.23,262.1548 1837.57,317.2048 1797.5,398.6348 C1785.14,423.7448 1762.66,444.1148 1740.19,459.4848 " fill="none" id="Concept-backto-Book" style="stroke:#181818;stroke-width:1.0;"/><polygon fill="none" points="1514.81,131.7348,1502.09,114.7848,1522.6,120.0948,1514.81,131.7348" style="stroke:#181818;stroke-width:1.0;"/></g><!--link LibraryBooks to Book--><g id="link_LibraryBooks_Book"><path codeLine="51" d="M1673.5,398.9748 C1673.5,415.8748 1673.5,436.2748 1673.5,453.8448 " fill="none" id="LibraryBooks-to-Book" style="stroke:#181818;stroke-width:1.0;"/><polygon fill="#181818" points="1673.5,459.2048,1677.5,450.2048,1673.5,454.2048,1669.5,450.2048,1673.5,459.2048" style="stroke:#181818;stroke-width:1.0;"/><text fill="#000000" font-family="sans-serif" font-size="13" lengthAdjust="spacing" textLength="7" x="1665.8766" y="448.3268">1</text></g><!--reverse link Property to BookTitle--><g id="link_Property_BookTitle"><path codeLine="56" d="M1177.76,132.3648 C1175.61,137.0048 1173.75,141.8348 1172.5,146.6348 C1144.2,255.0048 1149.13,288.8948 1171.5,398.6348 C1188.96,484.2948 1204.61,504.0248 1248.5,579.6348 C1254.36,589.7248 1261.57,600.0548 1268.64,609.4048 " fill="none" id="Property-backto-BookTitle" style="stroke:#181818;stroke-width:1.0;"/><polygon fill="none" points="1171.64,128.9548,1187.49,114.8948,1183.87,135.7648,1171.64,128.9548" style="stroke:#181818;stroke-width:1.0;"/><text fill="#000000" font-family="sans-serif" font-size="13" font-style="italic" lengthAdjust="spacing" textLength="58" x="1172.5" y="368.6631">T = String</text></g><!--link Book to BookTitle--><g id="link_Book_BookTitle"><path codeLine="57" d="M1592.38,528.0648 C1532.94,551.4648 1452.15,583.2648 1390.17,607.6548 " fill="none" id="Book-to-BookTitle" style="stroke:#181818;stroke-width:1.0;"/><polygon fill="#181818" points="1385.37,609.5448,1395.2093,609.9788,1390.0241,607.7174,1392.2855,602.5322,1385.37,609.5448" style="stroke:#181818;stroke-width:1.0;"/><text fill="#000000" font-family="sans-serif" font-size="13" lengthAdjust="spacing" textLength="7" x="1393.9257" y="598.4521">1</text></g><!--reverse link Property to BookPages--><g id="link_Property_BookPages"><path codeLine="62" d="M1200.64,134.8748 C1203.94,169.9048 1212.31,224.3748 1233.5,266.6348 C1307.13,413.5048 1452.21,548.2548 1524.08,609.4648 " fill="none" id="Property-backto-BookPages" style="stroke:#181818;stroke-width:1.0;"/><polygon fill="none" points="1193.65,135.2448,1199.1,114.7648,1207.61,134.1748,1193.65,135.2448" style="stroke:#181818;stroke-width:1.0;"/><text fill="#000000" font-family="sans-serif" font-size="13" font-style="italic" lengthAdjust="spacing" textLength="64" x="1319.5" y="368.6631">T = Integer</text></g><!--link Book to BookPages--><g id="link_Book_BookPages"><path codeLine="63" d="M1648.41,530.8348 C1632.31,553.1148 1611.36,582.0848 1594.68,605.1648 " fill="none" id="Book-to-BookPages" style="stroke:#181818;stroke-width:1.0;"/><polygon fill="#181818" points="1591.61,609.3948,1600.1406,604.4724,1594.5526,605.3523,1593.6726,599.7643,1591.61,609.3948" style="stroke:#181818;stroke-width:1.0;"/><text fill="#000000" font-family="sans-serif" font-size="13" lengthAdjust="spacing" textLength="7" x="1588.5943" y="598.2744">1</text></g><!--reverse link Reference to BookAuthor--><g id="link_Reference_BookAuthor"><path codeLine="68" d="M1689.34,99.6748 C1806.57,100.9448 2027.11,108.5048 2094.5,146.6348 C2134.73,169.3948 2156.5,183.9148 2156.5,230.1348 C2156.5,230.1348 2156.5,230.1348 2156.5,496.1348 C2156.5,566.0348 2082.26,603.8748 2015.85,623.7448 " fill="none" id="Reference-backto-BookAuthor" style="stroke:#181818;stroke-width:1.0;"/><polygon fill="none" points="1688.99,106.6748,1669.05,99.5048,1689.11,92.6748,1688.99,106.6748" style="stroke:#181818;stroke-width:1.0;"/><text fill="#000000" font-family="sans-serif" font-size="13" font-style="italic" lengthAdjust="spacing" textLength="64" x="2157.5" y="368.6631">T = Writer*</text></g><!--link Book to BookAuthor--><g id="link_Book_BookAuthor"><path codeLine="69" d="M1729.47,530.6448 C1766.47,553.4648 1814.96,583.3648 1852.87,606.7448 " fill="none" id="Book-to-BookAuthor" style="stroke:#181818;stroke-width:1.0;"/><polygon fill="#181818" points="1857.44,609.5648,1851.8836,601.4329,1853.1856,606.9379,1847.6807,608.2399,1857.44,609.5648" style="stroke:#181818;stroke-width:1.0;"/><text fill="#000000" font-family="sans-serif" font-size="13" lengthAdjust="spacing" textLength="5" x="1841.643" y="598.4758">*</text></g><!--reverse link Concept to Writer--><g id="link_Concept_Writer"><path d="M1516.43,126.3048 C1524.55,131.3348 1533.49,135.8848 1542.5,138.6348 C1568.06,146.4448 2000.67,132.7448 2023.5,146.6348 C2059.52,168.5448 2068.5,187.9748 2068.5,230.1348 C2068.5,230.1348 2068.5,230.1348 2068.5,646.1348 C2068.5,688.8048 2033.59,720.2548 1996.9,741.5248 " fill="none" id="Concept-backto-Writer" style="stroke:#181818;stroke-width:1.0;"/><polygon fill="none" points="1512.16,131.8548,1499.8,114.6448,1520.2,120.3948,1512.16,131.8548" style="stroke:#181818;stroke-width:1.0;"/></g><!--link BookAuthor to Writer--><g id="link_BookAuthor_Writer"><path codeLine="75" d="M1913.5,680.9748 C1913.5,697.8748 1913.5,718.2748 1913.5,735.8448 " fill="none" id="BookAuthor-to-Writer" style="stroke:#181818;stroke-width:1.0;"/><polygon fill="#181818" points="1913.5,741.2048,1917.5,732.2048,1913.5,736.2048,1909.5,732.2048,1913.5,741.2048" style="stroke:#181818;stroke-width:1.0;"/><text fill="#000000" font-family="sans-serif" font-size="13" lengthAdjust="spacing" textLength="7" x="1905.8766" y="730.3268">1</text></g><!--reverse link Property to WriterName--><g id="link_Property_WriterName"><path codeLine="80" d="M1170.99,130.3148 C1167.12,135.5348 1163.46,141.0748 1160.5,146.6348 C1149.81,166.7448 1151,173.5348 1145.5,195.6348 C1104.7,359.6948 1073.5,400.0748 1073.5,569.1348 C1073.5,569.1348 1073.5,569.1348 1073.5,778.1348 C1073.5,825.5848 1114.59,857.1148 1158.25,877.2248 " fill="none" id="Property-backto-WriterName" style="stroke:#181818;stroke-width:1.0;"/><polygon fill="none" points="1165.75,125.6648,1183.85,114.6548,1176.57,134.5548,1165.75,125.6648" style="stroke:#181818;stroke-width:1.0;"/><text fill="#000000" font-family="sans-serif" font-size="13" font-style="italic" lengthAdjust="spacing" textLength="58" x="1080.5" y="500.6631">T = String</text></g><!--link Writer to WriterName--><g id="link_Writer_WriterName"><path codeLine="81" d="M1829.47,794.8648 C1711.54,818.3448 1496.94,861.0648 1367.67,886.8048 " fill="none" id="Writer-to-WriterName" style="stroke:#181818;stroke-width:1.0;"/><polygon fill="#181818" points="1362.72,887.7848,1372.3321,889.9313,1367.6218,886.7987,1370.7544,882.0884,1362.72,887.7848" style="stroke:#181818;stroke-width:1.0;"/><text fill="#000000" font-family="sans-serif" font-size="13" lengthAdjust="spacing" textLength="7" x="1370.4838" y="882.6242">1</text></g><!--reverse link Concept to SpecialistBookWriter--><g id="link_Concept_SpecialistBookWriter"><path d="M1516.66,126.2748 C1524.72,131.2748 1533.58,135.8148 1542.5,138.6348 C1588.08,153.0748 1710.51,137.7948 1757.5,146.6348 C1868.49,167.5248 1997.5,117.1948 1997.5,230.1348 C1997.5,230.1348 1997.5,230.1348 1997.5,429.6348 C1997.5,511.2148 2025.46,528.4448 2033.5,609.6348 C2036.61,641.0348 2035.64,649.1548 2033.5,680.6348 C2029.49,739.7048 2030.3,755.3048 2015.5,812.6348 C2010.17,833.2948 2001.7,855.5748 1994.22,873.4048 " fill="none" id="Concept-backto-SpecialistBookWriter" style="stroke:#181818;stroke-width:1.0;"/><polygon fill="none" points="1512.5,131.9148,1500.09,114.7348,1520.5,120.4248,1512.5,131.9148" style="stroke:#181818;stroke-width:1.0;"/></g><!--reverse link Writer to SpecialistBookWriter--><g id="link_Writer_SpecialistBookWriter"><path d="M1939.92,830.9648 C1947.03,845.1948 1954.54,860.2248 1961.03,873.2048 " fill="none" id="Writer-backto-SpecialistBookWriter" style="stroke:#181818;stroke-width:1.0;"/><polygon fill="none" points="1933.6,833.9948,1930.92,812.9748,1946.12,827.7348,1933.6,833.9948" style="stroke:#181818;stroke-width:1.0;"/></g><!--reverse link Property to SpecialistBookWriterSubject--><g id="link_Property_SpecialistBookWriterSubject"><path codeLine="90" d="M1155.03,125.0248 C1092.73,161.5748 985.5,225.2148 985.5,230.1348 C985.5,230.1348 985.5,230.1348 985.5,429.6348 C985.5,524.9948 990.5,548.7748 990.5,644.1348 C990.5,644.1348 990.5,644.1348 990.5,910.1348 C990.5,936.0848 1306.18,987.9248 1502.87,1017.7048 " fill="none" id="Property-backto-SpecialistBookWriterSubject" style="stroke:#181818;stroke-width:1.0;"/><polygon fill="none" points="1151.59,118.9248,1172.38,114.8548,1158.66,131.0048,1151.59,118.9248" style="stroke:#181818;stroke-width:1.0;"/><text fill="#000000" font-family="sans-serif" font-size="13" font-style="italic" lengthAdjust="spacing" textLength="58" x="991.5" y="575.6631">T = String</text></g><!--link SpecialistBookWriter to SpecialistBookWriterSubject--><g id="link_SpecialistBookWriter_SpecialistBookWriterSubject"><path codeLine="91" d="M1892.63,944.8048 C1847.6,962.9848 1792.47,985.2448 1746.8,1003.6748 " fill="none" id="SpecialistBookWriter-to-SpecialistBookWriterSubject" style="stroke:#181818;stroke-width:1.0;"/><polygon fill="#181818" points="1742.13,1005.5648,1751.9732,1005.8995,1746.7654,1003.6906,1748.9744,998.4828,1742.13,1005.5648" style="stroke:#181818;stroke-width:1.0;"/><text fill="#000000" font-family="sans-serif" font-size="13" lengthAdjust="spacing" textLength="7" x="1750.2727" y="994.4758">1</text></g><!--reverse link Concept to GuideBookWriter--><g id="link_Concept_GuideBookWriter"><path d="M1516.89,126.2448 C1524.9,131.2048 1533.68,135.7348 1542.5,138.6348 C1599.6,157.4148 1618.48,135.2548 1677.5,146.6348 C1745.12,159.6748 1777.3,145.4848 1824.5,195.6348 C1856.35,229.4748 1845.45,250.5648 1851.5,296.6348 C1866.77,412.9148 1746.8,762.1048 1707.02,873.5448 " fill="none" id="Concept-backto-GuideBookWriter" style="stroke:#181818;stroke-width:1.0;"/><polygon fill="none" points="1512.84,131.9548,1500.39,114.8148,1520.81,120.4548,1512.84,131.9548" style="stroke:#181818;stroke-width:1.0;"/></g><!--reverse link Writer to GuideBookWriter--><g id="link_Writer_GuideBookWriter"><path d="M1875.4,828.1648 C1869.79,833.8248 1863.77,839.1548 1857.5,843.6348 C1841.15,855.3048 1822.4,865.2448 1803.57,873.5748 " fill="none" id="Writer-backto-GuideBookWriter" style="stroke:#181818;stroke-width:1.0;"/><polygon fill="none" points="1870.63,823.0048,1889.19,812.7948,1881.05,832.3548,1870.63,823.0048" style="stroke:#181818;stroke-width:1.0;"/></g><!--reverse link Property to GuideBookWriterCountries--><g id="link_Property_GuideBookWriterCountries"><path codeLine="100" d="M1161.47,125.3848 C1152.09,130.7148 1141.75,135.6148 1131.5,138.6348 C1113.15,144.0448 973.85,133.9848 959.5,146.6348 C819.4,270.1348 903.56,374.5648 887.5,560.6348 C886.77,569.0448 887.3,571.1948 887.5,579.6348 C888.17,608.3248 890.5,615.4348 890.5,644.1348 C890.5,644.1348 890.5,644.1348 890.5,910.1348 C890.5,977.4348 957.1,1010.0448 1025.91,1025.7848 " fill="none" id="Property-backto-GuideBookWriterCountries" style="stroke:#181818;stroke-width:1.0;"/><polygon fill="none" points="1157.9,119.3648,1178.56,114.6848,1165.33,131.2348,1157.9,119.3648" style="stroke:#181818;stroke-width:1.0;"/><text fill="#000000" font-family="sans-serif" font-size="13" font-style="italic" lengthAdjust="spacing" textLength="58" x="888.5" y="575.6631">T = String</text></g><!--link GuideBookWriter to GuideBookWriterCountries--><g id="link_GuideBookWriter_GuideBookWriterCountries"><path codeLine="101" d="M1575.43,939.9548 C1499,959.1048 1399.31,984.0748 1318.58,1004.2948 " fill="none" id="GuideBookWriter-to-GuideBookWriterCountries" style="stroke:#181818;stroke-width:1.0;"/><polygon fill="#181818" points="1313.29,1005.6248,1322.9914,1007.3225,1318.1407,1004.4121,1321.0511,999.5614,1313.29,1005.6248" style="stroke:#181818;stroke-width:1.0;"/><text fill="#000000" font-family="sans-serif" font-size="13" lengthAdjust="spacing" textLength="7" x="1331.889" y="994.2721">1</text></g><!--SRC=[hLPDZzem5BpdLxWveW9gUqDff7PLhIgLQbMGUZRXBRZ4ZkKurQAs_xtFSJvj0z4AJk2PDsyypxRGJET07a60eXhsPFsUV6CxHTMPV7cXNEOGHKUs1m9SwZFXm7UWoYXwmqIMLxY-M2nbJeMkU3ulZrJ1VdberURbYGb95UKBYNWKIPgTw058lFv0EbPCQ8d2cf8_4S4F4nhKCys0h76H5tl8dVKdnJZJx3Tipn8SxA4G6KZjLHGIb3udszJdQye41w5zy0SyWm8KDD2_AEgHt8QK9BprcAO4NZI8VTdxRdQaAg4P1_An_RPQDVLZKKp-Sr7aG4MIZFOuq1wjNzRlfRmM6wsOEDoZWrNo6dp57mTGz-ZGI7ajRFQPdVL0kPd-LSrWxcRnE-MG9B8vAgXwIyKKe59xk4ZoTpuVYgr8mj8j5ZQHBraQjRThdfBuNJna1npX24zblS_sZ4vmLHUXhS797ZchySwQ-JKREpFMPl68FlHc5bwLlIb4NqDTsmnpg36doTQyJTC6qj6zSNH8Q1W675cm6ewF9toooka-QdhGHurqFjfh4ZHYHHmZdofzBF1UgVPPkcN55g2NxY7hpLYiS_DJCMmrSzpCuW5tQCVINtKCRAcvWRrqj_S6z3fDlviztvj13uKEWqKT9-x5t4Z86CrPgOtvcocyRMGksmq9Zb-d46DJxNv1fgSbSaN0Y-WADvHPYDubUAtlO7-F5Vw_k5EQZjOuI0TyAB1AiQbN-rAr5-4bOYW_Xzj5Tx7PVm00]--></g></svg>