<?xml version="1.0" encoding="us-ascii" standalone="no"?><svg xmlns="http://www.w3.org/2000/svg" xmlns:xlink="http://www.w3.org/1999/xlink" contentStyleType="text/css" height="892px" preserveAspectRatio="none" style="width:1070px;height:892px;background:#FFFFFF;" version="1.1" viewBox="0 0 1070 892" width="1070px" zoomAndPan="magnify"><defs/><g><!--cluster builtins--><g id="cluster_builtins"><path d="M578.5,6 L635.5,6 A3.75,3.75 0 0 1 638,8.5 L645,28.4883 L705.5,28.4883 A2.5,2.5 0 0 1 708,30.9883 L708,129.5 A2.5,2.5 0 0 1 705.5,132 L578.5,132 A2.5,2.5 0 0 1 576,129.5 L576,8.5 A2.5,2.5 0 0 1 578.5,6 " fill="none" style="stroke:#000000;stroke-width:1.5;"/><line style="stroke:#000000;stroke-width:1.5;" x1="576" x2="645" y1="28.4883" y2="28.4883"/><text fill="#000000" font-family="sans-serif" font-size="14" font-weight="bold" lengthAdjust="spacing" textLength="56" x="580" y="21.5352">builtins</text></g><!--class INamed--><g id="elem_INamed"><rect codeLine="4" fill="#F1F1F1" height="56.4883" id="INamed" rx="2.5" ry="2.5" style="stroke:#181818;stroke-width:0.5;" width="99" x="592.5" y="60"/><ellipse cx="614.25" cy="76" fill="#B4A7E5" rx="11" ry="11" style="stroke:#181818;stroke-width:1.0;"/><path d="M610.1777,71.7651 L610.1777,69.6069 L617.5571,69.6069 L617.5571,71.7651 L615.0918,71.7651 L615.0918,79.8418 L617.5571,79.8418 L617.5571,82 L610.1777,82 L610.1777,79.8418 L612.6431,79.8418 L612.6431,71.7651 Z " fill="#000000"/><text fill="#000000" font-family="sans-serif" font-size="14" font-style="italic" lengthAdjust="spacing" textLength="52" x="629.75" y="81.291">INamed</text><line style="stroke:#181818;stroke-width:0.5;" x1="593.5" x2="690.5" y1="92" y2="92"/><text fill="#000000" font-family="sans-serif" font-size="14" lengthAdjust="spacing" textLength="87" x="598.5" y="109.5352">name: String</text></g><!--class Annotation--><g id="elem_Annotation"><rect codeLine="9" fill="#90EE90" height="32" id="Annotation" rx="2.5" ry="2.5" style="stroke:#181818;stroke-width:0.5;" width="109" x="208.5" y="724"/><ellipse cx="223.5" cy="740" fill="#ADD1B2" rx="11" ry="11" style="stroke:#181818;stroke-width:1.0;"/><path d="M226.4731,745.6431 Q225.8921,745.9419 225.2529,746.0913 Q224.6138,746.2407 223.9082,746.2407 Q221.4014,746.2407 220.0815,744.5889 Q218.7617,742.937 218.7617,739.8159 Q218.7617,736.6865 220.0815,735.0347 Q221.4014,733.3828 223.9082,733.3828 Q224.6138,733.3828 225.2612,733.5322 Q225.9087,733.6816 226.4731,733.9805 L226.4731,736.7031 Q225.8423,736.1221 225.2488,735.8523 Q224.6553,735.5825 224.0244,735.5825 Q222.6797,735.5825 221.9949,736.6492 Q221.3101,737.7158 221.3101,739.8159 Q221.3101,741.9077 221.9949,742.9744 Q222.6797,744.041 224.0244,744.041 Q224.6553,744.041 225.2488,743.7712 Q225.8423,743.5015 226.4731,742.9204 Z " fill="#000000"/><text fill="#000000" font-family="sans-serif" font-size="14" lengthAdjust="spacing" textLength="77" x="237.5" y="745.291">Annotation</text></g><!--class Classifier--><g id="elem_Classifier"><rect codeLine="31" fill="#90EE90" height="32" id="Classifier" rx="2.5" ry="2.5" style="stroke:#181818;stroke-width:0.5;" width="95" x="357.5" y="594.5"/><ellipse cx="372.5" cy="610.5" fill="#A9DCDF" rx="11" ry="11" style="stroke:#181818;stroke-width:1.0;"/><path d="M372.6133,605.8481 L371.4595,610.9199 L373.7754,610.9199 Z M371.1191,603.6069 L374.1157,603.6069 L377.4609,616 L375.0122,616 L374.2485,612.937 L370.9697,612.937 L370.2227,616 L367.7739,616 Z " fill="#000000"/><text fill="#000000" font-family="sans-serif" font-size="14" font-style="italic" lengthAdjust="spacing" textLength="63" x="386.5" y="615.791">Classifier</text></g><!--class Concept--><g id="elem_Concept"><rect codeLine="12" fill="#90EE90" height="72.9766" id="Concept" rx="2.5" ry="2.5" style="stroke:#181818;stroke-width:0.5;" width="134" x="433" y="703.5"/><ellipse cx="468.25" cy="719.5" fill="#ADD1B2" rx="11" ry="11" style="stroke:#181818;stroke-width:1.0;"/><path d="M471.2231,725.1431 Q470.6421,725.4419 470.0029,725.5913 Q469.3638,725.7407 468.6582,725.7407 Q466.1514,725.7407 464.8315,724.0889 Q463.5117,722.437 463.5117,719.3159 Q463.5117,716.1865 464.8315,714.5347 Q466.1514,712.8828 468.6582,712.8828 Q469.3638,712.8828 470.0112,713.0322 Q470.6587,713.1816 471.2231,713.4805 L471.2231,716.2031 Q470.5923,715.6221 469.9988,715.3523 Q469.4053,715.0825 468.7744,715.0825 Q467.4297,715.0825 466.7449,716.1492 Q466.0601,717.2158 466.0601,719.3159 Q466.0601,721.4077 466.7449,722.4744 Q467.4297,723.541 468.7744,723.541 Q469.4053,723.541 469.9988,723.2712 Q470.5923,723.0015 471.2231,722.4204 Z " fill="#000000"/><text fill="#000000" font-family="sans-serif" font-size="14" lengthAdjust="spacing" textLength="57" x="486.75" y="724.791">Concept</text><line style="stroke:#181818;stroke-width:0.5;" x1="434" x2="566" y1="735.5" y2="735.5"/><text fill="#000000" font-family="sans-serif" font-size="14" lengthAdjust="spacing" textLength="118" x="439" y="753.0352">abstract: Boolean</text><text fill="#000000" font-family="sans-serif" font-size="14" lengthAdjust="spacing" textLength="122" x="439" y="769.5234">partition: Boolean</text></g><!--class ConceptInterface--><g id="elem_ConceptInterface"><rect codeLine="17" fill="#90EE90" height="32" id="ConceptInterface" rx="2.5" ry="2.5" style="stroke:#181818;stroke-width:0.5;" width="149" x="425.5" y="853.5"/><ellipse cx="440.5" cy="869.5" fill="#ADD1B2" rx="11" ry="11" style="stroke:#181818;stroke-width:1.0;"/><path d="M443.4731,875.1431 Q442.8921,875.4419 442.2529,875.5913 Q441.6138,875.7407 440.9082,875.7407 Q438.4014,875.7407 437.0815,874.0889 Q435.7617,872.437 435.7617,869.3159 Q435.7617,866.1865 437.0815,864.5347 Q438.4014,862.8828 440.9082,862.8828 Q441.6138,862.8828 442.2612,863.0322 Q442.9087,863.1816 443.4731,863.4805 L443.4731,866.2031 Q442.8423,865.6221 442.2488,865.3523 Q441.6553,865.0825 441.0244,865.0825 Q439.6797,865.0825 438.9949,866.1492 Q438.3101,867.2158 438.3101,869.3159 Q438.3101,871.4077 438.9949,872.4744 Q439.6797,873.541 441.0244,873.541 Q441.6553,873.541 442.2488,873.2712 Q442.8423,873.0015 443.4731,872.4204 Z " fill="#000000"/><text fill="#000000" font-family="sans-serif" font-size="14" lengthAdjust="spacing" textLength="117" x="454.5" y="874.791">ConceptInterface</text></g><!--class Containment--><g id="elem_Containment"><rect codeLine="19" fill="#ADD8E6" height="32" id="Containment" rx="2.5" ry="2.5" style="stroke:#181818;stroke-width:0.5;" width="121" x="142.5" y="594.5"/><ellipse cx="157.5" cy="610.5" fill="#ADD1B2" rx="11" ry="11" style="stroke:#181818;stroke-width:1.0;"/><path d="M160.4731,616.1431 Q159.8921,616.4419 159.2529,616.5913 Q158.6138,616.7407 157.9082,616.7407 Q155.4014,616.7407 154.0815,615.0889 Q152.7617,613.437 152.7617,610.3159 Q152.7617,607.1865 154.0815,605.5347 Q155.4014,603.8828 157.9082,603.8828 Q158.6138,603.8828 159.2612,604.0322 Q159.9087,604.1816 160.4731,604.4805 L160.4731,607.2031 Q159.8423,606.6221 159.2488,606.3523 Q158.6553,606.0825 158.0244,606.0825 Q156.6797,606.0825 155.9949,607.1492 Q155.3101,608.2158 155.3101,610.3159 Q155.3101,612.4077 155.9949,613.4744 Q156.6797,614.541 158.0244,614.541 Q158.6553,614.541 159.2488,614.2712 Q159.8423,614.0015 160.4731,613.4204 Z " fill="#000000"/><text fill="#000000" font-family="sans-serif" font-size="14" lengthAdjust="spacing" textLength="89" x="171.5" y="615.791">Containment</text></g><!--class Link--><g id="elem_Link"><rect codeLine="33" fill="#ADD8E6" height="56.4883" id="Link" rx="2.5" ry="2.5" style="stroke:#181818;stroke-width:0.5;" width="131" x="78.5" y="461.5"/><ellipse cx="125.75" cy="477.5" fill="#A9DCDF" rx="11" ry="11" style="stroke:#181818;stroke-width:1.0;"/><path d="M125.8633,472.8481 L124.7095,477.9199 L127.0254,477.9199 Z M124.3691,470.6069 L127.3657,470.6069 L130.7109,483 L128.2622,483 L127.4985,479.937 L124.2197,479.937 L123.4727,483 L121.0239,483 Z " fill="#000000"/><text fill="#000000" font-family="sans-serif" font-size="14" font-style="italic" lengthAdjust="spacing" textLength="28" x="146.25" y="482.791">Link</text><line style="stroke:#181818;stroke-width:0.5;" x1="79.5" x2="208.5" y1="493.5" y2="493.5"/><text fill="#000000" font-family="sans-serif" font-size="14" lengthAdjust="spacing" textLength="119" x="84.5" y="511.0352">multiple: Boolean</text></g><!--class DataType--><g id="elem_DataType"><rect codeLine="21" fill="#FFB6C1" height="32" id="DataType" rx="2.5" ry="2.5" style="stroke:#181818;stroke-width:0.5;" width="96" x="564" y="473.5"/><ellipse cx="579" cy="489.5" fill="#A9DCDF" rx="11" ry="11" style="stroke:#181818;stroke-width:1.0;"/><path d="M579.1133,484.8481 L577.9595,489.9199 L580.2754,489.9199 Z M577.6191,482.6069 L580.6157,482.6069 L583.9609,495 L581.5122,495 L580.7485,491.937 L577.4697,491.937 L576.7227,495 L574.2739,495 Z " fill="#000000"/><text fill="#000000" font-family="sans-serif" font-size="14" font-style="italic" lengthAdjust="spacing" textLength="64" x="593" y="494.791">DataType</text></g><!--class LanguageEntity--><g id="elem_LanguageEntity"><rect codeLine="41" fill="#F1F1F1" height="32" id="LanguageEntity" rx="2.5" ry="2.5" style="stroke:#181818;stroke-width:0.5;" width="137" x="464.5" y="336"/><ellipse cx="479.5" cy="352" fill="#A9DCDF" rx="11" ry="11" style="stroke:#181818;stroke-width:1.0;"/><path d="M479.6133,347.3481 L478.4595,352.4199 L480.7754,352.4199 Z M478.1191,345.1069 L481.1157,345.1069 L484.4609,357.5 L482.0122,357.5 L481.2485,354.437 L477.9697,354.437 L477.2227,357.5 L474.7739,357.5 Z " fill="#000000"/><text fill="#000000" font-family="sans-serif" font-size="14" font-style="italic" lengthAdjust="spacing" textLength="105" x="493.5" y="357.291">LanguageEntity</text></g><!--class Enumeration--><g id="elem_Enumeration"><rect codeLine="23" fill="#FFB6C1" height="32" id="Enumeration" rx="2.5" ry="2.5" style="stroke:#181818;stroke-width:0.5;" width="120" x="670" y="594.5"/><ellipse cx="685" cy="610.5" fill="#ADD1B2" rx="11" ry="11" style="stroke:#181818;stroke-width:1.0;"/><path d="M687.9731,616.1431 Q687.3921,616.4419 686.7529,616.5913 Q686.1138,616.7407 685.4082,616.7407 Q682.9014,616.7407 681.5815,615.0889 Q680.2617,613.437 680.2617,610.3159 Q680.2617,607.1865 681.5815,605.5347 Q682.9014,603.8828 685.4082,603.8828 Q686.1138,603.8828 686.7612,604.0322 Q687.4087,604.1816 687.9731,604.4805 L687.9731,607.2031 Q687.3423,606.6221 686.7488,606.3523 Q686.1553,606.0825 685.5244,606.0825 Q684.1797,606.0825 683.4949,607.1492 Q682.8101,608.2158 682.8101,610.3159 Q682.8101,612.4077 683.4949,613.4744 Q684.1797,614.541 685.5244,614.541 Q686.1553,614.541 686.7488,614.2712 Q687.3423,614.0015 687.9731,613.4204 Z " fill="#000000"/><text fill="#000000" font-family="sans-serif" font-size="14" lengthAdjust="spacing" textLength="88" x="699" y="615.791">Enumeration</text></g><!--class EnumerationLiteral--><g id="elem_EnumerationLiteral"><rect codeLine="25" fill="#FFB6C1" height="32" id="EnumerationLiteral" rx="2.5" ry="2.5" style="stroke:#181818;stroke-width:0.5;" width="162" x="637" y="336"/><ellipse cx="652" cy="352" fill="#ADD1B2" rx="11" ry="11" style="stroke:#181818;stroke-width:1.0;"/><path d="M654.9731,357.6431 Q654.3921,357.9419 653.7529,358.0913 Q653.1138,358.2407 652.4082,358.2407 Q649.9014,358.2407 648.5815,356.5889 Q647.2617,354.937 647.2617,351.8159 Q647.2617,348.6865 648.5815,347.0347 Q649.9014,345.3828 652.4082,345.3828 Q653.1138,345.3828 653.7612,345.5322 Q654.4087,345.6816 654.9731,345.9805 L654.9731,348.7031 Q654.3423,348.1221 653.7488,347.8523 Q653.1553,347.5825 652.5244,347.5825 Q651.1797,347.5825 650.4949,348.6492 Q649.8101,349.7158 649.8101,351.8159 Q649.8101,353.9077 650.4949,354.9744 Q651.1797,356.041 652.5244,356.041 Q653.1553,356.041 653.7488,355.7712 Q654.3423,355.5015 654.9731,354.9204 Z " fill="#000000"/><text fill="#000000" font-family="sans-serif" font-size="14" lengthAdjust="spacing" textLength="130" x="666" y="357.291">EnumerationLiteral</text></g><!--class IKeyed--><g id="elem_IKeyed"><rect codeLine="43" fill="#F1F1F1" height="56.4883" id="IKeyed" rx="2.5" ry="2.5" style="stroke:#181818;stroke-width:0.5;" width="77" x="603.5" y="186.5"/><ellipse cx="618.5" cy="202.5" fill="#B4A7E5" rx="11" ry="11" style="stroke:#181818;stroke-width:1.0;"/><path d="M614.4277,198.2651 L614.4277,196.1069 L621.8071,196.1069 L621.8071,198.2651 L619.3418,198.2651 L619.3418,206.3418 L621.8071,206.3418 L621.8071,208.5 L614.4277,208.5 L614.4277,206.3418 L616.8931,206.3418 L616.8931,198.2651 Z " fill="#000000"/><text fill="#000000" font-family="sans-serif" font-size="14" font-style="italic" lengthAdjust="spacing" textLength="45" x="632.5" y="207.791">IKeyed</text><line style="stroke:#181818;stroke-width:0.5;" x1="604.5" x2="679.5" y1="218.5" y2="218.5"/><text fill="#000000" font-family="sans-serif" font-size="14" lengthAdjust="spacing" textLength="44" x="609.5" y="236.0352">key: Id</text></g><!--class Feature--><g id="elem_Feature"><rect codeLine="27" fill="#ADD8E6" height="56.4883" id="Feature" rx="2.5" ry="2.5" style="stroke:#181818;stroke-width:0.5;" width="132" x="273" y="324"/><ellipse cx="309.6" cy="340" fill="#A9DCDF" rx="11" ry="11" style="stroke:#181818;stroke-width:1.0;"/><path d="M309.7133,335.3481 L308.5595,340.4199 L310.8754,340.4199 Z M308.2191,333.1069 L311.2157,333.1069 L314.5609,345.5 L312.1122,345.5 L311.3485,342.437 L308.0697,342.437 L307.3227,345.5 L304.8739,345.5 Z " fill="#000000"/><text fill="#000000" font-family="sans-serif" font-size="14" font-style="italic" lengthAdjust="spacing" textLength="52" x="328.4" y="345.291">Feature</text><line style="stroke:#181818;stroke-width:0.5;" x1="274" x2="404" y1="356" y2="356"/><text fill="#000000" font-family="sans-serif" font-size="14" lengthAdjust="spacing" textLength="120" x="279" y="373.5352">optional: Boolean</text></g><!--class Language--><g id="elem_Language"><rect codeLine="37" fill="#F1F1F1" height="65.1094" id="Language" rx="2.5" ry="2.5" style="stroke:#181818;stroke-width:0.5;" width="111" x="834.5" y="319.5"/><ellipse cx="854.9" cy="339.8105" fill="#ADD1B2" rx="11" ry="11" style="stroke:#181818;stroke-width:1.0;"/><path d="M857.8731,345.4536 Q857.2921,345.7524 856.6529,345.9019 Q856.0138,346.0513 855.3082,346.0513 Q852.8014,346.0513 851.4815,344.3994 Q850.1617,342.7476 850.1617,339.6265 Q850.1617,336.4971 851.4815,334.8452 Q852.8014,333.1934 855.3082,333.1934 Q856.0138,333.1934 856.6612,333.3428 Q857.3087,333.4922 857.8731,333.791 L857.8731,336.5137 Q857.2423,335.9326 856.6488,335.6628 Q856.0553,335.3931 855.4244,335.3931 Q854.0797,335.3931 853.3949,336.4597 Q852.7101,337.5264 852.7101,339.6265 Q852.7101,341.7183 853.3949,342.7849 Q854.0797,343.8516 855.4244,343.8516 Q856.0553,343.8516 856.6488,343.5818 Q857.2423,343.312 857.8731,342.731 Z " fill="#000000"/><text fill="#000000" font-family="sans-serif" font-size="12" font-style="italic" lengthAdjust="spacing" textLength="60" x="873.6" y="336.1016">&#171;partition&#187;</text><text fill="#000000" font-family="sans-serif" font-size="14" lengthAdjust="spacing" textLength="67" x="870.1" y="352.168">Language</text><line style="stroke:#181818;stroke-width:0.5;" x1="835.5" x2="944.5" y1="360.1211" y2="360.1211"/><text fill="#000000" font-family="sans-serif" font-size="14" lengthAdjust="spacing" textLength="99" x="840.5" y="377.6563">version: String</text></g><!--class PrimitiveType--><g id="elem_PrimitiveType"><rect codeLine="47" fill="#FFB6C1" height="32" id="PrimitiveType" rx="2.5" ry="2.5" style="stroke:#181818;stroke-width:0.5;" width="124" x="511" y="594.5"/><ellipse cx="526" cy="610.5" fill="#ADD1B2" rx="11" ry="11" style="stroke:#181818;stroke-width:1.0;"/><path d="M528.9731,616.1431 Q528.3921,616.4419 527.7529,616.5913 Q527.1138,616.7407 526.4082,616.7407 Q523.9014,616.7407 522.5815,615.0889 Q521.2617,613.437 521.2617,610.3159 Q521.2617,607.1865 522.5815,605.5347 Q523.9014,603.8828 526.4082,603.8828 Q527.1138,603.8828 527.7612,604.0322 Q528.4087,604.1816 528.9731,604.4805 L528.9731,607.2031 Q528.3423,606.6221 527.7488,606.3523 Q527.1553,606.0825 526.5244,606.0825 Q525.1797,606.0825 524.4949,607.1492 Q523.8101,608.2158 523.8101,610.3159 Q523.8101,612.4077 524.4949,613.4744 Q525.1797,614.541 526.5244,614.541 Q527.1553,614.541 527.7488,614.2712 Q528.3423,614.0015 528.9731,613.4204 Z " fill="#000000"/><text fill="#000000" font-family="sans-serif" font-size="14" lengthAdjust="spacing" textLength="92" x="540" y="615.791">PrimitiveType</text></g><!--class Property--><g id="elem_Property"><rect codeLine="49" fill="#ADD8E6" height="32" id="Property" rx="2.5" ry="2.5" style="stroke:#181818;stroke-width:0.5;" width="90" x="245" y="473.5"/><ellipse cx="260" cy="489.5" fill="#ADD1B2" rx="11" ry="11" style="stroke:#181818;stroke-width:1.0;"/><path d="M262.9731,495.1431 Q262.3921,495.4419 261.7529,495.5913 Q261.1138,495.7407 260.4082,495.7407 Q257.9014,495.7407 256.5815,494.0889 Q255.2617,492.437 255.2617,489.3159 Q255.2617,486.1865 256.5815,484.5347 Q257.9014,482.8828 260.4082,482.8828 Q261.1138,482.8828 261.7612,483.0322 Q262.4087,483.1816 262.9731,483.4805 L262.9731,486.2031 Q262.3423,485.6221 261.7488,485.3523 Q261.1553,485.0825 260.5244,485.0825 Q259.1797,485.0825 258.4949,486.1492 Q257.8101,487.2158 257.8101,489.3159 Q257.8101,491.4077 258.4949,492.4744 Q259.1797,493.541 260.5244,493.541 Q261.1553,493.541 261.7488,493.2712 Q262.3423,493.0015 262.9731,492.4204 Z " fill="#000000"/><text fill="#000000" font-family="sans-serif" font-size="14" lengthAdjust="spacing" textLength="58" x="274" y="494.791">Property</text></g><!--class Reference--><g id="elem_Reference"><rect codeLine="51" fill="#ADD8E6" height="32" id="Reference" rx="2.5" ry="2.5" style="stroke:#181818;stroke-width:0.5;" width="100" x="7" y="594.5"/><ellipse cx="22" cy="610.5" fill="#ADD1B2" rx="11" ry="11" style="stroke:#181818;stroke-width:1.0;"/><path d="M24.9731,616.1431 Q24.3921,616.4419 23.7529,616.5913 Q23.1138,616.7407 22.4082,616.7407 Q19.9014,616.7407 18.5815,615.0889 Q17.2617,613.437 17.2617,610.3159 Q17.2617,607.1865 18.5815,605.5347 Q19.9014,603.8828 22.4082,603.8828 Q23.1138,603.8828 23.7612,604.0322 Q24.4087,604.1816 24.9731,604.4805 L24.9731,607.2031 Q24.3423,606.6221 23.7488,606.3523 Q23.1553,606.0825 22.5244,606.0825 Q21.1797,606.0825 20.4949,607.1492 Q19.8101,608.2158 19.8101,610.3159 Q19.8101,612.4077 20.4949,613.4744 Q21.1797,614.541 22.5244,614.541 Q23.1553,614.541 23.7488,614.2712 Q24.3423,614.0015 24.9731,613.4204 Z " fill="#000000"/><text fill="#000000" font-family="sans-serif" font-size="14" lengthAdjust="spacing" textLength="68" x="36" y="615.791">Reference</text></g><g id="elem_LegendHidden"><path d="M726.5,50.5 L726.5,125.7422 L811.5,125.7422 L811.5,60.5 L801.5,50.5 L726.5,50.5 " fill="#FFFFFF" style="stroke:#FFFFFF;stroke-width:0.5;"/><path d="M801.5,50.5 L801.5,60.5 L811.5,60.5 L801.5,50.5 " fill="#FFFFFF" style="stroke:#FFFFFF;stroke-width:1.0;"/><rect fill="#FFFFFF" height="15.3105" style="stroke:none;stroke-width:1.0;" width="64" x="732.5" y="57.5"/><text fill="#000000" font-family="sans-serif" font-size="13" font-weight="bold" lengthAdjust="spacing" textLength="32" x="732.5" y="70.0684">&#160;&#160;&#160;&#160;&#160;&#160;&#160;&#160;</text><rect fill="#FFFFFF" height="15.3105" style="stroke:none;stroke-width:1.0;" width="64" x="732.5" y="72.8105"/><text fill="#000000" font-family="sans-serif" font-size="13" lengthAdjust="spacing" textLength="36" x="732.5" y="85.3789">&#160;&#160;&#160;&#160;&#160;&#160;&#160;&#160;&#160;</text><rect fill="#FFFFFF" height="15.3105" style="stroke:none;stroke-width:1.0;" width="64" x="732.5" y="88.1211"/><text fill="#000000" font-family="sans-serif" font-size="13" lengthAdjust="spacing" textLength="36" x="732.5" y="100.6895">&#160;&#160;&#160;&#160;&#160;&#160;&#160;&#160;&#160;</text><rect fill="#FFFFFF" height="15.3105" style="stroke:none;stroke-width:1.0;" width="64" x="732.5" y="103.4316"/><text fill="#000000" font-family="sans-serif" font-size="13" lengthAdjust="spacing" textLength="64" x="732.5" y="116">&#160;&#160;&#160;&#160;&#160;&#160;&#160;&#160;&#160;&#160;&#160;&#160;&#160;&#160;&#160;&#160;</text><line style="stroke:#FFFFFF;stroke-width:1.0;" x1="732.5" x2="796.5" y1="57.5" y2="57.5"/><line style="stroke:#FFFFFF;stroke-width:1.0;" x1="732.5" x2="796.5" y1="72.8105" y2="72.8105"/><line style="stroke:#FFFFFF;stroke-width:1.0;" x1="732.5" x2="796.5" y1="88.1211" y2="88.1211"/><line style="stroke:#FFFFFF;stroke-width:1.0;" x1="732.5" x2="796.5" y1="103.4316" y2="103.4316"/><line style="stroke:#FFFFFF;stroke-width:1.0;" x1="732.5" x2="796.5" y1="118.7422" y2="118.7422"/><line style="stroke:#FFFFFF;stroke-width:1.0;" x1="732.5" x2="732.5" y1="57.5" y2="118.7422"/><line style="stroke:#FFFFFF;stroke-width:1.0;" x1="796.5" x2="796.5" y1="57.5" y2="118.7422"/></g><g id="elem_Legend"><path d="M847,50.5 L847,125.7422 L935,125.7422 L935,60.5 L925,50.5 L847,50.5 " fill="#F5F5F5" style="stroke:#FFFFFF;stroke-width:0.5;"/><path d="M925,50.5 L925,60.5 L935,60.5 L925,50.5 " fill="#F5F5F5" style="stroke:#FFFFFF;stroke-width:1.0;"/><rect fill="#F5F5F5" height="15.3105" style="stroke:none;stroke-width:1.0;" width="67" x="853" y="57.5"/><text fill="#000000" font-family="sans-serif" font-size="13" font-weight="bold" lengthAdjust="spacing" textLength="51" x="857" y="70.0684">Legend</text><rect fill="#ADD8E6" height="15.3105" style="stroke:none;stroke-width:1.0;" width="67" x="853" y="72.8105"/><text fill="#000000" font-family="sans-serif" font-size="13" lengthAdjust="spacing" textLength="46" x="857" y="85.3789">Feature</text><rect fill="#90EE90" height="15.3105" style="stroke:none;stroke-width:1.0;" width="67" x="853" y="88.1211"/><text fill="#000000" font-family="sans-serif" font-size="13" lengthAdjust="spacing" textLength="59" x="857" y="100.6895">Classifier</text><rect fill="#FFB6C1" height="15.3105" style="stroke:none;stroke-width:1.0;" width="67" x="853" y="103.4316"/><text fill="#000000" font-family="sans-serif" font-size="13" lengthAdjust="spacing" textLength="59" x="857" y="116">DataType</text><line style="stroke:#FBFB77;stroke-width:1.0;" x1="853" x2="920" y1="57.5" y2="57.5"/><line style="stroke:#FBFB77;stroke-width:1.0;" x1="853" x2="920" y1="72.8105" y2="72.8105"/><line style="stroke:#FBFB77;stroke-width:1.0;" x1="853" x2="920" y1="88.1211" y2="88.1211"/><line style="stroke:#FBFB77;stroke-width:1.0;" x1="853" x2="920" y1="103.4316" y2="103.4316"/><line style="stroke:#FBFB77;stroke-width:1.0;" x1="853" x2="920" y1="118.7422" y2="118.7422"/><line style="stroke:#FBFB77;stroke-width:1.0;" x1="853" x2="853" y1="57.5" y2="118.7422"/><line style="stroke:#FBFB77;stroke-width:1.0;" x1="920" x2="920" y1="57.5" y2="118.7422"/></g><!--reverse link Classifier to Annotation--><g id="link_Classifier_Annotation"><path d="M343.42,635.49 C332.57,641.36 321.91,648.35 313,656.5 C291.98,675.71 276.83,705.79 269.02,723.83 " fill="none" id="Classifier-backto-Annotation" style="stroke:#181818;stroke-width:1.0;"/><polygon fill="none" points="340.54,629.11,361.59,626.65,346.67,641.69,340.54,629.11" style="stroke:#181818;stroke-width:1.0;"/></g><!--link Annotation to Classifier--><g id="link_Annotation_Classifier"><path codeLine="55" d="M279.82,723.89 C305.86,700.52 355.85,655.63 384.14,630.23 " fill="none" id="Annotation-to-Classifier" style="stroke:#181818;stroke-width:1.0;"/><polygon fill="#181818" points="388.15,626.63,378.7787,629.6596,384.4272,629.9677,384.1191,635.6162,388.15,626.63" style="stroke:#181818;stroke-width:1.0;"/><text fill="#000000" font-family="sans-serif" font-size="13" lengthAdjust="spacing" textLength="62" x="352" y="670.0684">annotates</text><text fill="#000000" font-family="sans-serif" font-size="13" lengthAdjust="spacing" textLength="6" x="278.5706" y="713.3958">*</text><text fill="#000000" font-family="sans-serif" font-size="13" lengthAdjust="spacing" textLength="24" x="354.5934" y="647.0772">0..1</text></g><!--reverse link Classifier to Concept--><g id="link_Classifier_Concept"><path d="M428.26,642.71 C441.93,661.07 459.27,684.34 473.48,703.41 " fill="none" id="Classifier-backto-Concept" style="stroke:#181818;stroke-width:1.0;"/><polygon fill="none" points="422.61,646.85,416.27,626.63,433.83,638.48,422.61,646.85" style="stroke:#181818;stroke-width:1.0;"/></g><!--reverse link Classifier to ConceptInterface--><g id="link_Classifier_ConceptInterface"><path d="M472.62,626.14 C541.81,642.64 642.31,671.41 665,703.5 C683.73,729.99 681.19,748.38 665,776.5 C642.08,816.29 594.89,840.07 556.82,853.46 " fill="none" id="Classifier-backto-ConceptInterface" style="stroke:#181818;stroke-width:1.0;"/><polygon fill="none" points="470.61,632.86,452.71,621.51,473.78,619.22,470.61,632.86" style="stroke:#181818;stroke-width:1.0;"/></g><!--reverse link Link to Containment--><g id="link_Link_Containment"><path d="M166.32,535.51 C176.59,556.23 188.09,579.43 195.43,594.24 " fill="none" id="Link-backto-Containment" style="stroke:#181818;stroke-width:1.0;"/><polygon fill="none" points="160,538.53,157.39,517.5,172.54,532.31,160,538.53" style="stroke:#181818;stroke-width:1.0;"/></g><!--reverse link LanguageEntity to DataType--><g id="link_LanguageEntity_DataType"><path d="M552,385.58 C568.25,413.46 590.9,452.32 603.2,473.41 " fill="none" id="LanguageEntity-backto-DataType" style="stroke:#181818;stroke-width:1.0;"/><polygon fill="none" points="545.78,388.82,541.76,368.02,557.88,381.77,545.78,388.82" style="stroke:#181818;stroke-width:1.0;"/></g><!--reverse link DataType to Enumeration--><g id="link_DataType_Enumeration"><path d="M641.15,519.9 C664.48,543.42 696.25,575.47 714.8,594.18 " fill="none" id="DataType-backto-Enumeration" style="stroke:#181818;stroke-width:1.0;"/><polygon fill="none" points="636.06,524.7,626.94,505.57,646,514.84,636.06,524.7" style="stroke:#181818;stroke-width:1.0;"/></g><!--reverse link IKeyed to EnumerationLiteral--><g id="link_IKeyed_EnumerationLiteral"><path d="M667.18,260.4 C681.79,286.43 699.25,317.58 709.44,335.74 " fill="none" id="IKeyed-backto-EnumerationLiteral" style="stroke:#181818;stroke-width:1.0;stroke-dasharray:7.0,7.0;"/><polygon fill="none" points="660.88,263.46,657.2,242.59,673.09,256.61,660.88,263.46" style="stroke:#181818;stroke-width:1.0;"/></g><!--reverse link IKeyed to Feature--><g id="link_IKeyed_Feature"><path d="M584.71,241.12 C531.75,264.8 453.32,299.88 399.39,323.99 " fill="none" id="IKeyed-backto-Feature" style="stroke:#181818;stroke-width:1.0;stroke-dasharray:7.0,7.0;"/><polygon fill="none" points="582.2,234.57,603.32,232.8,587.92,247.35,582.2,234.57" style="stroke:#181818;stroke-width:1.0;"/></g><!--reverse link LanguageEntity to Classifier--><g id="link_LanguageEntity_Classifier"><path d="M516.42,386.22 C488.42,442.34 432.81,553.76 412.58,594.3 " fill="none" id="LanguageEntity-backto-Classifier" style="stroke:#181818;stroke-width:1.0;"/><polygon fill="none" points="510.18,383.05,525.38,368.28,522.71,389.3,510.18,383.05" style="stroke:#181818;stroke-width:1.0;"/></g><!--reverse link Feature to Link--><g id="link_Feature_Link"><path d="M283.52,391.55 C251.39,413.88 211.74,441.43 182.92,461.45 " fill="none" id="Feature-backto-Link" style="stroke:#181818;stroke-width:1.0;"/><polygon fill="none" points="279.59,385.76,300.01,380.09,287.58,397.26,279.59,385.76" style="stroke:#181818;stroke-width:1.0;"/></g><!--reverse link IKeyed to Language--><g id="link_IKeyed_Language"><path d="M698.39,246.31 C739.15,268.58 793.94,298.52 834.5,320.68 " fill="none" id="IKeyed-backto-Language" style="stroke:#181818;stroke-width:1.0;stroke-dasharray:7.0,7.0;"/><polygon fill="none" points="694.94,252.4,680.75,236.67,701.66,240.12,694.94,252.4" style="stroke:#181818;stroke-width:1.0;"/></g><!--reverse link IKeyed to LanguageEntity--><g id="link_IKeyed_LanguageEntity"><path d="M607.4,258.51 C586.16,284.91 560.24,317.13 545.28,335.74 " fill="none" id="IKeyed-backto-LanguageEntity" style="stroke:#181818;stroke-width:1.0;stroke-dasharray:7.0,7.0;"/><polygon fill="none" points="602.21,253.79,620.2,242.59,613.12,262.57,602.21,253.79" style="stroke:#181818;stroke-width:1.0;"/></g><!--reverse link INamed to IKeyed--><g id="link_INamed_IKeyed"><path d="M642,136.14 C642,153.01 642,171.46 642,186.11 " fill="none" id="INamed-backto-IKeyed" style="stroke:#181818;stroke-width:1.0;"/><polygon fill="none" points="635,136.01,642,116.01,649,136.01,635,136.01" style="stroke:#181818;stroke-width:1.0;"/></g><!--reverse link DataType to PrimitiveType--><g id="link_DataType_PrimitiveType"><path d="M600.78,524.74 C593.27,547.66 583.74,576.72 578.02,594.18 " fill="none" id="DataType-backto-PrimitiveType" style="stroke:#181818;stroke-width:1.0;"/><polygon fill="none" points="594.18,522.4,607.06,505.57,607.48,526.76,594.18,522.4" style="stroke:#181818;stroke-width:1.0;"/></g><!--reverse link Feature to Property--><g id="link_Feature_Property"><path d="M322.35,399.04 C313.02,424.84 301.99,455.34 295.52,473.24 " fill="none" id="Feature-backto-Property" style="stroke:#181818;stroke-width:1.0;"/><polygon fill="none" points="315.82,396.52,329.2,380.09,328.98,401.28,315.82,396.52" style="stroke:#181818;stroke-width:1.0;"/></g><!--reverse link Link to Reference--><g id="link_Link_Reference"><path d="M112.25,533.93 C96.82,555.04 79.26,579.06 68.16,594.24 " fill="none" id="Link-backto-Reference" style="stroke:#181818;stroke-width:1.0;"/><polygon fill="none" points="106.8,529.52,124.26,517.5,118.11,537.78,106.8,529.52" style="stroke:#181818;stroke-width:1.0;"/></g><!--link Annotation to Annotation--><g id="link_Annotation_Annotation"><path codeLine="56" d="M317.62,726.13 C336.88,725.91 352.5,730.53 352.5,740 C352.5,748.58 339.67,753.18 322.93,753.8 " fill="none" id="Annotation-to-Annotation" style="stroke:#181818;stroke-width:1.0;"/><polygon fill="#181818" points="317.62,753.87,326.6651,757.7669,322.6197,753.8129,326.5737,749.7674,317.62,753.87" style="stroke:#181818;stroke-width:1.0;"/><text fill="#000000" font-family="sans-serif" font-size="13" lengthAdjust="spacing" textLength="50" x="358.5" y="745.0684">extends</text><text fill="#000000" font-family="sans-serif" font-size="13" lengthAdjust="spacing" textLength="6" x="325.3627" y="720.8476">*</text><text fill="#000000" font-family="sans-serif" font-size="13" lengthAdjust="spacing" textLength="24" x="325.3229" y="752.1928">0..1</text></g><!--link Annotation to ConceptInterface--><g id="link_Annotation_ConceptInterface"><path codeLine="57" d="M290.91,756.08 C321.57,772.64 372.27,800 416,823.5 C432.77,832.51 451.44,842.52 466.91,850.8 " fill="none" id="Annotation-to-ConceptInterface" style="stroke:#181818;stroke-width:1.0;"/><polygon fill="#181818" points="471.61,853.31,465.5551,845.5422,467.1994,850.9548,461.7868,852.5992,471.61,853.31" style="stroke:#181818;stroke-width:1.0;"/><text fill="#000000" font-family="sans-serif" font-size="13" lengthAdjust="spacing" textLength="74" x="417" y="820.0684">implements</text><text fill="#000000" font-family="sans-serif" font-size="13" lengthAdjust="spacing" textLength="6" x="293.1614" y="776.5107">*</text><text fill="#000000" font-family="sans-serif" font-size="13" lengthAdjust="spacing" textLength="6" x="454.8197" y="842.7883">*</text></g><!--link Concept to Concept--><g id="link_Concept_Concept"><path codeLine="59" d="M567.2,726.17 C586.81,726.64 602,731.26 602,740 C602,747.92 589.52,752.45 572.59,753.59 " fill="none" id="Concept-to-Concept" style="stroke:#181818;stroke-width:1.0;"/><polygon fill="#181818" points="567.2,753.83,576.3733,757.4148,572.1948,753.6017,576.0079,749.4232,567.2,753.83" style="stroke:#181818;stroke-width:1.0;"/><text fill="#000000" font-family="sans-serif" font-size="13" lengthAdjust="spacing" textLength="50" x="608" y="745.0684">extends</text><text fill="#000000" font-family="sans-serif" font-size="13" lengthAdjust="spacing" textLength="6" x="574.8781" y="721.4237">*</text><text fill="#000000" font-family="sans-serif" font-size="13" lengthAdjust="spacing" textLength="24" x="574.9963" y="752.0379">0..1</text></g><!--link Concept to ConceptInterface--><g id="link_Concept_ConceptInterface"><path codeLine="60" d="M500,776.52 C500,799.68 500,829.09 500,848.33 " fill="none" id="Concept-to-ConceptInterface" style="stroke:#181818;stroke-width:1.0;"/><polygon fill="#181818" points="500,853.48,504,844.48,500,848.48,496,844.48,500,853.48" style="stroke:#181818;stroke-width:1.0;"/><text fill="#000000" font-family="sans-serif" font-size="13" lengthAdjust="spacing" textLength="74" x="501" y="820.0684">implements</text><text fill="#000000" font-family="sans-serif" font-size="13" lengthAdjust="spacing" textLength="6" x="493.4656" y="796.9592">*</text><text fill="#000000" font-family="sans-serif" font-size="13" lengthAdjust="spacing" textLength="6" x="492.9313" y="842.7247">*</text></g><!--link ConceptInterface to ConceptInterface--><g id="link_ConceptInterface_ConceptInterface"><path codeLine="62" d="M574.72,859.46 C594.51,860.04 609.5,863.38 609.5,869.5 C609.5,875.04 597.19,878.31 580.15,879.3 " fill="none" id="ConceptInterface-to-ConceptInterface" style="stroke:#181818;stroke-width:1.0;"/><polygon fill="#181818" points="574.72,879.54,583.883,883.151,579.7154,879.3259,583.5405,875.1583,574.72,879.54" style="stroke:#181818;stroke-width:1.0;"/><text fill="#000000" font-family="sans-serif" font-size="13" lengthAdjust="spacing" textLength="50" x="615.5" y="874.5684">extends</text><text fill="#000000" font-family="sans-serif" font-size="13" lengthAdjust="spacing" textLength="6" x="582.7349" y="855.2356">*</text><text fill="#000000" font-family="sans-serif" font-size="13" lengthAdjust="spacing" textLength="6" x="582.7349" y="877.3863">*</text></g><!--link EnumerationLiteral to Enumeration--><g id="link_EnumerationLiteral_Enumeration"><path codeLine="64" d="M718.71,368.28 C720.67,410.07 726.13,526.76 728.67,581.05 " fill="none" id="EnumerationLiteral-to-Enumeration" style="stroke:#181818;stroke-width:1.0;"/><polygon fill="#181818" points="729.29,594.3,733.002,588.1177,728.723,582.3134,725.011,588.4957,729.29,594.3" style="stroke:#181818;stroke-width:1.0;"/><text fill="#000000" font-family="sans-serif" font-size="13" lengthAdjust="spacing" textLength="43" x="726" y="494.5684">literals</text><text fill="#000000" font-family="sans-serif" font-size="13" lengthAdjust="spacing" textLength="6" x="711.9801" y="388.4777">*</text><text fill="#000000" font-family="sans-serif" font-size="13" lengthAdjust="spacing" textLength="8" x="719.6709" y="583.7749">1</text></g><!--link Feature to Classifier--><g id="link_Feature_Classifier"><path codeLine="66" d="M346.06,380.45 C358.71,429.61 385.09,532.13 397.82,581.61 " fill="none" id="Feature-to-Classifier" style="stroke:#181818;stroke-width:1.0;"/><polygon fill="#181818" points="401.1,594.34,403.4764,587.5317,398.1059,582.7195,395.7294,589.5278,401.1,594.34" style="stroke:#181818;stroke-width:1.0;"/><text fill="#000000" font-family="sans-serif" font-size="13" lengthAdjust="spacing" textLength="51" x="382" y="494.5684">features</text><text fill="#000000" font-family="sans-serif" font-size="13" lengthAdjust="spacing" textLength="6" x="340.9481" y="400.863">*</text><text fill="#000000" font-family="sans-serif" font-size="13" lengthAdjust="spacing" textLength="8" x="390.3844" y="583.8286">1</text></g><!--link Link to Classifier--><g id="link_Link_Classifier"><path codeLine="68" d="M203.22,517.5 C253.58,540.46 324.36,572.73 367.32,592.32 " fill="none" id="Link-to-Classifier" style="stroke:#181818;stroke-width:1.0;"/><polygon fill="#181818" points="371.9,594.41,365.3619,587.0443,367.3482,592.341,362.0515,594.3272,371.9,594.41" style="stroke:#181818;stroke-width:1.0;"/><text fill="#000000" font-family="sans-serif" font-size="13" lengthAdjust="spacing" textLength="27" x="307" y="561.0684">type</text><text fill="#000000" font-family="sans-serif" font-size="13" lengthAdjust="spacing" textLength="6" x="210.9236" y="538.6998">*</text><text fill="#000000" font-family="sans-serif" font-size="13" lengthAdjust="spacing" textLength="8" x="350.6831" y="583.6297">1</text></g><!--link Language to Language--><g id="link_Language_Language"><path codeLine="70" d="M945.68,338.88 C964.94,338.74 980.5,343.11 980.5,352 C980.5,360.05 967.72,364.4 950.99,365.04 " fill="none" id="Language-to-Language" style="stroke:#181818;stroke-width:1.0;"/><polygon fill="#181818" points="945.68,365.12,954.7362,368.991,950.6795,365.0486,954.6219,360.9918,945.68,365.12" style="stroke:#181818;stroke-width:1.0;"/><text fill="#000000" font-family="sans-serif" font-size="13" lengthAdjust="spacing" textLength="71" x="986.5" y="357.0684">dependsOn</text><text fill="#000000" font-family="sans-serif" font-size="13" lengthAdjust="spacing" textLength="6" x="953.5651" y="333.6911">*</text><text fill="#000000" font-family="sans-serif" font-size="13" lengthAdjust="spacing" textLength="6" x="953.5651" y="363.4571">*</text></g><!--link LanguageEntity to Language--><g id="link_LanguageEntity_Language"><path codeLine="71" d="M545.57,335.85 C559.74,319.09 584.49,293.9 612.5,283.5 C682.64,257.45 766.42,285.85 823.44,313.59 " fill="none" id="LanguageEntity-to-Language" style="stroke:#181818;stroke-width:1.0;"/><polygon fill="#181818" points="835.19,319.48,831.6215,313.2137,824.4648,314.0976,828.0333,320.3639,835.19,319.48" style="stroke:#181818;stroke-width:1.0;"/><text fill="#000000" font-family="sans-serif" font-size="13" lengthAdjust="spacing" textLength="47" x="613.5" y="286.0684">entities</text><text fill="#000000" font-family="sans-serif" font-size="13" lengthAdjust="spacing" textLength="6" x="542.8597" y="325.342">*</text><text fill="#000000" font-family="sans-serif" font-size="13" lengthAdjust="spacing" textLength="8" x="818.5523" y="311.1852">1</text></g><!--link Property to DataType--><g id="link_Property_DataType"><path codeLine="73" d="M311.69,473.47 C345.38,450.52 412.64,412.42 472.5,425.5 C512.12,434.15 553.94,455.14 581.33,470.73 " fill="none" id="Property-to-DataType" style="stroke:#181818;stroke-width:1.0;"/><polygon fill="#181818" points="585.94,473.38,580.1357,465.4233,581.6067,470.8855,576.1445,472.3565,585.94,473.38" style="stroke:#181818;stroke-width:1.0;"/><text fill="#000000" font-family="sans-serif" font-size="13" lengthAdjust="spacing" textLength="27" x="444.5" y="428.0684">type</text><text fill="#000000" font-family="sans-serif" font-size="13" lengthAdjust="spacing" textLength="6" x="312.3483" y="462.7111">*</text><text fill="#000000" font-family="sans-serif" font-size="13" lengthAdjust="spacing" textLength="8" x="567.6069" y="462.8824">1</text></g><!--SRC=[fLN1Zjem4BtxAqPmgBHYKNjQAQ98XIujAcfHjpzWaY5O97RaEDj6tVttJXmScn1efNB1ij-RUJD-unn4We1vOMh8CT-XBXahU7paASAk4faHieJV3418WthFOxyzNN_bEIRs543IEe8deuLCQUELlJ8MPxmiuOEKod0Zb8JnHgG7yqaZIi1V1cLImh81YRr0JP4wqbB960lpTmO0tvL6yzX4i50gGovfh-3QY2Qbt-o7NdS5tSuHq0mNCaVfL2so2Zl2HiWZOquBj9oFtF0VTU5IR0dZ2Loc5RNvKPBIscLvb5MEEkpM6Sa5781l1DN3iv0byYB3Hd09wozOOt8XS8NSL1h3WYv8jicgQ7BmxAoVlM31lGorj5zmZzqqSAYnJcAZ8g_8UIHlu5PTT9ZDkikVpwzKyqm-j-Ou-VMobdEnGvtq0t4Ax0GFpSSHwmZMYPUxrI8dZSzupHxzczvgLQ0cATTRvA3VSOyQPOpNVVe6D6RMDcN4M32XexiHtD_FOVHsEdqt2guq0jwYiBo1zoUHopY8fl_-64P1anbpyz_Nqsxxu1UuVutin_ysrILY0wDccNSm8c7Xt4QGjG1YEVS6qB2d-_QOWDR-dPGUp5WZT1OF5RlD218i6gNV9EkPDyZjqTYSYIPpvooBQvCxzxdKvL586YkU0zqbdfxydT89wbXbIiFF0vNSxjBN8zMgaidIdvIvEYAG_IsTamqn9R6VHPBG2p5sx5cxchH_yvVtSFgz31p2_nzs6D9YAsCzWU3PjeJ9UBLOBHuU6cadH9kW6xI9Nr8YT_q1o3wAas1DiE3b393DUp3nIy9rtvD0yHy0]--></g></svg>