<svg width="1280" height="720" xmlns="http://www.w3.org/2000/svg" xmlns:xlink="http://www.w3.org/1999/xlink" overflow="hidden"><defs><clipPath id="clip0"><rect x="344" y="37" width="152" height="105"/></clipPath><clipPath id="clip1"><rect x="344" y="37" width="152" height="105"/></clipPath><clipPath id="clip2"><rect x="344" y="37" width="152" height="105"/></clipPath></defs><g><rect x="0" y="0" width="1280" height="720" fill="#FFFFFF"/><path d="M682.304 442.574 628.5 390.5" stroke="#000000" stroke-width="9.33333" stroke-miterlimit="8" fill="none" fill-rule="evenodd"/><path d="M800.289 323.622 667.5 310.5" stroke="#000000" stroke-width="9.33333" stroke-miterlimit="8" fill="none" fill-rule="evenodd"/><path d="M0 0 110.195 57.6771" stroke="#000000" stroke-width="9.33333" stroke-miterlimit="8" fill="none" fill-rule="evenodd" transform="matrix(-1 0 0 1 765.695 177.5)"/><path d="M0 0 84.1863 64.1788" stroke="#000000" stroke-width="9.33333" stroke-miterlimit="8" fill="none" fill-rule="evenodd" transform="matrix(1 0 0 -1 378.5 436.679)"/><path d="M342.5 264.5 441.502 278.584" stroke="#000000" stroke-width="9.33333" stroke-miterlimit="8" fill="none" fill-rule="evenodd"/><path d="M436 296.5C436 230.502 489.502 177 555.5 177 621.498 177 675 230.502 675 296.5 675 362.498 621.498 416 555.5 416 489.502 416 436 362.498 436 296.5Z" fill="#BFBFBF" fill-rule="evenodd"/><path d="M484.5 267.833C484.5 264.888 486.888 262.5 489.833 262.5L537.167 262.5C540.112 262.5 542.5 264.888 542.5 267.833L542.5 289.167C542.5 292.112 540.112 294.5 537.167 294.5L489.833 294.5C486.888 294.5 484.5 292.112 484.5 289.167Z" stroke="#000000" stroke-width="2.66667" stroke-miterlimit="8" stroke-dasharray="2.66667 2.66667" fill="#FFFFFF" fill-rule="evenodd"/><path d="M327.5 48.8339C327.5 37.6038 336.604 28.5001 347.834 28.5001L491.166 28.5001C502.396 28.5001 511.5 37.6038 511.5 48.8339L511.5 130.166C511.5 141.396 502.396 150.5 491.166 150.5L347.834 150.5C336.604 150.5 327.5 141.396 327.5 130.166Z" stroke="#0D0D0D" stroke-width="2.66667" stroke-miterlimit="8" fill="#FFFFFF" fill-rule="evenodd"/><path d="M525.5 368.833C525.5 365.888 527.888 363.5 530.833 363.5L578.167 363.5C581.112 363.5 583.5 365.888 583.5 368.833L583.5 390.167C583.5 393.112 581.112 395.5 578.167 395.5L530.833 395.5C527.888 395.5 525.5 393.112 525.5 390.167Z" stroke="#000000" stroke-width="2.66667" stroke-miterlimit="8" fill="#FFFFFF" fill-rule="evenodd"/><path d="M579.5 320.833C579.5 317.888 581.888 315.5 584.833 315.5L632.167 315.5C635.112 315.5 637.5 317.888 637.5 320.833L637.5 342.167C637.5 345.112 635.112 347.5 632.167 347.5L584.833 347.5C581.888 347.5 579.5 345.112 579.5 342.167Z" stroke="#000000" stroke-width="2.66667" stroke-miterlimit="8" fill="#FFFFFF" fill-rule="evenodd"/><path d="M476.5 326.833C476.5 323.888 478.888 321.5 481.833 321.5L529.167 321.5C532.112 321.5 534.5 323.888 534.5 326.833L534.5 348.167C534.5 351.112 532.112 353.5 529.167 353.5L481.833 353.5C478.888 353.5 476.5 351.112 476.5 348.167Z" stroke="#000000" stroke-width="2.66667" stroke-miterlimit="8" fill="#FFFFFF" fill-rule="evenodd"/><path d="M474.5 257.833C474.5 254.888 476.888 252.5 479.833 252.5L527.167 252.5C530.112 252.5 532.5 254.888 532.5 257.833L532.5 279.167C532.5 282.112 530.112 284.5 527.167 284.5L479.833 284.5C476.888 284.5 474.5 282.112 474.5 279.167Z" stroke="#000000" stroke-width="2.66667" stroke-miterlimit="8" fill="#FFFFFF" fill-rule="evenodd"/><path d="M534.5 206.833C534.5 203.888 536.888 201.5 539.833 201.5L587.167 201.5C590.112 201.5 592.5 203.888 592.5 206.833L592.5 228.167C592.5 231.112 590.112 233.5 587.167 233.5L539.833 233.5C536.888 233.5 534.5 231.112 534.5 228.167Z" stroke="#000000" stroke-width="2.66667" stroke-miterlimit="8" fill="#FFFFFF" fill-rule="evenodd"/><path d="M511.5 89.5001 531.215 254.253" stroke="#000000" stroke-width="1.33333" stroke-miterlimit="8" fill="none" fill-rule="evenodd"/><path d="M404.5 150.5 475.478 252.164" stroke="#000000" stroke-width="1.33333" stroke-miterlimit="8" fill="none" fill-rule="evenodd"/><path d="M332.5 143.5 477.267 284.617" stroke="#000000" stroke-width="1.33333" stroke-miterlimit="8" fill="none" fill-rule="evenodd"/><path d="M505.5 145.5 529.362 284.969" stroke="#000000" stroke-width="1.33333" stroke-miterlimit="8" fill="none" fill-rule="evenodd"/><path d="M789 451.75 847.5 451.75 847.5 443 865 460.5 847.5 478 847.5 469.25 789 469.25Z" fill="#B6B5B5" fill-rule="evenodd"/><path d="M0 8.74998 58.5001 8.74998 58.5001 0 76 17.5 58.5001 35 58.5001 26.25 0 26.25Z" fill="#B6B5B5" fill-rule="evenodd" transform="matrix(-1 0 0 1 981 310)"/><path d="M570.5 272.833C570.5 269.888 572.888 267.5 575.833 267.5L623.167 267.5C626.112 267.5 628.5 269.888 628.5 272.833L628.5 294.167C628.5 297.112 626.112 299.5 623.167 299.5L575.833 299.5C572.888 299.5 570.5 297.112 570.5 294.167Z" stroke="#000000" stroke-width="2.66667" stroke-miterlimit="8" stroke-dasharray="2.66667 2.66667" fill="#FFFFFF" fill-rule="evenodd"/><path d="M561.5 263C561.5 259.963 563.963 257.5 567 257.5L614 257.5C617.038 257.5 619.5 259.963 619.5 263L619.5 285C619.5 288.038 617.038 290.5 614 290.5L567 290.5C563.963 290.5 561.5 288.038 561.5 285Z" stroke="#000000" stroke-width="2.66667" stroke-miterlimit="8" fill="#FFFFFF" fill-rule="evenodd"/><rect x="617" y="172" width="38" height="38"/><text fill="#FFFFFF" font-family="Calibri,Calibri_MSFontService,sans-serif" font-weight="400" font-size="24" transform="translate(628.881 199)">A</text><rect x="520" y="43" width="38" height="38"/><text fill="#FFFFFF" font-family="Calibri,Calibri_MSFontService,sans-serif" font-weight="400" font-size="24" transform="translate(532.584 69)">B</text><rect x="866" y="128" width="38" height="38"/><text fill="#FFFFFF" font-family="Calibri,Calibri_MSFontService,sans-serif" font-weight="400" font-size="24" transform="translate(878.966 155)">C</text><rect x="900" y="257" width="38" height="38"/><text fill="#FFFFFF" font-family="Calibri,Calibri_MSFontService,sans-serif" font-weight="400" font-size="24" transform="translate(911.44 284)">D</text><rect x="784" y="393" width="39" height="38"/><text fill="#FFFFFF" font-family="Calibri,Calibri_MSFontService,sans-serif" font-weight="400" font-size="24" transform="translate(797.748 420)">E</text><rect x="227" y="379" width="39" height="38"/><text fill="#FFFFFF" font-family="Calibri,Calibri_MSFontService,sans-serif" font-weight="400" font-size="24" transform="translate(240.917 406)">F</text><rect x="186" y="217" width="38" height="38"/><text fill="#FFFFFF" font-family="Calibri,Calibri_MSFontService,sans-serif" font-weight="400" font-size="24" transform="translate(197.539 243)">G</text><path d="M700 237.5C700 226.73 708.73 218 719.5 218 730.27 218 739 226.73 739 237.5 739 248.27 730.27 257 719.5 257 708.73 257 700 248.27 700 237.5Z" fill-rule="evenodd"/><text fill="#FFFFFF" font-family="Calibri,Calibri_MSFontService,sans-serif" font-weight="400" font-size="24" transform="translate(713.606 245)">1</text><path d="M703 346.5C703 335.73 711.954 327 723 327 734.046 327 743 335.73 743 346.5 743 357.27 734.046 366 723 366 711.954 366 703 357.27 703 346.5Z" fill-rule="evenodd"/><text fill="#FFFFFF" font-family="Calibri,Calibri_MSFontService,sans-serif" font-weight="400" font-size="24" transform="translate(716.78 354)">2</text><path d="M617 443.5C617 432.73 625.73 424 636.5 424 647.27 424 656 432.73 656 443.5 656 454.27 647.27 463 636.5 463 625.73 463 617 454.27 617 443.5Z" fill-rule="evenodd"/><text fill="#FFFFFF" font-family="Calibri,Calibri_MSFontService,sans-serif" font-weight="400" font-size="24" transform="translate(630.177 451)">3</text><path d="M415 435.5C415 424.73 422.835 416 432.5 416 442.165 416 450 424.73 450 435.5 450 446.27 442.165 455 432.5 455 422.835 455 415 446.27 415 435.5Z" fill-rule="evenodd"/><text fill="#FFFFFF" font-family="Calibri,Calibri_MSFontService,sans-serif" font-weight="400" font-size="24" transform="translate(426.401 443)">4</text><path d="M363 301.5C363 290.73 371.73 282 382.5 282 393.27 282 402 290.73 402 301.5 402 312.27 393.27 321 382.5 321 371.73 321 363 312.27 363 301.5Z" fill-rule="evenodd"/><text fill="#FFFFFF" font-family="Calibri,Calibri_MSFontService,sans-serif" font-weight="400" font-size="24" transform="translate(376.262 309)">5</text><g><g><g><path d="M635.533 335.073 666.836 335.073 666.836 393.017 620.955 393.017 620.955 349.43Z" stroke="#727272" stroke-width="2.6" stroke-linejoin="round" fill="#FFFFFF"/><path d="M629.515 329.474 660.818 329.474 660.818 387.418 614.937 387.418 614.937 343.831Z" stroke="#727272" stroke-width="2.6" stroke-linecap="round" stroke-linejoin="round" fill="#FFFFFF"/><path d="M614.937 343.831 629.515 343.831 629.515 329.474" stroke="#727272" stroke-width="2.6" stroke-linejoin="round" fill="none"/><path d="M652.795 378.932 622.96 378.932" stroke="#727272" stroke-width="2.6" stroke-linecap="round" stroke-linejoin="round" fill="none"/><path d="M652.795 370.229 622.96 370.229" stroke="#727272" stroke-width="2.6" stroke-linecap="round" stroke-linejoin="round" fill="none"/><path d="M652.795 361.526 646.673 361.526M641.332 361.526 622.96 361.526" stroke="#727272" stroke-width="2.6" stroke-linecap="round" stroke-linejoin="round" fill="none"/><path d="M652.795 352.823 622.96 352.823" stroke="#727272" stroke-width="2.6" stroke-linecap="round" stroke-linejoin="round" fill="none"/></g></g></g><g clip-path="url(#clip0)"><g clip-path="url(#clip1)"><g clip-path="url(#clip2)"><path d="M343.969 37 375.736 37 375.736 58.7231 343.969 58.7231Z"/><path d="M376.087 65.3802 407.854 65.3802 407.854 87.1033 376.087 87.1033Z"/><path d="M376.087 92.4757 407.854 92.4757 407.854 114.199 376.087 114.199Z"/><path d="M377.298 76.2418 358.553 76.2418" stroke="#000000" stroke-width="2.59955" fill="none"/><path d="M408.204 120.277 439.971 120.277 439.971 142 408.204 142Z"/><path d="M409.415 131.138 391.97 131.138 391.97 112.598" stroke="#000000" stroke-width="2.59955" fill="none"/><path d="M377.298 103.337 359.853 103.337 359.853 57.7012" stroke="#000000" stroke-width="2.59955" fill="none"/><path d="M432.029 37 463.797 37 463.797 58.7231 432.029 58.7231Z"/><path d="M464.147 64.8012 495.914 64.8012 495.914 86.5243 464.147 86.5243Z"/><path d="M465.358 75.6627 447.913 75.6627 447.913 57.1222" stroke="#000000" stroke-width="2.59955" fill="none"/><path d="M480.031 84.5923 480.031 131.138 438.541 131.138" stroke="#000000" stroke-width="2.59954" stroke-dasharray="2.59954 2.59954" fill="none"/><path d="M465.358 81.7434 406.511 81.7434" stroke="#000000" stroke-width="2.59954" stroke-dasharray="2.59954 2.59954" fill="none"/></g></g></g><g><g><g><path d="M277.925 387.213 373.217 387.213 373.217 465.676 277.925 465.676Z" stroke="#727272" stroke-width="14.9525" stroke-linecap="round" stroke-linejoin="round" fill="#727272"/><path d="M285.374 391.719C285.374 392.553 284.698 393.23 283.863 393.23 283.029 393.23 282.352 392.553 282.352 391.719 282.352 390.884 283.029 390.207 283.863 390.207 284.698 390.207 285.374 390.884 285.374 391.719Z" stroke="#FFFFFF" stroke-width="4.74926" stroke-linecap="round" stroke-linejoin="round" fill="#FFFFFF"/><path d="M295.903 391.719C295.903 392.553 295.227 393.23 294.392 393.23 293.558 393.23 292.881 392.553 292.881 391.719 292.881 390.884 293.558 390.207 294.392 390.207 295.227 390.207 295.903 390.884 295.903 391.719Z" stroke="#FFFFFF" stroke-width="4.74926" stroke-linecap="round" stroke-linejoin="round" fill="#FFFFFF"/><path d="M306.432 391.719C306.432 392.553 305.756 393.23 304.921 393.23 304.087 393.23 303.41 392.553 303.41 391.719 303.41 390.884 304.087 390.207 304.921 390.207 305.756 390.207 306.432 390.884 306.432 391.719Z" stroke="#FFFFFF" stroke-width="4.74926" stroke-linecap="round" stroke-linejoin="round" fill="#FFFFFF"/><path d="M280.185 404.516 370.893 404.516 370.893 463.241 280.185 463.241Z" stroke="#FFFFFF" stroke-width="2.99051" stroke-linecap="square" stroke-linejoin="round" fill="#FFFFFF"/><path d="M294.326 417.16 335.473 417.204" stroke="#727272" stroke-width="8.27374" stroke-linecap="square" fill="none"/><path d="M294.326 434.011 335.473 434.055" stroke="#727272" stroke-width="8.27374" stroke-linecap="square" fill="none"/><path d="M294.648 450.862 335.794 450.906" stroke="#727272" stroke-width="8.27374" stroke-linecap="square" fill="none"/><path d="M347.388 409.171C345.1 409.303 343.229 410.933 341.949 412.718 335.445 420.559 328.898 428.368 322.439 436.244 320.892 438.587 321.286 441.498 321.03 444.151 320.912 446.95 320.628 449.75 320.652 452.549 320.971 454.644 322.05 456.926 324.217 457.607 325.829 458.366 327.707 458.357 329.365 457.756 333.266 456.762 337.233 455.996 341.075 454.794 343.497 453.627 344.823 451.167 346.585 449.262 352.367 442.292 358.176 435.342 363.942 428.36 365.162 426.393 365.742 423.683 364.354 421.643 363.18 419.619 361.054 418.469 359.384 416.913 356.669 414.695 354.031 412.371 351.249 410.241 350.068 409.614 348.744 409.129 347.388 409.171Z" stroke="#FFFFFF" stroke-width="8.27374" stroke-linecap="round" stroke-linejoin="round" fill="#FFFFFF"/><path d="M347.783 415.054 359.289 424.617 338.736 449.345 326.568 452.282 327.264 439.741Z" stroke="#727272" stroke-width="8.27374" stroke-linecap="round" stroke-linejoin="round" fill="none"/></g></g></g><g><g><g><path d="M240.925 222.213 336.217 222.213 336.217 300.676 240.925 300.676Z" stroke="#727272" stroke-width="14.9525" stroke-linecap="round" stroke-linejoin="round" fill="#727272"/><path d="M248.374 226.719C248.374 227.553 247.698 228.23 246.863 228.23 246.029 228.23 245.352 227.553 245.352 226.719 245.352 225.884 246.029 225.207 246.863 225.207 247.698 225.207 248.374 225.884 248.374 226.719Z" stroke="#FFFFFF" stroke-width="4.74926" stroke-linecap="round" stroke-linejoin="round" fill="#FFFFFF"/><path d="M258.903 226.719C258.903 227.553 258.227 228.23 257.392 228.23 256.558 228.23 255.881 227.553 255.881 226.719 255.881 225.884 256.558 225.207 257.392 225.207 258.227 225.207 258.903 225.884 258.903 226.719Z" stroke="#FFFFFF" stroke-width="4.74926" stroke-linecap="round" stroke-linejoin="round" fill="#FFFFFF"/><path d="M269.432 226.719C269.432 227.553 268.756 228.23 267.921 228.23 267.087 228.23 266.41 227.553 266.41 226.719 266.41 225.884 267.087 225.207 267.921 225.207 268.756 225.207 269.432 225.884 269.432 226.719Z" stroke="#FFFFFF" stroke-width="4.74926" stroke-linecap="round" stroke-linejoin="round" fill="#FFFFFF"/><path d="M243.185 239.516 333.893 239.516 333.893 298.241 243.185 298.241Z" stroke="#FFFFFF" stroke-width="2.99051" stroke-linecap="square" stroke-linejoin="round" fill="#FFFFFF"/><path d="M257.326 252.16 298.473 252.204" stroke="#727272" stroke-width="8.27374" stroke-linecap="square" fill="none"/><path d="M257.326 269.011 298.473 269.055" stroke="#727272" stroke-width="8.27374" stroke-linecap="square" fill="none"/><path d="M257.648 285.862 298.794 285.906" stroke="#727272" stroke-width="8.27374" stroke-linecap="square" fill="none"/><path d="M310.388 244.171C308.1 244.303 306.229 245.933 304.949 247.718 298.445 255.559 291.898 263.368 285.439 271.244 283.892 273.587 284.286 276.498 284.03 279.151 283.912 281.95 283.628 284.75 283.652 287.549 283.971 289.644 285.05 291.926 287.217 292.607 288.829 293.366 290.707 293.357 292.365 292.756 296.266 291.762 300.233 290.996 304.075 289.794 306.497 288.627 307.823 286.167 309.585 284.262 315.367 277.292 321.176 270.342 326.942 263.36 328.162 261.393 328.742 258.683 327.354 256.643 326.18 254.619 324.054 253.469 322.384 251.913 319.669 249.695 317.031 247.371 314.249 245.241 313.068 244.614 311.744 244.129 310.388 244.171Z" stroke="#FFFFFF" stroke-width="8.27374" stroke-linecap="round" stroke-linejoin="round" fill="#FFFFFF"/><path d="M310.783 250.054 322.289 259.617 301.736 284.345 289.568 287.282 290.264 274.741Z" stroke="#727272" stroke-width="8.27374" stroke-linecap="round" stroke-linejoin="round" fill="none"/></g></g></g><g><g><g><path d="M683.148 412.148 772.852 412.148 772.852 501.852 683.148 501.852Z" stroke="#727272" stroke-width="8.29692" stroke-linecap="round" fill="#FFFFFF"/><path d="M752.715 457C752.715 470.65 741.65 481.715 728 481.715 714.35 481.715 703.285 470.65 703.285 457 703.285 443.35 714.35 432.285 728 432.285 741.65 432.285 752.715 443.35 752.715 457Z" stroke="#727272" stroke-width="8.59682" stroke-linecap="round" fill="none"/><path d="M738.8 457.208C738.8 463.173 733.965 468.008 728 468.008 722.035 468.008 717.2 463.173 717.2 457.208 717.2 451.243 722.035 446.408 728 446.408 733.965 446.408 738.8 451.243 738.8 457.208Z" fill="#727272"/><path d="M709.204 422.253 716.715 419.142 725.196 428.874 710.088 435.132Z" fill="#727272"/><path d="M739.618 419.142 747.13 422.253 746.245 435.132 731.137 428.874Z" fill="#727272"/><path d="M747.13 492.162 739.618 495.274 731.137 485.542 746.245 479.284Z" fill="#727272"/><path d="M716.715 495.274 709.204 492.162 710.088 479.284 725.196 485.542Z" fill="#727272"/><path d="M762.75 438.412 765.862 445.923 756.13 454.404 749.872 439.296Z" fill="#727272"/><path d="M765.862 468.493 762.75 476.004 749.872 475.12 756.13 460.012Z" fill="#727272"/><path d="M693.217 476.004 690.106 468.493 699.837 460.012 706.095 475.12Z" fill="#727272"/><path d="M690.106 445.923 693.217 438.412 706.095 439.296 699.837 454.404Z" fill="#727272"/></g></g></g><g><g><g><path d="M800.148 279.148 889.852 279.148 889.852 368.852 800.148 368.852Z" stroke="#727272" stroke-width="8.29692" stroke-linecap="round" fill="#FFFFFF"/><path d="M869.715 324C869.715 337.65 858.65 348.715 845 348.715 831.35 348.715 820.285 337.65 820.285 324 820.285 310.35 831.35 299.285 845 299.285 858.65 299.285 869.715 310.35 869.715 324Z" stroke="#727272" stroke-width="8.59682" stroke-linecap="round" fill="none"/><path d="M855.8 324.208C855.8 330.173 850.965 335.008 845 335.008 839.035 335.008 834.2 330.173 834.2 324.208 834.2 318.243 839.035 313.408 845 313.408 850.965 313.408 855.8 318.243 855.8 324.208Z" fill="#727272"/><path d="M826.204 289.253 833.715 286.142 842.196 295.874 827.088 302.132Z" fill="#727272"/><path d="M856.618 286.142 864.13 289.253 863.245 302.132 848.137 295.874Z" fill="#727272"/><path d="M864.13 359.162 856.618 362.274 848.137 352.542 863.245 346.284Z" fill="#727272"/><path d="M833.715 362.274 826.204 359.162 827.088 346.284 842.196 352.542Z" fill="#727272"/><path d="M879.75 305.412 882.862 312.923 873.13 321.404 866.872 306.296Z" fill="#727272"/><path d="M882.862 335.493 879.75 343.004 866.872 342.12 873.13 327.012Z" fill="#727272"/><path d="M810.217 343.004 807.106 335.493 816.837 327.012 823.095 342.12Z" fill="#727272"/><path d="M807.106 312.923 810.217 305.412 823.095 306.296 816.837 321.404Z" fill="#727272"/></g></g></g><g><g><g><path d="M765.148 132.148 854.852 132.148 854.852 221.852 765.148 221.852Z" stroke="#727272" stroke-width="8.29692" stroke-linecap="round" fill="#FFFFFF"/><path d="M834.715 177C834.715 190.65 823.65 201.715 810 201.715 796.35 201.715 785.285 190.65 785.285 177 785.285 163.35 796.35 152.285 810 152.285 823.65 152.285 834.715 163.35 834.715 177Z" stroke="#727272" stroke-width="8.59682" stroke-linecap="round" fill="none"/><path d="M820.8 177.208C820.8 183.173 815.965 188.008 810 188.008 804.035 188.008 799.2 183.173 799.2 177.208 799.2 171.243 804.035 166.408 810 166.408 815.965 166.408 820.8 171.243 820.8 177.208Z" fill="#727272"/><path d="M791.204 142.253 798.715 139.142 807.196 148.874 792.088 155.132Z" fill="#727272"/><path d="M821.618 139.142 829.13 142.253 828.245 155.132 813.137 148.874Z" fill="#727272"/><path d="M829.13 212.162 821.618 215.274 813.137 205.542 828.245 199.284Z" fill="#727272"/><path d="M798.715 215.274 791.204 212.162 792.088 199.284 807.196 205.542Z" fill="#727272"/><path d="M844.75 158.412 847.862 165.923 838.13 174.404 831.872 159.296Z" fill="#727272"/><path d="M847.862 188.493 844.75 196.004 831.872 195.12 838.13 180.012Z" fill="#727272"/><path d="M775.217 196.004 772.106 188.493 781.837 180.012 788.095 195.12Z" fill="#727272"/><path d="M772.106 165.923 775.217 158.412 788.095 159.296 781.837 174.404Z" fill="#727272"/></g></g></g><g><g><g><path d="M1014.53 301.073 1045.84 301.073 1045.84 359.017 999.954 359.017 999.954 315.43Z" stroke="#B5B5B5" stroke-width="2.6" stroke-linejoin="round" fill="#FFFFFF"/><path d="M1008.52 295.474 1039.82 295.474 1039.82 353.418 993.937 353.418 993.937 309.831Z" stroke="#B5B5B5" stroke-width="2.6" stroke-linecap="round" stroke-linejoin="round" fill="#FFFFFF"/><path d="M993.937 309.831 1008.52 309.831 1008.52 295.474" stroke="#B5B5B5" stroke-width="2.6" stroke-linejoin="round" fill="none"/><path d="M1031.79 344.932 1001.96 344.932" stroke="#B5B5B5" stroke-width="2.6" stroke-linecap="round" stroke-linejoin="round" fill="none"/><path d="M1031.79 336.229 1001.96 336.229" stroke="#B5B5B5" stroke-width="2.6" stroke-linecap="round" stroke-linejoin="round" fill="none"/><path d="M1031.79 327.526 1025.67 327.526M1020.33 327.526 1001.96 327.526" stroke="#B5B5B5" stroke-width="2.6" stroke-linecap="round" stroke-linejoin="round" fill="none"/><path d="M1031.79 318.823 1001.96 318.823" stroke="#B5B5B5" stroke-width="2.6" stroke-linecap="round" stroke-linejoin="round" fill="none"/></g></g></g><g><g><g><path d="M900.533 435.073 931.836 435.073 931.836 493.017 885.954 493.017 885.954 449.43Z" stroke="#B5B5B5" stroke-width="2.6" stroke-linejoin="round" fill="#FFFFFF"/><path d="M894.515 429.474 925.818 429.474 925.818 487.418 879.937 487.418 879.937 443.831Z" stroke="#B5B5B5" stroke-width="2.6" stroke-linecap="round" stroke-linejoin="round" fill="#FFFFFF"/><path d="M879.937 443.831 894.515 443.831 894.515 429.474" stroke="#B5B5B5" stroke-width="2.6" stroke-linejoin="round" fill="none"/><path d="M917.794 478.932 887.96 478.932" stroke="#B5B5B5" stroke-width="2.6" stroke-linecap="round" stroke-linejoin="round" fill="none"/><path d="M917.794 470.229 887.96 470.229" stroke="#B5B5B5" stroke-width="2.6" stroke-linecap="round" stroke-linejoin="round" fill="none"/><path d="M917.794 461.526 911.673 461.526M906.332 461.526 887.96 461.526" stroke="#B5B5B5" stroke-width="2.6" stroke-linecap="round" stroke-linejoin="round" fill="none"/><path d="M917.794 452.823 887.96 452.823" stroke="#B5B5B5" stroke-width="2.6" stroke-linecap="round" stroke-linejoin="round" fill="none"/></g></g></g></g></svg>