<?xml version="1.0" encoding="UTF-8" standalone="no"?><svg xmlns="http://www.w3.org/2000/svg" xmlns:xlink="http://www.w3.org/1999/xlink" contentStyleType="text/css" height="846px" preserveAspectRatio="none" style="width:1196px;height:846px;background:#FFFFFF;" version="1.1" viewBox="0 0 1196 846" width="1196px" zoomAndPan="magnify"><defs/><g><!--class Concept--><g id="elem_Concept"><rect codeLine="3" fill="#90EE90" height="56.4883" id="Concept" rx="2.5" ry="2.5" style="stroke:#181818;stroke-width:0.5;" width="131" x="250.5" y="580"/><ellipse cx="284.4" cy="596" fill="#ADD1B2" rx="11" ry="11" style="stroke:#181818;stroke-width:1.0;"/><path d="M287.3731,601.6431 Q286.7921,601.9419 286.1529,602.0913 Q285.5138,602.2407 284.8082,602.2407 Q282.3014,602.2407 280.9815,600.5889 Q279.6617,598.937 279.6617,595.8159 Q279.6617,592.6865 280.9815,591.0347 Q282.3014,589.3828 284.8082,589.3828 Q285.5138,589.3828 286.1612,589.5322 Q286.8087,589.6816 287.3731,589.9805 L287.3731,592.7031 Q286.7423,592.1221 286.1488,591.8523 Q285.5553,591.5825 284.9244,591.5825 Q283.5797,591.5825 282.8949,592.6492 Q282.2101,593.7158 282.2101,595.8159 Q282.2101,597.9077 282.8949,598.9744 Q283.5797,600.041 284.9244,600.041 Q285.5553,600.041 286.1488,599.7712 Q286.7423,599.5015 287.3731,598.9204 Z " fill="#000000"/><text fill="#000000" font-family="sans-serif" font-size="14" lengthAdjust="spacing" textLength="57" x="302.6" y="601.291">Concept</text><line style="stroke:#181818;stroke-width:0.5;" x1="251.5" x2="380.5" y1="612" y2="612"/><text fill="#000000" font-family="sans-serif" font-size="14" lengthAdjust="spacing" textLength="119" x="256.5" y="629.5352">abstract: boolean</text></g><!--class FeaturesContainer--><g id="elem_FeaturesContainer"><rect codeLine="21" fill="#90EE90" height="56.4883" id="FeaturesContainer" rx="2.5" ry="2.5" style="stroke:#181818;stroke-width:0.5;" width="202" x="354" y="454.5"/><ellipse cx="388.35" cy="470.5" fill="#A9DCDF" rx="11" ry="11" style="stroke:#181818;stroke-width:1.0;"/><path d="M388.4633,465.8481 L387.3095,470.9199 L389.6254,470.9199 Z M386.9691,463.6069 L389.9657,463.6069 L393.3109,476 L390.8622,476 L390.0985,472.937 L386.8197,472.937 L386.0727,476 L383.6239,476 Z " fill="#000000"/><text fill="#000000" font-family="sans-serif" font-size="14" font-style="italic" lengthAdjust="spacing" textLength="127" x="406.65" y="475.791">FeaturesContainer</text><line style="stroke:#181818;stroke-width:0.5;" x1="355" x2="555" y1="486.5" y2="486.5"/><text fill="#000000" font-family="sans-serif" font-size="14" lengthAdjust="spacing" textLength="190" x="360" y="504.0352">allFeatures(): List&lt;Feature&gt;</text></g><!--class ConceptInterface--><g id="elem_ConceptInterface"><rect codeLine="7" fill="#90EE90" height="32" id="ConceptInterface" rx="2.5" ry="2.5" style="stroke:#181818;stroke-width:0.5;" width="149" x="340.5" y="713"/><ellipse cx="355.5" cy="729" fill="#ADD1B2" rx="11" ry="11" style="stroke:#181818;stroke-width:1.0;"/><path d="M358.4731,734.6431 Q357.8921,734.9419 357.2529,735.0913 Q356.6138,735.2407 355.9082,735.2407 Q353.4014,735.2407 352.0815,733.5889 Q350.7617,731.937 350.7617,728.8159 Q350.7617,725.6865 352.0815,724.0347 Q353.4014,722.3828 355.9082,722.3828 Q356.6138,722.3828 357.2612,722.5322 Q357.9087,722.6816 358.4731,722.9805 L358.4731,725.7031 Q357.8423,725.1221 357.2488,724.8523 Q356.6553,724.5825 356.0244,724.5825 Q354.6797,724.5825 353.9949,725.6492 Q353.3101,726.7158 353.3101,728.8159 Q353.3101,730.9077 353.9949,731.9744 Q354.6797,733.041 356.0244,733.041 Q356.6553,733.041 357.2488,732.7712 Q357.8423,732.5015 358.4731,731.9204 Z " fill="#000000"/><text fill="#000000" font-family="sans-serif" font-size="14" lengthAdjust="spacing" textLength="117" x="369.5" y="734.291">ConceptInterface</text></g><!--class Containment--><g id="elem_Containment"><rect codeLine="9" fill="#ADD8E6" height="32" id="Containment" rx="2.5" ry="2.5" style="stroke:#181818;stroke-width:0.5;" width="121" x="142.5" y="466.5"/><ellipse cx="157.5" cy="482.5" fill="#ADD1B2" rx="11" ry="11" style="stroke:#181818;stroke-width:1.0;"/><path d="M160.4731,488.1431 Q159.8921,488.4419 159.2529,488.5913 Q158.6138,488.7407 157.9082,488.7407 Q155.4014,488.7407 154.0815,487.0889 Q152.7617,485.437 152.7617,482.3159 Q152.7617,479.1865 154.0815,477.5347 Q155.4014,475.8828 157.9082,475.8828 Q158.6138,475.8828 159.2612,476.0322 Q159.9087,476.1816 160.4731,476.4805 L160.4731,479.2031 Q159.8423,478.6221 159.2488,478.3523 Q158.6553,478.0825 158.0244,478.0825 Q156.6797,478.0825 155.9949,479.1492 Q155.3101,480.2158 155.3101,482.3159 Q155.3101,484.4077 155.9949,485.4744 Q156.6797,486.541 158.0244,486.541 Q158.6553,486.541 159.2488,486.2712 Q159.8423,486.0015 160.4731,485.4204 Z " fill="#000000"/><text fill="#000000" font-family="sans-serif" font-size="14" lengthAdjust="spacing" textLength="89" x="171.5" y="487.791">Containment</text></g><!--class Link--><g id="elem_Link"><rect codeLine="25" fill="#ADD8E6" height="56.4883" id="Link" rx="2.5" ry="2.5" style="stroke:#181818;stroke-width:0.5;" width="132" x="104" y="313"/><ellipse cx="151.75" cy="329" fill="#A9DCDF" rx="11" ry="11" style="stroke:#181818;stroke-width:1.0;"/><path d="M151.8633,324.3481 L150.7095,329.4199 L153.0254,329.4199 Z M150.3691,322.1069 L153.3657,322.1069 L156.7109,334.5 L154.2622,334.5 L153.4985,331.437 L150.2197,331.437 L149.4727,334.5 L147.0239,334.5 Z " fill="#000000"/><text fill="#000000" font-family="sans-serif" font-size="14" font-style="italic" lengthAdjust="spacing" textLength="28" x="172.25" y="334.291">Link</text><line style="stroke:#181818;stroke-width:0.5;" x1="105" x2="235" y1="345" y2="345"/><text fill="#000000" font-family="sans-serif" font-size="14" lengthAdjust="spacing" textLength="120" x="110" y="362.5352">multiple: boolean</text></g><!--class DataType--><g id="elem_DataType"><rect codeLine="11" fill="#FFB6C1" height="32" id="DataType" rx="2.5" ry="2.5" style="stroke:#181818;stroke-width:0.5;" width="96" x="962" y="325"/><ellipse cx="977" cy="341" fill="#A9DCDF" rx="11" ry="11" style="stroke:#181818;stroke-width:1.0;"/><path d="M977.1133,336.3481 L975.9595,341.4199 L978.2754,341.4199 Z M975.6191,334.1069 L978.6157,334.1069 L981.9609,346.5 L979.5122,346.5 L978.7485,343.437 L975.4697,343.437 L974.7227,346.5 L972.2739,346.5 Z " fill="#000000"/><text fill="#000000" font-family="sans-serif" font-size="14" font-style="italic" lengthAdjust="spacing" textLength="64" x="991" y="346.291">DataType</text></g><!--class MetamodelElement--><g id="elem_MetamodelElement"><rect codeLine="34" fill="#F1F1F1" height="32" id="MetamodelElement" rx="2.5" ry="2.5" style="stroke:#181818;stroke-width:0.5;" width="163" x="786.5" y="177"/><ellipse cx="801.5" cy="193" fill="#A9DCDF" rx="11" ry="11" style="stroke:#181818;stroke-width:1.0;"/><path d="M801.6133,188.3481 L800.4595,193.4199 L802.7754,193.4199 Z M800.1191,186.1069 L803.1157,186.1069 L806.4609,198.5 L804.0122,198.5 L803.2485,195.437 L799.9697,195.437 L799.2227,198.5 L796.7739,198.5 Z " fill="#000000"/><text fill="#000000" font-family="sans-serif" font-size="14" font-style="italic" lengthAdjust="spacing" textLength="131" x="815.5" y="198.291">MetamodelElement</text></g><!--class Enumeration--><g id="elem_Enumeration"><rect codeLine="13" fill="#FFB6C1" height="32" id="Enumeration" rx="2.5" ry="2.5" style="stroke:#181818;stroke-width:0.5;" width="120" x="1069" y="466.5"/><ellipse cx="1084" cy="482.5" fill="#ADD1B2" rx="11" ry="11" style="stroke:#181818;stroke-width:1.0;"/><path d="M1086.9731,488.1431 Q1086.3921,488.4419 1085.7529,488.5913 Q1085.1138,488.7407 1084.4082,488.7407 Q1081.9014,488.7407 1080.5815,487.0889 Q1079.2617,485.437 1079.2617,482.3159 Q1079.2617,479.1865 1080.5815,477.5347 Q1081.9014,475.8828 1084.4082,475.8828 Q1085.1138,475.8828 1085.7612,476.0322 Q1086.4087,476.1816 1086.9731,476.4805 L1086.9731,479.2031 Q1086.3423,478.6221 1085.7488,478.3523 Q1085.1553,478.0825 1084.5244,478.0825 Q1083.1797,478.0825 1082.4949,479.1492 Q1081.8101,480.2158 1081.8101,482.3159 Q1081.8101,484.4077 1082.4949,485.4744 Q1083.1797,486.541 1084.5244,486.541 Q1085.1553,486.541 1085.7488,486.2712 Q1086.3423,486.0015 1086.9731,485.4204 Z " fill="#000000"/><text fill="#000000" font-family="sans-serif" font-size="14" lengthAdjust="spacing" textLength="88" x="1098" y="487.791">Enumeration</text></g><!--class NamespaceProvider--><g id="elem_NamespaceProvider"><rect codeLine="42" fill="#F1F1F1" height="56.4883" id="NamespaceProvider" rx="2.5" ry="2.5" style="stroke:#181818;stroke-width:0.5;" width="207" x="590.5" y="313"/><ellipse cx="623.5" cy="329" fill="#B4A7E5" rx="11" ry="11" style="stroke:#181818;stroke-width:1.0;"/><path d="M619.4277,324.7651 L619.4277,322.6069 L626.8071,322.6069 L626.8071,324.7651 L624.3418,324.7651 L624.3418,332.8418 L626.8071,332.8418 L626.8071,335 L619.4277,335 L619.4277,332.8418 L621.8931,332.8418 L621.8931,324.7651 Z " fill="#000000"/><text fill="#000000" font-family="sans-serif" font-size="14" font-style="italic" lengthAdjust="spacing" textLength="135" x="641.5" y="334.291">NamespaceProvider</text><line style="stroke:#181818;stroke-width:0.5;" x1="591.5" x2="796.5" y1="345" y2="345"/><text fill="#000000" font-family="sans-serif" font-size="14" lengthAdjust="spacing" textLength="195" x="596.5" y="362.5352">namespaceQualifier(): String</text></g><!--class EnumerationLiteral--><g id="elem_EnumerationLiteral"><rect codeLine="15" fill="#FFB6C1" height="32" id="EnumerationLiteral" rx="2.5" ry="2.5" style="stroke:#181818;stroke-width:0.5;" width="162" x="1014" y="251"/><ellipse cx="1029" cy="267" fill="#ADD1B2" rx="11" ry="11" style="stroke:#181818;stroke-width:1.0;"/><path d="M1031.9731,272.6431 Q1031.3921,272.9419 1030.7529,273.0913 Q1030.1138,273.2407 1029.4082,273.2407 Q1026.9014,273.2407 1025.5815,271.5889 Q1024.2617,269.937 1024.2617,266.8159 Q1024.2617,263.6865 1025.5815,262.0347 Q1026.9014,260.3828 1029.4082,260.3828 Q1030.1138,260.3828 1030.7612,260.5322 Q1031.4087,260.6816 1031.9731,260.9805 L1031.9731,263.7031 Q1031.3423,263.1221 1030.7488,262.8523 Q1030.1553,262.5825 1029.5244,262.5825 Q1028.1797,262.5825 1027.4949,263.6492 Q1026.8101,264.7158 1026.8101,266.8159 Q1026.8101,268.9077 1027.4949,269.9744 Q1028.1797,271.041 1029.5244,271.041 Q1030.1553,271.041 1030.7488,270.7712 Q1031.3423,270.5015 1031.9731,269.9204 Z " fill="#000000"/><text fill="#000000" font-family="sans-serif" font-size="14" lengthAdjust="spacing" textLength="130" x="1043" y="272.291">EnumerationLiteral</text></g><!--class NamespacedEntity--><g id="elem_NamespacedEntity"><rect codeLine="36" fill="#F1F1F1" height="97.4648" id="NamespacedEntity" rx="2.5" ry="2.5" style="stroke:#181818;stroke-width:0.5;" width="170" x="783" y="7"/><ellipse cx="803.85" cy="23" fill="#A9DCDF" rx="11" ry="11" style="stroke:#181818;stroke-width:1.0;"/><path d="M803.9633,18.3481 L802.8095,23.4199 L805.1254,23.4199 Z M802.4691,16.1069 L805.4657,16.1069 L808.8109,28.5 L806.3622,28.5 L805.5985,25.437 L802.3197,25.437 L801.5727,28.5 L799.1239,28.5 Z " fill="#000000"/><text fill="#000000" font-family="sans-serif" font-size="14" font-style="italic" lengthAdjust="spacing" textLength="125" x="819.15" y="28.291">NamespacedEntity</text><line style="stroke:#181818;stroke-width:0.5;" x1="784" x2="952" y1="39" y2="39"/><text fill="#000000" font-family="sans-serif" font-size="14" lengthAdjust="spacing" textLength="133" x="789" y="56.5352">simpleName: String</text><text fill="#000000" font-family="sans-serif" font-size="14" lengthAdjust="spacing" textLength="34" x="789" y="73.0234">id: Id</text><line style="stroke:#181818;stroke-width:0.5;" x1="784" x2="952" y1="79.9766" y2="79.9766"/><text fill="#000000" font-family="sans-serif" font-size="14" lengthAdjust="spacing" textLength="158" x="789" y="97.5117">qualifiedName(): String</text></g><!--class Feature--><g id="elem_Feature"><rect codeLine="17" fill="#ADD8E6" height="56.4883" id="Feature" rx="2.5" ry="2.5" style="stroke:#181818;stroke-width:0.5;" width="133" x="344.5" y="165"/><ellipse cx="381.55" cy="181" fill="#A9DCDF" rx="11" ry="11" style="stroke:#181818;stroke-width:1.0;"/><path d="M381.6633,176.3481 L380.5095,181.4199 L382.8254,181.4199 Z M380.1691,174.1069 L383.1657,174.1069 L386.5109,186.5 L384.0622,186.5 L383.2985,183.437 L380.0197,183.437 L379.2727,186.5 L376.8239,186.5 Z " fill="#000000"/><text fill="#000000" font-family="sans-serif" font-size="14" font-style="italic" lengthAdjust="spacing" textLength="52" x="400.45" y="186.291">Feature</text><line style="stroke:#181818;stroke-width:0.5;" x1="345.5" x2="476.5" y1="197" y2="197"/><text fill="#000000" font-family="sans-serif" font-size="14" lengthAdjust="spacing" textLength="121" x="350.5" y="214.5352">optional: boolean</text></g><!--class Metamodel--><g id="elem_Metamodel"><rect codeLine="29" fill="#F1F1F1" height="72.9766" id="Metamodel" rx="2.5" ry="2.5" style="stroke:#181818;stroke-width:0.5;" width="160" x="614" y="446"/><ellipse cx="652.4" cy="462" fill="#ADD1B2" rx="11" ry="11" style="stroke:#181818;stroke-width:1.0;"/><path d="M655.3731,467.6431 Q654.7921,467.9419 654.1529,468.0913 Q653.5138,468.2407 652.8082,468.2407 Q650.3014,468.2407 648.9815,466.5889 Q647.6617,464.937 647.6617,461.8159 Q647.6617,458.6865 648.9815,457.0347 Q650.3014,455.3828 652.8082,455.3828 Q653.5138,455.3828 654.1612,455.5322 Q654.8087,455.6816 655.3731,455.9805 L655.3731,458.7031 Q654.7423,458.1221 654.1488,457.8523 Q653.5553,457.5825 652.9244,457.5825 Q651.5797,457.5825 650.8949,458.6492 Q650.2101,459.7158 650.2101,461.8159 Q650.2101,463.9077 650.8949,464.9744 Q651.5797,466.041 652.9244,466.041 Q653.5553,466.041 654.1488,465.7712 Q654.7423,465.5015 655.3731,464.9204 Z " fill="#000000"/><text fill="#000000" font-family="sans-serif" font-size="14" lengthAdjust="spacing" textLength="76" x="671.6" y="467.291">Metamodel</text><line style="stroke:#181818;stroke-width:0.5;" x1="615" x2="773" y1="478" y2="478"/><text fill="#000000" font-family="sans-serif" font-size="14" lengthAdjust="spacing" textLength="148" x="620" y="495.5352">qualifiedName: String</text><text fill="#000000" font-family="sans-serif" font-size="14" lengthAdjust="spacing" textLength="34" x="620" y="512.0234">id: Id</text></g><!--class PrimitiveType--><g id="elem_PrimitiveType"><rect codeLine="46" fill="#FFB6C1" height="32" id="PrimitiveType" rx="2.5" ry="2.5" style="stroke:#181818;stroke-width:0.5;" width="124" x="910" y="466.5"/><ellipse cx="925" cy="482.5" fill="#ADD1B2" rx="11" ry="11" style="stroke:#181818;stroke-width:1.0;"/><path d="M927.9731,488.1431 Q927.3921,488.4419 926.7529,488.5913 Q926.1138,488.7407 925.4082,488.7407 Q922.9014,488.7407 921.5815,487.0889 Q920.2617,485.437 920.2617,482.3159 Q920.2617,479.1865 921.5815,477.5347 Q922.9014,475.8828 925.4082,475.8828 Q926.1138,475.8828 926.7612,476.0322 Q927.4087,476.1816 927.9731,476.4805 L927.9731,479.2031 Q927.3423,478.6221 926.7488,478.3523 Q926.1553,478.0825 925.5244,478.0825 Q924.1797,478.0825 923.4949,479.1492 Q922.8101,480.2158 922.8101,482.3159 Q922.8101,484.4077 923.4949,485.4744 Q924.1797,486.541 925.5244,486.541 Q926.1553,486.541 926.7488,486.2712 Q927.3423,486.0015 927.9731,485.4204 Z " fill="#000000"/><text fill="#000000" font-family="sans-serif" font-size="14" lengthAdjust="spacing" textLength="92" x="939" y="487.791">PrimitiveType</text></g><!--class Property--><g id="elem_Property"><rect codeLine="48" fill="#ADD8E6" height="32" id="Property" rx="2.5" ry="2.5" style="stroke:#181818;stroke-width:0.5;" width="90" x="271" y="325"/><ellipse cx="286" cy="341" fill="#ADD1B2" rx="11" ry="11" style="stroke:#181818;stroke-width:1.0;"/><path d="M288.9731,346.6431 Q288.3921,346.9419 287.7529,347.0913 Q287.1138,347.2407 286.4082,347.2407 Q283.9014,347.2407 282.5815,345.5889 Q281.2617,343.937 281.2617,340.8159 Q281.2617,337.6865 282.5815,336.0347 Q283.9014,334.3828 286.4082,334.3828 Q287.1138,334.3828 287.7612,334.5322 Q288.4087,334.6816 288.9731,334.9805 L288.9731,337.7031 Q288.3423,337.1221 287.7488,336.8523 Q287.1553,336.5825 286.5244,336.5825 Q285.1797,336.5825 284.4949,337.6492 Q283.8101,338.7158 283.8101,340.8159 Q283.8101,342.9077 284.4949,343.9744 Q285.1797,345.041 286.5244,345.041 Q287.1553,345.041 287.7488,344.7712 Q288.3423,344.5015 288.9731,343.9204 Z " fill="#000000"/><text fill="#000000" font-family="sans-serif" font-size="14" lengthAdjust="spacing" textLength="58" x="300" y="346.291">Property</text></g><!--class Reference--><g id="elem_Reference"><rect codeLine="50" fill="#ADD8E6" height="32" id="Reference" rx="2.5" ry="2.5" style="stroke:#181818;stroke-width:0.5;" width="100" x="7" y="466.5"/><ellipse cx="22" cy="482.5" fill="#ADD1B2" rx="11" ry="11" style="stroke:#181818;stroke-width:1.0;"/><path d="M24.9731,488.1431 Q24.3921,488.4419 23.7529,488.5913 Q23.1138,488.7407 22.4082,488.7407 Q19.9014,488.7407 18.5815,487.0889 Q17.2617,485.437 17.2617,482.3159 Q17.2617,479.1865 18.5815,477.5347 Q19.9014,475.8828 22.4082,475.8828 Q23.1138,475.8828 23.7612,476.0322 Q24.4087,476.1816 24.9731,476.4805 L24.9731,479.2031 Q24.3423,478.6221 23.7488,478.3523 Q23.1553,478.0825 22.5244,478.0825 Q21.1797,478.0825 20.4949,479.1492 Q19.8101,480.2158 19.8101,482.3159 Q19.8101,484.4077 20.4949,485.4744 Q21.1797,486.541 22.5244,486.541 Q23.1553,486.541 23.7488,486.2712 Q24.3423,486.0015 24.9731,485.4204 Z " fill="#000000"/><text fill="#000000" font-family="sans-serif" font-size="14" lengthAdjust="spacing" textLength="68" x="36" y="487.791">Reference</text></g><!--reverse link FeaturesContainer to Concept--><g id="link_FeaturesContainer_Concept"><path d="M408.32,524.97 C388.03,543 364.83,563.61 346.76,579.67 " fill="none" id="FeaturesContainer-backto-Concept" style="stroke:#181818;stroke-width:1.0;"/><polygon fill="none" points="403.42,519.97,423.02,511.91,412.72,530.43,403.42,519.97" style="stroke:#181818;stroke-width:1.0;"/></g><!--reverse link FeaturesContainer to ConceptInterface--><g id="link_FeaturesContainer_ConceptInterface"><path d="M470.87,531.33 C478.8,561.44 485.46,601.07 479,636 C474.93,658 473.28,664.3 461,683 C453.64,694.21 443.07,704.79 433.92,712.88 " fill="none" id="FeaturesContainer-backto-ConceptInterface" style="stroke:#181818;stroke-width:1.0;"/><polygon fill="none" points="464.2,533.46,465.33,512.3,477.64,529.54,464.2,533.46" style="stroke:#181818;stroke-width:1.0;"/></g><!--reverse link Link to Containment--><g id="link_Link_Containment"><path d="M181.36,390.04 C187.64,416.57 195.02,447.77 199.34,466.01 " fill="none" id="Link-backto-Containment" style="stroke:#181818;stroke-width:1.0;"/><polygon fill="none" points="174.58,391.78,176.79,370.7,188.21,388.55,174.58,391.78" style="stroke:#181818;stroke-width:1.0;"/></g><!--reverse link MetamodelElement to DataType--><g id="link_MetamodelElement_DataType"><path d="M897.74,224.58 C927.59,255.27 972.33,301.27 995.27,324.86 " fill="none" id="MetamodelElement-backto-DataType" style="stroke:#181818;stroke-width:1.0;"/><polygon fill="none" points="892.91,229.65,883.98,210.43,902.95,219.89,892.91,229.65" style="stroke:#181818;stroke-width:1.0;"/></g><!--reverse link DataType to Enumeration--><g id="link_DataType_Enumeration"><path d="M1036.94,373.58 C1061.67,402.57 1097.25,444.28 1116.11,466.39 " fill="none" id="DataType-backto-Enumeration" style="stroke:#181818;stroke-width:1.0;"/><polygon fill="none" points="1031.83,378.37,1024.17,358.61,1042.48,369.29,1031.83,378.37" style="stroke:#181818;stroke-width:1.0;"/></g><!--reverse link NamespaceProvider to Enumeration--><g id="link_NamespaceProvider_Enumeration"><path d="M818.45,373.25 C887.98,391.92 975.73,417.52 1052,446 C1067.58,451.82 1084.41,459.42 1098.35,466.09 " fill="none" id="NamespaceProvider-backto-Enumeration" style="stroke:#181818;stroke-width:1.0;stroke-dasharray:7.0,7.0;"/><polygon fill="none" points="816.94,380.09,799.41,368.19,820.54,366.56,816.94,380.09" style="stroke:#181818;stroke-width:1.0;"/></g><!--reverse link NamespacedEntity to EnumerationLiteral--><g id="link_NamespacedEntity_EnumerationLiteral"><path d="M935.33,118.64 C984.89,164.37 1048.6,223.18 1078.34,250.62 " fill="none" id="NamespacedEntity-backto-EnumerationLiteral" style="stroke:#181818;stroke-width:1.0;stroke-dasharray:7.0,7.0;"/><polygon fill="none" points="930.86,124.04,920.91,105.33,940.35,113.75,930.86,124.04" style="stroke:#181818;stroke-width:1.0;"/></g><!--reverse link NamespacedEntity to Feature--><g id="link_NamespacedEntity_Feature"><path d="M762.19,87.87 C674.49,113.87 552.52,150.04 477.82,172.19 " fill="none" id="NamespacedEntity-backto-Feature" style="stroke:#181818;stroke-width:1.0;stroke-dasharray:7.0,7.0;"/><polygon fill="none" points="759.96,81.23,781.13,82.26,763.94,94.65,759.96,81.23" style="stroke:#181818;stroke-width:1.0;"/></g><!--reverse link MetamodelElement to FeaturesContainer--><g id="link_MetamodelElement_FeaturesContainer"><path d="M779.87,215.11 C717.32,233.34 633.98,264.53 573,313 C523.66,352.22 486.26,417.46 467.8,454.19 " fill="none" id="MetamodelElement-backto-FeaturesContainer" style="stroke:#181818;stroke-width:1.0;"/><polygon fill="none" points="777.62,208.47,798.76,209.83,781.39,221.95,777.62,208.47" style="stroke:#181818;stroke-width:1.0;"/></g><!--reverse link NamespaceProvider to FeaturesContainer--><g id="link_NamespaceProvider_FeaturesContainer"><path d="M628.58,380.18 C588.44,403.61 537.98,433.07 501.83,454.17 " fill="none" id="NamespaceProvider-backto-FeaturesContainer" style="stroke:#181818;stroke-width:1.0;stroke-dasharray:7.0,7.0;"/><polygon fill="none" points="624.96,374.19,645.76,370.16,632.02,386.28,624.96,374.19" style="stroke:#181818;stroke-width:1.0;"/></g><!--reverse link Feature to Link--><g id="link_Feature_Link"><path d="M347.47,232.49 C305.84,257.7 252.43,290.06 215.13,312.66 " fill="none" id="Feature-backto-Link" style="stroke:#181818;stroke-width:1.0;"/><polygon fill="none" points="343.64,226.62,364.38,222.25,350.9,238.6,343.64,226.62" style="stroke:#181818;stroke-width:1.0;"/></g><!--reverse link NamespaceProvider to Metamodel--><g id="link_NamespaceProvider_Metamodel"><path d="M694,390.6 C694,408.69 694,428.87 694,445.62 " fill="none" id="NamespaceProvider-backto-Metamodel" style="stroke:#181818;stroke-width:1.0;stroke-dasharray:7.0,7.0;"/><polygon fill="none" points="687,390.74,694,370.74,701,390.74,687,390.74" style="stroke:#181818;stroke-width:1.0;"/></g><!--reverse link NamespacedEntity to MetamodelElement--><g id="link_NamespacedEntity_MetamodelElement"><path d="M868,125.74 C868,144.99 868,164.08 868,176.79 " fill="none" id="NamespacedEntity-backto-MetamodelElement" style="stroke:#181818;stroke-width:1.0;stroke-dasharray:7.0,7.0;"/><polygon fill="none" points="861,125.79,868,105.79,875,125.79,861,125.79" style="stroke:#181818;stroke-width:1.0;"/></g><!--reverse link DataType to PrimitiveType--><g id="link_DataType_PrimitiveType"><path d="M1000.14,378.19 C992.34,406.85 981.83,445.42 976.12,466.39 " fill="none" id="DataType-backto-PrimitiveType" style="stroke:#181818;stroke-width:1.0;"/><polygon fill="none" points="993.38,376.38,1005.39,358.92,1006.89,380.06,993.38,376.38" style="stroke:#181818;stroke-width:1.0;"/></g><!--reverse link Feature to Property--><g id="link_Feature_Property"><path d="M381.45,239.41 C362.45,268.61 338.96,304.71 325.92,324.76 " fill="none" id="Feature-backto-Property" style="stroke:#181818;stroke-width:1.0;"/><polygon fill="none" points="375.53,235.68,392.31,222.73,387.27,243.31,375.53,235.68" style="stroke:#181818;stroke-width:1.0;"/></g><!--reverse link Link to Reference--><g id="link_Link_Reference"><path d="M134.6,385.7 C112.4,413.1 85.14,446.77 69.54,466.01 " fill="none" id="Link-backto-Reference" style="stroke:#181818;stroke-width:1.0;"/><polygon fill="none" points="128.96,381.54,146.99,370.4,139.84,390.35,128.96,381.54" style="stroke:#181818;stroke-width:1.0;"/></g><!--link Concept to Concept--><g id="link_Concept_Concept"><path codeLine="54" d="M381.73,597.06 C401.28,597.38 416.5,601.03 416.5,608 C416.5,614.21 404.43,617.78 387.97,618.72 " fill="none" id="Concept-to-Concept" style="stroke:#181818;stroke-width:1.0;"/><polygon fill="#181818" points="383.24,618.89,392.3823,622.5532,388.2366,618.7044,392.0853,614.5587,383.24,618.89" style="stroke:#181818;stroke-width:1.0;"/><text fill="#000000" font-family="sans-serif" font-size="13" lengthAdjust="spacing" textLength="50" x="422.5" y="613.0684">extends</text><text fill="#000000" font-family="sans-serif" font-size="13" lengthAdjust="spacing" textLength="6" x="389.6769" y="592.486">*</text><text fill="#000000" font-family="sans-serif" font-size="13" lengthAdjust="spacing" textLength="24" x="389.3815" y="616.8382">0..1</text></g><!--link Concept to ConceptInterface--><g id="link_Concept_ConceptInterface"><path codeLine="55" d="M338.71,636.3 C356.92,658.19 382.05,688.39 398.41,708.06 " fill="none" id="Concept-to-ConceptInterface" style="stroke:#181818;stroke-width:1.0;"/><polygon fill="#181818" points="401.4,711.66,398.7147,702.1843,398.2005,707.8177,392.567,707.3035,401.4,711.66" style="stroke:#181818;stroke-width:1.0;"/><text fill="#000000" font-family="sans-serif" font-size="13" lengthAdjust="spacing" textLength="74" x="378" y="679.5684">implements</text><text fill="#000000" font-family="sans-serif" font-size="13" lengthAdjust="spacing" textLength="6" x="337.2679" y="657.1266">*</text><text fill="#000000" font-family="sans-serif" font-size="13" lengthAdjust="spacing" textLength="6" x="390.9972" y="702.3017">*</text></g><!--link ConceptInterface to ConceptInterface--><g id="link_ConceptInterface_ConceptInterface"><path codeLine="57" d="M489.98,718.88 C509.64,719.48 524.5,722.85 524.5,729 C524.5,734.47 512.71,737.75 496.24,738.82 " fill="none" id="ConceptInterface-to-ConceptInterface" style="stroke:#181818;stroke-width:1.0;"/><polygon fill="#181818" points="491.49,739.05,500.674,742.6074,496.4841,738.8067,500.2847,734.6169,491.49,739.05" style="stroke:#181818;stroke-width:1.0;"/><text fill="#000000" font-family="sans-serif" font-size="13" lengthAdjust="spacing" textLength="50" x="530.5" y="734.0684">extends</text><text fill="#000000" font-family="sans-serif" font-size="13" lengthAdjust="spacing" textLength="6" x="497.4125" y="714.7838">*</text><text fill="#000000" font-family="sans-serif" font-size="13" lengthAdjust="spacing" textLength="6" x="497.4125" y="736.9529">*</text></g><!--link EnumerationLiteral to Enumeration--><g id="link_EnumerationLiteral_Enumeration"><path codeLine="59" d="M1097.45,283.35 C1103.07,318.67 1117,406.15 1124.33,452.15 " fill="none" id="EnumerationLiteral-to-Enumeration" style="stroke:#181818;stroke-width:1.0;"/><polygon fill="#181818" points="1126.34,464.79,1129.3478,458.2361,1124.4549,452.939,1121.4471,459.4929,1126.34,464.79" style="stroke:#181818;stroke-width:1.0;"/><text fill="#000000" font-family="sans-serif" font-size="13" lengthAdjust="spacing" textLength="43" x="1111" y="346.0684">literals</text><text fill="#000000" font-family="sans-serif" font-size="13" lengthAdjust="spacing" textLength="6" x="1091.2747" y="303.57">*</text><text fill="#000000" font-family="sans-serif" font-size="13" lengthAdjust="spacing" textLength="8" x="1116.3731" y="455.748">1</text></g><!--link Feature to FeaturesContainer--><g id="link_Feature_FeaturesContainer"><path codeLine="61" d="M415.18,221.31 C422.93,271.96 439.58,380.73 448.7,440.34 " fill="none" id="Feature-to-FeaturesContainer" style="stroke:#181818;stroke-width:1.0;"/><polygon fill="#181818" points="450.62,452.88,453.6633,446.3426,448.7993,441.0189,445.7559,447.5564,450.62,452.88" style="stroke:#181818;stroke-width:1.0;"/><text fill="#000000" font-family="sans-serif" font-size="13" lengthAdjust="spacing" textLength="51" x="438" y="346.0684">features</text><text fill="#000000" font-family="sans-serif" font-size="13" lengthAdjust="spacing" textLength="6" x="409.4529" y="242.1389">*</text><text fill="#000000" font-family="sans-serif" font-size="13" lengthAdjust="spacing" textLength="8" x="440.9653" y="443.6907">1</text></g><!--link Link to FeaturesContainer--><g id="link_Link_FeaturesContainer"><path codeLine="63" d="M225.97,369.39 C274.2,393 343.72,427.03 393.5,451.4 " fill="none" id="Link-to-FeaturesContainer" style="stroke:#181818;stroke-width:1.0;"/><polygon fill="#181818" points="397.8,453.5,391.4714,445.9536,393.3081,451.3039,387.9577,453.1406,397.8,453.5" style="stroke:#181818;stroke-width:1.0;"/><text fill="#000000" font-family="sans-serif" font-size="13" lengthAdjust="spacing" textLength="27" x="322" y="412.5684">type</text><text fill="#000000" font-family="sans-serif" font-size="13" lengthAdjust="spacing" textLength="6" x="232.2193" y="390.2374">*</text><text fill="#000000" font-family="sans-serif" font-size="13" lengthAdjust="spacing" textLength="8" x="378.07" y="443.8811">1</text></g><!--link Metamodel to Metamodel--><g id="link_Metamodel_Metamodel"><path codeLine="65" d="M774.34,470.12 C794.19,471.01 809,475.14 809,482.5 C809,489.06 797.26,493.05 780.66,494.47 " fill="none" id="Metamodel-to-Metamodel" style="stroke:#181818;stroke-width:1.0;"/><polygon fill="#181818" points="775.85,494.78,785.0936,498.1795,780.8392,494.4512,784.5675,490.1968,775.85,494.78" style="stroke:#181818;stroke-width:1.0;"/><text fill="#000000" font-family="sans-serif" font-size="13" lengthAdjust="spacing" textLength="71" x="815" y="487.5684">dependsOn</text><text fill="#000000" font-family="sans-serif" font-size="13" lengthAdjust="spacing" textLength="6" x="782.0229" y="465.8711">*</text><text fill="#000000" font-family="sans-serif" font-size="13" lengthAdjust="spacing" textLength="6" x="782.0229" y="492.9136">*</text></g><!--link MetamodelElement to Metamodel--><g id="link_MetamodelElement_Metamodel"><path codeLine="66" d="M866.13,209.15 C861.65,240.91 848.11,315.95 815,369 C799.15,394.4 776.11,417.78 754.38,436.58 " fill="none" id="MetamodelElement-to-Metamodel" style="stroke:#181818;stroke-width:1.0;"/><polygon fill="#181818" points="744.68,444.73,751.8473,443.9366,753.8716,437.0154,746.7043,437.8088,744.68,444.73" style="stroke:#181818;stroke-width:1.0;"/><text fill="#000000" font-family="sans-serif" font-size="13" lengthAdjust="spacing" textLength="57" x="841" y="346.0684">elements</text><text fill="#000000" font-family="sans-serif" font-size="13" lengthAdjust="spacing" textLength="6" x="858.5168" y="229.6039">*</text><text fill="#000000" font-family="sans-serif" font-size="13" lengthAdjust="spacing" textLength="8" x="743.9128" y="435.1313">1</text></g><!--link Property to DataType--><g id="link_Property_DataType"><path codeLine="68" d="M342.49,324.6 C372.15,307.29 422.26,281.12 469.5,270.83 C570.99,248.74 833.79,289.64 935,313 C945.3,315.38 956.1,318.81 966.2,322.47 " fill="none" id="Property-to-DataType" style="stroke:#181818;stroke-width:1.0;"/><polygon fill="#181818" points="970.63,324.12,963.5706,317.2523,965.939,322.3895,960.8018,324.7579,970.63,324.12" style="stroke:#181818;stroke-width:1.0;"/><text fill="#000000" font-family="sans-serif" font-size="13" lengthAdjust="spacing" textLength="27" x="470.5" y="272.0684">type</text><text fill="#000000" font-family="sans-serif" font-size="13" lengthAdjust="spacing" textLength="6" x="344.2711" y="314.3029">*</text><text fill="#000000" font-family="sans-serif" font-size="13" lengthAdjust="spacing" textLength="8" x="950.1541" y="314.3562">1</text></g><rect fill="#DDDDDD" height="63.4648" id="_legend" rx="7.5" ry="7.5" style="stroke:#000000;stroke-width:1.0;" width="138" x="522" y="763"/><rect fill="#D3D3D3" height="16.4883" style="stroke:none;stroke-width:1.0;" width="128" x="527" y="770"/><rect fill="#ADD8E6" height="16.4883" style="stroke:none;stroke-width:1.0;" width="128" x="527" y="770"/><text fill="#000000" font-family="sans-serif" font-size="14" lengthAdjust="spacing" textLength="52" x="527" y="783.5352">Feature</text><rect fill="#90EE90" height="16.4883" style="stroke:none;stroke-width:1.0;" width="128" x="527" y="786.4883"/><text fill="#000000" font-family="sans-serif" font-size="14" lengthAdjust="spacing" textLength="124" x="527" y="800.0234">Feature Container</text><rect fill="#FFB6C1" height="16.4883" style="stroke:none;stroke-width:1.0;" width="128" x="527" y="802.9766"/><text fill="#000000" font-family="sans-serif" font-size="14" lengthAdjust="spacing" textLength="64" x="527" y="816.5117">DataType</text><line style="stroke:#D3D3D3;stroke-width:1.0;" x1="527" x2="655" y1="770" y2="770"/><line style="stroke:#D3D3D3;stroke-width:1.0;" x1="527" x2="655" y1="786.4883" y2="786.4883"/><line style="stroke:#D3D3D3;stroke-width:1.0;" x1="527" x2="655" y1="802.9766" y2="802.9766"/><line style="stroke:#D3D3D3;stroke-width:1.0;" x1="527" x2="655" y1="819.4648" y2="819.4648"/><line style="stroke:#D3D3D3;stroke-width:1.0;" x1="527" x2="527" y1="770" y2="819.4648"/><line style="stroke:#D3D3D3;stroke-width:1.0;" x1="655" x2="655" y1="770" y2="819.4648"/><!--SRC=[ZLJ1ZjCm4BtxAqRX05ImWgkroW4eQAK21VO7t6JQjR2TO3ihAig_OwSTnstTihTeCk_DctdZUP0j0khURq6ZNg5rZ3LAE0VlEzDWx-7PGcuU_2UBQ01_UpIjWuye_63HXHmlf44BVnY0M3blHUCvhBfEeJ3ixmdPdV5erwB1fx5cw1ZGQ4ZEEpLWmYsa-SaOLOSzveFmudxRKwLbo4c0p-Y5xbfKSuMHbEhCpQ3H2YyxKu8bIgdxFT315w7HzQ6ZfUqUmonjWMiXGzT2vPGbXdPklFJRiquEOyaxlm8VdUZwM5Ue8oVAj9c79KzEHtMrz_qMA4NKBrxoO8xpjuT0NP0HpIkPIbr7IZqeBqFPmc8bVVyNzciGIgubjl4tXn_UIhC9STbok6iBqfxK-oNNYhwuaU6a_f6kEBA2CfaUJhatGz5l1pAR4QLXBQtKqij7lFGmQCCdGDUZ3U8l6qIftt6D5as3br_eSx2enXVXE6DqNwfP1QzhgDxStBojw51mWXwdnRnPTNPDUEPC8fvkpNKe5MA55piYPr05OVbjuA3s2G55Uvgbdhqi3kj3YB5ntvEYShOVBPXMEsyWHJcqs4VbNmqxszHCJGR0DADaB4q_99BvL5_X9j27vRgbmo2shwRFUaS_ejKrpM4N0Bi94cv9-ZLTcgEak85rkgqx5eh2llO_]--></g></svg>
